%TF.GenerationSoftware,KiCad,Pcbnew,(6.0.4)*%
%TF.CreationDate,2022-07-27T19:48:40+02:00*%
%TF.ProjectId,65MK,36354d4b-2e6b-4696-9361-645f70636258,rev?*%
%TF.SameCoordinates,Original*%
%TF.FileFunction,Copper,L1,Top*%
%TF.FilePolarity,Positive*%
%FSLAX46Y46*%
G04 Gerber Fmt 4.6, Leading zero omitted, Abs format (unit mm)*
G04 Created by KiCad (PCBNEW (6.0.4)) date 2022-07-27 19:48:40*
%MOMM*%
%LPD*%
G01*
G04 APERTURE LIST*
%TA.AperFunction,ComponentPad*%
%ADD10C,2.500000*%
%TD*%
%TA.AperFunction,ComponentPad*%
%ADD11R,2.000000X2.000000*%
%TD*%
%TA.AperFunction,ComponentPad*%
%ADD12C,2.000000*%
%TD*%
%TA.AperFunction,ComponentPad*%
%ADD13R,3.200000X2.000000*%
%TD*%
%TA.AperFunction,ComponentPad*%
%ADD14R,1.752600X1.752600*%
%TD*%
%TA.AperFunction,ComponentPad*%
%ADD15C,1.752600*%
%TD*%
%TA.AperFunction,ViaPad*%
%ADD16C,0.800000*%
%TD*%
%TA.AperFunction,Conductor*%
%ADD17C,0.250000*%
%TD*%
G04 APERTURE END LIST*
D10*
%TO.P,MX4,1,COL*%
%TO.N,COL3*%
X93027500Y-103028750D03*
%TO.P,MX4,2,ROW*%
%TO.N,Net-(D4-Pad2)*%
X99377500Y-100488750D03*
%TD*%
%TO.P,MX13,1,COL*%
%TO.N,COL12*%
X264477500Y-103028750D03*
%TO.P,MX13,2,ROW*%
%TO.N,Net-(D13-Pad2)*%
X270827500Y-100488750D03*
%TD*%
%TO.P,MX1,1,COL*%
%TO.N,COL0*%
X31115000Y-103028750D03*
%TO.P,MX1,2,ROW*%
%TO.N,Net-(D1-Pad2)*%
X37465000Y-100488750D03*
%TD*%
%TO.P,MX46,1,COL*%
%TO.N,COL11*%
X259715000Y-141128750D03*
%TO.P,MX46,2,ROW*%
%TO.N,Net-(D47-Pad2)*%
X266065000Y-138588750D03*
%TD*%
%TO.P,MX8,1,COL*%
%TO.N,COL7*%
X169227500Y-103028750D03*
%TO.P,MX8,2,ROW*%
%TO.N,Net-(D8-Pad2)*%
X175577500Y-100488750D03*
%TD*%
%TO.P,MX14,1,COL*%
%TO.N,COL13*%
X283527500Y-103028750D03*
%TO.P,MX14,2,ROW*%
%TO.N,Net-(D14-Pad2)*%
X289877500Y-100488750D03*
%TD*%
%TO.P,MX16,1,COL*%
%TO.N,COL15*%
X321627500Y-103028750D03*
%TO.P,MX16,2,ROW*%
%TO.N,Net-(D16-Pad2)*%
X327977500Y-100488750D03*
%TD*%
%TO.P,MX74,1,COL*%
%TO.N,COL16*%
X345440000Y-183991250D03*
%TO.P,MX74,2,ROW*%
%TO.N,Net-(D75-Pad2)*%
X351790000Y-181451250D03*
%TD*%
%TO.P,MX36,1,COL*%
%TO.N,COL1*%
X62071250Y-141128750D03*
%TO.P,MX36,2,ROW*%
%TO.N,Net-(D37-Pad2)*%
X68421250Y-138588750D03*
%TD*%
%TO.P,MX48,1,COL*%
%TO.N,COL13*%
X297815000Y-141128750D03*
%TO.P,MX48,2,ROW*%
%TO.N,Net-(D49-Pad2)*%
X304165000Y-138588750D03*
%TD*%
%TO.P,MX61,1,COL*%
%TO.N,COL11*%
X250190000Y-160178750D03*
%TO.P,MX61,2,ROW*%
%TO.N,Net-(D62-Pad2)*%
X256540000Y-157638750D03*
%TD*%
%TO.P,MX55,1,COL*%
%TO.N,COL5*%
X135890000Y-160178750D03*
%TO.P,MX55,2,ROW*%
%TO.N,Net-(D56-Pad2)*%
X142240000Y-157638750D03*
%TD*%
%TO.P,MX43,1,COL*%
%TO.N,COL8*%
X202565000Y-141128750D03*
%TO.P,MX43,2,ROW*%
%TO.N,Net-(D44-Pad2)*%
X208915000Y-138588750D03*
%TD*%
%TO.P,MX54,1,COL*%
%TO.N,COL4*%
X116840000Y-160178750D03*
%TO.P,MX54,2,ROW*%
%TO.N,Net-(D55-Pad2)*%
X123190000Y-157638750D03*
%TD*%
%TO.P,MX68,1,COL*%
%TO.N,COL1*%
X59690000Y-179228750D03*
%TO.P,MX68,2,ROW*%
%TO.N,Net-(D69-Pad2)*%
X66040000Y-176688750D03*
%TD*%
%TO.P,MX17,1,COL*%
%TO.N,COL16*%
X350202500Y-103028750D03*
%TO.P,MX17,2,ROW*%
%TO.N,Net-(D17-Pad2)*%
X356552500Y-100488750D03*
%TD*%
%TO.P,MX52,1,COL*%
%TO.N,COL2*%
X78740000Y-160178750D03*
%TO.P,MX52,2,ROW*%
%TO.N,Net-(D53-Pad2)*%
X85090000Y-157638750D03*
%TD*%
%TO.P,MX33,1,COL*%
%TO.N,COL16*%
X350202500Y-122078750D03*
%TO.P,MX33,2,ROW*%
%TO.N,Net-(D34-Pad2)*%
X356552500Y-119538750D03*
%TD*%
%TO.P,MX49,1,COL*%
%TO.N,COL16*%
X350202500Y-141128750D03*
%TO.P,MX49,2,ROW*%
%TO.N,Net-(D50-Pad2)*%
X356552500Y-138588750D03*
%TD*%
%TO.P,MX26,1,COL*%
%TO.N,COL8*%
X197802500Y-122078750D03*
%TO.P,MX26,2,ROW*%
%TO.N,Net-(D27-Pad2)*%
X204152500Y-119538750D03*
%TD*%
%TO.P,MX29,1,COL*%
%TO.N,COL11*%
X254952500Y-122078750D03*
%TO.P,MX29,2,ROW*%
%TO.N,Net-(D30-Pad2)*%
X261302500Y-119538750D03*
%TD*%
%TO.P,MX30,1,COL*%
%TO.N,COL12*%
X274002500Y-122078750D03*
%TO.P,MX30,2,ROW*%
%TO.N,Net-(D31-Pad2)*%
X280352500Y-119538750D03*
%TD*%
%TO.P,MX27,1,COL*%
%TO.N,COL9*%
X216852500Y-122078750D03*
%TO.P,MX27,2,ROW*%
%TO.N,Net-(D28-Pad2)*%
X223202500Y-119538750D03*
%TD*%
%TO.P,MX37,1,COL*%
%TO.N,COL2*%
X88265000Y-141128750D03*
%TO.P,MX37,2,ROW*%
%TO.N,Net-(D38-Pad2)*%
X94615000Y-138588750D03*
%TD*%
%TO.P,MX53,1,COL*%
%TO.N,COL3*%
X97790000Y-160178750D03*
%TO.P,MX53,2,ROW*%
%TO.N,Net-(D54-Pad2)*%
X104140000Y-157638750D03*
%TD*%
%TO.P,MX10,1,COL*%
%TO.N,COL9*%
X207327500Y-103028750D03*
%TO.P,MX10,2,ROW*%
%TO.N,Net-(D10-Pad2)*%
X213677500Y-100488750D03*
%TD*%
%TO.P,MX62,1,COL*%
%TO.N,COL12*%
X269240000Y-160178750D03*
%TO.P,MX62,2,ROW*%
%TO.N,Net-(D63-Pad2)*%
X275590000Y-157638750D03*
%TD*%
%TO.P,MX50,1,COL*%
%TO.N,COL0*%
X31115000Y-160178750D03*
%TO.P,MX50,2,ROW*%
%TO.N,Net-(D51-Pad2)*%
X37465000Y-157638750D03*
%TD*%
%TO.P,MX60,1,COL*%
%TO.N,COL10*%
X231140000Y-160178750D03*
%TO.P,MX60,2,ROW*%
%TO.N,Net-(D61-Pad2)*%
X237490000Y-157638750D03*
%TD*%
%TO.P,MX71,1,COL*%
%TO.N,COL12*%
X278765000Y-179228750D03*
%TO.P,MX71,2,ROW*%
%TO.N,Net-(D72-Pad2)*%
X285115000Y-176688750D03*
%TD*%
%TO.P,MX70,1,COL*%
%TO.N,COL11*%
X252571250Y-179228750D03*
%TO.P,MX70,2,ROW*%
%TO.N,Net-(D71-Pad2)*%
X258921250Y-176688750D03*
%TD*%
%TO.P,MX34,1,COL*%
%TO.N,COL14*%
X309721250Y-141128750D03*
X319246250Y-131603750D03*
%TO.P,MX34,2,ROW*%
%TO.N,Net-(D35-Pad2)*%
X325596250Y-129063750D03*
X316071250Y-138588750D03*
%TD*%
%TO.P,MX28,1,COL*%
%TO.N,COL10*%
X235902500Y-122078750D03*
%TO.P,MX28,2,ROW*%
%TO.N,Net-(D29-Pad2)*%
X242252500Y-119538750D03*
%TD*%
%TO.P,MX65,1,COL*%
%TO.N,COL16*%
X350202500Y-160178750D03*
%TO.P,MX65,2,ROW*%
%TO.N,Net-(D66-Pad2)*%
X356552500Y-157638750D03*
%TD*%
%TO.P,MX73,1,COL*%
%TO.N,COL15*%
X326390000Y-183991250D03*
%TO.P,MX73,2,ROW*%
%TO.N,Net-(D74-Pad2)*%
X332740000Y-181451250D03*
%TD*%
%TO.P,MX6,1,COL*%
%TO.N,COL5*%
X131127500Y-103028750D03*
%TO.P,MX6,2,ROW*%
%TO.N,Net-(D6-Pad2)*%
X137477500Y-100488750D03*
%TD*%
%TO.P,MX5,1,COL*%
%TO.N,COL4*%
X112077500Y-103028750D03*
%TO.P,MX5,2,ROW*%
%TO.N,Net-(D5-Pad2)*%
X118427500Y-100488750D03*
%TD*%
%TO.P,MX3,1,COL*%
%TO.N,COL2*%
X73977500Y-103028750D03*
%TO.P,MX3,2,ROW*%
%TO.N,Net-(D3-Pad2)*%
X80327500Y-100488750D03*
%TD*%
%TO.P,MX18,1,COL*%
%TO.N,COL0*%
X31115000Y-122078750D03*
%TO.P,MX18,2,ROW*%
%TO.N,Net-(D19-Pad2)*%
X37465000Y-119538750D03*
%TD*%
%TO.P,MX31,1,COL*%
%TO.N,COL13*%
X293052500Y-122078750D03*
%TO.P,MX31,2,ROW*%
%TO.N,Net-(D32-Pad2)*%
X299402500Y-119538750D03*
%TD*%
%TO.P,MX2,1,COL*%
%TO.N,COL1*%
X54927500Y-103028750D03*
%TO.P,MX2,2,ROW*%
%TO.N,Net-(D2-Pad2)*%
X61277500Y-100488750D03*
%TD*%
%TO.P,MX25,1,COL*%
%TO.N,COL7*%
X178752500Y-122078750D03*
%TO.P,MX25,2,ROW*%
%TO.N,Net-(D26-Pad2)*%
X185102500Y-119538750D03*
%TD*%
%TO.P,MX23,1,COL*%
%TO.N,COL5*%
X140652500Y-122078750D03*
%TO.P,MX23,2,ROW*%
%TO.N,Net-(D24-Pad2)*%
X147002500Y-119538750D03*
%TD*%
%TO.P,MX69,1,COL*%
%TO.N,COL2*%
X85883750Y-179228750D03*
%TO.P,MX69,2,ROW*%
%TO.N,Net-(D70-Pad2)*%
X92233750Y-176688750D03*
%TD*%
%TO.P,MX44,1,COL*%
%TO.N,COL9*%
X221615000Y-141128750D03*
%TO.P,MX44,2,ROW*%
%TO.N,Net-(D45-Pad2)*%
X227965000Y-138588750D03*
%TD*%
%TO.P,MX66,1,COL*%
%TO.N,COL7*%
X169227500Y-183991250D03*
%TO.P,MX66,2,ROW*%
%TO.N,Net-(D67-Pad2)*%
X175577500Y-181451250D03*
%TD*%
%TO.P,MX72,1,COL*%
%TO.N,COL14*%
X307340000Y-183991250D03*
%TO.P,MX72,2,ROW*%
%TO.N,Net-(D73-Pad2)*%
X313690000Y-181451250D03*
%TD*%
%TO.P,MX51,1,COL*%
%TO.N,COL1*%
X66833750Y-160178750D03*
X57308750Y-160178750D03*
%TO.P,MX51,2,ROW*%
%TO.N,Net-(D52-Pad2)*%
X63658750Y-157638750D03*
X73183750Y-157638750D03*
%TD*%
%TO.P,MX64,1,COL*%
%TO.N,COL14*%
X326390000Y-164941250D03*
%TO.P,MX64,2,ROW*%
%TO.N,Net-(D65-Pad2)*%
X332740000Y-162401250D03*
%TD*%
%TO.P,MX39,1,COL*%
%TO.N,COL4*%
X126365000Y-141128750D03*
%TO.P,MX39,2,ROW*%
%TO.N,Net-(D40-Pad2)*%
X132715000Y-138588750D03*
%TD*%
%TO.P,MX47,1,COL*%
%TO.N,COL12*%
X278765000Y-141128750D03*
%TO.P,MX47,2,ROW*%
%TO.N,Net-(D48-Pad2)*%
X285115000Y-138588750D03*
%TD*%
D11*
%TO.P,SW1,A,A*%
%TO.N,ROT1*%
X346512500Y-103068750D03*
D12*
%TO.P,SW1,B,B*%
%TO.N,ROT0*%
X346512500Y-108068750D03*
%TO.P,SW1,C,C*%
%TO.N,GND*%
X346512500Y-105568750D03*
D13*
%TO.P,SW1,MP*%
%TO.N,N/C*%
X354012500Y-99968750D03*
X354012500Y-111168750D03*
D12*
%TO.P,SW1,S1,S1*%
%TO.N,Net-(D17-Pad2)*%
X361012500Y-108068750D03*
%TO.P,SW1,S2,S2*%
%TO.N,COL16*%
X361012500Y-103068750D03*
%TD*%
D10*
%TO.P,MX59,1,COL*%
%TO.N,COL9*%
X212090000Y-160178750D03*
%TO.P,MX59,2,ROW*%
%TO.N,Net-(D60-Pad2)*%
X218440000Y-157638750D03*
%TD*%
%TO.P,MX42,1,COL*%
%TO.N,COL7*%
X183515000Y-141128750D03*
%TO.P,MX42,2,ROW*%
%TO.N,Net-(D43-Pad2)*%
X189865000Y-138588750D03*
%TD*%
%TO.P,MX38,1,COL*%
%TO.N,COL3*%
X107315000Y-141128750D03*
%TO.P,MX38,2,ROW*%
%TO.N,Net-(D39-Pad2)*%
X113665000Y-138588750D03*
%TD*%
%TO.P,MX15,1,COL*%
%TO.N,COL14*%
X302577500Y-103028750D03*
X312102500Y-103028750D03*
%TO.P,MX15,2,ROW*%
%TO.N,Net-(D15-Pad2)*%
X318452500Y-100488750D03*
X308927500Y-100488750D03*
%TD*%
%TO.P,MX41,1,COL*%
%TO.N,COL6*%
X164465000Y-141128750D03*
%TO.P,MX41,2,ROW*%
%TO.N,Net-(D42-Pad2)*%
X170815000Y-138588750D03*
%TD*%
%TO.P,MX24,1,COL*%
%TO.N,COL6*%
X159702500Y-122078750D03*
%TO.P,MX24,2,ROW*%
%TO.N,Net-(D25-Pad2)*%
X166052500Y-119538750D03*
%TD*%
%TO.P,MX12,1,COL*%
%TO.N,COL11*%
X245427500Y-103028750D03*
%TO.P,MX12,2,ROW*%
%TO.N,Net-(D12-Pad2)*%
X251777500Y-100488750D03*
%TD*%
%TO.P,MX63,1,COL*%
%TO.N,COL13*%
X295433750Y-160178750D03*
%TO.P,MX63,2,ROW*%
%TO.N,Net-(D64-Pad2)*%
X301783750Y-157638750D03*
%TD*%
%TO.P,MX11,1,COL*%
%TO.N,COL10*%
X226377500Y-103028750D03*
%TO.P,MX11,2,ROW*%
%TO.N,Net-(D11-Pad2)*%
X232727500Y-100488750D03*
%TD*%
%TO.P,MX58,1,COL*%
%TO.N,COL8*%
X193040000Y-160178750D03*
%TO.P,MX58,2,ROW*%
%TO.N,Net-(D59-Pad2)*%
X199390000Y-157638750D03*
%TD*%
%TO.P,MX45,1,COL*%
%TO.N,COL10*%
X240665000Y-141128750D03*
%TO.P,MX45,2,ROW*%
%TO.N,Net-(D46-Pad2)*%
X247015000Y-138588750D03*
%TD*%
%TO.P,MX35,1,COL*%
%TO.N,COL0*%
X31115000Y-141128750D03*
%TO.P,MX35,2,ROW*%
%TO.N,Net-(D36-Pad2)*%
X37465000Y-138588750D03*
%TD*%
%TO.P,MX19,1,COL*%
%TO.N,COL1*%
X59690000Y-122078750D03*
%TO.P,MX19,2,ROW*%
%TO.N,Net-(D20-Pad2)*%
X66040000Y-119538750D03*
%TD*%
%TO.P,MX32,1,COL*%
%TO.N,COL15*%
X316865000Y-122078750D03*
%TO.P,MX32,2,ROW*%
%TO.N,Net-(D33-Pad2)*%
X323215000Y-119538750D03*
%TD*%
%TO.P,MX40,1,COL*%
%TO.N,COL5*%
X145415000Y-141128750D03*
%TO.P,MX40,2,ROW*%
%TO.N,Net-(D41-Pad2)*%
X151765000Y-138588750D03*
%TD*%
%TO.P,MX9,1,COL*%
%TO.N,COL8*%
X188277500Y-103028750D03*
%TO.P,MX9,2,ROW*%
%TO.N,Net-(D9-Pad2)*%
X194627500Y-100488750D03*
%TD*%
%TO.P,MX7,1,COL*%
%TO.N,COL6*%
X150177500Y-103028750D03*
%TO.P,MX7,2,ROW*%
%TO.N,Net-(D7-Pad2)*%
X156527500Y-100488750D03*
%TD*%
%TO.P,MX21,1,COL*%
%TO.N,COL3*%
X102552500Y-122078750D03*
%TO.P,MX21,2,ROW*%
%TO.N,Net-(D22-Pad2)*%
X108902500Y-119538750D03*
%TD*%
%TO.P,MX22,1,COL*%
%TO.N,COL4*%
X121602500Y-122078750D03*
%TO.P,MX22,2,ROW*%
%TO.N,Net-(D23-Pad2)*%
X127952500Y-119538750D03*
%TD*%
%TO.P,MX57,1,COL*%
%TO.N,COL7*%
X173990000Y-160178750D03*
%TO.P,MX57,2,ROW*%
%TO.N,Net-(D58-Pad2)*%
X180340000Y-157638750D03*
%TD*%
%TO.P,MX20,1,COL*%
%TO.N,COL2*%
X83502500Y-122078750D03*
%TO.P,MX20,2,ROW*%
%TO.N,Net-(D21-Pad2)*%
X89852500Y-119538750D03*
%TD*%
%TO.P,MX67,1,COL*%
%TO.N,COL0*%
X31115000Y-179228750D03*
%TO.P,MX67,2,ROW*%
%TO.N,Net-(D68-Pad2)*%
X37465000Y-176688750D03*
%TD*%
%TO.P,MX56,1,COL*%
%TO.N,COL6*%
X154940000Y-160178750D03*
%TO.P,MX56,2,ROW*%
%TO.N,Net-(D57-Pad2)*%
X161290000Y-157638750D03*
%TD*%
D14*
%TO.P,EC1,1,D3*%
%TO.N,ROW0*%
X42545000Y-100729250D03*
D15*
%TO.P,EC1,2,D2*%
%TO.N,COL16*%
X42545000Y-103269250D03*
%TO.P,EC1,3,GND*%
%TO.N,GND*%
X42545000Y-105809250D03*
%TO.P,EC1,4,GND*%
X42545000Y-108349250D03*
%TO.P,EC1,5,D1*%
%TO.N,ROT1*%
X42545000Y-110889250D03*
%TO.P,EC1,6,D0*%
%TO.N,ROT0*%
X42545000Y-113429250D03*
%TO.P,EC1,7,D4*%
%TO.N,COL15*%
X42545000Y-115969250D03*
%TO.P,EC1,8,D6*%
%TO.N,COL14*%
X42545000Y-118509250D03*
%TO.P,EC1,9,D7*%
%TO.N,COL13*%
X42545000Y-121049250D03*
%TO.P,EC1,10,E6*%
%TO.N,COL12*%
X42545000Y-123589250D03*
%TO.P,EC1,11,B4*%
%TO.N,COL11*%
X42545000Y-126129250D03*
%TO.P,EC1,13,B6*%
%TO.N,COL3*%
X27305000Y-128669250D03*
%TO.P,EC1,14,B2*%
%TO.N,COL4*%
X27305000Y-126129250D03*
%TO.P,EC1,15,B3*%
%TO.N,COL5*%
X27305000Y-123589250D03*
%TO.P,EC1,16,B1*%
%TO.N,COL6*%
X27305000Y-121049250D03*
%TO.P,EC1,17,F7*%
%TO.N,COL7*%
X27305000Y-118509250D03*
%TO.P,EC1,18,F6*%
%TO.N,COL8*%
X27305000Y-115969250D03*
%TO.P,EC1,19,F5*%
%TO.N,COL9*%
X27305000Y-113429250D03*
%TO.P,EC1,20,F4*%
%TO.N,COL10*%
X27305000Y-110889250D03*
%TO.P,EC1,21,VCC*%
%TO.N,VCC*%
X27305000Y-108349250D03*
%TO.P,EC1,22,RST*%
%TO.N,unconnected-(EC1-Pad22)*%
X27305000Y-105809250D03*
%TO.P,EC1,23,GND*%
%TO.N,GND*%
X27305000Y-103269250D03*
%TO.P,EC1,12,B5*%
%TO.N,ROW1*%
X42316400Y-128669250D03*
%TO.P,EC1,24,B0*%
%TO.N,COL0*%
X27305000Y-100729250D03*
%TO.P,EC1,29,F0*%
%TO.N,COL2*%
X29845000Y-128669250D03*
%TO.P,EC1,28,F1*%
%TO.N,COL1*%
X32385000Y-128669250D03*
%TO.P,EC1,27,C7*%
%TO.N,ROW4*%
X34925000Y-128669250D03*
%TO.P,EC1,26,D5*%
%TO.N,ROW2*%
X37465000Y-128669250D03*
%TO.P,EC1,25,B7*%
%TO.N,ROW3*%
X40005000Y-128669250D03*
%TD*%
D16*
%TO.N,COL1*%
X29368750Y-173037500D03*
X30162500Y-134937500D03*
%TO.N,COL14*%
X310356250Y-119062500D03*
%TO.N,COL15*%
X316706250Y-119062500D03*
%TO.N,ROW2*%
X41275000Y-148431250D03*
%TO.N,ROW3*%
X44450000Y-165100000D03*
%TO.N,ROW4*%
X32543750Y-184150000D03*
%TO.N,ROT1*%
X340518750Y-101600000D03*
%TO.N,ROT0*%
X342106250Y-117475000D03*
%TD*%
D17*
%TO.N,COL0*%
X31115000Y-103028750D02*
X28815500Y-100729250D01*
X28815500Y-100729250D02*
X27305000Y-100729250D01*
X31115000Y-103028750D02*
X31115000Y-122078750D01*
X31115000Y-160178750D02*
X31115000Y-179228750D01*
X31115000Y-141128750D02*
X31115000Y-160178750D01*
X31115000Y-122078750D02*
X31115000Y-141128750D01*
%TO.N,COL1*%
X28595479Y-172264229D02*
X29368750Y-173037500D01*
X56369229Y-167105190D02*
X56369229Y-175907979D01*
X57308750Y-166165669D02*
X56369229Y-167105190D01*
X59690000Y-122078750D02*
X59690000Y-138747500D01*
X28595479Y-136504521D02*
X28595479Y-172264229D01*
X62071250Y-141128750D02*
X62071250Y-155416250D01*
X56369229Y-175907979D02*
X59690000Y-179228750D01*
X57308750Y-160178750D02*
X66833750Y-160178750D01*
X30162500Y-134937500D02*
X28595479Y-136504521D01*
X57308750Y-160178750D02*
X57308750Y-166165669D01*
X54927500Y-103028750D02*
X54927500Y-117316250D01*
X59690000Y-138747500D02*
X62071250Y-141128750D01*
X54927500Y-117316250D02*
X59690000Y-122078750D01*
X62071250Y-155416250D02*
X57308750Y-160178750D01*
%TO.N,COL2*%
X78740000Y-172085000D02*
X78740000Y-160178750D01*
X85883750Y-179228750D02*
X78740000Y-172085000D01*
X85883750Y-182265841D02*
X83275080Y-184874511D01*
X78740000Y-148885984D02*
X86497234Y-141128750D01*
X83502500Y-136366250D02*
X83502500Y-122078750D01*
X83275080Y-184874511D02*
X31183670Y-184874511D01*
X86497234Y-141128750D02*
X88265000Y-141128750D01*
X78740000Y-160178750D02*
X78740000Y-148885984D01*
X88265000Y-141128750D02*
X83502500Y-136366250D01*
X31183670Y-184874511D02*
X28145959Y-181836800D01*
X83502500Y-122078750D02*
X73977500Y-112553750D01*
X73977500Y-112553750D02*
X73977500Y-103028750D01*
X85883750Y-179228750D02*
X85883750Y-182265841D01*
X28145959Y-181836800D02*
X28145959Y-130368291D01*
X28145959Y-130368291D02*
X29845000Y-128669250D01*
%TO.N,COL3*%
X102552500Y-122078750D02*
X102552500Y-136366250D01*
X93027500Y-103028750D02*
X93027500Y-112553750D01*
X87312500Y-181768750D02*
X87312500Y-180026696D01*
X87312500Y-180026696D02*
X90659239Y-176679957D01*
X107315000Y-141128750D02*
X107315000Y-150653750D01*
X30997472Y-185324031D02*
X83757219Y-185324031D01*
X27305000Y-128669250D02*
X27305000Y-181631559D01*
X102552500Y-136366250D02*
X107315000Y-141128750D01*
X107315000Y-150653750D02*
X97790000Y-160178750D01*
X83757219Y-185324031D02*
X87312500Y-181768750D01*
X27305000Y-181631559D02*
X30997472Y-185324031D01*
X90659239Y-176679957D02*
X90659239Y-166812420D01*
X90659239Y-166812420D02*
X97292909Y-160178750D01*
X93027500Y-112553750D02*
X102552500Y-122078750D01*
X97292909Y-160178750D02*
X97790000Y-160178750D01*
%TO.N,COL4*%
X112077500Y-112553750D02*
X112077500Y-103028750D01*
X116840000Y-160178750D02*
X115072234Y-160178750D01*
X116840000Y-160178750D02*
X126365000Y-150653750D01*
X115072234Y-160178750D02*
X96023271Y-179227713D01*
X96023271Y-182286320D02*
X92536040Y-185773551D01*
X25400000Y-180362276D02*
X25400000Y-128034250D01*
X126365000Y-150653750D02*
X126365000Y-141128750D01*
X96023271Y-179227713D02*
X96023271Y-182286320D01*
X92536040Y-185773551D02*
X30811275Y-185773551D01*
X121602500Y-122078750D02*
X112077500Y-112553750D01*
X126365000Y-141128750D02*
X121602500Y-136366250D01*
X30811275Y-185773551D02*
X25400000Y-180362276D01*
X25400000Y-128034250D02*
X27305000Y-126129250D01*
X121602500Y-136366250D02*
X121602500Y-122078750D01*
%TO.N,COL5*%
X30625077Y-186223071D02*
X24950480Y-180548473D01*
X130037091Y-160178750D02*
X103992770Y-186223071D01*
X24950480Y-180548473D02*
X24950480Y-125943770D01*
X135890000Y-160178750D02*
X130037091Y-160178750D01*
X103992770Y-186223071D02*
X30625077Y-186223071D01*
X145415000Y-150653750D02*
X135890000Y-160178750D01*
X24950480Y-125943770D02*
X27305000Y-123589250D01*
X140652500Y-136366250D02*
X145415000Y-141128750D01*
X145415000Y-141128750D02*
X145415000Y-150653750D01*
X131127500Y-112553750D02*
X140652500Y-122078750D01*
X140652500Y-122078750D02*
X140652500Y-136366250D01*
X131127500Y-103028750D02*
X131127500Y-112553750D01*
%TO.N,COL6*%
X24500960Y-123853290D02*
X27305000Y-121049250D01*
X24500960Y-180734670D02*
X24500960Y-123853290D01*
X164465000Y-141128750D02*
X159702500Y-136366250D01*
X164465000Y-150653750D02*
X164465000Y-141128750D01*
X154940000Y-160178750D02*
X164465000Y-150653750D01*
X159702500Y-136366250D02*
X159702500Y-122078750D01*
X159702500Y-122078750D02*
X150177500Y-112553750D01*
X30438879Y-186672591D02*
X24500960Y-180734670D01*
X154940000Y-160178750D02*
X149087091Y-160178750D01*
X122593250Y-186672591D02*
X30438879Y-186672591D01*
X150177500Y-112553750D02*
X150177500Y-103028750D01*
X149087091Y-160178750D02*
X122593250Y-186672591D01*
%TO.N,COL7*%
X30252681Y-187122111D02*
X24051440Y-180920867D01*
X178752500Y-122078750D02*
X178752500Y-136366250D01*
X173990000Y-160178750D02*
X173990000Y-179228750D01*
X169227500Y-103028750D02*
X169227500Y-112553750D01*
X169227500Y-112553750D02*
X178752500Y-122078750D01*
X183515000Y-141128750D02*
X183515000Y-150653750D01*
X24051440Y-180920867D02*
X24051440Y-121762810D01*
X167459734Y-183991250D02*
X164328873Y-187122111D01*
X183515000Y-150653750D02*
X173990000Y-160178750D01*
X24051440Y-121762810D02*
X27305000Y-118509250D01*
X178752500Y-136366250D02*
X183515000Y-141128750D01*
X164328873Y-187122111D02*
X30252681Y-187122111D01*
X169227500Y-183991250D02*
X167459734Y-183991250D01*
X173990000Y-179228750D02*
X169227500Y-183991250D01*
%TO.N,COL8*%
X23601920Y-181107064D02*
X23601920Y-119672330D01*
X177806729Y-188905771D02*
X31400627Y-188905771D01*
X31400627Y-188905771D02*
X23601920Y-181107064D01*
X188277500Y-112553750D02*
X188277500Y-103028750D01*
X197802500Y-136366250D02*
X197802500Y-122078750D01*
X202565000Y-150653750D02*
X202565000Y-141128750D01*
X193040000Y-160178750D02*
X202565000Y-150653750D01*
X197802500Y-122078750D02*
X188277500Y-112553750D01*
X23601920Y-119672330D02*
X27305000Y-115969250D01*
X193040000Y-173672500D02*
X177806729Y-188905771D01*
X193040000Y-160178750D02*
X193040000Y-173672500D01*
X202565000Y-141128750D02*
X197802500Y-136366250D01*
%TO.N,COL9*%
X221615000Y-150653750D02*
X212090000Y-160178750D01*
X207327500Y-103028750D02*
X207327500Y-112553750D01*
X212090000Y-160178750D02*
X210322234Y-160178750D01*
X23152400Y-181293261D02*
X23152400Y-117581850D01*
X216852500Y-136366250D02*
X221615000Y-141128750D01*
X210322234Y-160178750D02*
X181145693Y-189355291D01*
X23152400Y-117581850D02*
X27305000Y-113429250D01*
X221615000Y-141128750D02*
X221615000Y-150653750D01*
X31214429Y-189355291D02*
X23152400Y-181293261D01*
X207327500Y-112553750D02*
X216852500Y-122078750D01*
X216852500Y-122078750D02*
X216852500Y-136366250D01*
X181145693Y-189355291D02*
X31214429Y-189355291D01*
%TO.N,COL10*%
X22702880Y-115491370D02*
X27305000Y-110889250D01*
X204551030Y-189804811D02*
X31028231Y-189804811D01*
X231140000Y-160178750D02*
X240665000Y-150653750D01*
X240665000Y-150653750D02*
X240665000Y-141128750D01*
X22702880Y-181479458D02*
X22702880Y-115491370D01*
X235902500Y-122078750D02*
X226377500Y-112553750D01*
X231140000Y-160178750D02*
X231140000Y-163215841D01*
X240665000Y-141128750D02*
X235902500Y-136366250D01*
X235902500Y-136366250D02*
X235902500Y-122078750D01*
X231140000Y-163215841D02*
X204551030Y-189804811D01*
X31028231Y-189804811D02*
X22702880Y-181479458D01*
X226377500Y-112553750D02*
X226377500Y-103028750D01*
%TO.N,COL11*%
X245427500Y-103028750D02*
X245427500Y-112553750D01*
X250190000Y-160178750D02*
X250190000Y-176847500D01*
X259715000Y-150653750D02*
X250190000Y-160178750D01*
X254952500Y-136366250D02*
X259715000Y-141128750D01*
X250190000Y-176847500D02*
X252571250Y-179228750D01*
X259715000Y-141128750D02*
X259715000Y-150653750D01*
X245427500Y-112553750D02*
X254952500Y-122078750D01*
X254952500Y-122078750D02*
X254952500Y-136366250D01*
%TO.N,COL12*%
X274002500Y-122078750D02*
X264477500Y-112553750D01*
X274002500Y-136366250D02*
X274002500Y-122078750D01*
X269240000Y-160178750D02*
X278765000Y-150653750D01*
X278765000Y-141128750D02*
X274002500Y-136366250D01*
X278765000Y-179228750D02*
X269240000Y-169703750D01*
X264477500Y-112553750D02*
X264477500Y-103028750D01*
X278765000Y-150653750D02*
X278765000Y-141128750D01*
X269240000Y-169703750D02*
X269240000Y-160178750D01*
%TO.N,COL13*%
X297815000Y-157797500D02*
X295433750Y-160178750D01*
X293052500Y-136366250D02*
X297815000Y-141128750D01*
X283527500Y-103028750D02*
X283527500Y-112553750D01*
X293052500Y-122078750D02*
X293052500Y-136366250D01*
X283527500Y-112553750D02*
X293052500Y-122078750D01*
X297815000Y-141128750D02*
X297815000Y-157797500D01*
%TO.N,COL14*%
X326390000Y-164941250D02*
X309721250Y-148272500D01*
X307340000Y-182223484D02*
X324622234Y-164941250D01*
X309721250Y-139360984D02*
X317478484Y-131603750D01*
X324622234Y-164941250D02*
X326390000Y-164941250D01*
X317478484Y-131603750D02*
X319246250Y-131603750D01*
X319246250Y-131603750D02*
X312717021Y-125074521D01*
X309721250Y-141128750D02*
X309721250Y-139360984D01*
X302577500Y-103028750D02*
X312102500Y-103028750D01*
X312717021Y-116701729D02*
X312717021Y-117495479D01*
X312717021Y-117495479D02*
X312717021Y-103643271D01*
X309721250Y-148272500D02*
X309721250Y-141128750D01*
X312717021Y-103643271D02*
X312102500Y-103028750D01*
X307340000Y-183991250D02*
X307340000Y-182223484D01*
X310356250Y-119062500D02*
X312717021Y-116701729D01*
X312717021Y-125074521D02*
X312717021Y-117495479D01*
%TO.N,COL15*%
X321493081Y-122078750D02*
X324505479Y-125091148D01*
X316865000Y-122078750D02*
X318632766Y-122078750D01*
X321627500Y-103028750D02*
X322877499Y-104278749D01*
X322877499Y-115708749D02*
X322877499Y-116066251D01*
X328612500Y-145256250D02*
X328612500Y-165710669D01*
X326390000Y-168116250D02*
X326390000Y-183991250D01*
X324505479Y-125274229D02*
X329385771Y-130154521D01*
X322877499Y-104278749D02*
X322877499Y-115708749D01*
X327825479Y-166497690D02*
X327825479Y-166680771D01*
X324505479Y-125091148D02*
X324505479Y-125274229D01*
X319881250Y-119062500D02*
X316706250Y-119062500D01*
X322877499Y-116066251D02*
X316865000Y-122078750D01*
X329385771Y-130154521D02*
X329385771Y-144482979D01*
X318632766Y-122078750D02*
X321493081Y-122078750D01*
X329385771Y-144482979D02*
X328612500Y-145256250D01*
X328612500Y-165710669D02*
X327825479Y-166497690D01*
X327825479Y-166680771D02*
X326390000Y-168116250D01*
%TO.N,COL16*%
X350202500Y-141128750D02*
X350202500Y-160178750D01*
X350202500Y-160178750D02*
X350202500Y-179228750D01*
X350202500Y-103028750D02*
X350202500Y-122078750D01*
X350202500Y-179228750D02*
X345440000Y-183991250D01*
X350242500Y-103068750D02*
X350202500Y-103028750D01*
X361012500Y-103068750D02*
X350242500Y-103068750D01*
X350202500Y-122078750D02*
X350202500Y-141128750D01*
%TO.N,Net-(D19-Pad2)*%
X38100000Y-120173750D02*
X37465000Y-119538750D01*
%TO.N,ROW2*%
X37465000Y-130969468D02*
X37465000Y-128669250D01*
X41275000Y-148431250D02*
X41275000Y-134779468D01*
X41275000Y-134779468D02*
X37465000Y-130969468D01*
%TO.N,ROW3*%
X44450000Y-137318750D02*
X40005000Y-132873750D01*
X44450000Y-165100000D02*
X44450000Y-137318750D01*
X40005000Y-132873750D02*
X40005000Y-128669250D01*
%TO.N,ROW4*%
X32550479Y-144652310D02*
X32550479Y-141919967D01*
X34925000Y-139545446D02*
X34925000Y-128669250D01*
X32550479Y-141919967D02*
X34925000Y-139545446D01*
X32689511Y-163658261D02*
X32543750Y-163512500D01*
X32543750Y-161131250D02*
X33337500Y-160337500D01*
X32550479Y-184143271D02*
X32550479Y-180174521D01*
X32543750Y-163512500D02*
X32543750Y-161131250D01*
X33337500Y-145439331D02*
X32550479Y-144652310D01*
X32689511Y-180035489D02*
X32689511Y-163658261D01*
X33337500Y-160337500D02*
X33337500Y-145439331D01*
X32543750Y-184150000D02*
X32550479Y-184143271D01*
X32550479Y-180174521D02*
X32689511Y-180035489D01*
%TO.N,ROT1*%
X340518750Y-101600000D02*
X335412020Y-96493270D01*
X56940980Y-96493270D02*
X42545000Y-110889250D01*
X335412020Y-96493270D02*
X56940980Y-96493270D01*
%TO.N,ROT0*%
X342106250Y-117475000D02*
X346512500Y-113068750D01*
X346512500Y-113068750D02*
X346512500Y-108068750D01*
%TO.N,GND*%
X52310500Y-96043750D02*
X336987500Y-96043750D01*
X336987500Y-96043750D02*
X346512500Y-105568750D01*
X42545000Y-105809250D02*
X52310500Y-96043750D01*
%TD*%
M02*
