%TF.GenerationSoftware,KiCad,Pcbnew,(6.0.4)*%
%TF.CreationDate,2022-11-05T13:10:03+01:00*%
%TF.ProjectId,65MK,36354d4b-2e6b-4696-9361-645f70636258,rev?*%
%TF.SameCoordinates,Original*%
%TF.FileFunction,Soldermask,Bot*%
%TF.FilePolarity,Negative*%
%FSLAX46Y46*%
G04 Gerber Fmt 4.6, Leading zero omitted, Abs format (unit mm)*
G04 Created by KiCad (PCBNEW (6.0.4)) date 2022-11-05 13:10:03*
%MOMM*%
%LPD*%
G01*
G04 APERTURE LIST*
%ADD10C,1.750000*%
%ADD11C,4.000000*%
%ADD12C,2.500000*%
%ADD13C,3.048000*%
%ADD14C,3.987800*%
%ADD15C,3.050000*%
%ADD16R,2.000000X2.000000*%
%ADD17C,2.000000*%
%ADD18R,3.200000X2.000000*%
%ADD19R,1.200000X0.900000*%
%ADD20R,0.900000X1.200000*%
%ADD21R,3.250000X2.000000*%
%ADD22R,1.752600X1.752600*%
%ADD23C,1.752600*%
%ADD24R,2.000000X3.250000*%
G04 APERTURE END LIST*
D10*
%TO.C,MX13*%
X281599936Y-105568750D03*
D11*
X286679936Y-105568750D03*
D10*
X291759936Y-105568750D03*
D12*
X282869936Y-103028750D03*
X289219936Y-100488750D03*
%TD*%
D10*
%TO.C,MX1*%
X48237436Y-105568750D03*
D11*
X53317436Y-105568750D03*
D10*
X58397436Y-105568750D03*
D12*
X49507436Y-103028750D03*
X55857436Y-100488750D03*
%TD*%
D10*
%TO.C,MX46*%
X286997436Y-143668750D03*
X276837436Y-143668750D03*
D11*
X281917436Y-143668750D03*
D12*
X278107436Y-141128750D03*
X284457436Y-138588750D03*
%TD*%
D10*
%TO.C,MX8*%
X196509936Y-105568750D03*
D11*
X191429936Y-105568750D03*
D10*
X186349936Y-105568750D03*
D12*
X187619936Y-103028750D03*
X193969936Y-100488750D03*
%TD*%
D10*
%TO.C,MX14*%
X310809936Y-105568750D03*
D11*
X305729936Y-105568750D03*
D10*
X300649936Y-105568750D03*
D12*
X301919936Y-103028750D03*
X308269936Y-100488750D03*
%TD*%
D10*
%TO.C,MX16*%
X338749936Y-105568750D03*
D11*
X343829936Y-105568750D03*
D10*
X348909936Y-105568750D03*
D12*
X340019936Y-103028750D03*
X346369936Y-100488750D03*
%TD*%
D10*
%TO.C,MX74*%
X372722436Y-186531250D03*
X362562436Y-186531250D03*
D11*
X367642436Y-186531250D03*
D12*
X363832436Y-183991250D03*
X370182436Y-181451250D03*
%TD*%
D11*
%TO.C,MX36*%
X84273686Y-143668750D03*
D10*
X79193686Y-143668750D03*
X89353686Y-143668750D03*
D12*
X80463686Y-141128750D03*
X86813686Y-138588750D03*
%TD*%
D10*
%TO.C,MX48*%
X314937436Y-143668750D03*
X325097436Y-143668750D03*
D11*
X320017436Y-143668750D03*
D12*
X316207436Y-141128750D03*
X322557436Y-138588750D03*
%TD*%
D10*
%TO.C,MX61*%
X277472436Y-162718750D03*
D11*
X272392436Y-162718750D03*
D10*
X267312436Y-162718750D03*
D12*
X268582436Y-160178750D03*
X274932436Y-157638750D03*
%TD*%
D10*
%TO.C,MX55*%
X153012436Y-162718750D03*
D11*
X158092436Y-162718750D03*
D10*
X163172436Y-162718750D03*
D12*
X154282436Y-160178750D03*
X160632436Y-157638750D03*
%TD*%
D10*
%TO.C,MX43*%
X219687436Y-143668750D03*
D11*
X224767436Y-143668750D03*
D10*
X229847436Y-143668750D03*
D12*
X220957436Y-141128750D03*
X227307436Y-138588750D03*
%TD*%
D10*
%TO.C,MX54*%
X133962436Y-162718750D03*
X144122436Y-162718750D03*
D11*
X139042436Y-162718750D03*
D12*
X135232436Y-160178750D03*
X141582436Y-157638750D03*
%TD*%
D10*
%TO.C,MX68*%
X86972436Y-181768750D03*
D11*
X81892436Y-181768750D03*
D10*
X76812436Y-181768750D03*
D12*
X78082436Y-179228750D03*
X84432436Y-176688750D03*
%TD*%
D11*
%TO.C,MX17*%
X372404936Y-105568750D03*
D10*
X367324936Y-105568750D03*
X377484936Y-105568750D03*
D12*
X368594936Y-103028750D03*
X374944936Y-100488750D03*
%TD*%
D10*
%TO.C,MX52*%
X95862436Y-162718750D03*
D11*
X100942436Y-162718750D03*
D10*
X106022436Y-162718750D03*
D12*
X97132436Y-160178750D03*
X103482436Y-157638750D03*
%TD*%
D10*
%TO.C,MX33*%
X367324936Y-124618750D03*
D11*
X372404936Y-124618750D03*
D10*
X377484936Y-124618750D03*
D12*
X368594936Y-122078750D03*
X374944936Y-119538750D03*
%TD*%
D11*
%TO.C,MX49*%
X372404936Y-143668750D03*
D10*
X377484936Y-143668750D03*
X367324936Y-143668750D03*
D12*
X368594936Y-141128750D03*
X374944936Y-138588750D03*
%TD*%
D10*
%TO.C,MX26*%
X214924936Y-124618750D03*
X225084936Y-124618750D03*
D11*
X220004936Y-124618750D03*
D12*
X216194936Y-122078750D03*
X222544936Y-119538750D03*
%TD*%
D11*
%TO.C,MX29*%
X277154936Y-124618750D03*
D10*
X272074936Y-124618750D03*
X282234936Y-124618750D03*
D12*
X273344936Y-122078750D03*
X279694936Y-119538750D03*
%TD*%
D10*
%TO.C,MX30*%
X301284936Y-124618750D03*
X291124936Y-124618750D03*
D11*
X296204936Y-124618750D03*
D12*
X292394936Y-122078750D03*
X298744936Y-119538750D03*
%TD*%
D11*
%TO.C,MX27*%
X239054936Y-124618750D03*
D10*
X233974936Y-124618750D03*
X244134936Y-124618750D03*
D12*
X235244936Y-122078750D03*
X241594936Y-119538750D03*
%TD*%
D10*
%TO.C,MX37*%
X105387436Y-143668750D03*
D11*
X110467436Y-143668750D03*
D10*
X115547436Y-143668750D03*
D12*
X106657436Y-141128750D03*
X113007436Y-138588750D03*
%TD*%
D10*
%TO.C,MX53*%
X125072436Y-162718750D03*
X114912436Y-162718750D03*
D11*
X119992436Y-162718750D03*
D12*
X116182436Y-160178750D03*
X122532436Y-157638750D03*
%TD*%
D10*
%TO.C,MX10*%
X224449936Y-105568750D03*
X234609936Y-105568750D03*
D11*
X229529936Y-105568750D03*
D12*
X225719936Y-103028750D03*
X232069936Y-100488750D03*
%TD*%
D10*
%TO.C,MX62*%
X296522436Y-162718750D03*
D11*
X291442436Y-162718750D03*
D10*
X286362436Y-162718750D03*
D12*
X287632436Y-160178750D03*
X293982436Y-157638750D03*
%TD*%
D10*
%TO.C,MX50*%
X48237436Y-162718750D03*
X58397436Y-162718750D03*
D11*
X53317436Y-162718750D03*
D12*
X49507436Y-160178750D03*
X55857436Y-157638750D03*
%TD*%
D10*
%TO.C,MX60*%
X248262436Y-162718750D03*
D11*
X253342436Y-162718750D03*
D10*
X258422436Y-162718750D03*
D12*
X249532436Y-160178750D03*
X255882436Y-157638750D03*
%TD*%
D10*
%TO.C,MX71*%
X306047436Y-181768750D03*
X295887436Y-181768750D03*
D11*
X300967436Y-181768750D03*
D12*
X297157436Y-179228750D03*
X303507436Y-176688750D03*
%TD*%
D10*
%TO.C,MX70*%
X269693686Y-181768750D03*
D11*
X274773686Y-181768750D03*
D10*
X279853686Y-181768750D03*
D12*
X270963686Y-179228750D03*
X277313686Y-176688750D03*
%TD*%
D10*
%TO.C,MX34*%
X337003686Y-143668750D03*
D11*
X331923686Y-143668750D03*
D13*
X334463686Y-146081750D03*
D11*
X320023686Y-151908750D03*
D14*
X349703686Y-122205750D03*
X349703686Y-146081750D03*
D10*
X326843686Y-143668750D03*
D13*
X334463686Y-122205750D03*
D14*
X341448686Y-134143750D03*
D10*
X346528686Y-134143750D03*
X336368686Y-134143750D03*
D11*
X343823686Y-151908750D03*
D15*
X343823686Y-136668750D03*
X320023686Y-136668750D03*
D12*
X337638686Y-131603750D03*
X328113686Y-141128750D03*
X334463686Y-138588750D03*
X343988686Y-129063750D03*
%TD*%
D11*
%TO.C,MX28*%
X258104936Y-124618750D03*
D10*
X253024936Y-124618750D03*
X263184936Y-124618750D03*
D12*
X254294936Y-122078750D03*
X260644936Y-119538750D03*
%TD*%
D11*
%TO.C,MX65*%
X372404936Y-162718750D03*
D10*
X367324936Y-162718750D03*
X377484936Y-162718750D03*
D12*
X368594936Y-160178750D03*
X374944936Y-157638750D03*
%TD*%
D10*
%TO.C,MX73*%
X353672436Y-186531250D03*
D11*
X348592436Y-186531250D03*
D10*
X343512436Y-186531250D03*
D12*
X344782436Y-183991250D03*
X351132436Y-181451250D03*
%TD*%
D10*
%TO.C,MX6*%
X158409936Y-105568750D03*
X148249936Y-105568750D03*
D11*
X153329936Y-105568750D03*
D12*
X149519936Y-103028750D03*
X155869936Y-100488750D03*
%TD*%
D10*
%TO.C,MX5*%
X139359936Y-105568750D03*
X129199936Y-105568750D03*
D11*
X134279936Y-105568750D03*
D12*
X130469936Y-103028750D03*
X136819936Y-100488750D03*
%TD*%
D10*
%TO.C,MX3*%
X101259936Y-105568750D03*
D11*
X96179936Y-105568750D03*
D10*
X91099936Y-105568750D03*
D12*
X92369936Y-103028750D03*
X98719936Y-100488750D03*
%TD*%
D10*
%TO.C,MX18*%
X58397436Y-124618750D03*
X48237436Y-124618750D03*
D11*
X53317436Y-124618750D03*
D12*
X49507436Y-122078750D03*
X55857436Y-119538750D03*
%TD*%
D11*
%TO.C,MX31*%
X315254936Y-124618750D03*
D10*
X310174936Y-124618750D03*
X320334936Y-124618750D03*
D12*
X311444936Y-122078750D03*
X317794936Y-119538750D03*
%TD*%
D10*
%TO.C,MX2*%
X72049936Y-105568750D03*
X82209936Y-105568750D03*
D11*
X77129936Y-105568750D03*
D12*
X73319936Y-103028750D03*
X79669936Y-100488750D03*
%TD*%
D11*
%TO.C,MX25*%
X200954936Y-124618750D03*
D10*
X206034936Y-124618750D03*
X195874936Y-124618750D03*
D12*
X197144936Y-122078750D03*
X203494936Y-119538750D03*
%TD*%
D10*
%TO.C,MX23*%
X157774936Y-124618750D03*
D11*
X162854936Y-124618750D03*
D10*
X167934936Y-124618750D03*
D12*
X159044936Y-122078750D03*
X165394936Y-119538750D03*
%TD*%
D10*
%TO.C,MX69*%
X113166186Y-181768750D03*
X103006186Y-181768750D03*
D11*
X108086186Y-181768750D03*
D12*
X104276186Y-179228750D03*
X110626186Y-176688750D03*
%TD*%
D11*
%TO.C,MX44*%
X243817436Y-143668750D03*
D10*
X238737436Y-143668750D03*
X248897436Y-143668750D03*
D12*
X240007436Y-141128750D03*
X246357436Y-138588750D03*
%TD*%
D13*
%TO.C,MX66*%
X134279936Y-179546250D03*
D10*
X186349936Y-186531250D03*
D14*
X134279936Y-194786250D03*
D10*
X196509936Y-186531250D03*
D13*
X248579936Y-179546250D03*
D14*
X248579936Y-194786250D03*
D11*
X191429936Y-186531250D03*
D12*
X187619936Y-183991250D03*
X193969936Y-181451250D03*
%TD*%
D10*
%TO.C,MX72*%
X324462436Y-186531250D03*
X334622436Y-186531250D03*
D11*
X329542436Y-186531250D03*
D12*
X325732436Y-183991250D03*
X332082436Y-181451250D03*
%TD*%
D11*
%TO.C,MX51*%
X77136186Y-170958750D03*
D10*
X83956186Y-162718750D03*
X84591186Y-162718750D03*
D15*
X77136186Y-155718750D03*
D10*
X74431186Y-162718750D03*
D11*
X89036186Y-162718750D03*
D10*
X94116186Y-162718750D03*
D15*
X100936186Y-155718750D03*
D11*
X79511186Y-162718750D03*
X100936186Y-170958750D03*
D12*
X85226186Y-160178750D03*
X75701186Y-160178750D03*
X91576186Y-157638750D03*
X82051186Y-157638750D03*
%TD*%
D11*
%TO.C,MX64*%
X348592436Y-167481250D03*
D10*
X343512436Y-167481250D03*
X353672436Y-167481250D03*
D12*
X344782436Y-164941250D03*
X351132436Y-162401250D03*
%TD*%
D10*
%TO.C,MX39*%
X143487436Y-143668750D03*
D11*
X148567436Y-143668750D03*
D10*
X153647436Y-143668750D03*
D12*
X144757436Y-141128750D03*
X151107436Y-138588750D03*
%TD*%
D10*
%TO.C,MX47*%
X306047436Y-143668750D03*
X295887436Y-143668750D03*
D11*
X300967436Y-143668750D03*
D12*
X297157436Y-141128750D03*
X303507436Y-138588750D03*
%TD*%
D16*
%TO.C,SW1*%
X364904936Y-103068750D03*
D17*
X364904936Y-108068750D03*
X364904936Y-105568750D03*
D18*
X372404936Y-99968750D03*
X372404936Y-111168750D03*
D17*
X379404936Y-108068750D03*
X379404936Y-103068750D03*
%TD*%
D11*
%TO.C,MX59*%
X234292436Y-162718750D03*
D10*
X239372436Y-162718750D03*
X229212436Y-162718750D03*
D12*
X230482436Y-160178750D03*
X236832436Y-157638750D03*
%TD*%
D11*
%TO.C,MX4*%
X115229936Y-105568750D03*
D10*
X110149936Y-105568750D03*
X120309936Y-105568750D03*
D12*
X111419936Y-103028750D03*
X117769936Y-100488750D03*
%TD*%
D10*
%TO.C,MX42*%
X200637436Y-143668750D03*
X210797436Y-143668750D03*
D11*
X205717436Y-143668750D03*
D12*
X201907436Y-141128750D03*
X208257436Y-138588750D03*
%TD*%
D10*
%TO.C,MX38*%
X134597436Y-143668750D03*
D11*
X129517436Y-143668750D03*
D10*
X124437436Y-143668750D03*
D12*
X125707436Y-141128750D03*
X132057436Y-138588750D03*
%TD*%
D10*
%TO.C,MX15*%
X319699936Y-105568750D03*
D13*
X346242936Y-98517611D03*
D10*
X329224936Y-105568750D03*
D11*
X324779936Y-105568750D03*
D14*
X322366936Y-113757611D03*
D10*
X339384936Y-105568750D03*
X329859936Y-105568750D03*
D14*
X346242936Y-113757611D03*
D11*
X334304936Y-105568750D03*
D13*
X322366936Y-98517611D03*
D12*
X330494936Y-103028750D03*
X320969936Y-103028750D03*
X327319936Y-100488750D03*
X336844936Y-100488750D03*
%TD*%
D10*
%TO.C,MX41*%
X181587436Y-143668750D03*
D11*
X186667436Y-143668750D03*
D10*
X191747436Y-143668750D03*
D12*
X182857436Y-141128750D03*
X189207436Y-138588750D03*
%TD*%
D11*
%TO.C,MX24*%
X181904936Y-124618750D03*
D10*
X176824936Y-124618750D03*
X186984936Y-124618750D03*
D12*
X178094936Y-122078750D03*
X184444936Y-119538750D03*
%TD*%
D10*
%TO.C,MX12*%
X262549936Y-105568750D03*
X272709936Y-105568750D03*
D11*
X267629936Y-105568750D03*
D12*
X263819936Y-103028750D03*
X270169936Y-100488750D03*
%TD*%
D11*
%TO.C,MX63*%
X317636186Y-162718750D03*
D10*
X322716186Y-162718750D03*
X312556186Y-162718750D03*
D12*
X313826186Y-160178750D03*
X320176186Y-157638750D03*
%TD*%
D10*
%TO.C,MX11*%
X243499936Y-105568750D03*
D11*
X248579936Y-105568750D03*
D10*
X253659936Y-105568750D03*
D12*
X244769936Y-103028750D03*
X251119936Y-100488750D03*
%TD*%
D10*
%TO.C,MX58*%
X210162436Y-162718750D03*
D11*
X215242436Y-162718750D03*
D10*
X220322436Y-162718750D03*
D12*
X211432436Y-160178750D03*
X217782436Y-157638750D03*
%TD*%
D10*
%TO.C,MX45*%
X267947436Y-143668750D03*
X257787436Y-143668750D03*
D11*
X262867436Y-143668750D03*
D12*
X259057436Y-141128750D03*
X265407436Y-138588750D03*
%TD*%
D10*
%TO.C,MX35*%
X58397436Y-143668750D03*
X48237436Y-143668750D03*
D11*
X53317436Y-143668750D03*
D12*
X49507436Y-141128750D03*
X55857436Y-138588750D03*
%TD*%
D10*
%TO.C,MX19*%
X76812436Y-124618750D03*
X86972436Y-124618750D03*
D11*
X81892436Y-124618750D03*
D12*
X78082436Y-122078750D03*
X84432436Y-119538750D03*
%TD*%
D10*
%TO.C,MX32*%
X344147436Y-124618750D03*
X333987436Y-124618750D03*
D11*
X339067436Y-124618750D03*
D12*
X335257436Y-122078750D03*
X341607436Y-119538750D03*
%TD*%
D10*
%TO.C,MX40*%
X162537436Y-143668750D03*
D11*
X167617436Y-143668750D03*
D10*
X172697436Y-143668750D03*
D12*
X163807436Y-141128750D03*
X170157436Y-138588750D03*
%TD*%
D10*
%TO.C,MX9*%
X205399936Y-105568750D03*
X215559936Y-105568750D03*
D11*
X210479936Y-105568750D03*
D12*
X206669936Y-103028750D03*
X213019936Y-100488750D03*
%TD*%
D10*
%TO.C,MX7*%
X177459936Y-105568750D03*
D11*
X172379936Y-105568750D03*
D10*
X167299936Y-105568750D03*
D12*
X168569936Y-103028750D03*
X174919936Y-100488750D03*
%TD*%
D10*
%TO.C,MX21*%
X119674936Y-124618750D03*
X129834936Y-124618750D03*
D11*
X124754936Y-124618750D03*
D12*
X120944936Y-122078750D03*
X127294936Y-119538750D03*
%TD*%
D10*
%TO.C,MX22*%
X148884936Y-124618750D03*
D11*
X143804936Y-124618750D03*
D10*
X138724936Y-124618750D03*
D12*
X139994936Y-122078750D03*
X146344936Y-119538750D03*
%TD*%
D11*
%TO.C,MX57*%
X196192436Y-162718750D03*
D10*
X201272436Y-162718750D03*
X191112436Y-162718750D03*
D12*
X192382436Y-160178750D03*
X198732436Y-157638750D03*
%TD*%
D10*
%TO.C,MX20*%
X100624936Y-124618750D03*
D11*
X105704936Y-124618750D03*
D10*
X110784936Y-124618750D03*
D12*
X101894936Y-122078750D03*
X108244936Y-119538750D03*
%TD*%
D11*
%TO.C,MX67*%
X53317436Y-181768750D03*
D10*
X58397436Y-181768750D03*
X48237436Y-181768750D03*
D12*
X49507436Y-179228750D03*
X55857436Y-176688750D03*
%TD*%
D11*
%TO.C,MX56*%
X177142436Y-162718750D03*
D10*
X182222436Y-162718750D03*
X172062436Y-162718750D03*
D12*
X173332436Y-160178750D03*
X179682436Y-157638750D03*
%TD*%
D19*
%TO.C,D62*%
X275567436Y-169131250D03*
X275567436Y-165831250D03*
%TD*%
%TO.C,D58*%
X199367436Y-169131250D03*
X199367436Y-165831250D03*
%TD*%
%TO.C,D69*%
X85067436Y-188181250D03*
X85067436Y-184881250D03*
%TD*%
%TO.C,D57*%
X180317436Y-169131250D03*
X180317436Y-165831250D03*
%TD*%
%TO.C,D14*%
X308904936Y-111981250D03*
X308904936Y-108681250D03*
%TD*%
%TO.C,D74*%
X351767436Y-192943750D03*
X351767436Y-189643750D03*
%TD*%
%TO.C,D39*%
X132692436Y-150081250D03*
X132692436Y-146781250D03*
%TD*%
%TO.C,D7*%
X175554936Y-111981250D03*
X175554936Y-108681250D03*
%TD*%
%TO.C,D5*%
X137454936Y-111981250D03*
X137454936Y-108681250D03*
%TD*%
%TO.C,D21*%
X108879936Y-131031250D03*
X108879936Y-127731250D03*
%TD*%
%TO.C,D44*%
X227942436Y-150081250D03*
X227942436Y-146781250D03*
%TD*%
%TO.C,D11*%
X251754936Y-111981250D03*
X251754936Y-108681250D03*
%TD*%
%TO.C,D22*%
X127929936Y-131031250D03*
X127929936Y-127731250D03*
%TD*%
%TO.C,D19*%
X56492436Y-125537500D03*
X56492436Y-122237500D03*
%TD*%
%TO.C,D46*%
X266042436Y-150081250D03*
X266042436Y-146781250D03*
%TD*%
%TO.C,D73*%
X332717436Y-192943750D03*
X332717436Y-189643750D03*
%TD*%
%TO.C,D38*%
X113642436Y-150081250D03*
X113642436Y-146781250D03*
%TD*%
%TO.C,D55*%
X142217436Y-169131250D03*
X142217436Y-165831250D03*
%TD*%
%TO.C,D71*%
X277948686Y-188181250D03*
X277948686Y-184881250D03*
%TD*%
%TO.C,D36*%
X56492436Y-150081250D03*
X56492436Y-146781250D03*
%TD*%
%TO.C,D43*%
X208892436Y-150081250D03*
X208892436Y-146781250D03*
%TD*%
%TO.C,D66*%
X375579936Y-169131250D03*
X375579936Y-165831250D03*
%TD*%
%TO.C,D52*%
X92211186Y-169131250D03*
X92211186Y-165831250D03*
%TD*%
%TO.C,D48*%
X304142436Y-150081250D03*
X304142436Y-146781250D03*
%TD*%
%TO.C,D6*%
X156504936Y-111981250D03*
X156504936Y-108681250D03*
%TD*%
%TO.C,D53*%
X104117436Y-169131250D03*
X104117436Y-165831250D03*
%TD*%
%TO.C,D61*%
X256517436Y-169131250D03*
X256517436Y-165831250D03*
%TD*%
%TO.C,D24*%
X166029936Y-131031250D03*
X166029936Y-127731250D03*
%TD*%
%TO.C,D31*%
X299379936Y-131031250D03*
X299379936Y-127731250D03*
%TD*%
%TO.C,D20*%
X85067436Y-131031250D03*
X85067436Y-127731250D03*
%TD*%
%TO.C,D26*%
X204129936Y-131031250D03*
X204129936Y-127731250D03*
%TD*%
%TO.C,D3*%
X99354936Y-111981250D03*
X99354936Y-108681250D03*
%TD*%
%TO.C,D12*%
X270804936Y-111981250D03*
X270804936Y-108681250D03*
%TD*%
%TO.C,D45*%
X246992436Y-150081250D03*
X246992436Y-146781250D03*
%TD*%
%TO.C,D72*%
X304142436Y-188181250D03*
X304142436Y-184881250D03*
%TD*%
%TO.C,D2*%
X80304936Y-111981250D03*
X80304936Y-108681250D03*
%TD*%
%TO.C,D42*%
X189842436Y-150081250D03*
X189842436Y-146781250D03*
%TD*%
%TO.C,D15*%
X327954936Y-111981250D03*
X327954936Y-108681250D03*
%TD*%
%TO.C,D41*%
X170792436Y-150081250D03*
X170792436Y-146781250D03*
%TD*%
%TO.C,D4*%
X118404936Y-111981250D03*
X118404936Y-108681250D03*
%TD*%
%TO.C,D28*%
X242229936Y-131031250D03*
X242229936Y-127731250D03*
%TD*%
%TO.C,D33*%
X350179936Y-131031250D03*
X350179936Y-127731250D03*
%TD*%
%TO.C,D64*%
X320811186Y-169131250D03*
X320811186Y-165831250D03*
%TD*%
%TO.C,D37*%
X87448686Y-150081250D03*
X87448686Y-146781250D03*
%TD*%
%TO.C,D59*%
X218417436Y-169131250D03*
X218417436Y-165831250D03*
%TD*%
%TO.C,D30*%
X280329936Y-131031250D03*
X280329936Y-127731250D03*
%TD*%
%TO.C,D16*%
X349386186Y-111981250D03*
X349386186Y-108681250D03*
%TD*%
%TO.C,D25*%
X185079936Y-131031250D03*
X185079936Y-127731250D03*
%TD*%
%TO.C,D65*%
X351767436Y-173893750D03*
X351767436Y-170593750D03*
%TD*%
%TO.C,D34*%
X375579936Y-130968750D03*
X375579936Y-127668750D03*
%TD*%
%TO.C,D29*%
X261279936Y-131031250D03*
X261279936Y-127731250D03*
%TD*%
D20*
%TO.C,D1*%
X63698686Y-97631250D03*
X60398686Y-97631250D03*
%TD*%
D19*
%TO.C,D13*%
X289854936Y-111981250D03*
X289854936Y-108681250D03*
%TD*%
%TO.C,D60*%
X237467436Y-169131250D03*
X237467436Y-165831250D03*
%TD*%
%TO.C,D40*%
X151742436Y-150081250D03*
X151742436Y-146781250D03*
%TD*%
%TO.C,D32*%
X318429936Y-131031250D03*
X318429936Y-127731250D03*
%TD*%
%TO.C,D70*%
X111261186Y-188181250D03*
X111261186Y-184881250D03*
%TD*%
%TO.C,D47*%
X285092436Y-150081250D03*
X285092436Y-146781250D03*
%TD*%
%TO.C,D50*%
X375579936Y-150081250D03*
X375579936Y-146781250D03*
%TD*%
%TO.C,D51*%
X56492436Y-169131250D03*
X56492436Y-165831250D03*
%TD*%
%TO.C,D54*%
X123167436Y-169131250D03*
X123167436Y-165831250D03*
%TD*%
%TO.C,D56*%
X161267436Y-169131250D03*
X161267436Y-165831250D03*
%TD*%
%TO.C,D63*%
X294617436Y-169131250D03*
X294617436Y-165831250D03*
%TD*%
%TO.C,D68*%
X56492436Y-188181250D03*
X56492436Y-184881250D03*
%TD*%
%TO.C,D49*%
X323192436Y-150081250D03*
X323192436Y-146781250D03*
%TD*%
%TO.C,D8*%
X194604936Y-111981250D03*
X194604936Y-108681250D03*
%TD*%
%TO.C,D17*%
X376373686Y-114362500D03*
X376373686Y-111062500D03*
%TD*%
D21*
%TO.C,EC1*%
X62715436Y-100729250D03*
D22*
X60937436Y-100729250D03*
D23*
X60937436Y-103269250D03*
D21*
X62715436Y-103269250D03*
D23*
X60937436Y-105809250D03*
D21*
X62715436Y-105809250D03*
D23*
X60937436Y-108349250D03*
D21*
X62715436Y-108349250D03*
D23*
X60937436Y-110889250D03*
D21*
X62715436Y-110889250D03*
X62715436Y-113429250D03*
D23*
X60937436Y-113429250D03*
D21*
X62715436Y-115969250D03*
D23*
X60937436Y-115969250D03*
D21*
X62715436Y-118509250D03*
D23*
X60937436Y-118509250D03*
D21*
X62715436Y-121049250D03*
D23*
X60937436Y-121049250D03*
D21*
X62715436Y-123589250D03*
D23*
X60937436Y-123589250D03*
X60937436Y-126129250D03*
D21*
X62715436Y-126129250D03*
X62715436Y-128669250D03*
D23*
X60708836Y-128669250D03*
X45697436Y-128669250D03*
D21*
X43919436Y-128669250D03*
X43919436Y-126129250D03*
D23*
X45697436Y-126129250D03*
D21*
X43919436Y-123589250D03*
D23*
X45697436Y-123589250D03*
D21*
X43919436Y-121049250D03*
D23*
X45697436Y-121049250D03*
D21*
X43919436Y-118509250D03*
D23*
X45697436Y-118509250D03*
X45697436Y-115969250D03*
D21*
X43919436Y-115969250D03*
D23*
X45697436Y-113429250D03*
D21*
X43919436Y-113429250D03*
X43919436Y-110889250D03*
D23*
X45697436Y-110889250D03*
D21*
X43919436Y-108349250D03*
D23*
X45697436Y-108349250D03*
X45697436Y-105809250D03*
D21*
X43919436Y-105809250D03*
X43919436Y-103269250D03*
D23*
X45697436Y-103269250D03*
D21*
X43919436Y-100729250D03*
D23*
X45697436Y-100729250D03*
D24*
X58397436Y-130574250D03*
D23*
X58397436Y-128669250D03*
X55857436Y-128669250D03*
D24*
X55857436Y-130574250D03*
X53317436Y-130574250D03*
D23*
X53317436Y-128669250D03*
D24*
X50777436Y-130574250D03*
D23*
X50777436Y-128669250D03*
X48237436Y-128669250D03*
D24*
X48237436Y-130574250D03*
%TD*%
D19*
%TO.C,D75*%
X370817436Y-192943750D03*
X370817436Y-189643750D03*
%TD*%
%TO.C,D35*%
X339861186Y-150081250D03*
X339861186Y-146781250D03*
%TD*%
%TO.C,D10*%
X232704936Y-111981250D03*
X232704936Y-108681250D03*
%TD*%
%TO.C,D23*%
X146979936Y-131031250D03*
X146979936Y-127731250D03*
%TD*%
%TO.C,D67*%
X194604936Y-192943750D03*
X194604936Y-189643750D03*
%TD*%
%TO.C,D9*%
X213654936Y-111981250D03*
X213654936Y-108681250D03*
%TD*%
%TO.C,D27*%
X223179936Y-131031250D03*
X223179936Y-127731250D03*
%TD*%
M02*
