%TF.GenerationSoftware,KiCad,Pcbnew,(6.0.4)*%
%TF.CreationDate,2022-11-05T13:10:03+01:00*%
%TF.ProjectId,65MK,36354d4b-2e6b-4696-9361-645f70636258,rev?*%
%TF.SameCoordinates,Original*%
%TF.FileFunction,Copper,L2,Bot*%
%TF.FilePolarity,Positive*%
%FSLAX46Y46*%
G04 Gerber Fmt 4.6, Leading zero omitted, Abs format (unit mm)*
G04 Created by KiCad (PCBNEW (6.0.4)) date 2022-11-05 13:10:03*
%MOMM*%
%LPD*%
G01*
G04 APERTURE LIST*
%TA.AperFunction,ComponentPad*%
%ADD10C,2.500000*%
%TD*%
%TA.AperFunction,ComponentPad*%
%ADD11R,2.000000X2.000000*%
%TD*%
%TA.AperFunction,ComponentPad*%
%ADD12C,2.000000*%
%TD*%
%TA.AperFunction,ComponentPad*%
%ADD13R,3.200000X2.000000*%
%TD*%
%TA.AperFunction,SMDPad,CuDef*%
%ADD14R,1.200000X0.900000*%
%TD*%
%TA.AperFunction,SMDPad,CuDef*%
%ADD15R,0.900000X1.200000*%
%TD*%
%TA.AperFunction,SMDPad,CuDef*%
%ADD16R,3.250000X2.000000*%
%TD*%
%TA.AperFunction,ComponentPad*%
%ADD17R,1.752600X1.752600*%
%TD*%
%TA.AperFunction,ComponentPad*%
%ADD18C,1.752600*%
%TD*%
%TA.AperFunction,SMDPad,CuDef*%
%ADD19R,2.000000X3.250000*%
%TD*%
%TA.AperFunction,ViaPad*%
%ADD20C,0.800000*%
%TD*%
%TA.AperFunction,Conductor*%
%ADD21C,0.250000*%
%TD*%
G04 APERTURE END LIST*
D10*
%TO.P,MX13,1,COL*%
%TO.N,COL12*%
X282869936Y-103028750D03*
%TO.P,MX13,2,ROW*%
%TO.N,Net-(D13-Pad2)*%
X289219936Y-100488750D03*
%TD*%
%TO.P,MX1,1,COL*%
%TO.N,COL0*%
X49507436Y-103028750D03*
%TO.P,MX1,2,ROW*%
%TO.N,Net-(D1-Pad2)*%
X55857436Y-100488750D03*
%TD*%
%TO.P,MX46,1,COL*%
%TO.N,COL11*%
X278107436Y-141128750D03*
%TO.P,MX46,2,ROW*%
%TO.N,Net-(D47-Pad2)*%
X284457436Y-138588750D03*
%TD*%
%TO.P,MX8,1,COL*%
%TO.N,COL7*%
X187619936Y-103028750D03*
%TO.P,MX8,2,ROW*%
%TO.N,Net-(D8-Pad2)*%
X193969936Y-100488750D03*
%TD*%
%TO.P,MX14,1,COL*%
%TO.N,COL13*%
X301919936Y-103028750D03*
%TO.P,MX14,2,ROW*%
%TO.N,Net-(D14-Pad2)*%
X308269936Y-100488750D03*
%TD*%
%TO.P,MX16,1,COL*%
%TO.N,COL15*%
X340019936Y-103028750D03*
%TO.P,MX16,2,ROW*%
%TO.N,Net-(D16-Pad2)*%
X346369936Y-100488750D03*
%TD*%
%TO.P,MX74,1,COL*%
%TO.N,COL16*%
X363832436Y-183991250D03*
%TO.P,MX74,2,ROW*%
%TO.N,Net-(D75-Pad2)*%
X370182436Y-181451250D03*
%TD*%
%TO.P,MX36,1,COL*%
%TO.N,COL1*%
X80463686Y-141128750D03*
%TO.P,MX36,2,ROW*%
%TO.N,Net-(D37-Pad2)*%
X86813686Y-138588750D03*
%TD*%
%TO.P,MX48,1,COL*%
%TO.N,COL13*%
X316207436Y-141128750D03*
%TO.P,MX48,2,ROW*%
%TO.N,Net-(D49-Pad2)*%
X322557436Y-138588750D03*
%TD*%
%TO.P,MX61,1,COL*%
%TO.N,COL11*%
X268582436Y-160178750D03*
%TO.P,MX61,2,ROW*%
%TO.N,Net-(D62-Pad2)*%
X274932436Y-157638750D03*
%TD*%
%TO.P,MX55,1,COL*%
%TO.N,COL5*%
X154282436Y-160178750D03*
%TO.P,MX55,2,ROW*%
%TO.N,Net-(D56-Pad2)*%
X160632436Y-157638750D03*
%TD*%
%TO.P,MX43,1,COL*%
%TO.N,COL8*%
X220957436Y-141128750D03*
%TO.P,MX43,2,ROW*%
%TO.N,Net-(D44-Pad2)*%
X227307436Y-138588750D03*
%TD*%
%TO.P,MX54,1,COL*%
%TO.N,COL4*%
X135232436Y-160178750D03*
%TO.P,MX54,2,ROW*%
%TO.N,Net-(D55-Pad2)*%
X141582436Y-157638750D03*
%TD*%
%TO.P,MX68,1,COL*%
%TO.N,COL1*%
X78082436Y-179228750D03*
%TO.P,MX68,2,ROW*%
%TO.N,Net-(D69-Pad2)*%
X84432436Y-176688750D03*
%TD*%
%TO.P,MX17,1,COL*%
%TO.N,COL16*%
X368594936Y-103028750D03*
%TO.P,MX17,2,ROW*%
%TO.N,Net-(D17-Pad2)*%
X374944936Y-100488750D03*
%TD*%
%TO.P,MX52,1,COL*%
%TO.N,COL2*%
X97132436Y-160178750D03*
%TO.P,MX52,2,ROW*%
%TO.N,Net-(D53-Pad2)*%
X103482436Y-157638750D03*
%TD*%
%TO.P,MX33,1,COL*%
%TO.N,COL16*%
X368594936Y-122078750D03*
%TO.P,MX33,2,ROW*%
%TO.N,Net-(D34-Pad2)*%
X374944936Y-119538750D03*
%TD*%
%TO.P,MX49,1,COL*%
%TO.N,COL16*%
X368594936Y-141128750D03*
%TO.P,MX49,2,ROW*%
%TO.N,Net-(D50-Pad2)*%
X374944936Y-138588750D03*
%TD*%
%TO.P,MX26,1,COL*%
%TO.N,COL8*%
X216194936Y-122078750D03*
%TO.P,MX26,2,ROW*%
%TO.N,Net-(D27-Pad2)*%
X222544936Y-119538750D03*
%TD*%
%TO.P,MX29,1,COL*%
%TO.N,COL11*%
X273344936Y-122078750D03*
%TO.P,MX29,2,ROW*%
%TO.N,Net-(D30-Pad2)*%
X279694936Y-119538750D03*
%TD*%
%TO.P,MX30,1,COL*%
%TO.N,COL12*%
X292394936Y-122078750D03*
%TO.P,MX30,2,ROW*%
%TO.N,Net-(D31-Pad2)*%
X298744936Y-119538750D03*
%TD*%
%TO.P,MX27,1,COL*%
%TO.N,COL9*%
X235244936Y-122078750D03*
%TO.P,MX27,2,ROW*%
%TO.N,Net-(D28-Pad2)*%
X241594936Y-119538750D03*
%TD*%
%TO.P,MX37,1,COL*%
%TO.N,COL2*%
X106657436Y-141128750D03*
%TO.P,MX37,2,ROW*%
%TO.N,Net-(D38-Pad2)*%
X113007436Y-138588750D03*
%TD*%
%TO.P,MX53,1,COL*%
%TO.N,COL3*%
X116182436Y-160178750D03*
%TO.P,MX53,2,ROW*%
%TO.N,Net-(D54-Pad2)*%
X122532436Y-157638750D03*
%TD*%
%TO.P,MX10,1,COL*%
%TO.N,COL9*%
X225719936Y-103028750D03*
%TO.P,MX10,2,ROW*%
%TO.N,Net-(D10-Pad2)*%
X232069936Y-100488750D03*
%TD*%
%TO.P,MX62,1,COL*%
%TO.N,COL12*%
X287632436Y-160178750D03*
%TO.P,MX62,2,ROW*%
%TO.N,Net-(D63-Pad2)*%
X293982436Y-157638750D03*
%TD*%
%TO.P,MX50,1,COL*%
%TO.N,COL0*%
X49507436Y-160178750D03*
%TO.P,MX50,2,ROW*%
%TO.N,Net-(D51-Pad2)*%
X55857436Y-157638750D03*
%TD*%
%TO.P,MX60,1,COL*%
%TO.N,COL10*%
X249532436Y-160178750D03*
%TO.P,MX60,2,ROW*%
%TO.N,Net-(D61-Pad2)*%
X255882436Y-157638750D03*
%TD*%
%TO.P,MX71,1,COL*%
%TO.N,COL12*%
X297157436Y-179228750D03*
%TO.P,MX71,2,ROW*%
%TO.N,Net-(D72-Pad2)*%
X303507436Y-176688750D03*
%TD*%
%TO.P,MX70,1,COL*%
%TO.N,COL11*%
X270963686Y-179228750D03*
%TO.P,MX70,2,ROW*%
%TO.N,Net-(D71-Pad2)*%
X277313686Y-176688750D03*
%TD*%
%TO.P,MX34,1,COL*%
%TO.N,COL14*%
X337638686Y-131603750D03*
X328113686Y-141128750D03*
%TO.P,MX34,2,ROW*%
%TO.N,Net-(D35-Pad2)*%
X334463686Y-138588750D03*
X343988686Y-129063750D03*
%TD*%
%TO.P,MX28,1,COL*%
%TO.N,COL10*%
X254294936Y-122078750D03*
%TO.P,MX28,2,ROW*%
%TO.N,Net-(D29-Pad2)*%
X260644936Y-119538750D03*
%TD*%
%TO.P,MX65,1,COL*%
%TO.N,COL16*%
X368594936Y-160178750D03*
%TO.P,MX65,2,ROW*%
%TO.N,Net-(D66-Pad2)*%
X374944936Y-157638750D03*
%TD*%
%TO.P,MX73,1,COL*%
%TO.N,COL15*%
X344782436Y-183991250D03*
%TO.P,MX73,2,ROW*%
%TO.N,Net-(D74-Pad2)*%
X351132436Y-181451250D03*
%TD*%
%TO.P,MX6,1,COL*%
%TO.N,COL5*%
X149519936Y-103028750D03*
%TO.P,MX6,2,ROW*%
%TO.N,Net-(D6-Pad2)*%
X155869936Y-100488750D03*
%TD*%
%TO.P,MX5,1,COL*%
%TO.N,COL4*%
X130469936Y-103028750D03*
%TO.P,MX5,2,ROW*%
%TO.N,Net-(D5-Pad2)*%
X136819936Y-100488750D03*
%TD*%
%TO.P,MX3,1,COL*%
%TO.N,COL2*%
X92369936Y-103028750D03*
%TO.P,MX3,2,ROW*%
%TO.N,Net-(D3-Pad2)*%
X98719936Y-100488750D03*
%TD*%
%TO.P,MX18,1,COL*%
%TO.N,COL0*%
X49507436Y-122078750D03*
%TO.P,MX18,2,ROW*%
%TO.N,Net-(D19-Pad2)*%
X55857436Y-119538750D03*
%TD*%
%TO.P,MX31,1,COL*%
%TO.N,COL13*%
X311444936Y-122078750D03*
%TO.P,MX31,2,ROW*%
%TO.N,Net-(D32-Pad2)*%
X317794936Y-119538750D03*
%TD*%
%TO.P,MX2,1,COL*%
%TO.N,COL1*%
X73319936Y-103028750D03*
%TO.P,MX2,2,ROW*%
%TO.N,Net-(D2-Pad2)*%
X79669936Y-100488750D03*
%TD*%
%TO.P,MX25,1,COL*%
%TO.N,COL7*%
X197144936Y-122078750D03*
%TO.P,MX25,2,ROW*%
%TO.N,Net-(D26-Pad2)*%
X203494936Y-119538750D03*
%TD*%
%TO.P,MX23,1,COL*%
%TO.N,COL5*%
X159044936Y-122078750D03*
%TO.P,MX23,2,ROW*%
%TO.N,Net-(D24-Pad2)*%
X165394936Y-119538750D03*
%TD*%
%TO.P,MX69,1,COL*%
%TO.N,COL2*%
X104276186Y-179228750D03*
%TO.P,MX69,2,ROW*%
%TO.N,Net-(D70-Pad2)*%
X110626186Y-176688750D03*
%TD*%
%TO.P,MX44,1,COL*%
%TO.N,COL9*%
X240007436Y-141128750D03*
%TO.P,MX44,2,ROW*%
%TO.N,Net-(D45-Pad2)*%
X246357436Y-138588750D03*
%TD*%
%TO.P,MX66,1,COL*%
%TO.N,COL7*%
X187619936Y-183991250D03*
%TO.P,MX66,2,ROW*%
%TO.N,Net-(D67-Pad2)*%
X193969936Y-181451250D03*
%TD*%
%TO.P,MX72,1,COL*%
%TO.N,COL14*%
X325732436Y-183991250D03*
%TO.P,MX72,2,ROW*%
%TO.N,Net-(D73-Pad2)*%
X332082436Y-181451250D03*
%TD*%
%TO.P,MX51,1,COL*%
%TO.N,COL1*%
X85226186Y-160178750D03*
X75701186Y-160178750D03*
%TO.P,MX51,2,ROW*%
%TO.N,Net-(D52-Pad2)*%
X91576186Y-157638750D03*
X82051186Y-157638750D03*
%TD*%
%TO.P,MX64,1,COL*%
%TO.N,COL14*%
X344782436Y-164941250D03*
%TO.P,MX64,2,ROW*%
%TO.N,Net-(D65-Pad2)*%
X351132436Y-162401250D03*
%TD*%
%TO.P,MX39,1,COL*%
%TO.N,COL4*%
X144757436Y-141128750D03*
%TO.P,MX39,2,ROW*%
%TO.N,Net-(D40-Pad2)*%
X151107436Y-138588750D03*
%TD*%
%TO.P,MX47,1,COL*%
%TO.N,COL12*%
X297157436Y-141128750D03*
%TO.P,MX47,2,ROW*%
%TO.N,Net-(D48-Pad2)*%
X303507436Y-138588750D03*
%TD*%
D11*
%TO.P,SW1,A,A*%
%TO.N,ROT1*%
X364904936Y-103068750D03*
D12*
%TO.P,SW1,B,B*%
%TO.N,ROT0*%
X364904936Y-108068750D03*
%TO.P,SW1,C,C*%
%TO.N,GND*%
X364904936Y-105568750D03*
D13*
%TO.P,SW1,MP*%
%TO.N,N/C*%
X372404936Y-99968750D03*
X372404936Y-111168750D03*
D12*
%TO.P,SW1,S1,S1*%
%TO.N,Net-(D17-Pad2)*%
X379404936Y-108068750D03*
%TO.P,SW1,S2,S2*%
%TO.N,COL16*%
X379404936Y-103068750D03*
%TD*%
D10*
%TO.P,MX59,1,COL*%
%TO.N,COL9*%
X230482436Y-160178750D03*
%TO.P,MX59,2,ROW*%
%TO.N,Net-(D60-Pad2)*%
X236832436Y-157638750D03*
%TD*%
%TO.P,MX4,1,COL*%
%TO.N,COL3*%
X111419936Y-103028750D03*
%TO.P,MX4,2,ROW*%
%TO.N,Net-(D4-Pad2)*%
X117769936Y-100488750D03*
%TD*%
%TO.P,MX42,1,COL*%
%TO.N,COL7*%
X201907436Y-141128750D03*
%TO.P,MX42,2,ROW*%
%TO.N,Net-(D43-Pad2)*%
X208257436Y-138588750D03*
%TD*%
%TO.P,MX38,1,COL*%
%TO.N,COL3*%
X125707436Y-141128750D03*
%TO.P,MX38,2,ROW*%
%TO.N,Net-(D39-Pad2)*%
X132057436Y-138588750D03*
%TD*%
%TO.P,MX15,1,COL*%
%TO.N,COL14*%
X330494936Y-103028750D03*
X320969936Y-103028750D03*
%TO.P,MX15,2,ROW*%
%TO.N,Net-(D15-Pad2)*%
X327319936Y-100488750D03*
X336844936Y-100488750D03*
%TD*%
%TO.P,MX41,1,COL*%
%TO.N,COL6*%
X182857436Y-141128750D03*
%TO.P,MX41,2,ROW*%
%TO.N,Net-(D42-Pad2)*%
X189207436Y-138588750D03*
%TD*%
%TO.P,MX24,1,COL*%
%TO.N,COL6*%
X178094936Y-122078750D03*
%TO.P,MX24,2,ROW*%
%TO.N,Net-(D25-Pad2)*%
X184444936Y-119538750D03*
%TD*%
%TO.P,MX12,1,COL*%
%TO.N,COL11*%
X263819936Y-103028750D03*
%TO.P,MX12,2,ROW*%
%TO.N,Net-(D12-Pad2)*%
X270169936Y-100488750D03*
%TD*%
%TO.P,MX63,1,COL*%
%TO.N,COL13*%
X313826186Y-160178750D03*
%TO.P,MX63,2,ROW*%
%TO.N,Net-(D64-Pad2)*%
X320176186Y-157638750D03*
%TD*%
%TO.P,MX11,1,COL*%
%TO.N,COL10*%
X244769936Y-103028750D03*
%TO.P,MX11,2,ROW*%
%TO.N,Net-(D11-Pad2)*%
X251119936Y-100488750D03*
%TD*%
%TO.P,MX58,1,COL*%
%TO.N,COL8*%
X211432436Y-160178750D03*
%TO.P,MX58,2,ROW*%
%TO.N,Net-(D59-Pad2)*%
X217782436Y-157638750D03*
%TD*%
%TO.P,MX45,1,COL*%
%TO.N,COL10*%
X259057436Y-141128750D03*
%TO.P,MX45,2,ROW*%
%TO.N,Net-(D46-Pad2)*%
X265407436Y-138588750D03*
%TD*%
%TO.P,MX35,1,COL*%
%TO.N,COL0*%
X49507436Y-141128750D03*
%TO.P,MX35,2,ROW*%
%TO.N,Net-(D36-Pad2)*%
X55857436Y-138588750D03*
%TD*%
%TO.P,MX19,1,COL*%
%TO.N,COL1*%
X78082436Y-122078750D03*
%TO.P,MX19,2,ROW*%
%TO.N,Net-(D20-Pad2)*%
X84432436Y-119538750D03*
%TD*%
%TO.P,MX32,1,COL*%
%TO.N,COL15*%
X335257436Y-122078750D03*
%TO.P,MX32,2,ROW*%
%TO.N,Net-(D33-Pad2)*%
X341607436Y-119538750D03*
%TD*%
%TO.P,MX40,1,COL*%
%TO.N,COL5*%
X163807436Y-141128750D03*
%TO.P,MX40,2,ROW*%
%TO.N,Net-(D41-Pad2)*%
X170157436Y-138588750D03*
%TD*%
%TO.P,MX9,1,COL*%
%TO.N,COL8*%
X206669936Y-103028750D03*
%TO.P,MX9,2,ROW*%
%TO.N,Net-(D9-Pad2)*%
X213019936Y-100488750D03*
%TD*%
%TO.P,MX7,1,COL*%
%TO.N,COL6*%
X168569936Y-103028750D03*
%TO.P,MX7,2,ROW*%
%TO.N,Net-(D7-Pad2)*%
X174919936Y-100488750D03*
%TD*%
%TO.P,MX21,1,COL*%
%TO.N,COL3*%
X120944936Y-122078750D03*
%TO.P,MX21,2,ROW*%
%TO.N,Net-(D22-Pad2)*%
X127294936Y-119538750D03*
%TD*%
%TO.P,MX22,1,COL*%
%TO.N,COL4*%
X139994936Y-122078750D03*
%TO.P,MX22,2,ROW*%
%TO.N,Net-(D23-Pad2)*%
X146344936Y-119538750D03*
%TD*%
%TO.P,MX57,1,COL*%
%TO.N,COL7*%
X192382436Y-160178750D03*
%TO.P,MX57,2,ROW*%
%TO.N,Net-(D58-Pad2)*%
X198732436Y-157638750D03*
%TD*%
%TO.P,MX20,1,COL*%
%TO.N,COL2*%
X101894936Y-122078750D03*
%TO.P,MX20,2,ROW*%
%TO.N,Net-(D21-Pad2)*%
X108244936Y-119538750D03*
%TD*%
%TO.P,MX67,1,COL*%
%TO.N,COL0*%
X49507436Y-179228750D03*
%TO.P,MX67,2,ROW*%
%TO.N,Net-(D68-Pad2)*%
X55857436Y-176688750D03*
%TD*%
%TO.P,MX56,1,COL*%
%TO.N,COL6*%
X173332436Y-160178750D03*
%TO.P,MX56,2,ROW*%
%TO.N,Net-(D57-Pad2)*%
X179682436Y-157638750D03*
%TD*%
D14*
%TO.P,D62,1,K*%
%TO.N,ROW3*%
X275567436Y-169131250D03*
%TO.P,D62,2,A*%
%TO.N,Net-(D62-Pad2)*%
X275567436Y-165831250D03*
%TD*%
%TO.P,D58,1,K*%
%TO.N,ROW3*%
X199367436Y-169131250D03*
%TO.P,D58,2,A*%
%TO.N,Net-(D58-Pad2)*%
X199367436Y-165831250D03*
%TD*%
%TO.P,D69,1,K*%
%TO.N,ROW4*%
X85067436Y-188181250D03*
%TO.P,D69,2,A*%
%TO.N,Net-(D69-Pad2)*%
X85067436Y-184881250D03*
%TD*%
%TO.P,D57,1,K*%
%TO.N,ROW3*%
X180317436Y-169131250D03*
%TO.P,D57,2,A*%
%TO.N,Net-(D57-Pad2)*%
X180317436Y-165831250D03*
%TD*%
%TO.P,D14,1,K*%
%TO.N,ROW0*%
X308904936Y-111981250D03*
%TO.P,D14,2,A*%
%TO.N,Net-(D14-Pad2)*%
X308904936Y-108681250D03*
%TD*%
%TO.P,D74,1,K*%
%TO.N,ROW4*%
X351767436Y-192943750D03*
%TO.P,D74,2,A*%
%TO.N,Net-(D74-Pad2)*%
X351767436Y-189643750D03*
%TD*%
%TO.P,D39,1,K*%
%TO.N,ROW2*%
X132692436Y-150081250D03*
%TO.P,D39,2,A*%
%TO.N,Net-(D39-Pad2)*%
X132692436Y-146781250D03*
%TD*%
%TO.P,D7,1,K*%
%TO.N,ROW0*%
X175554936Y-111981250D03*
%TO.P,D7,2,A*%
%TO.N,Net-(D7-Pad2)*%
X175554936Y-108681250D03*
%TD*%
%TO.P,D5,1,K*%
%TO.N,ROW0*%
X137454936Y-111981250D03*
%TO.P,D5,2,A*%
%TO.N,Net-(D5-Pad2)*%
X137454936Y-108681250D03*
%TD*%
%TO.P,D21,1,K*%
%TO.N,ROW1*%
X108879936Y-131031250D03*
%TO.P,D21,2,A*%
%TO.N,Net-(D21-Pad2)*%
X108879936Y-127731250D03*
%TD*%
%TO.P,D44,1,K*%
%TO.N,ROW2*%
X227942436Y-150081250D03*
%TO.P,D44,2,A*%
%TO.N,Net-(D44-Pad2)*%
X227942436Y-146781250D03*
%TD*%
%TO.P,D11,1,K*%
%TO.N,ROW0*%
X251754936Y-111981250D03*
%TO.P,D11,2,A*%
%TO.N,Net-(D11-Pad2)*%
X251754936Y-108681250D03*
%TD*%
%TO.P,D22,1,K*%
%TO.N,ROW1*%
X127929936Y-131031250D03*
%TO.P,D22,2,A*%
%TO.N,Net-(D22-Pad2)*%
X127929936Y-127731250D03*
%TD*%
%TO.P,D19,1,K*%
%TO.N,ROW1*%
X56492436Y-125537500D03*
%TO.P,D19,2,A*%
%TO.N,Net-(D19-Pad2)*%
X56492436Y-122237500D03*
%TD*%
%TO.P,D46,1,K*%
%TO.N,ROW2*%
X266042436Y-150081250D03*
%TO.P,D46,2,A*%
%TO.N,Net-(D46-Pad2)*%
X266042436Y-146781250D03*
%TD*%
%TO.P,D73,1,K*%
%TO.N,ROW4*%
X332717436Y-192943750D03*
%TO.P,D73,2,A*%
%TO.N,Net-(D73-Pad2)*%
X332717436Y-189643750D03*
%TD*%
%TO.P,D38,1,K*%
%TO.N,ROW2*%
X113642436Y-150081250D03*
%TO.P,D38,2,A*%
%TO.N,Net-(D38-Pad2)*%
X113642436Y-146781250D03*
%TD*%
%TO.P,D55,1,K*%
%TO.N,ROW3*%
X142217436Y-169131250D03*
%TO.P,D55,2,A*%
%TO.N,Net-(D55-Pad2)*%
X142217436Y-165831250D03*
%TD*%
%TO.P,D71,1,K*%
%TO.N,ROW4*%
X277948686Y-188181250D03*
%TO.P,D71,2,A*%
%TO.N,Net-(D71-Pad2)*%
X277948686Y-184881250D03*
%TD*%
%TO.P,D36,1,K*%
%TO.N,ROW2*%
X56492436Y-150081250D03*
%TO.P,D36,2,A*%
%TO.N,Net-(D36-Pad2)*%
X56492436Y-146781250D03*
%TD*%
%TO.P,D43,1,K*%
%TO.N,ROW2*%
X208892436Y-150081250D03*
%TO.P,D43,2,A*%
%TO.N,Net-(D43-Pad2)*%
X208892436Y-146781250D03*
%TD*%
%TO.P,D66,1,K*%
%TO.N,ROW3*%
X375579936Y-169131250D03*
%TO.P,D66,2,A*%
%TO.N,Net-(D66-Pad2)*%
X375579936Y-165831250D03*
%TD*%
%TO.P,D52,1,K*%
%TO.N,ROW3*%
X92211186Y-169131250D03*
%TO.P,D52,2,A*%
%TO.N,Net-(D52-Pad2)*%
X92211186Y-165831250D03*
%TD*%
%TO.P,D48,1,K*%
%TO.N,ROW2*%
X304142436Y-150081250D03*
%TO.P,D48,2,A*%
%TO.N,Net-(D48-Pad2)*%
X304142436Y-146781250D03*
%TD*%
%TO.P,D6,1,K*%
%TO.N,ROW0*%
X156504936Y-111981250D03*
%TO.P,D6,2,A*%
%TO.N,Net-(D6-Pad2)*%
X156504936Y-108681250D03*
%TD*%
%TO.P,D53,1,K*%
%TO.N,ROW3*%
X104117436Y-169131250D03*
%TO.P,D53,2,A*%
%TO.N,Net-(D53-Pad2)*%
X104117436Y-165831250D03*
%TD*%
%TO.P,D61,1,K*%
%TO.N,ROW3*%
X256517436Y-169131250D03*
%TO.P,D61,2,A*%
%TO.N,Net-(D61-Pad2)*%
X256517436Y-165831250D03*
%TD*%
%TO.P,D24,1,K*%
%TO.N,ROW1*%
X166029936Y-131031250D03*
%TO.P,D24,2,A*%
%TO.N,Net-(D24-Pad2)*%
X166029936Y-127731250D03*
%TD*%
%TO.P,D31,1,K*%
%TO.N,ROW1*%
X299379936Y-131031250D03*
%TO.P,D31,2,A*%
%TO.N,Net-(D31-Pad2)*%
X299379936Y-127731250D03*
%TD*%
%TO.P,D20,1,K*%
%TO.N,ROW1*%
X85067436Y-131031250D03*
%TO.P,D20,2,A*%
%TO.N,Net-(D20-Pad2)*%
X85067436Y-127731250D03*
%TD*%
%TO.P,D26,1,K*%
%TO.N,ROW1*%
X204129936Y-131031250D03*
%TO.P,D26,2,A*%
%TO.N,Net-(D26-Pad2)*%
X204129936Y-127731250D03*
%TD*%
%TO.P,D3,1,K*%
%TO.N,ROW0*%
X99354936Y-111981250D03*
%TO.P,D3,2,A*%
%TO.N,Net-(D3-Pad2)*%
X99354936Y-108681250D03*
%TD*%
%TO.P,D12,1,K*%
%TO.N,ROW0*%
X270804936Y-111981250D03*
%TO.P,D12,2,A*%
%TO.N,Net-(D12-Pad2)*%
X270804936Y-108681250D03*
%TD*%
%TO.P,D45,1,K*%
%TO.N,ROW2*%
X246992436Y-150081250D03*
%TO.P,D45,2,A*%
%TO.N,Net-(D45-Pad2)*%
X246992436Y-146781250D03*
%TD*%
%TO.P,D72,1,K*%
%TO.N,ROW4*%
X304142436Y-188181250D03*
%TO.P,D72,2,A*%
%TO.N,Net-(D72-Pad2)*%
X304142436Y-184881250D03*
%TD*%
%TO.P,D2,1,K*%
%TO.N,ROW0*%
X80304936Y-111981250D03*
%TO.P,D2,2,A*%
%TO.N,Net-(D2-Pad2)*%
X80304936Y-108681250D03*
%TD*%
%TO.P,D42,1,K*%
%TO.N,ROW2*%
X189842436Y-150081250D03*
%TO.P,D42,2,A*%
%TO.N,Net-(D42-Pad2)*%
X189842436Y-146781250D03*
%TD*%
%TO.P,D15,1,K*%
%TO.N,ROW0*%
X327954936Y-111981250D03*
%TO.P,D15,2,A*%
%TO.N,Net-(D15-Pad2)*%
X327954936Y-108681250D03*
%TD*%
%TO.P,D41,1,K*%
%TO.N,ROW2*%
X170792436Y-150081250D03*
%TO.P,D41,2,A*%
%TO.N,Net-(D41-Pad2)*%
X170792436Y-146781250D03*
%TD*%
%TO.P,D4,1,K*%
%TO.N,ROW0*%
X118404936Y-111981250D03*
%TO.P,D4,2,A*%
%TO.N,Net-(D4-Pad2)*%
X118404936Y-108681250D03*
%TD*%
%TO.P,D28,1,K*%
%TO.N,ROW1*%
X242229936Y-131031250D03*
%TO.P,D28,2,A*%
%TO.N,Net-(D28-Pad2)*%
X242229936Y-127731250D03*
%TD*%
%TO.P,D33,1,K*%
%TO.N,ROW1*%
X350179936Y-131031250D03*
%TO.P,D33,2,A*%
%TO.N,Net-(D33-Pad2)*%
X350179936Y-127731250D03*
%TD*%
%TO.P,D64,1,K*%
%TO.N,ROW3*%
X320811186Y-169131250D03*
%TO.P,D64,2,A*%
%TO.N,Net-(D64-Pad2)*%
X320811186Y-165831250D03*
%TD*%
%TO.P,D37,1,K*%
%TO.N,ROW2*%
X87448686Y-150081250D03*
%TO.P,D37,2,A*%
%TO.N,Net-(D37-Pad2)*%
X87448686Y-146781250D03*
%TD*%
%TO.P,D59,1,K*%
%TO.N,ROW3*%
X218417436Y-169131250D03*
%TO.P,D59,2,A*%
%TO.N,Net-(D59-Pad2)*%
X218417436Y-165831250D03*
%TD*%
%TO.P,D30,1,K*%
%TO.N,ROW1*%
X280329936Y-131031250D03*
%TO.P,D30,2,A*%
%TO.N,Net-(D30-Pad2)*%
X280329936Y-127731250D03*
%TD*%
%TO.P,D16,1,K*%
%TO.N,ROW0*%
X349386186Y-111981250D03*
%TO.P,D16,2,A*%
%TO.N,Net-(D16-Pad2)*%
X349386186Y-108681250D03*
%TD*%
%TO.P,D25,1,K*%
%TO.N,ROW1*%
X185079936Y-131031250D03*
%TO.P,D25,2,A*%
%TO.N,Net-(D25-Pad2)*%
X185079936Y-127731250D03*
%TD*%
%TO.P,D65,1,K*%
%TO.N,ROW3*%
X351767436Y-173893750D03*
%TO.P,D65,2,A*%
%TO.N,Net-(D65-Pad2)*%
X351767436Y-170593750D03*
%TD*%
%TO.P,D34,1,K*%
%TO.N,ROW1*%
X375579936Y-130968750D03*
%TO.P,D34,2,A*%
%TO.N,Net-(D34-Pad2)*%
X375579936Y-127668750D03*
%TD*%
%TO.P,D29,1,K*%
%TO.N,ROW1*%
X261279936Y-131031250D03*
%TO.P,D29,2,A*%
%TO.N,Net-(D29-Pad2)*%
X261279936Y-127731250D03*
%TD*%
D15*
%TO.P,D1,1,K*%
%TO.N,ROW0*%
X63698686Y-97631250D03*
%TO.P,D1,2,A*%
%TO.N,Net-(D1-Pad2)*%
X60398686Y-97631250D03*
%TD*%
D14*
%TO.P,D13,1,K*%
%TO.N,ROW0*%
X289854936Y-111981250D03*
%TO.P,D13,2,A*%
%TO.N,Net-(D13-Pad2)*%
X289854936Y-108681250D03*
%TD*%
%TO.P,D60,1,K*%
%TO.N,ROW3*%
X237467436Y-169131250D03*
%TO.P,D60,2,A*%
%TO.N,Net-(D60-Pad2)*%
X237467436Y-165831250D03*
%TD*%
%TO.P,D40,1,K*%
%TO.N,ROW2*%
X151742436Y-150081250D03*
%TO.P,D40,2,A*%
%TO.N,Net-(D40-Pad2)*%
X151742436Y-146781250D03*
%TD*%
%TO.P,D32,1,K*%
%TO.N,ROW1*%
X318429936Y-131031250D03*
%TO.P,D32,2,A*%
%TO.N,Net-(D32-Pad2)*%
X318429936Y-127731250D03*
%TD*%
%TO.P,D70,1,K*%
%TO.N,ROW4*%
X111261186Y-188181250D03*
%TO.P,D70,2,A*%
%TO.N,Net-(D70-Pad2)*%
X111261186Y-184881250D03*
%TD*%
%TO.P,D47,1,K*%
%TO.N,ROW2*%
X285092436Y-150081250D03*
%TO.P,D47,2,A*%
%TO.N,Net-(D47-Pad2)*%
X285092436Y-146781250D03*
%TD*%
%TO.P,D50,1,K*%
%TO.N,ROW2*%
X375579936Y-150081250D03*
%TO.P,D50,2,A*%
%TO.N,Net-(D50-Pad2)*%
X375579936Y-146781250D03*
%TD*%
%TO.P,D51,1,K*%
%TO.N,ROW3*%
X56492436Y-169131250D03*
%TO.P,D51,2,A*%
%TO.N,Net-(D51-Pad2)*%
X56492436Y-165831250D03*
%TD*%
%TO.P,D54,1,K*%
%TO.N,ROW3*%
X123167436Y-169131250D03*
%TO.P,D54,2,A*%
%TO.N,Net-(D54-Pad2)*%
X123167436Y-165831250D03*
%TD*%
%TO.P,D56,1,K*%
%TO.N,ROW3*%
X161267436Y-169131250D03*
%TO.P,D56,2,A*%
%TO.N,Net-(D56-Pad2)*%
X161267436Y-165831250D03*
%TD*%
%TO.P,D63,1,K*%
%TO.N,ROW3*%
X294617436Y-169131250D03*
%TO.P,D63,2,A*%
%TO.N,Net-(D63-Pad2)*%
X294617436Y-165831250D03*
%TD*%
%TO.P,D68,1,K*%
%TO.N,ROW4*%
X56492436Y-188181250D03*
%TO.P,D68,2,A*%
%TO.N,Net-(D68-Pad2)*%
X56492436Y-184881250D03*
%TD*%
%TO.P,D49,1,K*%
%TO.N,ROW2*%
X323192436Y-150081250D03*
%TO.P,D49,2,A*%
%TO.N,Net-(D49-Pad2)*%
X323192436Y-146781250D03*
%TD*%
%TO.P,D8,1,K*%
%TO.N,ROW0*%
X194604936Y-111981250D03*
%TO.P,D8,2,A*%
%TO.N,Net-(D8-Pad2)*%
X194604936Y-108681250D03*
%TD*%
%TO.P,D17,1,K*%
%TO.N,ROW0*%
X376373686Y-114362500D03*
%TO.P,D17,2,A*%
%TO.N,Net-(D17-Pad2)*%
X376373686Y-111062500D03*
%TD*%
D16*
%TO.P,EC1,1,D3*%
%TO.N,ROW0*%
X62715436Y-100729250D03*
D17*
X60937436Y-100729250D03*
D18*
%TO.P,EC1,2,D2*%
%TO.N,COL16*%
X60937436Y-103269250D03*
D16*
X62715436Y-103269250D03*
D18*
%TO.P,EC1,3,GND*%
%TO.N,GND*%
X60937436Y-105809250D03*
D16*
X62715436Y-105809250D03*
D18*
%TO.P,EC1,4,GND*%
X60937436Y-108349250D03*
D16*
X62715436Y-108349250D03*
D18*
%TO.P,EC1,5,D1*%
%TO.N,ROT1*%
X60937436Y-110889250D03*
D16*
X62715436Y-110889250D03*
%TO.P,EC1,6,D0*%
%TO.N,ROT0*%
X62715436Y-113429250D03*
D18*
X60937436Y-113429250D03*
D16*
%TO.P,EC1,7,D4*%
%TO.N,COL15*%
X62715436Y-115969250D03*
D18*
X60937436Y-115969250D03*
D16*
%TO.P,EC1,8,D6*%
%TO.N,COL14*%
X62715436Y-118509250D03*
D18*
X60937436Y-118509250D03*
D16*
%TO.P,EC1,9,D7*%
%TO.N,COL13*%
X62715436Y-121049250D03*
D18*
X60937436Y-121049250D03*
D16*
%TO.P,EC1,10,E6*%
%TO.N,COL12*%
X62715436Y-123589250D03*
D18*
X60937436Y-123589250D03*
%TO.P,EC1,11,B4*%
%TO.N,COL11*%
X60937436Y-126129250D03*
D16*
X62715436Y-126129250D03*
%TO.P,EC1,12,B5*%
%TO.N,ROW1*%
X62715436Y-128669250D03*
D18*
X60708836Y-128669250D03*
%TO.P,EC1,13,B6*%
%TO.N,COL3*%
X45697436Y-128669250D03*
D16*
X43919436Y-128669250D03*
%TO.P,EC1,14,B2*%
%TO.N,COL4*%
X43919436Y-126129250D03*
D18*
X45697436Y-126129250D03*
D16*
%TO.P,EC1,15,B3*%
%TO.N,COL5*%
X43919436Y-123589250D03*
D18*
X45697436Y-123589250D03*
D16*
%TO.P,EC1,16,B1*%
%TO.N,COL6*%
X43919436Y-121049250D03*
D18*
X45697436Y-121049250D03*
D16*
%TO.P,EC1,17,F7*%
%TO.N,COL7*%
X43919436Y-118509250D03*
D18*
X45697436Y-118509250D03*
%TO.P,EC1,18,F6*%
%TO.N,COL8*%
X45697436Y-115969250D03*
D16*
X43919436Y-115969250D03*
D18*
%TO.P,EC1,19,F5*%
%TO.N,COL9*%
X45697436Y-113429250D03*
D16*
X43919436Y-113429250D03*
%TO.P,EC1,20,F4*%
%TO.N,COL10*%
X43919436Y-110889250D03*
D18*
X45697436Y-110889250D03*
D16*
%TO.P,EC1,21,VCC*%
%TO.N,VCC*%
X43919436Y-108349250D03*
D18*
X45697436Y-108349250D03*
%TO.P,EC1,22,RST*%
%TO.N,unconnected-(EC1-Pad22)*%
X45697436Y-105809250D03*
D16*
X43919436Y-105809250D03*
%TO.P,EC1,23,GND*%
%TO.N,GND*%
X43919436Y-103269250D03*
D18*
X45697436Y-103269250D03*
D16*
%TO.P,EC1,24,B0*%
%TO.N,COL0*%
X43919436Y-100729250D03*
D18*
X45697436Y-100729250D03*
D19*
%TO.P,EC1,25,B7*%
%TO.N,ROW3*%
X58397436Y-130574250D03*
D18*
X58397436Y-128669250D03*
%TO.P,EC1,26,D5*%
%TO.N,ROW2*%
X55857436Y-128669250D03*
D19*
X55857436Y-130574250D03*
%TO.P,EC1,27,C7*%
%TO.N,ROW4*%
X53317436Y-130574250D03*
D18*
X53317436Y-128669250D03*
D19*
%TO.P,EC1,28,F1*%
%TO.N,COL1*%
X50777436Y-130574250D03*
D18*
X50777436Y-128669250D03*
%TO.P,EC1,29,F0*%
%TO.N,COL2*%
X48237436Y-128669250D03*
D19*
X48237436Y-130574250D03*
%TD*%
D14*
%TO.P,D75,1,K*%
%TO.N,ROW4*%
X370817436Y-192943750D03*
%TO.P,D75,2,A*%
%TO.N,Net-(D75-Pad2)*%
X370817436Y-189643750D03*
%TD*%
%TO.P,D35,1,K*%
%TO.N,ROW2*%
X339861186Y-150081250D03*
%TO.P,D35,2,A*%
%TO.N,Net-(D35-Pad2)*%
X339861186Y-146781250D03*
%TD*%
%TO.P,D10,1,K*%
%TO.N,ROW0*%
X232704936Y-111981250D03*
%TO.P,D10,2,A*%
%TO.N,Net-(D10-Pad2)*%
X232704936Y-108681250D03*
%TD*%
%TO.P,D23,1,K*%
%TO.N,ROW1*%
X146979936Y-131031250D03*
%TO.P,D23,2,A*%
%TO.N,Net-(D23-Pad2)*%
X146979936Y-127731250D03*
%TD*%
%TO.P,D67,1,K*%
%TO.N,ROW4*%
X194604936Y-192943750D03*
%TO.P,D67,2,A*%
%TO.N,Net-(D67-Pad2)*%
X194604936Y-189643750D03*
%TD*%
%TO.P,D9,1,K*%
%TO.N,ROW0*%
X213654936Y-111981250D03*
%TO.P,D9,2,A*%
%TO.N,Net-(D9-Pad2)*%
X213654936Y-108681250D03*
%TD*%
%TO.P,D27,1,K*%
%TO.N,ROW1*%
X223179936Y-131031250D03*
%TO.P,D27,2,A*%
%TO.N,Net-(D27-Pad2)*%
X223179936Y-127731250D03*
%TD*%
D20*
%TO.N,COL1*%
X47761186Y-173037500D03*
X48554936Y-134937500D03*
%TO.N,COL14*%
X328748686Y-119062500D03*
%TO.N,COL15*%
X335098686Y-119062500D03*
%TO.N,ROW2*%
X59667436Y-148431250D03*
%TO.N,ROW3*%
X62842436Y-165100000D03*
%TO.N,ROW4*%
X50936186Y-184150000D03*
%TO.N,ROT1*%
X358911186Y-101600000D03*
%TO.N,ROT0*%
X360498686Y-117475000D03*
%TD*%
D21*
%TO.N,Net-(D1-Pad2)*%
X58714936Y-97631250D02*
X60398686Y-97631250D01*
X56112436Y-100743750D02*
X55857436Y-100488750D01*
X55857436Y-100488750D02*
X58714936Y-97631250D01*
%TO.N,COL1*%
X48554936Y-134937500D02*
X50777436Y-132715000D01*
X50777436Y-132715000D02*
X50777436Y-130574250D01*
X78082436Y-179228750D02*
X71891186Y-173037500D01*
X71891186Y-173037500D02*
X47761186Y-173037500D01*
%TO.N,Net-(D2-Pad2)*%
X79669936Y-100488750D02*
X79669936Y-108046250D01*
X79669936Y-108046250D02*
X80304936Y-108681250D01*
%TO.N,Net-(D3-Pad2)*%
X98719936Y-108046250D02*
X99354936Y-108681250D01*
X98719936Y-100488750D02*
X98719936Y-108046250D01*
%TO.N,Net-(D4-Pad2)*%
X117769936Y-100488750D02*
X117769936Y-108046250D01*
X117769936Y-108046250D02*
X118404936Y-108681250D01*
%TO.N,Net-(D5-Pad2)*%
X136819936Y-100488750D02*
X136819936Y-108046250D01*
X136819936Y-108046250D02*
X137454936Y-108681250D01*
%TO.N,Net-(D6-Pad2)*%
X155869936Y-100488750D02*
X155869936Y-108046250D01*
X155869936Y-108046250D02*
X156504936Y-108681250D01*
%TO.N,Net-(D7-Pad2)*%
X174919936Y-108046250D02*
X175554936Y-108681250D01*
X174919936Y-100488750D02*
X174919936Y-108046250D01*
%TO.N,Net-(D8-Pad2)*%
X193969936Y-108046250D02*
X194604936Y-108681250D01*
X193969936Y-100488750D02*
X193969936Y-108046250D01*
%TO.N,Net-(D9-Pad2)*%
X213019936Y-100488750D02*
X213019936Y-108046250D01*
X213019936Y-108046250D02*
X213654936Y-108681250D01*
%TO.N,Net-(D10-Pad2)*%
X232069936Y-100488750D02*
X232069936Y-108046250D01*
X232069936Y-108046250D02*
X232704936Y-108681250D01*
%TO.N,Net-(D11-Pad2)*%
X251119936Y-108046250D02*
X251754936Y-108681250D01*
X251119936Y-100488750D02*
X251119936Y-108046250D01*
%TO.N,COL11*%
X62715436Y-126129250D02*
X64506936Y-126129250D01*
X269033516Y-117767330D02*
X273344936Y-122078750D01*
X72868856Y-117767330D02*
X269033516Y-117767330D01*
X64506936Y-126129250D02*
X72868856Y-117767330D01*
%TO.N,Net-(D12-Pad2)*%
X270169936Y-108046250D02*
X270804936Y-108681250D01*
X270169936Y-100488750D02*
X270169936Y-108046250D01*
%TO.N,COL12*%
X64268811Y-123589250D02*
X70540251Y-117317810D01*
X62715436Y-123589250D02*
X64268811Y-123589250D01*
X70540251Y-117317810D02*
X287633996Y-117317810D01*
X287633996Y-117317810D02*
X292394936Y-122078750D01*
%TO.N,Net-(D13-Pad2)*%
X289219936Y-100488750D02*
X289219936Y-108046250D01*
X289219936Y-108046250D02*
X289854936Y-108681250D01*
%TO.N,COL13*%
X64217726Y-121049250D02*
X68398686Y-116868290D01*
X62715436Y-121049250D02*
X64217726Y-121049250D01*
X68398686Y-116868290D02*
X306234476Y-116868290D01*
X306234476Y-116868290D02*
X311444936Y-122078750D01*
%TO.N,Net-(D14-Pad2)*%
X308269936Y-108046250D02*
X308904936Y-108681250D01*
X308269936Y-100488750D02*
X308269936Y-108046250D01*
%TO.N,COL14*%
X327161186Y-117475000D02*
X320827717Y-117475000D01*
X66942426Y-116418770D02*
X64851946Y-118509250D01*
X328748686Y-119062500D02*
X327161186Y-117475000D01*
X64851946Y-118509250D02*
X62715436Y-118509250D01*
X320827717Y-117475000D02*
X319771487Y-116418770D01*
X319771487Y-116418770D02*
X66942426Y-116418770D01*
%TO.N,Net-(D15-Pad2)*%
X327319936Y-108046250D02*
X327954936Y-108681250D01*
X327319936Y-100488750D02*
X327319936Y-108046250D01*
X327319936Y-100488750D02*
X336844936Y-100488750D01*
%TO.N,COL15*%
X321013915Y-117025480D02*
X333061666Y-117025480D01*
X62715436Y-115969250D02*
X319957685Y-115969250D01*
X319957685Y-115969250D02*
X321013915Y-117025480D01*
X333061666Y-117025480D02*
X335098686Y-119062500D01*
%TO.N,Net-(D16-Pad2)*%
X346369936Y-100488750D02*
X346369936Y-105665000D01*
X346369936Y-105665000D02*
X349386186Y-108681250D01*
%TO.N,COL16*%
X362642218Y-116126032D02*
X368594936Y-122078750D01*
X78693896Y-115070210D02*
X320330081Y-115070210D01*
X66892936Y-103269250D02*
X78693896Y-115070210D01*
X62715436Y-103269250D02*
X64511686Y-103269250D01*
X62715436Y-103269250D02*
X66892936Y-103269250D01*
X321385903Y-116126032D02*
X362642218Y-116126032D01*
X320330081Y-115070210D02*
X321385903Y-116126032D01*
%TO.N,Net-(D17-Pad2)*%
X376411186Y-111062500D02*
X376373686Y-111062500D01*
X374944936Y-100488750D02*
X374944936Y-105727500D01*
X377286186Y-108068750D02*
X379404936Y-108068750D01*
X374944936Y-105727500D02*
X377286186Y-108068750D01*
X379404936Y-108068750D02*
X376411186Y-111062500D01*
%TO.N,Net-(D19-Pad2)*%
X56492436Y-120173750D02*
X55857436Y-119538750D01*
X56492436Y-122237500D02*
X56492436Y-120173750D01*
%TO.N,Net-(D20-Pad2)*%
X84432436Y-127096250D02*
X85067436Y-127731250D01*
X84432436Y-119538750D02*
X84432436Y-127096250D01*
%TO.N,Net-(D21-Pad2)*%
X108244936Y-119538750D02*
X108244936Y-127096250D01*
X108244936Y-127096250D02*
X108879936Y-127731250D01*
%TO.N,Net-(D22-Pad2)*%
X127294936Y-127096250D02*
X127929936Y-127731250D01*
X127294936Y-119538750D02*
X127294936Y-127096250D01*
%TO.N,Net-(D23-Pad2)*%
X146344936Y-119538750D02*
X146344936Y-127096250D01*
X146344936Y-127096250D02*
X146979936Y-127731250D01*
%TO.N,Net-(D24-Pad2)*%
X165394936Y-119538750D02*
X165394936Y-127096250D01*
X165394936Y-127096250D02*
X166029936Y-127731250D01*
%TO.N,Net-(D25-Pad2)*%
X184444936Y-127096250D02*
X185079936Y-127731250D01*
X184444936Y-119538750D02*
X184444936Y-127096250D01*
%TO.N,Net-(D26-Pad2)*%
X203494936Y-127096250D02*
X204129936Y-127731250D01*
X203494936Y-119538750D02*
X203494936Y-127096250D01*
%TO.N,Net-(D27-Pad2)*%
X222544936Y-127096250D02*
X223179936Y-127731250D01*
X222544936Y-119538750D02*
X222544936Y-127096250D01*
%TO.N,Net-(D28-Pad2)*%
X241594936Y-119538750D02*
X241594936Y-127096250D01*
X241594936Y-127096250D02*
X242229936Y-127731250D01*
%TO.N,Net-(D29-Pad2)*%
X260644936Y-119538750D02*
X260644936Y-127096250D01*
X260644936Y-127096250D02*
X261279936Y-127731250D01*
%TO.N,Net-(D30-Pad2)*%
X279694936Y-127096250D02*
X280329936Y-127731250D01*
X279694936Y-119538750D02*
X279694936Y-127096250D01*
%TO.N,Net-(D31-Pad2)*%
X298744936Y-119538750D02*
X298744936Y-127096250D01*
X298744936Y-127096250D02*
X299379936Y-127731250D01*
%TO.N,Net-(D32-Pad2)*%
X317794936Y-127096250D02*
X318429936Y-127731250D01*
X317794936Y-119538750D02*
X317794936Y-127096250D01*
%TO.N,Net-(D33-Pad2)*%
X341607436Y-119538750D02*
X349799936Y-127731250D01*
X349799936Y-127731250D02*
X350179936Y-127731250D01*
%TO.N,Net-(D34-Pad2)*%
X374944936Y-119538750D02*
X374944936Y-127033750D01*
X374944936Y-127033750D02*
X375579936Y-127668750D01*
%TO.N,Net-(D35-Pad2)*%
X334463686Y-138588750D02*
X339861186Y-143986250D01*
X339861186Y-143986250D02*
X339861186Y-146781250D01*
%TO.N,Net-(D36-Pad2)*%
X55857436Y-146146250D02*
X56492436Y-146781250D01*
X55857436Y-138588750D02*
X55857436Y-146146250D01*
%TO.N,Net-(D37-Pad2)*%
X86813686Y-138588750D02*
X86813686Y-146146250D01*
X86813686Y-146146250D02*
X87448686Y-146781250D01*
%TO.N,Net-(D38-Pad2)*%
X113007436Y-138588750D02*
X113007436Y-146146250D01*
X113007436Y-146146250D02*
X113642436Y-146781250D01*
%TO.N,Net-(D39-Pad2)*%
X132057436Y-146146250D02*
X132692436Y-146781250D01*
X132057436Y-138588750D02*
X132057436Y-146146250D01*
%TO.N,Net-(D40-Pad2)*%
X151107436Y-146146250D02*
X151742436Y-146781250D01*
X151107436Y-138588750D02*
X151107436Y-146146250D01*
%TO.N,Net-(D41-Pad2)*%
X170157436Y-146146250D02*
X170792436Y-146781250D01*
X170157436Y-138588750D02*
X170157436Y-146146250D01*
%TO.N,Net-(D42-Pad2)*%
X189207436Y-138588750D02*
X189207436Y-146146250D01*
X189207436Y-146146250D02*
X189842436Y-146781250D01*
%TO.N,Net-(D43-Pad2)*%
X208257436Y-146146250D02*
X208892436Y-146781250D01*
X208257436Y-138588750D02*
X208257436Y-146146250D01*
%TO.N,Net-(D44-Pad2)*%
X227307436Y-146146250D02*
X227942436Y-146781250D01*
X227307436Y-138588750D02*
X227307436Y-146146250D01*
%TO.N,Net-(D45-Pad2)*%
X246357436Y-146146250D02*
X246992436Y-146781250D01*
X246357436Y-138588750D02*
X246357436Y-146146250D01*
%TO.N,Net-(D46-Pad2)*%
X265407436Y-146146250D02*
X266042436Y-146781250D01*
X265407436Y-138588750D02*
X265407436Y-146146250D01*
%TO.N,Net-(D47-Pad2)*%
X284457436Y-146146250D02*
X285092436Y-146781250D01*
X284457436Y-138588750D02*
X284457436Y-146146250D01*
%TO.N,Net-(D48-Pad2)*%
X303507436Y-138588750D02*
X303507436Y-146146250D01*
X303507436Y-146146250D02*
X304142436Y-146781250D01*
%TO.N,Net-(D49-Pad2)*%
X322557436Y-146146250D02*
X323192436Y-146781250D01*
X322557436Y-138588750D02*
X322557436Y-146146250D01*
%TO.N,Net-(D50-Pad2)*%
X374944936Y-138588750D02*
X374944936Y-146146250D01*
X374944936Y-146146250D02*
X375579936Y-146781250D01*
%TO.N,Net-(D51-Pad2)*%
X55857436Y-157638750D02*
X55857436Y-165196250D01*
X55857436Y-165196250D02*
X56492436Y-165831250D01*
%TO.N,Net-(D52-Pad2)*%
X91576186Y-165196250D02*
X92211186Y-165831250D01*
X91576186Y-157638750D02*
X91576186Y-165196250D01*
X91576186Y-157638750D02*
X82051186Y-157638750D01*
%TO.N,Net-(D53-Pad2)*%
X103482436Y-157638750D02*
X103482436Y-165196250D01*
X103482436Y-165196250D02*
X104117436Y-165831250D01*
%TO.N,Net-(D54-Pad2)*%
X122532436Y-165196250D02*
X123167436Y-165831250D01*
X122532436Y-157638750D02*
X122532436Y-165196250D01*
%TO.N,Net-(D55-Pad2)*%
X141582436Y-165196250D02*
X142217436Y-165831250D01*
X141582436Y-157638750D02*
X141582436Y-165196250D01*
%TO.N,Net-(D56-Pad2)*%
X160632436Y-157638750D02*
X160632436Y-165196250D01*
X160632436Y-165196250D02*
X161267436Y-165831250D01*
%TO.N,Net-(D57-Pad2)*%
X179682436Y-157638750D02*
X179682436Y-165196250D01*
X179682436Y-165196250D02*
X180317436Y-165831250D01*
%TO.N,Net-(D58-Pad2)*%
X198732436Y-157638750D02*
X198732436Y-165196250D01*
X198732436Y-165196250D02*
X199367436Y-165831250D01*
%TO.N,Net-(D59-Pad2)*%
X217782436Y-165196250D02*
X218417436Y-165831250D01*
X217782436Y-157638750D02*
X217782436Y-165196250D01*
%TO.N,Net-(D60-Pad2)*%
X236832436Y-157638750D02*
X236832436Y-165196250D01*
X236832436Y-165196250D02*
X237467436Y-165831250D01*
%TO.N,Net-(D61-Pad2)*%
X255882436Y-157638750D02*
X255882436Y-165196250D01*
X255882436Y-165196250D02*
X256517436Y-165831250D01*
%TO.N,Net-(D62-Pad2)*%
X274932436Y-165196250D02*
X275567436Y-165831250D01*
X274932436Y-157638750D02*
X274932436Y-165196250D01*
%TO.N,Net-(D63-Pad2)*%
X293982436Y-165196250D02*
X294617436Y-165831250D01*
X293982436Y-157638750D02*
X293982436Y-165196250D01*
%TO.N,Net-(D64-Pad2)*%
X320176186Y-165196250D02*
X320811186Y-165831250D01*
X320176186Y-157638750D02*
X320176186Y-165196250D01*
%TO.N,Net-(D65-Pad2)*%
X351132436Y-169958750D02*
X351767436Y-170593750D01*
X351132436Y-162401250D02*
X351132436Y-169958750D01*
%TO.N,Net-(D66-Pad2)*%
X374944936Y-165196250D02*
X375579936Y-165831250D01*
X374944936Y-157638750D02*
X374944936Y-165196250D01*
%TO.N,Net-(D67-Pad2)*%
X193969936Y-181451250D02*
X193969936Y-189008750D01*
X193969936Y-189008750D02*
X194604936Y-189643750D01*
%TO.N,Net-(D68-Pad2)*%
X55857436Y-176688750D02*
X55857436Y-184246250D01*
X55857436Y-184246250D02*
X56492436Y-184881250D01*
%TO.N,Net-(D69-Pad2)*%
X84432436Y-184246250D02*
X85067436Y-184881250D01*
X84432436Y-176688750D02*
X84432436Y-184246250D01*
%TO.N,Net-(D70-Pad2)*%
X110626186Y-176688750D02*
X110626186Y-184246250D01*
X110626186Y-184246250D02*
X111261186Y-184881250D01*
%TO.N,Net-(D71-Pad2)*%
X277313686Y-176688750D02*
X277313686Y-184246250D01*
X277313686Y-184246250D02*
X277948686Y-184881250D01*
%TO.N,Net-(D72-Pad2)*%
X303507436Y-184246250D02*
X304142436Y-184881250D01*
X303507436Y-176688750D02*
X303507436Y-184246250D01*
%TO.N,Net-(D73-Pad2)*%
X332082436Y-181451250D02*
X332082436Y-189008750D01*
X332082436Y-189008750D02*
X332717436Y-189643750D01*
%TO.N,Net-(D74-Pad2)*%
X351132436Y-181451250D02*
X351132436Y-189008750D01*
X351132436Y-189008750D02*
X351767436Y-189643750D01*
%TO.N,Net-(D75-Pad2)*%
X370182436Y-189008750D02*
X370817436Y-189643750D01*
X370182436Y-181451250D02*
X370182436Y-189008750D01*
%TO.N,ROW0*%
X349386186Y-111981250D02*
X351767436Y-114362500D01*
X232704936Y-111981250D02*
X251754936Y-111981250D01*
X63698686Y-97631250D02*
X63698686Y-99746000D01*
X175554936Y-111981250D02*
X194604936Y-111981250D01*
X309496996Y-111389190D02*
X327362876Y-111389190D01*
X308904936Y-111981250D02*
X309496996Y-111389190D01*
X194604936Y-111981250D02*
X213654936Y-111981250D01*
X70800415Y-106382979D02*
X76398686Y-111981250D01*
X118404936Y-111981250D02*
X137454936Y-111981250D01*
X76398686Y-111981250D02*
X80304936Y-111981250D01*
X327362876Y-111389190D02*
X327954936Y-111981250D01*
X99354936Y-111981250D02*
X118404936Y-111981250D01*
X348794126Y-111389190D02*
X349386186Y-111981250D01*
X70800415Y-104732979D02*
X70800415Y-106382979D01*
X251754936Y-111981250D02*
X270804936Y-111981250D01*
X80304936Y-111981250D02*
X99354936Y-111981250D01*
X328546996Y-111389190D02*
X348794126Y-111389190D01*
X270804936Y-111981250D02*
X289854936Y-111981250D01*
X289854936Y-111981250D02*
X308904936Y-111981250D01*
X137454936Y-111981250D02*
X156504936Y-111981250D01*
X327954936Y-111981250D02*
X328546996Y-111389190D01*
X63698686Y-97631250D02*
X70800415Y-104732979D01*
X156504936Y-111981250D02*
X175554936Y-111981250D01*
X63698686Y-99746000D02*
X62715436Y-100729250D01*
X213654936Y-111981250D02*
X232704936Y-111981250D01*
X351767436Y-114362500D02*
X376373686Y-114362500D01*
%TO.N,ROW1*%
X60708836Y-128669250D02*
X57907857Y-125868271D01*
X341195784Y-131031250D02*
X340193773Y-130029239D01*
X242229936Y-131031250D02*
X223179936Y-131031250D01*
X185079936Y-131031250D02*
X166029936Y-131031250D01*
X350179936Y-131031250D02*
X341195784Y-131031250D01*
X299379936Y-131031250D02*
X280329936Y-131031250D01*
X146979936Y-131031250D02*
X127929936Y-131031250D01*
X127929936Y-131031250D02*
X108879936Y-131031250D01*
X261279936Y-131031250D02*
X242229936Y-131031250D01*
X57549095Y-125537500D02*
X56492436Y-125537500D01*
X318429936Y-131031250D02*
X299379936Y-131031250D01*
X375579936Y-130968750D02*
X350242436Y-130968750D01*
X350242436Y-130968750D02*
X350179936Y-131031250D01*
X319431947Y-130029239D02*
X318429936Y-131031250D01*
X280329936Y-131031250D02*
X261279936Y-131031250D01*
X65077436Y-131031250D02*
X85067436Y-131031250D01*
X340193773Y-130029239D02*
X319431947Y-130029239D01*
X57907857Y-125868271D02*
X57879866Y-125868271D01*
X204129936Y-131031250D02*
X185079936Y-131031250D01*
X62715436Y-128669250D02*
X65077436Y-131031250D01*
X57879866Y-125868271D02*
X57549095Y-125537500D01*
X223179936Y-131031250D02*
X204129936Y-131031250D01*
X166029936Y-131031250D02*
X146979936Y-131031250D01*
X108879936Y-131031250D02*
X85067436Y-131031250D01*
%TO.N,ROW2*%
X323192436Y-150081250D02*
X339861186Y-150081250D01*
X375032915Y-149534229D02*
X375579936Y-150081250D01*
X322645415Y-149534229D02*
X323192436Y-150081250D01*
X189842436Y-150081250D02*
X208892436Y-150081250D01*
X208892436Y-150081250D02*
X227942436Y-150081250D01*
X227942436Y-150081250D02*
X246992436Y-150081250D01*
X132692436Y-150081250D02*
X151742436Y-150081250D01*
X170792436Y-150081250D02*
X189842436Y-150081250D01*
X151742436Y-150081250D02*
X170792436Y-150081250D01*
X340408207Y-149534229D02*
X375032915Y-149534229D01*
X87448686Y-150081250D02*
X113642436Y-150081250D01*
X285092436Y-150081250D02*
X304142436Y-150081250D01*
X113642436Y-150081250D02*
X132692436Y-150081250D01*
X58017436Y-150081250D02*
X59667436Y-148431250D01*
X304689457Y-149534229D02*
X322645415Y-149534229D01*
X56492436Y-150081250D02*
X58017436Y-150081250D01*
X339861186Y-150081250D02*
X340408207Y-149534229D01*
X246992436Y-150081250D02*
X266042436Y-150081250D01*
X266042436Y-150081250D02*
X285092436Y-150081250D01*
X56492436Y-150081250D02*
X87448686Y-150081250D01*
X304142436Y-150081250D02*
X304689457Y-149534229D01*
%TO.N,ROW3*%
X320811186Y-169131250D02*
X294617436Y-169131250D01*
X294617436Y-169131250D02*
X275567436Y-169131250D01*
X370817436Y-173893750D02*
X375579936Y-169131250D01*
X91664165Y-168584229D02*
X61564165Y-168584229D01*
X123167436Y-169131250D02*
X104117436Y-169131250D01*
X57039457Y-168584229D02*
X56492436Y-169131250D01*
X92758207Y-168584229D02*
X92211186Y-169131250D01*
X256517436Y-169131250D02*
X237467436Y-169131250D01*
X325573686Y-173893750D02*
X351767436Y-173893750D01*
X237467436Y-169131250D02*
X237467436Y-169068750D01*
X61564165Y-168584229D02*
X57039457Y-168584229D01*
X218417436Y-169131250D02*
X199367436Y-169131250D01*
X320811186Y-169131250D02*
X325573686Y-173893750D01*
X237404936Y-169131250D02*
X218417436Y-169131250D01*
X180317436Y-169131250D02*
X161267436Y-169131250D01*
X62842436Y-167305958D02*
X62842436Y-165100000D01*
X161267436Y-169131250D02*
X142217436Y-169131250D01*
X351767436Y-173893750D02*
X370817436Y-173893750D01*
X61564165Y-168584229D02*
X62842436Y-167305958D01*
X92211186Y-169131250D02*
X91664165Y-168584229D01*
X103570415Y-168584229D02*
X92758207Y-168584229D01*
X142217436Y-169131250D02*
X123167436Y-169131250D01*
X104117436Y-169131250D02*
X103570415Y-168584229D01*
X275567436Y-169131250D02*
X256517436Y-169131250D01*
X199367436Y-169131250D02*
X180317436Y-169131250D01*
X237467436Y-169068750D02*
X237404936Y-169131250D01*
%TO.N,ROW4*%
X189692436Y-188181250D02*
X111261186Y-188181250D01*
X319880250Y-188181250D02*
X324642750Y-192943750D01*
X324642750Y-192943750D02*
X332717436Y-192943750D01*
X351767436Y-192943750D02*
X370817436Y-192943750D01*
X194604936Y-192943750D02*
X194454936Y-192943750D01*
X194454936Y-192943750D02*
X189692436Y-188181250D01*
X194604936Y-192943750D02*
X199367436Y-188181250D01*
X199367436Y-188181250D02*
X277948686Y-188181250D01*
X85067436Y-188181250D02*
X111261186Y-188181250D01*
X332717436Y-192943750D02*
X351767436Y-192943750D01*
X277948686Y-188181250D02*
X304142436Y-188181250D01*
X50936186Y-184150000D02*
X54967436Y-188181250D01*
X304142436Y-188181250D02*
X319880250Y-188181250D01*
X54967436Y-188181250D02*
X56492436Y-188181250D01*
X56492436Y-188181250D02*
X85067436Y-188181250D01*
%TO.N,ROT1*%
X360379936Y-103068750D02*
X364904936Y-103068750D01*
X358911186Y-101600000D02*
X360379936Y-103068750D01*
%TO.N,ROT0*%
X65514456Y-113429250D02*
X62715436Y-113429250D01*
X360498686Y-117475000D02*
X359599646Y-116575960D01*
X67604936Y-115519730D02*
X65514456Y-113429250D01*
X320143883Y-115519730D02*
X67604936Y-115519730D01*
X359599646Y-116575960D02*
X321200113Y-116575960D01*
X321200113Y-116575960D02*
X320143883Y-115519730D01*
%TO.N,GND*%
X56830415Y-104319229D02*
X59447415Y-104319229D01*
X45697436Y-103269250D02*
X47512447Y-101454239D01*
X47512447Y-101454239D02*
X53965425Y-101454239D01*
X60937436Y-105809250D02*
X60937436Y-108349250D01*
X59447415Y-104319229D02*
X60937436Y-105809250D01*
X53965425Y-101454239D02*
X56830415Y-104319229D01*
%TD*%
M02*
