%TF.GenerationSoftware,KiCad,Pcbnew,(6.0.4)*%
%TF.CreationDate,2022-07-27T19:48:40+02:00*%
%TF.ProjectId,65MK,36354d4b-2e6b-4696-9361-645f70636258,rev?*%
%TF.SameCoordinates,Original*%
%TF.FileFunction,Copper,L2,Bot*%
%TF.FilePolarity,Positive*%
%FSLAX46Y46*%
G04 Gerber Fmt 4.6, Leading zero omitted, Abs format (unit mm)*
G04 Created by KiCad (PCBNEW (6.0.4)) date 2022-07-27 19:48:40*
%MOMM*%
%LPD*%
G01*
G04 APERTURE LIST*
%TA.AperFunction,ComponentPad*%
%ADD10C,2.500000*%
%TD*%
%TA.AperFunction,ComponentPad*%
%ADD11R,2.000000X2.000000*%
%TD*%
%TA.AperFunction,ComponentPad*%
%ADD12C,2.000000*%
%TD*%
%TA.AperFunction,ComponentPad*%
%ADD13R,3.200000X2.000000*%
%TD*%
%TA.AperFunction,SMDPad,CuDef*%
%ADD14R,1.200000X0.900000*%
%TD*%
%TA.AperFunction,SMDPad,CuDef*%
%ADD15R,0.900000X1.200000*%
%TD*%
%TA.AperFunction,ComponentPad*%
%ADD16R,1.752600X1.752600*%
%TD*%
%TA.AperFunction,ComponentPad*%
%ADD17C,1.752600*%
%TD*%
%TA.AperFunction,SMDPad,CuDef*%
%ADD18R,3.250000X2.000000*%
%TD*%
%TA.AperFunction,SMDPad,CuDef*%
%ADD19R,2.000000X3.250000*%
%TD*%
%TA.AperFunction,ViaPad*%
%ADD20C,0.800000*%
%TD*%
%TA.AperFunction,Conductor*%
%ADD21C,0.250000*%
%TD*%
G04 APERTURE END LIST*
D10*
%TO.P,MX4,1,COL*%
%TO.N,COL3*%
X93027500Y-103028750D03*
%TO.P,MX4,2,ROW*%
%TO.N,Net-(D4-Pad2)*%
X99377500Y-100488750D03*
%TD*%
%TO.P,MX13,1,COL*%
%TO.N,COL12*%
X264477500Y-103028750D03*
%TO.P,MX13,2,ROW*%
%TO.N,Net-(D13-Pad2)*%
X270827500Y-100488750D03*
%TD*%
%TO.P,MX1,1,COL*%
%TO.N,COL0*%
X31115000Y-103028750D03*
%TO.P,MX1,2,ROW*%
%TO.N,Net-(D1-Pad2)*%
X37465000Y-100488750D03*
%TD*%
%TO.P,MX46,1,COL*%
%TO.N,COL11*%
X259715000Y-141128750D03*
%TO.P,MX46,2,ROW*%
%TO.N,Net-(D47-Pad2)*%
X266065000Y-138588750D03*
%TD*%
%TO.P,MX8,1,COL*%
%TO.N,COL7*%
X169227500Y-103028750D03*
%TO.P,MX8,2,ROW*%
%TO.N,Net-(D8-Pad2)*%
X175577500Y-100488750D03*
%TD*%
%TO.P,MX14,1,COL*%
%TO.N,COL13*%
X283527500Y-103028750D03*
%TO.P,MX14,2,ROW*%
%TO.N,Net-(D14-Pad2)*%
X289877500Y-100488750D03*
%TD*%
%TO.P,MX16,1,COL*%
%TO.N,COL15*%
X321627500Y-103028750D03*
%TO.P,MX16,2,ROW*%
%TO.N,Net-(D16-Pad2)*%
X327977500Y-100488750D03*
%TD*%
%TO.P,MX74,1,COL*%
%TO.N,COL16*%
X345440000Y-183991250D03*
%TO.P,MX74,2,ROW*%
%TO.N,Net-(D75-Pad2)*%
X351790000Y-181451250D03*
%TD*%
%TO.P,MX36,1,COL*%
%TO.N,COL1*%
X62071250Y-141128750D03*
%TO.P,MX36,2,ROW*%
%TO.N,Net-(D37-Pad2)*%
X68421250Y-138588750D03*
%TD*%
%TO.P,MX48,1,COL*%
%TO.N,COL13*%
X297815000Y-141128750D03*
%TO.P,MX48,2,ROW*%
%TO.N,Net-(D49-Pad2)*%
X304165000Y-138588750D03*
%TD*%
%TO.P,MX61,1,COL*%
%TO.N,COL11*%
X250190000Y-160178750D03*
%TO.P,MX61,2,ROW*%
%TO.N,Net-(D62-Pad2)*%
X256540000Y-157638750D03*
%TD*%
%TO.P,MX55,1,COL*%
%TO.N,COL5*%
X135890000Y-160178750D03*
%TO.P,MX55,2,ROW*%
%TO.N,Net-(D56-Pad2)*%
X142240000Y-157638750D03*
%TD*%
%TO.P,MX43,1,COL*%
%TO.N,COL8*%
X202565000Y-141128750D03*
%TO.P,MX43,2,ROW*%
%TO.N,Net-(D44-Pad2)*%
X208915000Y-138588750D03*
%TD*%
%TO.P,MX54,1,COL*%
%TO.N,COL4*%
X116840000Y-160178750D03*
%TO.P,MX54,2,ROW*%
%TO.N,Net-(D55-Pad2)*%
X123190000Y-157638750D03*
%TD*%
%TO.P,MX68,1,COL*%
%TO.N,COL1*%
X59690000Y-179228750D03*
%TO.P,MX68,2,ROW*%
%TO.N,Net-(D69-Pad2)*%
X66040000Y-176688750D03*
%TD*%
%TO.P,MX17,1,COL*%
%TO.N,COL16*%
X350202500Y-103028750D03*
%TO.P,MX17,2,ROW*%
%TO.N,Net-(D17-Pad2)*%
X356552500Y-100488750D03*
%TD*%
%TO.P,MX52,1,COL*%
%TO.N,COL2*%
X78740000Y-160178750D03*
%TO.P,MX52,2,ROW*%
%TO.N,Net-(D53-Pad2)*%
X85090000Y-157638750D03*
%TD*%
%TO.P,MX33,1,COL*%
%TO.N,COL16*%
X350202500Y-122078750D03*
%TO.P,MX33,2,ROW*%
%TO.N,Net-(D34-Pad2)*%
X356552500Y-119538750D03*
%TD*%
%TO.P,MX49,1,COL*%
%TO.N,COL16*%
X350202500Y-141128750D03*
%TO.P,MX49,2,ROW*%
%TO.N,Net-(D50-Pad2)*%
X356552500Y-138588750D03*
%TD*%
%TO.P,MX26,1,COL*%
%TO.N,COL8*%
X197802500Y-122078750D03*
%TO.P,MX26,2,ROW*%
%TO.N,Net-(D27-Pad2)*%
X204152500Y-119538750D03*
%TD*%
%TO.P,MX29,1,COL*%
%TO.N,COL11*%
X254952500Y-122078750D03*
%TO.P,MX29,2,ROW*%
%TO.N,Net-(D30-Pad2)*%
X261302500Y-119538750D03*
%TD*%
%TO.P,MX30,1,COL*%
%TO.N,COL12*%
X274002500Y-122078750D03*
%TO.P,MX30,2,ROW*%
%TO.N,Net-(D31-Pad2)*%
X280352500Y-119538750D03*
%TD*%
%TO.P,MX27,1,COL*%
%TO.N,COL9*%
X216852500Y-122078750D03*
%TO.P,MX27,2,ROW*%
%TO.N,Net-(D28-Pad2)*%
X223202500Y-119538750D03*
%TD*%
%TO.P,MX37,1,COL*%
%TO.N,COL2*%
X88265000Y-141128750D03*
%TO.P,MX37,2,ROW*%
%TO.N,Net-(D38-Pad2)*%
X94615000Y-138588750D03*
%TD*%
%TO.P,MX53,1,COL*%
%TO.N,COL3*%
X97790000Y-160178750D03*
%TO.P,MX53,2,ROW*%
%TO.N,Net-(D54-Pad2)*%
X104140000Y-157638750D03*
%TD*%
%TO.P,MX10,1,COL*%
%TO.N,COL9*%
X207327500Y-103028750D03*
%TO.P,MX10,2,ROW*%
%TO.N,Net-(D10-Pad2)*%
X213677500Y-100488750D03*
%TD*%
%TO.P,MX62,1,COL*%
%TO.N,COL12*%
X269240000Y-160178750D03*
%TO.P,MX62,2,ROW*%
%TO.N,Net-(D63-Pad2)*%
X275590000Y-157638750D03*
%TD*%
%TO.P,MX50,1,COL*%
%TO.N,COL0*%
X31115000Y-160178750D03*
%TO.P,MX50,2,ROW*%
%TO.N,Net-(D51-Pad2)*%
X37465000Y-157638750D03*
%TD*%
%TO.P,MX60,1,COL*%
%TO.N,COL10*%
X231140000Y-160178750D03*
%TO.P,MX60,2,ROW*%
%TO.N,Net-(D61-Pad2)*%
X237490000Y-157638750D03*
%TD*%
%TO.P,MX71,1,COL*%
%TO.N,COL12*%
X278765000Y-179228750D03*
%TO.P,MX71,2,ROW*%
%TO.N,Net-(D72-Pad2)*%
X285115000Y-176688750D03*
%TD*%
%TO.P,MX70,1,COL*%
%TO.N,COL11*%
X252571250Y-179228750D03*
%TO.P,MX70,2,ROW*%
%TO.N,Net-(D71-Pad2)*%
X258921250Y-176688750D03*
%TD*%
%TO.P,MX34,1,COL*%
%TO.N,COL14*%
X309721250Y-141128750D03*
X319246250Y-131603750D03*
%TO.P,MX34,2,ROW*%
%TO.N,Net-(D35-Pad2)*%
X325596250Y-129063750D03*
X316071250Y-138588750D03*
%TD*%
%TO.P,MX28,1,COL*%
%TO.N,COL10*%
X235902500Y-122078750D03*
%TO.P,MX28,2,ROW*%
%TO.N,Net-(D29-Pad2)*%
X242252500Y-119538750D03*
%TD*%
%TO.P,MX65,1,COL*%
%TO.N,COL16*%
X350202500Y-160178750D03*
%TO.P,MX65,2,ROW*%
%TO.N,Net-(D66-Pad2)*%
X356552500Y-157638750D03*
%TD*%
%TO.P,MX73,1,COL*%
%TO.N,COL15*%
X326390000Y-183991250D03*
%TO.P,MX73,2,ROW*%
%TO.N,Net-(D74-Pad2)*%
X332740000Y-181451250D03*
%TD*%
%TO.P,MX6,1,COL*%
%TO.N,COL5*%
X131127500Y-103028750D03*
%TO.P,MX6,2,ROW*%
%TO.N,Net-(D6-Pad2)*%
X137477500Y-100488750D03*
%TD*%
%TO.P,MX5,1,COL*%
%TO.N,COL4*%
X112077500Y-103028750D03*
%TO.P,MX5,2,ROW*%
%TO.N,Net-(D5-Pad2)*%
X118427500Y-100488750D03*
%TD*%
%TO.P,MX3,1,COL*%
%TO.N,COL2*%
X73977500Y-103028750D03*
%TO.P,MX3,2,ROW*%
%TO.N,Net-(D3-Pad2)*%
X80327500Y-100488750D03*
%TD*%
%TO.P,MX18,1,COL*%
%TO.N,COL0*%
X31115000Y-122078750D03*
%TO.P,MX18,2,ROW*%
%TO.N,Net-(D19-Pad2)*%
X37465000Y-119538750D03*
%TD*%
%TO.P,MX31,1,COL*%
%TO.N,COL13*%
X293052500Y-122078750D03*
%TO.P,MX31,2,ROW*%
%TO.N,Net-(D32-Pad2)*%
X299402500Y-119538750D03*
%TD*%
%TO.P,MX2,1,COL*%
%TO.N,COL1*%
X54927500Y-103028750D03*
%TO.P,MX2,2,ROW*%
%TO.N,Net-(D2-Pad2)*%
X61277500Y-100488750D03*
%TD*%
%TO.P,MX25,1,COL*%
%TO.N,COL7*%
X178752500Y-122078750D03*
%TO.P,MX25,2,ROW*%
%TO.N,Net-(D26-Pad2)*%
X185102500Y-119538750D03*
%TD*%
%TO.P,MX23,1,COL*%
%TO.N,COL5*%
X140652500Y-122078750D03*
%TO.P,MX23,2,ROW*%
%TO.N,Net-(D24-Pad2)*%
X147002500Y-119538750D03*
%TD*%
%TO.P,MX69,1,COL*%
%TO.N,COL2*%
X85883750Y-179228750D03*
%TO.P,MX69,2,ROW*%
%TO.N,Net-(D70-Pad2)*%
X92233750Y-176688750D03*
%TD*%
%TO.P,MX44,1,COL*%
%TO.N,COL9*%
X221615000Y-141128750D03*
%TO.P,MX44,2,ROW*%
%TO.N,Net-(D45-Pad2)*%
X227965000Y-138588750D03*
%TD*%
%TO.P,MX66,1,COL*%
%TO.N,COL7*%
X169227500Y-183991250D03*
%TO.P,MX66,2,ROW*%
%TO.N,Net-(D67-Pad2)*%
X175577500Y-181451250D03*
%TD*%
%TO.P,MX72,1,COL*%
%TO.N,COL14*%
X307340000Y-183991250D03*
%TO.P,MX72,2,ROW*%
%TO.N,Net-(D73-Pad2)*%
X313690000Y-181451250D03*
%TD*%
%TO.P,MX51,1,COL*%
%TO.N,COL1*%
X66833750Y-160178750D03*
X57308750Y-160178750D03*
%TO.P,MX51,2,ROW*%
%TO.N,Net-(D52-Pad2)*%
X63658750Y-157638750D03*
X73183750Y-157638750D03*
%TD*%
%TO.P,MX64,1,COL*%
%TO.N,COL14*%
X326390000Y-164941250D03*
%TO.P,MX64,2,ROW*%
%TO.N,Net-(D65-Pad2)*%
X332740000Y-162401250D03*
%TD*%
%TO.P,MX39,1,COL*%
%TO.N,COL4*%
X126365000Y-141128750D03*
%TO.P,MX39,2,ROW*%
%TO.N,Net-(D40-Pad2)*%
X132715000Y-138588750D03*
%TD*%
%TO.P,MX47,1,COL*%
%TO.N,COL12*%
X278765000Y-141128750D03*
%TO.P,MX47,2,ROW*%
%TO.N,Net-(D48-Pad2)*%
X285115000Y-138588750D03*
%TD*%
D11*
%TO.P,SW1,A,A*%
%TO.N,ROT1*%
X346512500Y-103068750D03*
D12*
%TO.P,SW1,B,B*%
%TO.N,ROT0*%
X346512500Y-108068750D03*
%TO.P,SW1,C,C*%
%TO.N,GND*%
X346512500Y-105568750D03*
D13*
%TO.P,SW1,MP*%
%TO.N,N/C*%
X354012500Y-99968750D03*
X354012500Y-111168750D03*
D12*
%TO.P,SW1,S1,S1*%
%TO.N,Net-(D17-Pad2)*%
X361012500Y-108068750D03*
%TO.P,SW1,S2,S2*%
%TO.N,COL16*%
X361012500Y-103068750D03*
%TD*%
D10*
%TO.P,MX59,1,COL*%
%TO.N,COL9*%
X212090000Y-160178750D03*
%TO.P,MX59,2,ROW*%
%TO.N,Net-(D60-Pad2)*%
X218440000Y-157638750D03*
%TD*%
%TO.P,MX42,1,COL*%
%TO.N,COL7*%
X183515000Y-141128750D03*
%TO.P,MX42,2,ROW*%
%TO.N,Net-(D43-Pad2)*%
X189865000Y-138588750D03*
%TD*%
%TO.P,MX38,1,COL*%
%TO.N,COL3*%
X107315000Y-141128750D03*
%TO.P,MX38,2,ROW*%
%TO.N,Net-(D39-Pad2)*%
X113665000Y-138588750D03*
%TD*%
%TO.P,MX15,1,COL*%
%TO.N,COL14*%
X302577500Y-103028750D03*
X312102500Y-103028750D03*
%TO.P,MX15,2,ROW*%
%TO.N,Net-(D15-Pad2)*%
X318452500Y-100488750D03*
X308927500Y-100488750D03*
%TD*%
%TO.P,MX41,1,COL*%
%TO.N,COL6*%
X164465000Y-141128750D03*
%TO.P,MX41,2,ROW*%
%TO.N,Net-(D42-Pad2)*%
X170815000Y-138588750D03*
%TD*%
%TO.P,MX24,1,COL*%
%TO.N,COL6*%
X159702500Y-122078750D03*
%TO.P,MX24,2,ROW*%
%TO.N,Net-(D25-Pad2)*%
X166052500Y-119538750D03*
%TD*%
%TO.P,MX12,1,COL*%
%TO.N,COL11*%
X245427500Y-103028750D03*
%TO.P,MX12,2,ROW*%
%TO.N,Net-(D12-Pad2)*%
X251777500Y-100488750D03*
%TD*%
%TO.P,MX63,1,COL*%
%TO.N,COL13*%
X295433750Y-160178750D03*
%TO.P,MX63,2,ROW*%
%TO.N,Net-(D64-Pad2)*%
X301783750Y-157638750D03*
%TD*%
%TO.P,MX11,1,COL*%
%TO.N,COL10*%
X226377500Y-103028750D03*
%TO.P,MX11,2,ROW*%
%TO.N,Net-(D11-Pad2)*%
X232727500Y-100488750D03*
%TD*%
%TO.P,MX58,1,COL*%
%TO.N,COL8*%
X193040000Y-160178750D03*
%TO.P,MX58,2,ROW*%
%TO.N,Net-(D59-Pad2)*%
X199390000Y-157638750D03*
%TD*%
%TO.P,MX45,1,COL*%
%TO.N,COL10*%
X240665000Y-141128750D03*
%TO.P,MX45,2,ROW*%
%TO.N,Net-(D46-Pad2)*%
X247015000Y-138588750D03*
%TD*%
%TO.P,MX35,1,COL*%
%TO.N,COL0*%
X31115000Y-141128750D03*
%TO.P,MX35,2,ROW*%
%TO.N,Net-(D36-Pad2)*%
X37465000Y-138588750D03*
%TD*%
%TO.P,MX19,1,COL*%
%TO.N,COL1*%
X59690000Y-122078750D03*
%TO.P,MX19,2,ROW*%
%TO.N,Net-(D20-Pad2)*%
X66040000Y-119538750D03*
%TD*%
%TO.P,MX32,1,COL*%
%TO.N,COL15*%
X316865000Y-122078750D03*
%TO.P,MX32,2,ROW*%
%TO.N,Net-(D33-Pad2)*%
X323215000Y-119538750D03*
%TD*%
%TO.P,MX40,1,COL*%
%TO.N,COL5*%
X145415000Y-141128750D03*
%TO.P,MX40,2,ROW*%
%TO.N,Net-(D41-Pad2)*%
X151765000Y-138588750D03*
%TD*%
%TO.P,MX9,1,COL*%
%TO.N,COL8*%
X188277500Y-103028750D03*
%TO.P,MX9,2,ROW*%
%TO.N,Net-(D9-Pad2)*%
X194627500Y-100488750D03*
%TD*%
%TO.P,MX7,1,COL*%
%TO.N,COL6*%
X150177500Y-103028750D03*
%TO.P,MX7,2,ROW*%
%TO.N,Net-(D7-Pad2)*%
X156527500Y-100488750D03*
%TD*%
%TO.P,MX21,1,COL*%
%TO.N,COL3*%
X102552500Y-122078750D03*
%TO.P,MX21,2,ROW*%
%TO.N,Net-(D22-Pad2)*%
X108902500Y-119538750D03*
%TD*%
%TO.P,MX22,1,COL*%
%TO.N,COL4*%
X121602500Y-122078750D03*
%TO.P,MX22,2,ROW*%
%TO.N,Net-(D23-Pad2)*%
X127952500Y-119538750D03*
%TD*%
%TO.P,MX57,1,COL*%
%TO.N,COL7*%
X173990000Y-160178750D03*
%TO.P,MX57,2,ROW*%
%TO.N,Net-(D58-Pad2)*%
X180340000Y-157638750D03*
%TD*%
%TO.P,MX20,1,COL*%
%TO.N,COL2*%
X83502500Y-122078750D03*
%TO.P,MX20,2,ROW*%
%TO.N,Net-(D21-Pad2)*%
X89852500Y-119538750D03*
%TD*%
%TO.P,MX67,1,COL*%
%TO.N,COL0*%
X31115000Y-179228750D03*
%TO.P,MX67,2,ROW*%
%TO.N,Net-(D68-Pad2)*%
X37465000Y-176688750D03*
%TD*%
%TO.P,MX56,1,COL*%
%TO.N,COL6*%
X154940000Y-160178750D03*
%TO.P,MX56,2,ROW*%
%TO.N,Net-(D57-Pad2)*%
X161290000Y-157638750D03*
%TD*%
D14*
%TO.P,D62,1,K*%
%TO.N,ROW3*%
X257175000Y-169131250D03*
%TO.P,D62,2,A*%
%TO.N,Net-(D62-Pad2)*%
X257175000Y-165831250D03*
%TD*%
%TO.P,D58,1,K*%
%TO.N,ROW3*%
X180975000Y-169131250D03*
%TO.P,D58,2,A*%
%TO.N,Net-(D58-Pad2)*%
X180975000Y-165831250D03*
%TD*%
%TO.P,D69,1,K*%
%TO.N,ROW4*%
X66675000Y-188181250D03*
%TO.P,D69,2,A*%
%TO.N,Net-(D69-Pad2)*%
X66675000Y-184881250D03*
%TD*%
%TO.P,D57,1,K*%
%TO.N,ROW3*%
X161925000Y-169131250D03*
%TO.P,D57,2,A*%
%TO.N,Net-(D57-Pad2)*%
X161925000Y-165831250D03*
%TD*%
%TO.P,D14,1,K*%
%TO.N,ROW0*%
X290512500Y-111981250D03*
%TO.P,D14,2,A*%
%TO.N,Net-(D14-Pad2)*%
X290512500Y-108681250D03*
%TD*%
%TO.P,D74,1,K*%
%TO.N,ROW4*%
X333375000Y-192943750D03*
%TO.P,D74,2,A*%
%TO.N,Net-(D74-Pad2)*%
X333375000Y-189643750D03*
%TD*%
%TO.P,D39,1,K*%
%TO.N,ROW2*%
X114300000Y-150081250D03*
%TO.P,D39,2,A*%
%TO.N,Net-(D39-Pad2)*%
X114300000Y-146781250D03*
%TD*%
%TO.P,D7,1,K*%
%TO.N,ROW0*%
X157162500Y-111981250D03*
%TO.P,D7,2,A*%
%TO.N,Net-(D7-Pad2)*%
X157162500Y-108681250D03*
%TD*%
%TO.P,D5,1,K*%
%TO.N,ROW0*%
X119062500Y-111981250D03*
%TO.P,D5,2,A*%
%TO.N,Net-(D5-Pad2)*%
X119062500Y-108681250D03*
%TD*%
%TO.P,D21,1,K*%
%TO.N,ROW1*%
X90487500Y-131031250D03*
%TO.P,D21,2,A*%
%TO.N,Net-(D21-Pad2)*%
X90487500Y-127731250D03*
%TD*%
%TO.P,D44,1,K*%
%TO.N,ROW2*%
X209550000Y-150081250D03*
%TO.P,D44,2,A*%
%TO.N,Net-(D44-Pad2)*%
X209550000Y-146781250D03*
%TD*%
%TO.P,D11,1,K*%
%TO.N,ROW0*%
X233362500Y-111981250D03*
%TO.P,D11,2,A*%
%TO.N,Net-(D11-Pad2)*%
X233362500Y-108681250D03*
%TD*%
%TO.P,D22,1,K*%
%TO.N,ROW1*%
X109537500Y-131031250D03*
%TO.P,D22,2,A*%
%TO.N,Net-(D22-Pad2)*%
X109537500Y-127731250D03*
%TD*%
%TO.P,D19,1,K*%
%TO.N,ROW1*%
X38100000Y-125537500D03*
%TO.P,D19,2,A*%
%TO.N,Net-(D19-Pad2)*%
X38100000Y-122237500D03*
%TD*%
%TO.P,D46,1,K*%
%TO.N,ROW2*%
X247650000Y-150081250D03*
%TO.P,D46,2,A*%
%TO.N,Net-(D46-Pad2)*%
X247650000Y-146781250D03*
%TD*%
%TO.P,D73,1,K*%
%TO.N,ROW4*%
X314325000Y-192943750D03*
%TO.P,D73,2,A*%
%TO.N,Net-(D73-Pad2)*%
X314325000Y-189643750D03*
%TD*%
%TO.P,D38,1,K*%
%TO.N,ROW2*%
X95250000Y-150081250D03*
%TO.P,D38,2,A*%
%TO.N,Net-(D38-Pad2)*%
X95250000Y-146781250D03*
%TD*%
%TO.P,D55,1,K*%
%TO.N,ROW3*%
X123825000Y-169131250D03*
%TO.P,D55,2,A*%
%TO.N,Net-(D55-Pad2)*%
X123825000Y-165831250D03*
%TD*%
%TO.P,D71,1,K*%
%TO.N,ROW4*%
X259556250Y-188181250D03*
%TO.P,D71,2,A*%
%TO.N,Net-(D71-Pad2)*%
X259556250Y-184881250D03*
%TD*%
%TO.P,D36,1,K*%
%TO.N,ROW2*%
X38100000Y-150081250D03*
%TO.P,D36,2,A*%
%TO.N,Net-(D36-Pad2)*%
X38100000Y-146781250D03*
%TD*%
%TO.P,D43,1,K*%
%TO.N,ROW2*%
X190500000Y-150081250D03*
%TO.P,D43,2,A*%
%TO.N,Net-(D43-Pad2)*%
X190500000Y-146781250D03*
%TD*%
%TO.P,D66,1,K*%
%TO.N,ROW3*%
X357187500Y-169131250D03*
%TO.P,D66,2,A*%
%TO.N,Net-(D66-Pad2)*%
X357187500Y-165831250D03*
%TD*%
%TO.P,D52,1,K*%
%TO.N,ROW3*%
X73818750Y-169131250D03*
%TO.P,D52,2,A*%
%TO.N,Net-(D52-Pad2)*%
X73818750Y-165831250D03*
%TD*%
%TO.P,D48,1,K*%
%TO.N,ROW2*%
X285750000Y-150081250D03*
%TO.P,D48,2,A*%
%TO.N,Net-(D48-Pad2)*%
X285750000Y-146781250D03*
%TD*%
%TO.P,D6,1,K*%
%TO.N,ROW0*%
X138112500Y-111981250D03*
%TO.P,D6,2,A*%
%TO.N,Net-(D6-Pad2)*%
X138112500Y-108681250D03*
%TD*%
%TO.P,D53,1,K*%
%TO.N,ROW3*%
X85725000Y-169131250D03*
%TO.P,D53,2,A*%
%TO.N,Net-(D53-Pad2)*%
X85725000Y-165831250D03*
%TD*%
%TO.P,D61,1,K*%
%TO.N,ROW3*%
X238125000Y-169131250D03*
%TO.P,D61,2,A*%
%TO.N,Net-(D61-Pad2)*%
X238125000Y-165831250D03*
%TD*%
%TO.P,D24,1,K*%
%TO.N,ROW1*%
X147637500Y-131031250D03*
%TO.P,D24,2,A*%
%TO.N,Net-(D24-Pad2)*%
X147637500Y-127731250D03*
%TD*%
%TO.P,D31,1,K*%
%TO.N,ROW1*%
X280987500Y-131031250D03*
%TO.P,D31,2,A*%
%TO.N,Net-(D31-Pad2)*%
X280987500Y-127731250D03*
%TD*%
%TO.P,D20,1,K*%
%TO.N,ROW1*%
X66675000Y-131031250D03*
%TO.P,D20,2,A*%
%TO.N,Net-(D20-Pad2)*%
X66675000Y-127731250D03*
%TD*%
%TO.P,D26,1,K*%
%TO.N,ROW1*%
X185737500Y-131031250D03*
%TO.P,D26,2,A*%
%TO.N,Net-(D26-Pad2)*%
X185737500Y-127731250D03*
%TD*%
%TO.P,D3,1,K*%
%TO.N,ROW0*%
X80962500Y-111981250D03*
%TO.P,D3,2,A*%
%TO.N,Net-(D3-Pad2)*%
X80962500Y-108681250D03*
%TD*%
%TO.P,D12,1,K*%
%TO.N,ROW0*%
X252412500Y-111981250D03*
%TO.P,D12,2,A*%
%TO.N,Net-(D12-Pad2)*%
X252412500Y-108681250D03*
%TD*%
%TO.P,D45,1,K*%
%TO.N,ROW2*%
X228600000Y-150081250D03*
%TO.P,D45,2,A*%
%TO.N,Net-(D45-Pad2)*%
X228600000Y-146781250D03*
%TD*%
%TO.P,D72,1,K*%
%TO.N,ROW4*%
X285750000Y-188181250D03*
%TO.P,D72,2,A*%
%TO.N,Net-(D72-Pad2)*%
X285750000Y-184881250D03*
%TD*%
%TO.P,D2,1,K*%
%TO.N,ROW0*%
X61912500Y-111981250D03*
%TO.P,D2,2,A*%
%TO.N,Net-(D2-Pad2)*%
X61912500Y-108681250D03*
%TD*%
%TO.P,D42,1,K*%
%TO.N,ROW2*%
X171450000Y-150081250D03*
%TO.P,D42,2,A*%
%TO.N,Net-(D42-Pad2)*%
X171450000Y-146781250D03*
%TD*%
%TO.P,D15,1,K*%
%TO.N,ROW0*%
X309562500Y-111981250D03*
%TO.P,D15,2,A*%
%TO.N,Net-(D15-Pad2)*%
X309562500Y-108681250D03*
%TD*%
%TO.P,D41,1,K*%
%TO.N,ROW2*%
X152400000Y-150081250D03*
%TO.P,D41,2,A*%
%TO.N,Net-(D41-Pad2)*%
X152400000Y-146781250D03*
%TD*%
%TO.P,D4,1,K*%
%TO.N,ROW0*%
X100012500Y-111981250D03*
%TO.P,D4,2,A*%
%TO.N,Net-(D4-Pad2)*%
X100012500Y-108681250D03*
%TD*%
%TO.P,D28,1,K*%
%TO.N,ROW1*%
X223837500Y-131031250D03*
%TO.P,D28,2,A*%
%TO.N,Net-(D28-Pad2)*%
X223837500Y-127731250D03*
%TD*%
%TO.P,D33,1,K*%
%TO.N,ROW1*%
X331787500Y-131031250D03*
%TO.P,D33,2,A*%
%TO.N,Net-(D33-Pad2)*%
X331787500Y-127731250D03*
%TD*%
%TO.P,D64,1,K*%
%TO.N,ROW3*%
X302418750Y-169131250D03*
%TO.P,D64,2,A*%
%TO.N,Net-(D64-Pad2)*%
X302418750Y-165831250D03*
%TD*%
%TO.P,D37,1,K*%
%TO.N,ROW2*%
X69056250Y-150081250D03*
%TO.P,D37,2,A*%
%TO.N,Net-(D37-Pad2)*%
X69056250Y-146781250D03*
%TD*%
%TO.P,D59,1,K*%
%TO.N,ROW3*%
X200025000Y-169131250D03*
%TO.P,D59,2,A*%
%TO.N,Net-(D59-Pad2)*%
X200025000Y-165831250D03*
%TD*%
%TO.P,D30,1,K*%
%TO.N,ROW1*%
X261937500Y-131031250D03*
%TO.P,D30,2,A*%
%TO.N,Net-(D30-Pad2)*%
X261937500Y-127731250D03*
%TD*%
%TO.P,D16,1,K*%
%TO.N,ROW0*%
X330993750Y-111981250D03*
%TO.P,D16,2,A*%
%TO.N,Net-(D16-Pad2)*%
X330993750Y-108681250D03*
%TD*%
%TO.P,D25,1,K*%
%TO.N,ROW1*%
X166687500Y-131031250D03*
%TO.P,D25,2,A*%
%TO.N,Net-(D25-Pad2)*%
X166687500Y-127731250D03*
%TD*%
%TO.P,D65,1,K*%
%TO.N,ROW3*%
X333375000Y-173893750D03*
%TO.P,D65,2,A*%
%TO.N,Net-(D65-Pad2)*%
X333375000Y-170593750D03*
%TD*%
%TO.P,D34,1,K*%
%TO.N,ROW1*%
X357187500Y-130968750D03*
%TO.P,D34,2,A*%
%TO.N,Net-(D34-Pad2)*%
X357187500Y-127668750D03*
%TD*%
%TO.P,D29,1,K*%
%TO.N,ROW1*%
X242887500Y-131031250D03*
%TO.P,D29,2,A*%
%TO.N,Net-(D29-Pad2)*%
X242887500Y-127731250D03*
%TD*%
D15*
%TO.P,D1,1,K*%
%TO.N,ROW0*%
X45306250Y-97631250D03*
%TO.P,D1,2,A*%
%TO.N,Net-(D1-Pad2)*%
X42006250Y-97631250D03*
%TD*%
D14*
%TO.P,D13,1,K*%
%TO.N,ROW0*%
X271462500Y-111981250D03*
%TO.P,D13,2,A*%
%TO.N,Net-(D13-Pad2)*%
X271462500Y-108681250D03*
%TD*%
%TO.P,D60,1,K*%
%TO.N,ROW3*%
X219075000Y-169131250D03*
%TO.P,D60,2,A*%
%TO.N,Net-(D60-Pad2)*%
X219075000Y-165831250D03*
%TD*%
%TO.P,D40,1,K*%
%TO.N,ROW2*%
X133350000Y-150081250D03*
%TO.P,D40,2,A*%
%TO.N,Net-(D40-Pad2)*%
X133350000Y-146781250D03*
%TD*%
%TO.P,D32,1,K*%
%TO.N,ROW1*%
X300037500Y-131031250D03*
%TO.P,D32,2,A*%
%TO.N,Net-(D32-Pad2)*%
X300037500Y-127731250D03*
%TD*%
%TO.P,D70,1,K*%
%TO.N,ROW4*%
X92868750Y-188181250D03*
%TO.P,D70,2,A*%
%TO.N,Net-(D70-Pad2)*%
X92868750Y-184881250D03*
%TD*%
%TO.P,D47,1,K*%
%TO.N,ROW2*%
X266700000Y-150081250D03*
%TO.P,D47,2,A*%
%TO.N,Net-(D47-Pad2)*%
X266700000Y-146781250D03*
%TD*%
%TO.P,D50,1,K*%
%TO.N,ROW2*%
X357187500Y-150081250D03*
%TO.P,D50,2,A*%
%TO.N,Net-(D50-Pad2)*%
X357187500Y-146781250D03*
%TD*%
%TO.P,D51,1,K*%
%TO.N,ROW3*%
X38100000Y-169131250D03*
%TO.P,D51,2,A*%
%TO.N,Net-(D51-Pad2)*%
X38100000Y-165831250D03*
%TD*%
%TO.P,D54,1,K*%
%TO.N,ROW3*%
X104775000Y-169131250D03*
%TO.P,D54,2,A*%
%TO.N,Net-(D54-Pad2)*%
X104775000Y-165831250D03*
%TD*%
%TO.P,D56,1,K*%
%TO.N,ROW3*%
X142875000Y-169131250D03*
%TO.P,D56,2,A*%
%TO.N,Net-(D56-Pad2)*%
X142875000Y-165831250D03*
%TD*%
%TO.P,D63,1,K*%
%TO.N,ROW3*%
X276225000Y-169131250D03*
%TO.P,D63,2,A*%
%TO.N,Net-(D63-Pad2)*%
X276225000Y-165831250D03*
%TD*%
%TO.P,D68,1,K*%
%TO.N,ROW4*%
X38100000Y-188181250D03*
%TO.P,D68,2,A*%
%TO.N,Net-(D68-Pad2)*%
X38100000Y-184881250D03*
%TD*%
%TO.P,D49,1,K*%
%TO.N,ROW2*%
X304800000Y-150081250D03*
%TO.P,D49,2,A*%
%TO.N,Net-(D49-Pad2)*%
X304800000Y-146781250D03*
%TD*%
%TO.P,D8,1,K*%
%TO.N,ROW0*%
X176212500Y-111981250D03*
%TO.P,D8,2,A*%
%TO.N,Net-(D8-Pad2)*%
X176212500Y-108681250D03*
%TD*%
%TO.P,D17,1,K*%
%TO.N,ROW0*%
X357981250Y-114362500D03*
%TO.P,D17,2,A*%
%TO.N,Net-(D17-Pad2)*%
X357981250Y-111062500D03*
%TD*%
D16*
%TO.P,EC1,1,D3*%
%TO.N,ROW0*%
X42545000Y-100729250D03*
D17*
%TO.P,EC1,2,D2*%
%TO.N,COL16*%
X42545000Y-103269250D03*
%TO.P,EC1,3,GND*%
%TO.N,GND*%
X42545000Y-105809250D03*
%TO.P,EC1,4,GND*%
X42545000Y-108349250D03*
%TO.P,EC1,5,D1*%
%TO.N,ROT1*%
X42545000Y-110889250D03*
%TO.P,EC1,6,D0*%
%TO.N,ROT0*%
X42545000Y-113429250D03*
%TO.P,EC1,7,D4*%
%TO.N,COL15*%
X42545000Y-115969250D03*
%TO.P,EC1,8,D6*%
%TO.N,COL14*%
X42545000Y-118509250D03*
%TO.P,EC1,9,D7*%
%TO.N,COL13*%
X42545000Y-121049250D03*
%TO.P,EC1,10,E6*%
%TO.N,COL12*%
X42545000Y-123589250D03*
%TO.P,EC1,11,B4*%
%TO.N,COL11*%
X42545000Y-126129250D03*
%TO.P,EC1,13,B6*%
%TO.N,COL3*%
X27305000Y-128669250D03*
%TO.P,EC1,14,B2*%
%TO.N,COL4*%
X27305000Y-126129250D03*
%TO.P,EC1,15,B3*%
%TO.N,COL5*%
X27305000Y-123589250D03*
%TO.P,EC1,16,B1*%
%TO.N,COL6*%
X27305000Y-121049250D03*
%TO.P,EC1,17,F7*%
%TO.N,COL7*%
X27305000Y-118509250D03*
%TO.P,EC1,18,F6*%
%TO.N,COL8*%
X27305000Y-115969250D03*
%TO.P,EC1,19,F5*%
%TO.N,COL9*%
X27305000Y-113429250D03*
%TO.P,EC1,20,F4*%
%TO.N,COL10*%
X27305000Y-110889250D03*
%TO.P,EC1,21,VCC*%
%TO.N,VCC*%
X27305000Y-108349250D03*
%TO.P,EC1,22,RST*%
%TO.N,unconnected-(EC1-Pad22)*%
X27305000Y-105809250D03*
%TO.P,EC1,23,GND*%
%TO.N,GND*%
X27305000Y-103269250D03*
%TO.P,EC1,12,B5*%
%TO.N,ROW1*%
X42316400Y-128669250D03*
%TO.P,EC1,24,B0*%
%TO.N,COL0*%
X27305000Y-100729250D03*
%TO.P,EC1,29,F0*%
%TO.N,COL2*%
X29845000Y-128669250D03*
%TO.P,EC1,28,F1*%
%TO.N,COL1*%
X32385000Y-128669250D03*
%TO.P,EC1,27,C7*%
%TO.N,ROW4*%
X34925000Y-128669250D03*
%TO.P,EC1,26,D5*%
%TO.N,ROW2*%
X37465000Y-128669250D03*
%TO.P,EC1,25,B7*%
%TO.N,ROW3*%
X40005000Y-128669250D03*
D18*
%TO.P,EC1,1,D3*%
%TO.N,ROW0*%
X44323000Y-100729250D03*
%TO.P,EC1,2,D2*%
%TO.N,COL16*%
X44323000Y-103269250D03*
%TO.P,EC1,3,GND*%
%TO.N,GND*%
X44323000Y-105809250D03*
%TO.P,EC1,4,GND*%
X44323000Y-108349250D03*
%TO.P,EC1,5,D1*%
%TO.N,ROT1*%
X44323000Y-110889250D03*
%TO.P,EC1,6,D0*%
%TO.N,ROT0*%
X44323000Y-113429250D03*
%TO.P,EC1,7,D4*%
%TO.N,COL15*%
X44323000Y-115969250D03*
%TO.P,EC1,8,D6*%
%TO.N,COL14*%
X44323000Y-118509250D03*
%TO.P,EC1,9,D7*%
%TO.N,COL13*%
X44323000Y-121049250D03*
%TO.P,EC1,10,E6*%
%TO.N,COL12*%
X44323000Y-123589250D03*
%TO.P,EC1,11,B4*%
%TO.N,COL11*%
X44323000Y-126129250D03*
%TO.P,EC1,12,B5*%
%TO.N,ROW1*%
X44323000Y-128669250D03*
%TO.P,EC1,13,B6*%
%TO.N,COL3*%
X25527000Y-128669250D03*
%TO.P,EC1,14,B2*%
%TO.N,COL4*%
X25527000Y-126129250D03*
%TO.P,EC1,15,B3*%
%TO.N,COL5*%
X25527000Y-123589250D03*
%TO.P,EC1,16,B1*%
%TO.N,COL6*%
X25527000Y-121049250D03*
%TO.P,EC1,17,F7*%
%TO.N,COL7*%
X25527000Y-118509250D03*
%TO.P,EC1,18,F6*%
%TO.N,COL8*%
X25527000Y-115969250D03*
%TO.P,EC1,19,F5*%
%TO.N,COL9*%
X25527000Y-113429250D03*
%TO.P,EC1,20,F4*%
%TO.N,COL10*%
X25527000Y-110889250D03*
%TO.P,EC1,21,VCC*%
%TO.N,VCC*%
X25527000Y-108349250D03*
%TO.P,EC1,22,RST*%
%TO.N,unconnected-(EC1-Pad22)*%
X25527000Y-105809250D03*
%TO.P,EC1,23,GND*%
%TO.N,GND*%
X25527000Y-103269250D03*
%TO.P,EC1,24,B0*%
%TO.N,COL0*%
X25527000Y-100729250D03*
D19*
%TO.P,EC1,25,B7*%
%TO.N,ROW3*%
X40005000Y-130574250D03*
%TO.P,EC1,26,D5*%
%TO.N,ROW2*%
X37465000Y-130574250D03*
%TO.P,EC1,27,C7*%
%TO.N,ROW4*%
X34925000Y-130574250D03*
%TO.P,EC1,28,F1*%
%TO.N,COL1*%
X32385000Y-130574250D03*
%TO.P,EC1,29,F0*%
%TO.N,COL2*%
X29845000Y-130574250D03*
%TD*%
D14*
%TO.P,D75,1,K*%
%TO.N,ROW4*%
X352425000Y-192943750D03*
%TO.P,D75,2,A*%
%TO.N,Net-(D75-Pad2)*%
X352425000Y-189643750D03*
%TD*%
%TO.P,D35,1,K*%
%TO.N,ROW2*%
X321468750Y-150081250D03*
%TO.P,D35,2,A*%
%TO.N,Net-(D35-Pad2)*%
X321468750Y-146781250D03*
%TD*%
%TO.P,D10,1,K*%
%TO.N,ROW0*%
X214312500Y-111981250D03*
%TO.P,D10,2,A*%
%TO.N,Net-(D10-Pad2)*%
X214312500Y-108681250D03*
%TD*%
%TO.P,D23,1,K*%
%TO.N,ROW1*%
X128587500Y-131031250D03*
%TO.P,D23,2,A*%
%TO.N,Net-(D23-Pad2)*%
X128587500Y-127731250D03*
%TD*%
%TO.P,D67,1,K*%
%TO.N,ROW4*%
X176212500Y-192943750D03*
%TO.P,D67,2,A*%
%TO.N,Net-(D67-Pad2)*%
X176212500Y-189643750D03*
%TD*%
%TO.P,D9,1,K*%
%TO.N,ROW0*%
X195262500Y-111981250D03*
%TO.P,D9,2,A*%
%TO.N,Net-(D9-Pad2)*%
X195262500Y-108681250D03*
%TD*%
%TO.P,D27,1,K*%
%TO.N,ROW1*%
X204787500Y-131031250D03*
%TO.P,D27,2,A*%
%TO.N,Net-(D27-Pad2)*%
X204787500Y-127731250D03*
%TD*%
D20*
%TO.N,COL1*%
X29368750Y-173037500D03*
X30162500Y-134937500D03*
%TO.N,COL14*%
X310356250Y-119062500D03*
%TO.N,COL15*%
X316706250Y-119062500D03*
%TO.N,ROW2*%
X41275000Y-148431250D03*
%TO.N,ROW3*%
X44450000Y-165100000D03*
%TO.N,ROW4*%
X32543750Y-184150000D03*
%TO.N,ROT1*%
X340518750Y-101600000D03*
%TO.N,ROT0*%
X342106250Y-117475000D03*
%TD*%
D21*
%TO.N,Net-(D1-Pad2)*%
X40322500Y-97631250D02*
X42006250Y-97631250D01*
X37720000Y-100743750D02*
X37465000Y-100488750D01*
X37465000Y-100488750D02*
X40322500Y-97631250D01*
%TO.N,COL1*%
X30162500Y-134937500D02*
X32385000Y-132715000D01*
X32385000Y-132715000D02*
X32385000Y-130574250D01*
X59690000Y-179228750D02*
X53498750Y-173037500D01*
X53498750Y-173037500D02*
X29368750Y-173037500D01*
%TO.N,Net-(D2-Pad2)*%
X61277500Y-100488750D02*
X61277500Y-108046250D01*
X61277500Y-108046250D02*
X61912500Y-108681250D01*
%TO.N,Net-(D3-Pad2)*%
X80327500Y-108046250D02*
X80962500Y-108681250D01*
X80327500Y-100488750D02*
X80327500Y-108046250D01*
%TO.N,Net-(D4-Pad2)*%
X99377500Y-100488750D02*
X99377500Y-108046250D01*
X99377500Y-108046250D02*
X100012500Y-108681250D01*
%TO.N,Net-(D5-Pad2)*%
X118427500Y-100488750D02*
X118427500Y-108046250D01*
X118427500Y-108046250D02*
X119062500Y-108681250D01*
%TO.N,Net-(D6-Pad2)*%
X137477500Y-100488750D02*
X137477500Y-108046250D01*
X137477500Y-108046250D02*
X138112500Y-108681250D01*
%TO.N,Net-(D7-Pad2)*%
X156527500Y-108046250D02*
X157162500Y-108681250D01*
X156527500Y-100488750D02*
X156527500Y-108046250D01*
%TO.N,Net-(D8-Pad2)*%
X175577500Y-108046250D02*
X176212500Y-108681250D01*
X175577500Y-100488750D02*
X175577500Y-108046250D01*
%TO.N,Net-(D9-Pad2)*%
X194627500Y-100488750D02*
X194627500Y-108046250D01*
X194627500Y-108046250D02*
X195262500Y-108681250D01*
%TO.N,Net-(D10-Pad2)*%
X213677500Y-100488750D02*
X213677500Y-108046250D01*
X213677500Y-108046250D02*
X214312500Y-108681250D01*
%TO.N,Net-(D11-Pad2)*%
X232727500Y-108046250D02*
X233362500Y-108681250D01*
X232727500Y-100488750D02*
X232727500Y-108046250D01*
%TO.N,COL11*%
X44323000Y-126129250D02*
X46114500Y-126129250D01*
X250641080Y-117767330D02*
X254952500Y-122078750D01*
X54476420Y-117767330D02*
X250641080Y-117767330D01*
X46114500Y-126129250D02*
X54476420Y-117767330D01*
%TO.N,Net-(D12-Pad2)*%
X251777500Y-108046250D02*
X252412500Y-108681250D01*
X251777500Y-100488750D02*
X251777500Y-108046250D01*
%TO.N,COL12*%
X45876375Y-123589250D02*
X52147815Y-117317810D01*
X44323000Y-123589250D02*
X45876375Y-123589250D01*
X52147815Y-117317810D02*
X269241560Y-117317810D01*
X269241560Y-117317810D02*
X274002500Y-122078750D01*
%TO.N,Net-(D13-Pad2)*%
X270827500Y-100488750D02*
X270827500Y-108046250D01*
X270827500Y-108046250D02*
X271462500Y-108681250D01*
%TO.N,COL13*%
X45825290Y-121049250D02*
X50006250Y-116868290D01*
X44323000Y-121049250D02*
X45825290Y-121049250D01*
X50006250Y-116868290D02*
X287842040Y-116868290D01*
X287842040Y-116868290D02*
X293052500Y-122078750D01*
%TO.N,Net-(D14-Pad2)*%
X289877500Y-108046250D02*
X290512500Y-108681250D01*
X289877500Y-100488750D02*
X289877500Y-108046250D01*
%TO.N,COL14*%
X308768750Y-117475000D02*
X302435281Y-117475000D01*
X48549990Y-116418770D02*
X46459510Y-118509250D01*
X310356250Y-119062500D02*
X308768750Y-117475000D01*
X46459510Y-118509250D02*
X44323000Y-118509250D01*
X302435281Y-117475000D02*
X301379051Y-116418770D01*
X301379051Y-116418770D02*
X48549990Y-116418770D01*
%TO.N,Net-(D15-Pad2)*%
X308927500Y-108046250D02*
X309562500Y-108681250D01*
X308927500Y-100488750D02*
X308927500Y-108046250D01*
X308927500Y-100488750D02*
X318452500Y-100488750D01*
%TO.N,COL15*%
X302621479Y-117025480D02*
X314669230Y-117025480D01*
X44323000Y-115969250D02*
X301565249Y-115969250D01*
X301565249Y-115969250D02*
X302621479Y-117025480D01*
X314669230Y-117025480D02*
X316706250Y-119062500D01*
%TO.N,Net-(D16-Pad2)*%
X327977500Y-100488750D02*
X327977500Y-105665000D01*
X327977500Y-105665000D02*
X330993750Y-108681250D01*
%TO.N,COL16*%
X344249782Y-116126032D02*
X350202500Y-122078750D01*
X60301460Y-115070210D02*
X301937645Y-115070210D01*
X48500500Y-103269250D02*
X60301460Y-115070210D01*
X44323000Y-103269250D02*
X46119250Y-103269250D01*
X44323000Y-103269250D02*
X48500500Y-103269250D01*
X302993467Y-116126032D02*
X344249782Y-116126032D01*
X301937645Y-115070210D02*
X302993467Y-116126032D01*
%TO.N,Net-(D17-Pad2)*%
X358018750Y-111062500D02*
X357981250Y-111062500D01*
X356552500Y-100488750D02*
X356552500Y-105727500D01*
X358893750Y-108068750D02*
X361012500Y-108068750D01*
X356552500Y-105727500D02*
X358893750Y-108068750D01*
X361012500Y-108068750D02*
X358018750Y-111062500D01*
%TO.N,Net-(D19-Pad2)*%
X38100000Y-120173750D02*
X37465000Y-119538750D01*
X38100000Y-122237500D02*
X38100000Y-120173750D01*
%TO.N,Net-(D20-Pad2)*%
X66040000Y-127096250D02*
X66675000Y-127731250D01*
X66040000Y-119538750D02*
X66040000Y-127096250D01*
%TO.N,Net-(D21-Pad2)*%
X89852500Y-119538750D02*
X89852500Y-127096250D01*
X89852500Y-127096250D02*
X90487500Y-127731250D01*
%TO.N,Net-(D22-Pad2)*%
X108902500Y-127096250D02*
X109537500Y-127731250D01*
X108902500Y-119538750D02*
X108902500Y-127096250D01*
%TO.N,Net-(D23-Pad2)*%
X127952500Y-119538750D02*
X127952500Y-127096250D01*
X127952500Y-127096250D02*
X128587500Y-127731250D01*
%TO.N,Net-(D24-Pad2)*%
X147002500Y-119538750D02*
X147002500Y-127096250D01*
X147002500Y-127096250D02*
X147637500Y-127731250D01*
%TO.N,Net-(D25-Pad2)*%
X166052500Y-127096250D02*
X166687500Y-127731250D01*
X166052500Y-119538750D02*
X166052500Y-127096250D01*
%TO.N,Net-(D26-Pad2)*%
X185102500Y-127096250D02*
X185737500Y-127731250D01*
X185102500Y-119538750D02*
X185102500Y-127096250D01*
%TO.N,Net-(D27-Pad2)*%
X204152500Y-127096250D02*
X204787500Y-127731250D01*
X204152500Y-119538750D02*
X204152500Y-127096250D01*
%TO.N,Net-(D28-Pad2)*%
X223202500Y-119538750D02*
X223202500Y-127096250D01*
X223202500Y-127096250D02*
X223837500Y-127731250D01*
%TO.N,Net-(D29-Pad2)*%
X242252500Y-119538750D02*
X242252500Y-127096250D01*
X242252500Y-127096250D02*
X242887500Y-127731250D01*
%TO.N,Net-(D30-Pad2)*%
X261302500Y-127096250D02*
X261937500Y-127731250D01*
X261302500Y-119538750D02*
X261302500Y-127096250D01*
%TO.N,Net-(D31-Pad2)*%
X280352500Y-119538750D02*
X280352500Y-127096250D01*
X280352500Y-127096250D02*
X280987500Y-127731250D01*
%TO.N,Net-(D32-Pad2)*%
X299402500Y-127096250D02*
X300037500Y-127731250D01*
X299402500Y-119538750D02*
X299402500Y-127096250D01*
%TO.N,Net-(D33-Pad2)*%
X323215000Y-119538750D02*
X331407500Y-127731250D01*
X331407500Y-127731250D02*
X331787500Y-127731250D01*
%TO.N,Net-(D34-Pad2)*%
X356552500Y-119538750D02*
X356552500Y-127033750D01*
X356552500Y-127033750D02*
X357187500Y-127668750D01*
%TO.N,Net-(D35-Pad2)*%
X316071250Y-138588750D02*
X321468750Y-143986250D01*
X321468750Y-143986250D02*
X321468750Y-146781250D01*
%TO.N,Net-(D36-Pad2)*%
X37465000Y-146146250D02*
X38100000Y-146781250D01*
X37465000Y-138588750D02*
X37465000Y-146146250D01*
%TO.N,Net-(D37-Pad2)*%
X68421250Y-138588750D02*
X68421250Y-146146250D01*
X68421250Y-146146250D02*
X69056250Y-146781250D01*
%TO.N,Net-(D38-Pad2)*%
X94615000Y-138588750D02*
X94615000Y-146146250D01*
X94615000Y-146146250D02*
X95250000Y-146781250D01*
%TO.N,Net-(D39-Pad2)*%
X113665000Y-146146250D02*
X114300000Y-146781250D01*
X113665000Y-138588750D02*
X113665000Y-146146250D01*
%TO.N,Net-(D40-Pad2)*%
X132715000Y-146146250D02*
X133350000Y-146781250D01*
X132715000Y-138588750D02*
X132715000Y-146146250D01*
%TO.N,Net-(D41-Pad2)*%
X151765000Y-146146250D02*
X152400000Y-146781250D01*
X151765000Y-138588750D02*
X151765000Y-146146250D01*
%TO.N,Net-(D42-Pad2)*%
X170815000Y-138588750D02*
X170815000Y-146146250D01*
X170815000Y-146146250D02*
X171450000Y-146781250D01*
%TO.N,Net-(D43-Pad2)*%
X189865000Y-146146250D02*
X190500000Y-146781250D01*
X189865000Y-138588750D02*
X189865000Y-146146250D01*
%TO.N,Net-(D44-Pad2)*%
X208915000Y-146146250D02*
X209550000Y-146781250D01*
X208915000Y-138588750D02*
X208915000Y-146146250D01*
%TO.N,Net-(D45-Pad2)*%
X227965000Y-146146250D02*
X228600000Y-146781250D01*
X227965000Y-138588750D02*
X227965000Y-146146250D01*
%TO.N,Net-(D46-Pad2)*%
X247015000Y-146146250D02*
X247650000Y-146781250D01*
X247015000Y-138588750D02*
X247015000Y-146146250D01*
%TO.N,Net-(D47-Pad2)*%
X266065000Y-146146250D02*
X266700000Y-146781250D01*
X266065000Y-138588750D02*
X266065000Y-146146250D01*
%TO.N,Net-(D48-Pad2)*%
X285115000Y-138588750D02*
X285115000Y-146146250D01*
X285115000Y-146146250D02*
X285750000Y-146781250D01*
%TO.N,Net-(D49-Pad2)*%
X304165000Y-146146250D02*
X304800000Y-146781250D01*
X304165000Y-138588750D02*
X304165000Y-146146250D01*
%TO.N,Net-(D50-Pad2)*%
X356552500Y-138588750D02*
X356552500Y-146146250D01*
X356552500Y-146146250D02*
X357187500Y-146781250D01*
%TO.N,Net-(D51-Pad2)*%
X37465000Y-157638750D02*
X37465000Y-165196250D01*
X37465000Y-165196250D02*
X38100000Y-165831250D01*
%TO.N,Net-(D52-Pad2)*%
X73183750Y-165196250D02*
X73818750Y-165831250D01*
X73183750Y-157638750D02*
X73183750Y-165196250D01*
X73183750Y-157638750D02*
X63658750Y-157638750D01*
%TO.N,Net-(D53-Pad2)*%
X85090000Y-157638750D02*
X85090000Y-165196250D01*
X85090000Y-165196250D02*
X85725000Y-165831250D01*
%TO.N,Net-(D54-Pad2)*%
X104140000Y-165196250D02*
X104775000Y-165831250D01*
X104140000Y-157638750D02*
X104140000Y-165196250D01*
%TO.N,Net-(D55-Pad2)*%
X123190000Y-165196250D02*
X123825000Y-165831250D01*
X123190000Y-157638750D02*
X123190000Y-165196250D01*
%TO.N,Net-(D56-Pad2)*%
X142240000Y-157638750D02*
X142240000Y-165196250D01*
X142240000Y-165196250D02*
X142875000Y-165831250D01*
%TO.N,Net-(D57-Pad2)*%
X161290000Y-157638750D02*
X161290000Y-165196250D01*
X161290000Y-165196250D02*
X161925000Y-165831250D01*
%TO.N,Net-(D58-Pad2)*%
X180340000Y-157638750D02*
X180340000Y-165196250D01*
X180340000Y-165196250D02*
X180975000Y-165831250D01*
%TO.N,Net-(D59-Pad2)*%
X199390000Y-165196250D02*
X200025000Y-165831250D01*
X199390000Y-157638750D02*
X199390000Y-165196250D01*
%TO.N,Net-(D60-Pad2)*%
X218440000Y-157638750D02*
X218440000Y-165196250D01*
X218440000Y-165196250D02*
X219075000Y-165831250D01*
%TO.N,Net-(D61-Pad2)*%
X237490000Y-157638750D02*
X237490000Y-165196250D01*
X237490000Y-165196250D02*
X238125000Y-165831250D01*
%TO.N,Net-(D62-Pad2)*%
X256540000Y-165196250D02*
X257175000Y-165831250D01*
X256540000Y-157638750D02*
X256540000Y-165196250D01*
%TO.N,Net-(D63-Pad2)*%
X275590000Y-165196250D02*
X276225000Y-165831250D01*
X275590000Y-157638750D02*
X275590000Y-165196250D01*
%TO.N,Net-(D64-Pad2)*%
X301783750Y-165196250D02*
X302418750Y-165831250D01*
X301783750Y-157638750D02*
X301783750Y-165196250D01*
%TO.N,Net-(D65-Pad2)*%
X332740000Y-169958750D02*
X333375000Y-170593750D01*
X332740000Y-162401250D02*
X332740000Y-169958750D01*
%TO.N,Net-(D66-Pad2)*%
X356552500Y-165196250D02*
X357187500Y-165831250D01*
X356552500Y-157638750D02*
X356552500Y-165196250D01*
%TO.N,Net-(D67-Pad2)*%
X175577500Y-181451250D02*
X175577500Y-189008750D01*
X175577500Y-189008750D02*
X176212500Y-189643750D01*
%TO.N,Net-(D68-Pad2)*%
X37465000Y-176688750D02*
X37465000Y-184246250D01*
X37465000Y-184246250D02*
X38100000Y-184881250D01*
%TO.N,Net-(D69-Pad2)*%
X66040000Y-184246250D02*
X66675000Y-184881250D01*
X66040000Y-176688750D02*
X66040000Y-184246250D01*
%TO.N,Net-(D70-Pad2)*%
X92233750Y-176688750D02*
X92233750Y-184246250D01*
X92233750Y-184246250D02*
X92868750Y-184881250D01*
%TO.N,Net-(D71-Pad2)*%
X258921250Y-176688750D02*
X258921250Y-184246250D01*
X258921250Y-184246250D02*
X259556250Y-184881250D01*
%TO.N,Net-(D72-Pad2)*%
X285115000Y-184246250D02*
X285750000Y-184881250D01*
X285115000Y-176688750D02*
X285115000Y-184246250D01*
%TO.N,Net-(D73-Pad2)*%
X313690000Y-181451250D02*
X313690000Y-189008750D01*
X313690000Y-189008750D02*
X314325000Y-189643750D01*
%TO.N,Net-(D74-Pad2)*%
X332740000Y-181451250D02*
X332740000Y-189008750D01*
X332740000Y-189008750D02*
X333375000Y-189643750D01*
%TO.N,Net-(D75-Pad2)*%
X351790000Y-189008750D02*
X352425000Y-189643750D01*
X351790000Y-181451250D02*
X351790000Y-189008750D01*
%TO.N,ROW0*%
X330993750Y-111981250D02*
X333375000Y-114362500D01*
X214312500Y-111981250D02*
X233362500Y-111981250D01*
X45306250Y-97631250D02*
X45306250Y-99746000D01*
X157162500Y-111981250D02*
X176212500Y-111981250D01*
X291104560Y-111389190D02*
X308970440Y-111389190D01*
X290512500Y-111981250D02*
X291104560Y-111389190D01*
X176212500Y-111981250D02*
X195262500Y-111981250D01*
X52407979Y-106382979D02*
X58006250Y-111981250D01*
X100012500Y-111981250D02*
X119062500Y-111981250D01*
X58006250Y-111981250D02*
X61912500Y-111981250D01*
X308970440Y-111389190D02*
X309562500Y-111981250D01*
X80962500Y-111981250D02*
X100012500Y-111981250D01*
X330401690Y-111389190D02*
X330993750Y-111981250D01*
X52407979Y-104732979D02*
X52407979Y-106382979D01*
X233362500Y-111981250D02*
X252412500Y-111981250D01*
X61912500Y-111981250D02*
X80962500Y-111981250D01*
X310154560Y-111389190D02*
X330401690Y-111389190D01*
X252412500Y-111981250D02*
X271462500Y-111981250D01*
X271462500Y-111981250D02*
X290512500Y-111981250D01*
X119062500Y-111981250D02*
X138112500Y-111981250D01*
X309562500Y-111981250D02*
X310154560Y-111389190D01*
X45306250Y-97631250D02*
X52407979Y-104732979D01*
X138112500Y-111981250D02*
X157162500Y-111981250D01*
X45306250Y-99746000D02*
X44323000Y-100729250D01*
X195262500Y-111981250D02*
X214312500Y-111981250D01*
X333375000Y-114362500D02*
X357981250Y-114362500D01*
%TO.N,ROW1*%
X42316400Y-128669250D02*
X39515421Y-125868271D01*
X322803348Y-131031250D02*
X321801337Y-130029239D01*
X223837500Y-131031250D02*
X204787500Y-131031250D01*
X166687500Y-131031250D02*
X147637500Y-131031250D01*
X331787500Y-131031250D02*
X322803348Y-131031250D01*
X280987500Y-131031250D02*
X261937500Y-131031250D01*
X128587500Y-131031250D02*
X109537500Y-131031250D01*
X109537500Y-131031250D02*
X90487500Y-131031250D01*
X242887500Y-131031250D02*
X223837500Y-131031250D01*
X39156659Y-125537500D02*
X38100000Y-125537500D01*
X300037500Y-131031250D02*
X280987500Y-131031250D01*
X357187500Y-130968750D02*
X331850000Y-130968750D01*
X331850000Y-130968750D02*
X331787500Y-131031250D01*
X301039511Y-130029239D02*
X300037500Y-131031250D01*
X261937500Y-131031250D02*
X242887500Y-131031250D01*
X46685000Y-131031250D02*
X66675000Y-131031250D01*
X321801337Y-130029239D02*
X301039511Y-130029239D01*
X39515421Y-125868271D02*
X39487430Y-125868271D01*
X185737500Y-131031250D02*
X166687500Y-131031250D01*
X44323000Y-128669250D02*
X46685000Y-131031250D01*
X39487430Y-125868271D02*
X39156659Y-125537500D01*
X204787500Y-131031250D02*
X185737500Y-131031250D01*
X147637500Y-131031250D02*
X128587500Y-131031250D01*
X90487500Y-131031250D02*
X66675000Y-131031250D01*
%TO.N,ROW2*%
X304800000Y-150081250D02*
X321468750Y-150081250D01*
X356640479Y-149534229D02*
X357187500Y-150081250D01*
X304252979Y-149534229D02*
X304800000Y-150081250D01*
X171450000Y-150081250D02*
X190500000Y-150081250D01*
X190500000Y-150081250D02*
X209550000Y-150081250D01*
X209550000Y-150081250D02*
X228600000Y-150081250D01*
X114300000Y-150081250D02*
X133350000Y-150081250D01*
X152400000Y-150081250D02*
X171450000Y-150081250D01*
X133350000Y-150081250D02*
X152400000Y-150081250D01*
X322015771Y-149534229D02*
X356640479Y-149534229D01*
X69056250Y-150081250D02*
X95250000Y-150081250D01*
X266700000Y-150081250D02*
X285750000Y-150081250D01*
X95250000Y-150081250D02*
X114300000Y-150081250D01*
X39625000Y-150081250D02*
X41275000Y-148431250D01*
X286297021Y-149534229D02*
X304252979Y-149534229D01*
X38100000Y-150081250D02*
X39625000Y-150081250D01*
X321468750Y-150081250D02*
X322015771Y-149534229D01*
X228600000Y-150081250D02*
X247650000Y-150081250D01*
X247650000Y-150081250D02*
X266700000Y-150081250D01*
X38100000Y-150081250D02*
X69056250Y-150081250D01*
X285750000Y-150081250D02*
X286297021Y-149534229D01*
%TO.N,ROW3*%
X302418750Y-169131250D02*
X276225000Y-169131250D01*
X276225000Y-169131250D02*
X257175000Y-169131250D01*
X352425000Y-173893750D02*
X357187500Y-169131250D01*
X73271729Y-168584229D02*
X43171729Y-168584229D01*
X104775000Y-169131250D02*
X85725000Y-169131250D01*
X38647021Y-168584229D02*
X38100000Y-169131250D01*
X74365771Y-168584229D02*
X73818750Y-169131250D01*
X238125000Y-169131250D02*
X219075000Y-169131250D01*
X307181250Y-173893750D02*
X333375000Y-173893750D01*
X219075000Y-169131250D02*
X219075000Y-169068750D01*
X43171729Y-168584229D02*
X38647021Y-168584229D01*
X200025000Y-169131250D02*
X180975000Y-169131250D01*
X302418750Y-169131250D02*
X307181250Y-173893750D01*
X219012500Y-169131250D02*
X200025000Y-169131250D01*
X161925000Y-169131250D02*
X142875000Y-169131250D01*
X44450000Y-167305958D02*
X44450000Y-165100000D01*
X142875000Y-169131250D02*
X123825000Y-169131250D01*
X333375000Y-173893750D02*
X352425000Y-173893750D01*
X43171729Y-168584229D02*
X44450000Y-167305958D01*
X73818750Y-169131250D02*
X73271729Y-168584229D01*
X85177979Y-168584229D02*
X74365771Y-168584229D01*
X123825000Y-169131250D02*
X104775000Y-169131250D01*
X85725000Y-169131250D02*
X85177979Y-168584229D01*
X257175000Y-169131250D02*
X238125000Y-169131250D01*
X180975000Y-169131250D02*
X161925000Y-169131250D01*
X219075000Y-169068750D02*
X219012500Y-169131250D01*
%TO.N,ROW4*%
X171300000Y-188181250D02*
X92868750Y-188181250D01*
X333375000Y-192943750D02*
X352425000Y-192943750D01*
X176212500Y-192943750D02*
X176062500Y-192943750D01*
X290512500Y-192943750D02*
X314325000Y-192943750D01*
X176062500Y-192943750D02*
X171300000Y-188181250D01*
X176212500Y-192943750D02*
X180975000Y-188181250D01*
X180975000Y-188181250D02*
X259556250Y-188181250D01*
X66675000Y-188181250D02*
X92868750Y-188181250D01*
X314325000Y-192943750D02*
X333375000Y-192943750D01*
X259556250Y-188181250D02*
X285750000Y-188181250D01*
X285750000Y-188181250D02*
X290512500Y-192943750D01*
X32543750Y-184150000D02*
X36575000Y-188181250D01*
X36575000Y-188181250D02*
X38100000Y-188181250D01*
X38100000Y-188181250D02*
X66675000Y-188181250D01*
%TO.N,ROT1*%
X341987500Y-103068750D02*
X346512500Y-103068750D01*
X340518750Y-101600000D02*
X341987500Y-103068750D01*
%TO.N,ROT0*%
X47122020Y-113429250D02*
X44323000Y-113429250D01*
X342106250Y-117475000D02*
X341207210Y-116575960D01*
X49212500Y-115519730D02*
X47122020Y-113429250D01*
X301751447Y-115519730D02*
X49212500Y-115519730D01*
X341207210Y-116575960D02*
X302807677Y-116575960D01*
X302807677Y-116575960D02*
X301751447Y-115519730D01*
%TO.N,GND*%
X38437979Y-104319229D02*
X41054979Y-104319229D01*
X27305000Y-103269250D02*
X29120011Y-101454239D01*
X29120011Y-101454239D02*
X35572989Y-101454239D01*
X42545000Y-105809250D02*
X42545000Y-108349250D01*
X41054979Y-104319229D02*
X42545000Y-105809250D01*
X35572989Y-101454239D02*
X38437979Y-104319229D01*
%TD*%
M02*
