%TF.GenerationSoftware,KiCad,Pcbnew,(6.0.4)*%
%TF.CreationDate,2022-11-05T13:10:02+01:00*%
%TF.ProjectId,65MK,36354d4b-2e6b-4696-9361-645f70636258,rev?*%
%TF.SameCoordinates,Original*%
%TF.FileFunction,Copper,L1,Top*%
%TF.FilePolarity,Positive*%
%FSLAX46Y46*%
G04 Gerber Fmt 4.6, Leading zero omitted, Abs format (unit mm)*
G04 Created by KiCad (PCBNEW (6.0.4)) date 2022-11-05 13:10:03*
%MOMM*%
%LPD*%
G01*
G04 APERTURE LIST*
%TA.AperFunction,ComponentPad*%
%ADD10C,2.500000*%
%TD*%
%TA.AperFunction,ComponentPad*%
%ADD11R,2.000000X2.000000*%
%TD*%
%TA.AperFunction,ComponentPad*%
%ADD12C,2.000000*%
%TD*%
%TA.AperFunction,ComponentPad*%
%ADD13R,3.200000X2.000000*%
%TD*%
%TA.AperFunction,ComponentPad*%
%ADD14R,1.752600X1.752600*%
%TD*%
%TA.AperFunction,ComponentPad*%
%ADD15C,1.752600*%
%TD*%
%TA.AperFunction,ViaPad*%
%ADD16C,0.800000*%
%TD*%
%TA.AperFunction,Conductor*%
%ADD17C,0.250000*%
%TD*%
G04 APERTURE END LIST*
D10*
%TO.P,MX13,1,COL*%
%TO.N,COL12*%
X282869936Y-103028750D03*
%TO.P,MX13,2,ROW*%
%TO.N,Net-(D13-Pad2)*%
X289219936Y-100488750D03*
%TD*%
%TO.P,MX1,1,COL*%
%TO.N,COL0*%
X49507436Y-103028750D03*
%TO.P,MX1,2,ROW*%
%TO.N,Net-(D1-Pad2)*%
X55857436Y-100488750D03*
%TD*%
%TO.P,MX46,1,COL*%
%TO.N,COL11*%
X278107436Y-141128750D03*
%TO.P,MX46,2,ROW*%
%TO.N,Net-(D47-Pad2)*%
X284457436Y-138588750D03*
%TD*%
%TO.P,MX8,1,COL*%
%TO.N,COL7*%
X187619936Y-103028750D03*
%TO.P,MX8,2,ROW*%
%TO.N,Net-(D8-Pad2)*%
X193969936Y-100488750D03*
%TD*%
%TO.P,MX14,1,COL*%
%TO.N,COL13*%
X301919936Y-103028750D03*
%TO.P,MX14,2,ROW*%
%TO.N,Net-(D14-Pad2)*%
X308269936Y-100488750D03*
%TD*%
%TO.P,MX16,1,COL*%
%TO.N,COL15*%
X340019936Y-103028750D03*
%TO.P,MX16,2,ROW*%
%TO.N,Net-(D16-Pad2)*%
X346369936Y-100488750D03*
%TD*%
%TO.P,MX74,1,COL*%
%TO.N,COL16*%
X363832436Y-183991250D03*
%TO.P,MX74,2,ROW*%
%TO.N,Net-(D75-Pad2)*%
X370182436Y-181451250D03*
%TD*%
%TO.P,MX36,1,COL*%
%TO.N,COL1*%
X80463686Y-141128750D03*
%TO.P,MX36,2,ROW*%
%TO.N,Net-(D37-Pad2)*%
X86813686Y-138588750D03*
%TD*%
%TO.P,MX48,1,COL*%
%TO.N,COL13*%
X316207436Y-141128750D03*
%TO.P,MX48,2,ROW*%
%TO.N,Net-(D49-Pad2)*%
X322557436Y-138588750D03*
%TD*%
%TO.P,MX61,1,COL*%
%TO.N,COL11*%
X268582436Y-160178750D03*
%TO.P,MX61,2,ROW*%
%TO.N,Net-(D62-Pad2)*%
X274932436Y-157638750D03*
%TD*%
%TO.P,MX55,1,COL*%
%TO.N,COL5*%
X154282436Y-160178750D03*
%TO.P,MX55,2,ROW*%
%TO.N,Net-(D56-Pad2)*%
X160632436Y-157638750D03*
%TD*%
%TO.P,MX43,1,COL*%
%TO.N,COL8*%
X220957436Y-141128750D03*
%TO.P,MX43,2,ROW*%
%TO.N,Net-(D44-Pad2)*%
X227307436Y-138588750D03*
%TD*%
%TO.P,MX54,1,COL*%
%TO.N,COL4*%
X135232436Y-160178750D03*
%TO.P,MX54,2,ROW*%
%TO.N,Net-(D55-Pad2)*%
X141582436Y-157638750D03*
%TD*%
%TO.P,MX68,1,COL*%
%TO.N,COL1*%
X78082436Y-179228750D03*
%TO.P,MX68,2,ROW*%
%TO.N,Net-(D69-Pad2)*%
X84432436Y-176688750D03*
%TD*%
%TO.P,MX17,1,COL*%
%TO.N,COL16*%
X368594936Y-103028750D03*
%TO.P,MX17,2,ROW*%
%TO.N,Net-(D17-Pad2)*%
X374944936Y-100488750D03*
%TD*%
%TO.P,MX52,1,COL*%
%TO.N,COL2*%
X97132436Y-160178750D03*
%TO.P,MX52,2,ROW*%
%TO.N,Net-(D53-Pad2)*%
X103482436Y-157638750D03*
%TD*%
%TO.P,MX33,1,COL*%
%TO.N,COL16*%
X368594936Y-122078750D03*
%TO.P,MX33,2,ROW*%
%TO.N,Net-(D34-Pad2)*%
X374944936Y-119538750D03*
%TD*%
%TO.P,MX49,1,COL*%
%TO.N,COL16*%
X368594936Y-141128750D03*
%TO.P,MX49,2,ROW*%
%TO.N,Net-(D50-Pad2)*%
X374944936Y-138588750D03*
%TD*%
%TO.P,MX26,1,COL*%
%TO.N,COL8*%
X216194936Y-122078750D03*
%TO.P,MX26,2,ROW*%
%TO.N,Net-(D27-Pad2)*%
X222544936Y-119538750D03*
%TD*%
%TO.P,MX29,1,COL*%
%TO.N,COL11*%
X273344936Y-122078750D03*
%TO.P,MX29,2,ROW*%
%TO.N,Net-(D30-Pad2)*%
X279694936Y-119538750D03*
%TD*%
%TO.P,MX30,1,COL*%
%TO.N,COL12*%
X292394936Y-122078750D03*
%TO.P,MX30,2,ROW*%
%TO.N,Net-(D31-Pad2)*%
X298744936Y-119538750D03*
%TD*%
%TO.P,MX27,1,COL*%
%TO.N,COL9*%
X235244936Y-122078750D03*
%TO.P,MX27,2,ROW*%
%TO.N,Net-(D28-Pad2)*%
X241594936Y-119538750D03*
%TD*%
%TO.P,MX37,1,COL*%
%TO.N,COL2*%
X106657436Y-141128750D03*
%TO.P,MX37,2,ROW*%
%TO.N,Net-(D38-Pad2)*%
X113007436Y-138588750D03*
%TD*%
%TO.P,MX53,1,COL*%
%TO.N,COL3*%
X116182436Y-160178750D03*
%TO.P,MX53,2,ROW*%
%TO.N,Net-(D54-Pad2)*%
X122532436Y-157638750D03*
%TD*%
%TO.P,MX10,1,COL*%
%TO.N,COL9*%
X225719936Y-103028750D03*
%TO.P,MX10,2,ROW*%
%TO.N,Net-(D10-Pad2)*%
X232069936Y-100488750D03*
%TD*%
%TO.P,MX62,1,COL*%
%TO.N,COL12*%
X287632436Y-160178750D03*
%TO.P,MX62,2,ROW*%
%TO.N,Net-(D63-Pad2)*%
X293982436Y-157638750D03*
%TD*%
%TO.P,MX50,1,COL*%
%TO.N,COL0*%
X49507436Y-160178750D03*
%TO.P,MX50,2,ROW*%
%TO.N,Net-(D51-Pad2)*%
X55857436Y-157638750D03*
%TD*%
%TO.P,MX60,1,COL*%
%TO.N,COL10*%
X249532436Y-160178750D03*
%TO.P,MX60,2,ROW*%
%TO.N,Net-(D61-Pad2)*%
X255882436Y-157638750D03*
%TD*%
%TO.P,MX71,1,COL*%
%TO.N,COL12*%
X297157436Y-179228750D03*
%TO.P,MX71,2,ROW*%
%TO.N,Net-(D72-Pad2)*%
X303507436Y-176688750D03*
%TD*%
%TO.P,MX70,1,COL*%
%TO.N,COL11*%
X270963686Y-179228750D03*
%TO.P,MX70,2,ROW*%
%TO.N,Net-(D71-Pad2)*%
X277313686Y-176688750D03*
%TD*%
%TO.P,MX34,1,COL*%
%TO.N,COL14*%
X337638686Y-131603750D03*
X328113686Y-141128750D03*
%TO.P,MX34,2,ROW*%
%TO.N,Net-(D35-Pad2)*%
X334463686Y-138588750D03*
X343988686Y-129063750D03*
%TD*%
%TO.P,MX28,1,COL*%
%TO.N,COL10*%
X254294936Y-122078750D03*
%TO.P,MX28,2,ROW*%
%TO.N,Net-(D29-Pad2)*%
X260644936Y-119538750D03*
%TD*%
%TO.P,MX65,1,COL*%
%TO.N,COL16*%
X368594936Y-160178750D03*
%TO.P,MX65,2,ROW*%
%TO.N,Net-(D66-Pad2)*%
X374944936Y-157638750D03*
%TD*%
%TO.P,MX73,1,COL*%
%TO.N,COL15*%
X344782436Y-183991250D03*
%TO.P,MX73,2,ROW*%
%TO.N,Net-(D74-Pad2)*%
X351132436Y-181451250D03*
%TD*%
%TO.P,MX6,1,COL*%
%TO.N,COL5*%
X149519936Y-103028750D03*
%TO.P,MX6,2,ROW*%
%TO.N,Net-(D6-Pad2)*%
X155869936Y-100488750D03*
%TD*%
%TO.P,MX5,1,COL*%
%TO.N,COL4*%
X130469936Y-103028750D03*
%TO.P,MX5,2,ROW*%
%TO.N,Net-(D5-Pad2)*%
X136819936Y-100488750D03*
%TD*%
%TO.P,MX3,1,COL*%
%TO.N,COL2*%
X92369936Y-103028750D03*
%TO.P,MX3,2,ROW*%
%TO.N,Net-(D3-Pad2)*%
X98719936Y-100488750D03*
%TD*%
%TO.P,MX18,1,COL*%
%TO.N,COL0*%
X49507436Y-122078750D03*
%TO.P,MX18,2,ROW*%
%TO.N,Net-(D19-Pad2)*%
X55857436Y-119538750D03*
%TD*%
%TO.P,MX31,1,COL*%
%TO.N,COL13*%
X311444936Y-122078750D03*
%TO.P,MX31,2,ROW*%
%TO.N,Net-(D32-Pad2)*%
X317794936Y-119538750D03*
%TD*%
%TO.P,MX2,1,COL*%
%TO.N,COL1*%
X73319936Y-103028750D03*
%TO.P,MX2,2,ROW*%
%TO.N,Net-(D2-Pad2)*%
X79669936Y-100488750D03*
%TD*%
%TO.P,MX25,1,COL*%
%TO.N,COL7*%
X197144936Y-122078750D03*
%TO.P,MX25,2,ROW*%
%TO.N,Net-(D26-Pad2)*%
X203494936Y-119538750D03*
%TD*%
%TO.P,MX23,1,COL*%
%TO.N,COL5*%
X159044936Y-122078750D03*
%TO.P,MX23,2,ROW*%
%TO.N,Net-(D24-Pad2)*%
X165394936Y-119538750D03*
%TD*%
%TO.P,MX69,1,COL*%
%TO.N,COL2*%
X104276186Y-179228750D03*
%TO.P,MX69,2,ROW*%
%TO.N,Net-(D70-Pad2)*%
X110626186Y-176688750D03*
%TD*%
%TO.P,MX44,1,COL*%
%TO.N,COL9*%
X240007436Y-141128750D03*
%TO.P,MX44,2,ROW*%
%TO.N,Net-(D45-Pad2)*%
X246357436Y-138588750D03*
%TD*%
%TO.P,MX66,1,COL*%
%TO.N,COL7*%
X187619936Y-183991250D03*
%TO.P,MX66,2,ROW*%
%TO.N,Net-(D67-Pad2)*%
X193969936Y-181451250D03*
%TD*%
%TO.P,MX72,1,COL*%
%TO.N,COL14*%
X325732436Y-183991250D03*
%TO.P,MX72,2,ROW*%
%TO.N,Net-(D73-Pad2)*%
X332082436Y-181451250D03*
%TD*%
%TO.P,MX51,1,COL*%
%TO.N,COL1*%
X85226186Y-160178750D03*
X75701186Y-160178750D03*
%TO.P,MX51,2,ROW*%
%TO.N,Net-(D52-Pad2)*%
X91576186Y-157638750D03*
X82051186Y-157638750D03*
%TD*%
%TO.P,MX64,1,COL*%
%TO.N,COL14*%
X344782436Y-164941250D03*
%TO.P,MX64,2,ROW*%
%TO.N,Net-(D65-Pad2)*%
X351132436Y-162401250D03*
%TD*%
%TO.P,MX39,1,COL*%
%TO.N,COL4*%
X144757436Y-141128750D03*
%TO.P,MX39,2,ROW*%
%TO.N,Net-(D40-Pad2)*%
X151107436Y-138588750D03*
%TD*%
%TO.P,MX47,1,COL*%
%TO.N,COL12*%
X297157436Y-141128750D03*
%TO.P,MX47,2,ROW*%
%TO.N,Net-(D48-Pad2)*%
X303507436Y-138588750D03*
%TD*%
D11*
%TO.P,SW1,A,A*%
%TO.N,ROT1*%
X364904936Y-103068750D03*
D12*
%TO.P,SW1,B,B*%
%TO.N,ROT0*%
X364904936Y-108068750D03*
%TO.P,SW1,C,C*%
%TO.N,GND*%
X364904936Y-105568750D03*
D13*
%TO.P,SW1,MP*%
%TO.N,N/C*%
X372404936Y-99968750D03*
X372404936Y-111168750D03*
D12*
%TO.P,SW1,S1,S1*%
%TO.N,Net-(D17-Pad2)*%
X379404936Y-108068750D03*
%TO.P,SW1,S2,S2*%
%TO.N,COL16*%
X379404936Y-103068750D03*
%TD*%
D10*
%TO.P,MX59,1,COL*%
%TO.N,COL9*%
X230482436Y-160178750D03*
%TO.P,MX59,2,ROW*%
%TO.N,Net-(D60-Pad2)*%
X236832436Y-157638750D03*
%TD*%
%TO.P,MX4,1,COL*%
%TO.N,COL3*%
X111419936Y-103028750D03*
%TO.P,MX4,2,ROW*%
%TO.N,Net-(D4-Pad2)*%
X117769936Y-100488750D03*
%TD*%
%TO.P,MX42,1,COL*%
%TO.N,COL7*%
X201907436Y-141128750D03*
%TO.P,MX42,2,ROW*%
%TO.N,Net-(D43-Pad2)*%
X208257436Y-138588750D03*
%TD*%
%TO.P,MX38,1,COL*%
%TO.N,COL3*%
X125707436Y-141128750D03*
%TO.P,MX38,2,ROW*%
%TO.N,Net-(D39-Pad2)*%
X132057436Y-138588750D03*
%TD*%
%TO.P,MX15,1,COL*%
%TO.N,COL14*%
X330494936Y-103028750D03*
X320969936Y-103028750D03*
%TO.P,MX15,2,ROW*%
%TO.N,Net-(D15-Pad2)*%
X327319936Y-100488750D03*
X336844936Y-100488750D03*
%TD*%
%TO.P,MX41,1,COL*%
%TO.N,COL6*%
X182857436Y-141128750D03*
%TO.P,MX41,2,ROW*%
%TO.N,Net-(D42-Pad2)*%
X189207436Y-138588750D03*
%TD*%
%TO.P,MX24,1,COL*%
%TO.N,COL6*%
X178094936Y-122078750D03*
%TO.P,MX24,2,ROW*%
%TO.N,Net-(D25-Pad2)*%
X184444936Y-119538750D03*
%TD*%
%TO.P,MX12,1,COL*%
%TO.N,COL11*%
X263819936Y-103028750D03*
%TO.P,MX12,2,ROW*%
%TO.N,Net-(D12-Pad2)*%
X270169936Y-100488750D03*
%TD*%
%TO.P,MX63,1,COL*%
%TO.N,COL13*%
X313826186Y-160178750D03*
%TO.P,MX63,2,ROW*%
%TO.N,Net-(D64-Pad2)*%
X320176186Y-157638750D03*
%TD*%
%TO.P,MX11,1,COL*%
%TO.N,COL10*%
X244769936Y-103028750D03*
%TO.P,MX11,2,ROW*%
%TO.N,Net-(D11-Pad2)*%
X251119936Y-100488750D03*
%TD*%
%TO.P,MX58,1,COL*%
%TO.N,COL8*%
X211432436Y-160178750D03*
%TO.P,MX58,2,ROW*%
%TO.N,Net-(D59-Pad2)*%
X217782436Y-157638750D03*
%TD*%
%TO.P,MX45,1,COL*%
%TO.N,COL10*%
X259057436Y-141128750D03*
%TO.P,MX45,2,ROW*%
%TO.N,Net-(D46-Pad2)*%
X265407436Y-138588750D03*
%TD*%
%TO.P,MX35,1,COL*%
%TO.N,COL0*%
X49507436Y-141128750D03*
%TO.P,MX35,2,ROW*%
%TO.N,Net-(D36-Pad2)*%
X55857436Y-138588750D03*
%TD*%
%TO.P,MX19,1,COL*%
%TO.N,COL1*%
X78082436Y-122078750D03*
%TO.P,MX19,2,ROW*%
%TO.N,Net-(D20-Pad2)*%
X84432436Y-119538750D03*
%TD*%
%TO.P,MX32,1,COL*%
%TO.N,COL15*%
X335257436Y-122078750D03*
%TO.P,MX32,2,ROW*%
%TO.N,Net-(D33-Pad2)*%
X341607436Y-119538750D03*
%TD*%
%TO.P,MX40,1,COL*%
%TO.N,COL5*%
X163807436Y-141128750D03*
%TO.P,MX40,2,ROW*%
%TO.N,Net-(D41-Pad2)*%
X170157436Y-138588750D03*
%TD*%
%TO.P,MX9,1,COL*%
%TO.N,COL8*%
X206669936Y-103028750D03*
%TO.P,MX9,2,ROW*%
%TO.N,Net-(D9-Pad2)*%
X213019936Y-100488750D03*
%TD*%
%TO.P,MX7,1,COL*%
%TO.N,COL6*%
X168569936Y-103028750D03*
%TO.P,MX7,2,ROW*%
%TO.N,Net-(D7-Pad2)*%
X174919936Y-100488750D03*
%TD*%
%TO.P,MX21,1,COL*%
%TO.N,COL3*%
X120944936Y-122078750D03*
%TO.P,MX21,2,ROW*%
%TO.N,Net-(D22-Pad2)*%
X127294936Y-119538750D03*
%TD*%
%TO.P,MX22,1,COL*%
%TO.N,COL4*%
X139994936Y-122078750D03*
%TO.P,MX22,2,ROW*%
%TO.N,Net-(D23-Pad2)*%
X146344936Y-119538750D03*
%TD*%
%TO.P,MX57,1,COL*%
%TO.N,COL7*%
X192382436Y-160178750D03*
%TO.P,MX57,2,ROW*%
%TO.N,Net-(D58-Pad2)*%
X198732436Y-157638750D03*
%TD*%
%TO.P,MX20,1,COL*%
%TO.N,COL2*%
X101894936Y-122078750D03*
%TO.P,MX20,2,ROW*%
%TO.N,Net-(D21-Pad2)*%
X108244936Y-119538750D03*
%TD*%
%TO.P,MX67,1,COL*%
%TO.N,COL0*%
X49507436Y-179228750D03*
%TO.P,MX67,2,ROW*%
%TO.N,Net-(D68-Pad2)*%
X55857436Y-176688750D03*
%TD*%
%TO.P,MX56,1,COL*%
%TO.N,COL6*%
X173332436Y-160178750D03*
%TO.P,MX56,2,ROW*%
%TO.N,Net-(D57-Pad2)*%
X179682436Y-157638750D03*
%TD*%
D14*
%TO.P,EC1,1,D3*%
%TO.N,ROW0*%
X60937436Y-100729250D03*
D15*
%TO.P,EC1,2,D2*%
%TO.N,COL16*%
X60937436Y-103269250D03*
%TO.P,EC1,3,GND*%
%TO.N,GND*%
X60937436Y-105809250D03*
%TO.P,EC1,4,GND*%
X60937436Y-108349250D03*
%TO.P,EC1,5,D1*%
%TO.N,ROT1*%
X60937436Y-110889250D03*
%TO.P,EC1,6,D0*%
%TO.N,ROT0*%
X60937436Y-113429250D03*
%TO.P,EC1,7,D4*%
%TO.N,COL15*%
X60937436Y-115969250D03*
%TO.P,EC1,8,D6*%
%TO.N,COL14*%
X60937436Y-118509250D03*
%TO.P,EC1,9,D7*%
%TO.N,COL13*%
X60937436Y-121049250D03*
%TO.P,EC1,10,E6*%
%TO.N,COL12*%
X60937436Y-123589250D03*
%TO.P,EC1,11,B4*%
%TO.N,COL11*%
X60937436Y-126129250D03*
%TO.P,EC1,12,B5*%
%TO.N,ROW1*%
X60708836Y-128669250D03*
%TO.P,EC1,13,B6*%
%TO.N,COL3*%
X45697436Y-128669250D03*
%TO.P,EC1,14,B2*%
%TO.N,COL4*%
X45697436Y-126129250D03*
%TO.P,EC1,15,B3*%
%TO.N,COL5*%
X45697436Y-123589250D03*
%TO.P,EC1,16,B1*%
%TO.N,COL6*%
X45697436Y-121049250D03*
%TO.P,EC1,17,F7*%
%TO.N,COL7*%
X45697436Y-118509250D03*
%TO.P,EC1,18,F6*%
%TO.N,COL8*%
X45697436Y-115969250D03*
%TO.P,EC1,19,F5*%
%TO.N,COL9*%
X45697436Y-113429250D03*
%TO.P,EC1,20,F4*%
%TO.N,COL10*%
X45697436Y-110889250D03*
%TO.P,EC1,21,VCC*%
%TO.N,VCC*%
X45697436Y-108349250D03*
%TO.P,EC1,22,RST*%
%TO.N,unconnected-(EC1-Pad22)*%
X45697436Y-105809250D03*
%TO.P,EC1,23,GND*%
%TO.N,GND*%
X45697436Y-103269250D03*
%TO.P,EC1,24,B0*%
%TO.N,COL0*%
X45697436Y-100729250D03*
%TO.P,EC1,25,B7*%
%TO.N,ROW3*%
X58397436Y-128669250D03*
%TO.P,EC1,26,D5*%
%TO.N,ROW2*%
X55857436Y-128669250D03*
%TO.P,EC1,27,C7*%
%TO.N,ROW4*%
X53317436Y-128669250D03*
%TO.P,EC1,28,F1*%
%TO.N,COL1*%
X50777436Y-128669250D03*
%TO.P,EC1,29,F0*%
%TO.N,COL2*%
X48237436Y-128669250D03*
%TD*%
D16*
%TO.N,COL1*%
X47761186Y-173037500D03*
X48554936Y-134937500D03*
%TO.N,COL14*%
X328748686Y-119062500D03*
%TO.N,COL15*%
X335098686Y-119062500D03*
%TO.N,ROW2*%
X59667436Y-148431250D03*
%TO.N,ROW3*%
X62842436Y-165100000D03*
%TO.N,ROW4*%
X50936186Y-184150000D03*
%TO.N,ROT1*%
X358911186Y-101600000D03*
%TO.N,ROT0*%
X360498686Y-117475000D03*
%TD*%
D17*
%TO.N,COL0*%
X49507436Y-103028750D02*
X47207936Y-100729250D01*
X47207936Y-100729250D02*
X45697436Y-100729250D01*
X49507436Y-103028750D02*
X49507436Y-122078750D01*
X49507436Y-160178750D02*
X49507436Y-179228750D01*
X49507436Y-141128750D02*
X49507436Y-160178750D01*
X49507436Y-122078750D02*
X49507436Y-141128750D01*
%TO.N,COL1*%
X46987915Y-172264229D02*
X47761186Y-173037500D01*
X74761665Y-167105190D02*
X74761665Y-175907979D01*
X75701186Y-166165669D02*
X74761665Y-167105190D01*
X78082436Y-122078750D02*
X78082436Y-138747500D01*
X46987915Y-136504521D02*
X46987915Y-172264229D01*
X80463686Y-141128750D02*
X80463686Y-155416250D01*
X74761665Y-175907979D02*
X78082436Y-179228750D01*
X75701186Y-160178750D02*
X85226186Y-160178750D01*
X48554936Y-134937500D02*
X46987915Y-136504521D01*
X75701186Y-160178750D02*
X75701186Y-166165669D01*
X73319936Y-103028750D02*
X73319936Y-117316250D01*
X78082436Y-138747500D02*
X80463686Y-141128750D01*
X73319936Y-117316250D02*
X78082436Y-122078750D01*
X80463686Y-155416250D02*
X75701186Y-160178750D01*
%TO.N,COL2*%
X97132436Y-172085000D02*
X97132436Y-160178750D01*
X104276186Y-179228750D02*
X97132436Y-172085000D01*
X104276186Y-182265841D02*
X101667516Y-184874511D01*
X97132436Y-148885984D02*
X104889670Y-141128750D01*
X101894936Y-136366250D02*
X101894936Y-122078750D01*
X101667516Y-184874511D02*
X49576106Y-184874511D01*
X104889670Y-141128750D02*
X106657436Y-141128750D01*
X97132436Y-160178750D02*
X97132436Y-148885984D01*
X106657436Y-141128750D02*
X101894936Y-136366250D01*
X49576106Y-184874511D02*
X46538395Y-181836800D01*
X101894936Y-122078750D02*
X92369936Y-112553750D01*
X92369936Y-112553750D02*
X92369936Y-103028750D01*
X104276186Y-179228750D02*
X104276186Y-182265841D01*
X46538395Y-181836800D02*
X46538395Y-130368291D01*
X46538395Y-130368291D02*
X48237436Y-128669250D01*
%TO.N,COL3*%
X120944936Y-122078750D02*
X120944936Y-136366250D01*
X111419936Y-103028750D02*
X111419936Y-112553750D01*
X105704936Y-181768750D02*
X105704936Y-180026696D01*
X105704936Y-180026696D02*
X109051675Y-176679957D01*
X125707436Y-141128750D02*
X125707436Y-150653750D01*
X49389908Y-185324031D02*
X102149655Y-185324031D01*
X45697436Y-128669250D02*
X45697436Y-181631559D01*
X120944936Y-136366250D02*
X125707436Y-141128750D01*
X125707436Y-150653750D02*
X116182436Y-160178750D01*
X102149655Y-185324031D02*
X105704936Y-181768750D01*
X45697436Y-181631559D02*
X49389908Y-185324031D01*
X109051675Y-176679957D02*
X109051675Y-166812420D01*
X109051675Y-166812420D02*
X115685345Y-160178750D01*
X111419936Y-112553750D02*
X120944936Y-122078750D01*
X115685345Y-160178750D02*
X116182436Y-160178750D01*
%TO.N,COL4*%
X130469936Y-112553750D02*
X130469936Y-103028750D01*
X135232436Y-160178750D02*
X133464670Y-160178750D01*
X135232436Y-160178750D02*
X144757436Y-150653750D01*
X133464670Y-160178750D02*
X114415707Y-179227713D01*
X114415707Y-182286320D02*
X110928476Y-185773551D01*
X43792436Y-180362276D02*
X43792436Y-128034250D01*
X144757436Y-150653750D02*
X144757436Y-141128750D01*
X114415707Y-179227713D02*
X114415707Y-182286320D01*
X110928476Y-185773551D02*
X49203711Y-185773551D01*
X139994936Y-122078750D02*
X130469936Y-112553750D01*
X144757436Y-141128750D02*
X139994936Y-136366250D01*
X49203711Y-185773551D02*
X43792436Y-180362276D01*
X43792436Y-128034250D02*
X45697436Y-126129250D01*
X139994936Y-136366250D02*
X139994936Y-122078750D01*
%TO.N,COL5*%
X49017513Y-186223071D02*
X43342916Y-180548473D01*
X148429527Y-160178750D02*
X122385206Y-186223071D01*
X43342916Y-180548473D02*
X43342916Y-125943770D01*
X154282436Y-160178750D02*
X148429527Y-160178750D01*
X122385206Y-186223071D02*
X49017513Y-186223071D01*
X163807436Y-150653750D02*
X154282436Y-160178750D01*
X43342916Y-125943770D02*
X45697436Y-123589250D01*
X159044936Y-136366250D02*
X163807436Y-141128750D01*
X163807436Y-141128750D02*
X163807436Y-150653750D01*
X149519936Y-112553750D02*
X159044936Y-122078750D01*
X159044936Y-122078750D02*
X159044936Y-136366250D01*
X149519936Y-103028750D02*
X149519936Y-112553750D01*
%TO.N,COL6*%
X42893396Y-123853290D02*
X45697436Y-121049250D01*
X42893396Y-180734670D02*
X42893396Y-123853290D01*
X182857436Y-141128750D02*
X178094936Y-136366250D01*
X182857436Y-150653750D02*
X182857436Y-141128750D01*
X173332436Y-160178750D02*
X182857436Y-150653750D01*
X178094936Y-136366250D02*
X178094936Y-122078750D01*
X178094936Y-122078750D02*
X168569936Y-112553750D01*
X48831315Y-186672591D02*
X42893396Y-180734670D01*
X173332436Y-160178750D02*
X167479527Y-160178750D01*
X140985686Y-186672591D02*
X48831315Y-186672591D01*
X168569936Y-112553750D02*
X168569936Y-103028750D01*
X167479527Y-160178750D02*
X140985686Y-186672591D01*
%TO.N,COL7*%
X48645117Y-187122111D02*
X42443876Y-180920867D01*
X197144936Y-122078750D02*
X197144936Y-136366250D01*
X192382436Y-160178750D02*
X192382436Y-179228750D01*
X187619936Y-103028750D02*
X187619936Y-112553750D01*
X187619936Y-112553750D02*
X197144936Y-122078750D01*
X201907436Y-141128750D02*
X201907436Y-150653750D01*
X42443876Y-180920867D02*
X42443876Y-121762810D01*
X185852170Y-183991250D02*
X182721309Y-187122111D01*
X201907436Y-150653750D02*
X192382436Y-160178750D01*
X42443876Y-121762810D02*
X45697436Y-118509250D01*
X197144936Y-136366250D02*
X201907436Y-141128750D01*
X182721309Y-187122111D02*
X48645117Y-187122111D01*
X187619936Y-183991250D02*
X185852170Y-183991250D01*
X192382436Y-179228750D02*
X187619936Y-183991250D01*
%TO.N,COL8*%
X41994356Y-181107064D02*
X41994356Y-119672330D01*
X196199165Y-188905771D02*
X49793063Y-188905771D01*
X49793063Y-188905771D02*
X41994356Y-181107064D01*
X206669936Y-112553750D02*
X206669936Y-103028750D01*
X216194936Y-136366250D02*
X216194936Y-122078750D01*
X220957436Y-150653750D02*
X220957436Y-141128750D01*
X211432436Y-160178750D02*
X220957436Y-150653750D01*
X216194936Y-122078750D02*
X206669936Y-112553750D01*
X41994356Y-119672330D02*
X45697436Y-115969250D01*
X211432436Y-173672500D02*
X196199165Y-188905771D01*
X211432436Y-160178750D02*
X211432436Y-173672500D01*
X220957436Y-141128750D02*
X216194936Y-136366250D01*
%TO.N,COL9*%
X240007436Y-150653750D02*
X230482436Y-160178750D01*
X225719936Y-103028750D02*
X225719936Y-112553750D01*
X230482436Y-160178750D02*
X228714670Y-160178750D01*
X41544836Y-181293261D02*
X41544836Y-117581850D01*
X235244936Y-136366250D02*
X240007436Y-141128750D01*
X228714670Y-160178750D02*
X199538129Y-189355291D01*
X41544836Y-117581850D02*
X45697436Y-113429250D01*
X240007436Y-141128750D02*
X240007436Y-150653750D01*
X49606865Y-189355291D02*
X41544836Y-181293261D01*
X225719936Y-112553750D02*
X235244936Y-122078750D01*
X235244936Y-122078750D02*
X235244936Y-136366250D01*
X199538129Y-189355291D02*
X49606865Y-189355291D01*
%TO.N,COL10*%
X41095316Y-115491370D02*
X45697436Y-110889250D01*
X222943466Y-189804811D02*
X49420667Y-189804811D01*
X249532436Y-160178750D02*
X259057436Y-150653750D01*
X259057436Y-150653750D02*
X259057436Y-141128750D01*
X41095316Y-181479458D02*
X41095316Y-115491370D01*
X254294936Y-122078750D02*
X244769936Y-112553750D01*
X249532436Y-160178750D02*
X249532436Y-163215841D01*
X259057436Y-141128750D02*
X254294936Y-136366250D01*
X254294936Y-136366250D02*
X254294936Y-122078750D01*
X249532436Y-163215841D02*
X222943466Y-189804811D01*
X49420667Y-189804811D02*
X41095316Y-181479458D01*
X244769936Y-112553750D02*
X244769936Y-103028750D01*
%TO.N,COL11*%
X263819936Y-103028750D02*
X263819936Y-112553750D01*
X268582436Y-160178750D02*
X268582436Y-176847500D01*
X278107436Y-150653750D02*
X268582436Y-160178750D01*
X273344936Y-136366250D02*
X278107436Y-141128750D01*
X268582436Y-176847500D02*
X270963686Y-179228750D01*
X278107436Y-141128750D02*
X278107436Y-150653750D01*
X263819936Y-112553750D02*
X273344936Y-122078750D01*
X273344936Y-122078750D02*
X273344936Y-136366250D01*
%TO.N,COL12*%
X292394936Y-122078750D02*
X282869936Y-112553750D01*
X292394936Y-136366250D02*
X292394936Y-122078750D01*
X287632436Y-160178750D02*
X297157436Y-150653750D01*
X297157436Y-141128750D02*
X292394936Y-136366250D01*
X297157436Y-179228750D02*
X287632436Y-169703750D01*
X282869936Y-112553750D02*
X282869936Y-103028750D01*
X297157436Y-150653750D02*
X297157436Y-141128750D01*
X287632436Y-169703750D02*
X287632436Y-160178750D01*
%TO.N,COL13*%
X316207436Y-157797500D02*
X313826186Y-160178750D01*
X311444936Y-136366250D02*
X316207436Y-141128750D01*
X301919936Y-103028750D02*
X301919936Y-112553750D01*
X311444936Y-122078750D02*
X311444936Y-136366250D01*
X301919936Y-112553750D02*
X311444936Y-122078750D01*
X316207436Y-141128750D02*
X316207436Y-157797500D01*
%TO.N,COL14*%
X344782436Y-164941250D02*
X328113686Y-148272500D01*
X325732436Y-182223484D02*
X343014670Y-164941250D01*
X328113686Y-139360984D02*
X335870920Y-131603750D01*
X343014670Y-164941250D02*
X344782436Y-164941250D01*
X335870920Y-131603750D02*
X337638686Y-131603750D01*
X337638686Y-131603750D02*
X331109457Y-125074521D01*
X328113686Y-141128750D02*
X328113686Y-139360984D01*
X320969936Y-103028750D02*
X330494936Y-103028750D01*
X331109457Y-116701729D02*
X331109457Y-117495479D01*
X331109457Y-117495479D02*
X331109457Y-103643271D01*
X328113686Y-148272500D02*
X328113686Y-141128750D01*
X331109457Y-103643271D02*
X330494936Y-103028750D01*
X325732436Y-183991250D02*
X325732436Y-182223484D01*
X328748686Y-119062500D02*
X331109457Y-116701729D01*
X331109457Y-125074521D02*
X331109457Y-117495479D01*
%TO.N,COL15*%
X339885517Y-122078750D02*
X342897915Y-125091148D01*
X335257436Y-122078750D02*
X337025202Y-122078750D01*
X340019936Y-103028750D02*
X341269935Y-104278749D01*
X341269935Y-115708749D02*
X341269935Y-116066251D01*
X347004936Y-145256250D02*
X347004936Y-165710669D01*
X344782436Y-168116250D02*
X344782436Y-183991250D01*
X342897915Y-125274229D02*
X347778207Y-130154521D01*
X341269935Y-104278749D02*
X341269935Y-115708749D01*
X346217915Y-166497690D02*
X346217915Y-166680771D01*
X342897915Y-125091148D02*
X342897915Y-125274229D01*
X338273686Y-119062500D02*
X335098686Y-119062500D01*
X341269935Y-116066251D02*
X335257436Y-122078750D01*
X347778207Y-130154521D02*
X347778207Y-144482979D01*
X337025202Y-122078750D02*
X339885517Y-122078750D01*
X347778207Y-144482979D02*
X347004936Y-145256250D01*
X347004936Y-165710669D02*
X346217915Y-166497690D01*
X346217915Y-166680771D02*
X344782436Y-168116250D01*
%TO.N,COL16*%
X368594936Y-141128750D02*
X368594936Y-160178750D01*
X368594936Y-160178750D02*
X368594936Y-179228750D01*
X368594936Y-103028750D02*
X368594936Y-122078750D01*
X368594936Y-179228750D02*
X363832436Y-183991250D01*
X368634936Y-103068750D02*
X368594936Y-103028750D01*
X379404936Y-103068750D02*
X368634936Y-103068750D01*
X368594936Y-122078750D02*
X368594936Y-141128750D01*
%TO.N,Net-(D19-Pad2)*%
X56492436Y-120173750D02*
X55857436Y-119538750D01*
%TO.N,ROW2*%
X55857436Y-130969468D02*
X55857436Y-128669250D01*
X59667436Y-148431250D02*
X59667436Y-134779468D01*
X59667436Y-134779468D02*
X55857436Y-130969468D01*
%TO.N,ROW3*%
X62842436Y-137318750D02*
X58397436Y-132873750D01*
X62842436Y-165100000D02*
X62842436Y-137318750D01*
X58397436Y-132873750D02*
X58397436Y-128669250D01*
%TO.N,ROW4*%
X50942915Y-144652310D02*
X50942915Y-141919967D01*
X53317436Y-139545446D02*
X53317436Y-128669250D01*
X50942915Y-141919967D02*
X53317436Y-139545446D01*
X51081947Y-163658261D02*
X50936186Y-163512500D01*
X50936186Y-161131250D02*
X51729936Y-160337500D01*
X50942915Y-184143271D02*
X50942915Y-180174521D01*
X50936186Y-163512500D02*
X50936186Y-161131250D01*
X51729936Y-145439331D02*
X50942915Y-144652310D01*
X51081947Y-180035489D02*
X51081947Y-163658261D01*
X51729936Y-160337500D02*
X51729936Y-145439331D01*
X50936186Y-184150000D02*
X50942915Y-184143271D01*
X50942915Y-180174521D02*
X51081947Y-180035489D01*
%TO.N,ROT1*%
X358911186Y-101600000D02*
X353804456Y-96493270D01*
X75333416Y-96493270D02*
X60937436Y-110889250D01*
X353804456Y-96493270D02*
X75333416Y-96493270D01*
%TO.N,ROT0*%
X360498686Y-117475000D02*
X364904936Y-113068750D01*
X364904936Y-113068750D02*
X364904936Y-108068750D01*
%TO.N,GND*%
X70702936Y-96043750D02*
X355379936Y-96043750D01*
X355379936Y-96043750D02*
X364904936Y-105568750D01*
X60937436Y-105809250D02*
X70702936Y-96043750D01*
%TD*%
M02*
