%TF.GenerationSoftware,KiCad,Pcbnew,(6.0.4)*%
%TF.CreationDate,2022-11-05T13:10:03+01:00*%
%TF.ProjectId,65MK,36354d4b-2e6b-4696-9361-645f70636258,rev?*%
%TF.SameCoordinates,Original*%
%TF.FileFunction,Soldermask,Top*%
%TF.FilePolarity,Negative*%
%FSLAX46Y46*%
G04 Gerber Fmt 4.6, Leading zero omitted, Abs format (unit mm)*
G04 Created by KiCad (PCBNEW (6.0.4)) date 2022-11-05 13:10:03*
%MOMM*%
%LPD*%
G01*
G04 APERTURE LIST*
%ADD10C,1.750000*%
%ADD11C,4.000000*%
%ADD12C,3.048000*%
%ADD13C,3.987800*%
%ADD14C,3.050000*%
%ADD15R,2.000000X2.000000*%
%ADD16C,2.000000*%
%ADD17R,3.200000X2.000000*%
%ADD18R,1.752600X1.752600*%
%ADD19C,1.752600*%
G04 APERTURE END LIST*
D10*
%TO.C,MX13*%
X281599936Y-105568750D03*
D11*
X286679936Y-105568750D03*
D10*
X291759936Y-105568750D03*
%TD*%
%TO.C,MX1*%
X48237436Y-105568750D03*
D11*
X53317436Y-105568750D03*
D10*
X58397436Y-105568750D03*
%TD*%
%TO.C,MX46*%
X286997436Y-143668750D03*
X276837436Y-143668750D03*
D11*
X281917436Y-143668750D03*
%TD*%
D10*
%TO.C,MX8*%
X196509936Y-105568750D03*
D11*
X191429936Y-105568750D03*
D10*
X186349936Y-105568750D03*
%TD*%
%TO.C,MX14*%
X310809936Y-105568750D03*
D11*
X305729936Y-105568750D03*
D10*
X300649936Y-105568750D03*
%TD*%
%TO.C,MX16*%
X338749936Y-105568750D03*
D11*
X343829936Y-105568750D03*
D10*
X348909936Y-105568750D03*
%TD*%
%TO.C,MX74*%
X372722436Y-186531250D03*
X362562436Y-186531250D03*
D11*
X367642436Y-186531250D03*
%TD*%
%TO.C,MX36*%
X84273686Y-143668750D03*
D10*
X79193686Y-143668750D03*
X89353686Y-143668750D03*
%TD*%
%TO.C,MX48*%
X314937436Y-143668750D03*
X325097436Y-143668750D03*
D11*
X320017436Y-143668750D03*
%TD*%
D10*
%TO.C,MX61*%
X277472436Y-162718750D03*
D11*
X272392436Y-162718750D03*
D10*
X267312436Y-162718750D03*
%TD*%
%TO.C,MX55*%
X153012436Y-162718750D03*
D11*
X158092436Y-162718750D03*
D10*
X163172436Y-162718750D03*
%TD*%
%TO.C,MX43*%
X219687436Y-143668750D03*
D11*
X224767436Y-143668750D03*
D10*
X229847436Y-143668750D03*
%TD*%
%TO.C,MX54*%
X133962436Y-162718750D03*
X144122436Y-162718750D03*
D11*
X139042436Y-162718750D03*
%TD*%
D10*
%TO.C,MX68*%
X86972436Y-181768750D03*
D11*
X81892436Y-181768750D03*
D10*
X76812436Y-181768750D03*
%TD*%
D11*
%TO.C,MX17*%
X372404936Y-105568750D03*
D10*
X367324936Y-105568750D03*
X377484936Y-105568750D03*
%TD*%
%TO.C,MX52*%
X95862436Y-162718750D03*
D11*
X100942436Y-162718750D03*
D10*
X106022436Y-162718750D03*
%TD*%
%TO.C,MX33*%
X367324936Y-124618750D03*
D11*
X372404936Y-124618750D03*
D10*
X377484936Y-124618750D03*
%TD*%
D11*
%TO.C,MX49*%
X372404936Y-143668750D03*
D10*
X377484936Y-143668750D03*
X367324936Y-143668750D03*
%TD*%
%TO.C,MX26*%
X214924936Y-124618750D03*
X225084936Y-124618750D03*
D11*
X220004936Y-124618750D03*
%TD*%
%TO.C,MX29*%
X277154936Y-124618750D03*
D10*
X272074936Y-124618750D03*
X282234936Y-124618750D03*
%TD*%
%TO.C,MX30*%
X301284936Y-124618750D03*
X291124936Y-124618750D03*
D11*
X296204936Y-124618750D03*
%TD*%
%TO.C,MX27*%
X239054936Y-124618750D03*
D10*
X233974936Y-124618750D03*
X244134936Y-124618750D03*
%TD*%
%TO.C,MX37*%
X105387436Y-143668750D03*
D11*
X110467436Y-143668750D03*
D10*
X115547436Y-143668750D03*
%TD*%
%TO.C,MX53*%
X125072436Y-162718750D03*
X114912436Y-162718750D03*
D11*
X119992436Y-162718750D03*
%TD*%
D10*
%TO.C,MX10*%
X224449936Y-105568750D03*
X234609936Y-105568750D03*
D11*
X229529936Y-105568750D03*
%TD*%
D10*
%TO.C,MX62*%
X296522436Y-162718750D03*
D11*
X291442436Y-162718750D03*
D10*
X286362436Y-162718750D03*
%TD*%
%TO.C,MX50*%
X48237436Y-162718750D03*
X58397436Y-162718750D03*
D11*
X53317436Y-162718750D03*
%TD*%
D10*
%TO.C,MX60*%
X248262436Y-162718750D03*
D11*
X253342436Y-162718750D03*
D10*
X258422436Y-162718750D03*
%TD*%
%TO.C,MX71*%
X306047436Y-181768750D03*
X295887436Y-181768750D03*
D11*
X300967436Y-181768750D03*
%TD*%
D10*
%TO.C,MX70*%
X269693686Y-181768750D03*
D11*
X274773686Y-181768750D03*
D10*
X279853686Y-181768750D03*
%TD*%
%TO.C,MX34*%
X337003686Y-143668750D03*
D11*
X331923686Y-143668750D03*
D12*
X334463686Y-146081750D03*
D11*
X320023686Y-151908750D03*
D13*
X349703686Y-122205750D03*
X349703686Y-146081750D03*
D10*
X326843686Y-143668750D03*
D12*
X334463686Y-122205750D03*
D13*
X341448686Y-134143750D03*
D10*
X346528686Y-134143750D03*
X336368686Y-134143750D03*
D11*
X343823686Y-151908750D03*
D14*
X343823686Y-136668750D03*
X320023686Y-136668750D03*
%TD*%
D11*
%TO.C,MX28*%
X258104936Y-124618750D03*
D10*
X253024936Y-124618750D03*
X263184936Y-124618750D03*
%TD*%
D11*
%TO.C,MX65*%
X372404936Y-162718750D03*
D10*
X367324936Y-162718750D03*
X377484936Y-162718750D03*
%TD*%
%TO.C,MX73*%
X353672436Y-186531250D03*
D11*
X348592436Y-186531250D03*
D10*
X343512436Y-186531250D03*
%TD*%
%TO.C,MX6*%
X158409936Y-105568750D03*
X148249936Y-105568750D03*
D11*
X153329936Y-105568750D03*
%TD*%
D10*
%TO.C,MX5*%
X139359936Y-105568750D03*
X129199936Y-105568750D03*
D11*
X134279936Y-105568750D03*
%TD*%
D10*
%TO.C,MX3*%
X101259936Y-105568750D03*
D11*
X96179936Y-105568750D03*
D10*
X91099936Y-105568750D03*
%TD*%
%TO.C,MX18*%
X58397436Y-124618750D03*
X48237436Y-124618750D03*
D11*
X53317436Y-124618750D03*
%TD*%
%TO.C,MX31*%
X315254936Y-124618750D03*
D10*
X310174936Y-124618750D03*
X320334936Y-124618750D03*
%TD*%
%TO.C,MX2*%
X72049936Y-105568750D03*
X82209936Y-105568750D03*
D11*
X77129936Y-105568750D03*
%TD*%
%TO.C,MX25*%
X200954936Y-124618750D03*
D10*
X206034936Y-124618750D03*
X195874936Y-124618750D03*
%TD*%
%TO.C,MX23*%
X157774936Y-124618750D03*
D11*
X162854936Y-124618750D03*
D10*
X167934936Y-124618750D03*
%TD*%
%TO.C,MX69*%
X113166186Y-181768750D03*
X103006186Y-181768750D03*
D11*
X108086186Y-181768750D03*
%TD*%
%TO.C,MX44*%
X243817436Y-143668750D03*
D10*
X238737436Y-143668750D03*
X248897436Y-143668750D03*
%TD*%
D12*
%TO.C,MX66*%
X134279936Y-179546250D03*
D10*
X186349936Y-186531250D03*
D13*
X134279936Y-194786250D03*
D10*
X196509936Y-186531250D03*
D12*
X248579936Y-179546250D03*
D13*
X248579936Y-194786250D03*
D11*
X191429936Y-186531250D03*
%TD*%
D10*
%TO.C,MX72*%
X324462436Y-186531250D03*
X334622436Y-186531250D03*
D11*
X329542436Y-186531250D03*
%TD*%
%TO.C,MX51*%
X77136186Y-170958750D03*
D10*
X83956186Y-162718750D03*
X84591186Y-162718750D03*
D14*
X77136186Y-155718750D03*
D10*
X74431186Y-162718750D03*
D11*
X89036186Y-162718750D03*
D10*
X94116186Y-162718750D03*
D14*
X100936186Y-155718750D03*
D11*
X79511186Y-162718750D03*
X100936186Y-170958750D03*
%TD*%
%TO.C,MX64*%
X348592436Y-167481250D03*
D10*
X343512436Y-167481250D03*
X353672436Y-167481250D03*
%TD*%
%TO.C,MX39*%
X143487436Y-143668750D03*
D11*
X148567436Y-143668750D03*
D10*
X153647436Y-143668750D03*
%TD*%
%TO.C,MX47*%
X306047436Y-143668750D03*
X295887436Y-143668750D03*
D11*
X300967436Y-143668750D03*
%TD*%
D15*
%TO.C,SW1*%
X364904936Y-103068750D03*
D16*
X364904936Y-108068750D03*
X364904936Y-105568750D03*
D17*
X372404936Y-99968750D03*
X372404936Y-111168750D03*
D16*
X379404936Y-108068750D03*
X379404936Y-103068750D03*
%TD*%
D11*
%TO.C,MX59*%
X234292436Y-162718750D03*
D10*
X239372436Y-162718750D03*
X229212436Y-162718750D03*
%TD*%
D11*
%TO.C,MX4*%
X115229936Y-105568750D03*
D10*
X110149936Y-105568750D03*
X120309936Y-105568750D03*
%TD*%
%TO.C,MX42*%
X200637436Y-143668750D03*
X210797436Y-143668750D03*
D11*
X205717436Y-143668750D03*
%TD*%
D10*
%TO.C,MX38*%
X134597436Y-143668750D03*
D11*
X129517436Y-143668750D03*
D10*
X124437436Y-143668750D03*
%TD*%
%TO.C,MX15*%
X319699936Y-105568750D03*
D12*
X346242936Y-98517611D03*
D10*
X329224936Y-105568750D03*
D11*
X324779936Y-105568750D03*
D13*
X322366936Y-113757611D03*
D10*
X339384936Y-105568750D03*
X329859936Y-105568750D03*
D13*
X346242936Y-113757611D03*
D11*
X334304936Y-105568750D03*
D12*
X322366936Y-98517611D03*
%TD*%
D10*
%TO.C,MX41*%
X181587436Y-143668750D03*
D11*
X186667436Y-143668750D03*
D10*
X191747436Y-143668750D03*
%TD*%
D11*
%TO.C,MX24*%
X181904936Y-124618750D03*
D10*
X176824936Y-124618750D03*
X186984936Y-124618750D03*
%TD*%
%TO.C,MX12*%
X262549936Y-105568750D03*
X272709936Y-105568750D03*
D11*
X267629936Y-105568750D03*
%TD*%
%TO.C,MX63*%
X317636186Y-162718750D03*
D10*
X322716186Y-162718750D03*
X312556186Y-162718750D03*
%TD*%
%TO.C,MX11*%
X243499936Y-105568750D03*
D11*
X248579936Y-105568750D03*
D10*
X253659936Y-105568750D03*
%TD*%
%TO.C,MX58*%
X210162436Y-162718750D03*
D11*
X215242436Y-162718750D03*
D10*
X220322436Y-162718750D03*
%TD*%
%TO.C,MX45*%
X267947436Y-143668750D03*
X257787436Y-143668750D03*
D11*
X262867436Y-143668750D03*
%TD*%
D10*
%TO.C,MX35*%
X58397436Y-143668750D03*
X48237436Y-143668750D03*
D11*
X53317436Y-143668750D03*
%TD*%
D10*
%TO.C,MX19*%
X76812436Y-124618750D03*
X86972436Y-124618750D03*
D11*
X81892436Y-124618750D03*
%TD*%
D10*
%TO.C,MX32*%
X344147436Y-124618750D03*
X333987436Y-124618750D03*
D11*
X339067436Y-124618750D03*
%TD*%
D10*
%TO.C,MX40*%
X162537436Y-143668750D03*
D11*
X167617436Y-143668750D03*
D10*
X172697436Y-143668750D03*
%TD*%
%TO.C,MX9*%
X205399936Y-105568750D03*
X215559936Y-105568750D03*
D11*
X210479936Y-105568750D03*
%TD*%
D10*
%TO.C,MX7*%
X177459936Y-105568750D03*
D11*
X172379936Y-105568750D03*
D10*
X167299936Y-105568750D03*
%TD*%
%TO.C,MX21*%
X119674936Y-124618750D03*
X129834936Y-124618750D03*
D11*
X124754936Y-124618750D03*
%TD*%
D10*
%TO.C,MX22*%
X148884936Y-124618750D03*
D11*
X143804936Y-124618750D03*
D10*
X138724936Y-124618750D03*
%TD*%
D11*
%TO.C,MX57*%
X196192436Y-162718750D03*
D10*
X201272436Y-162718750D03*
X191112436Y-162718750D03*
%TD*%
%TO.C,MX20*%
X100624936Y-124618750D03*
D11*
X105704936Y-124618750D03*
D10*
X110784936Y-124618750D03*
%TD*%
D11*
%TO.C,MX67*%
X53317436Y-181768750D03*
D10*
X58397436Y-181768750D03*
X48237436Y-181768750D03*
%TD*%
D11*
%TO.C,MX56*%
X177142436Y-162718750D03*
D10*
X182222436Y-162718750D03*
X172062436Y-162718750D03*
%TD*%
D18*
%TO.C,EC1*%
X60937436Y-100729250D03*
D19*
X60937436Y-103269250D03*
X60937436Y-105809250D03*
X60937436Y-108349250D03*
X60937436Y-110889250D03*
X60937436Y-113429250D03*
X60937436Y-115969250D03*
X60937436Y-118509250D03*
X60937436Y-121049250D03*
X60937436Y-123589250D03*
X60937436Y-126129250D03*
X60708836Y-128669250D03*
X45697436Y-128669250D03*
X45697436Y-126129250D03*
X45697436Y-123589250D03*
X45697436Y-121049250D03*
X45697436Y-118509250D03*
X45697436Y-115969250D03*
X45697436Y-113429250D03*
X45697436Y-110889250D03*
X45697436Y-108349250D03*
X45697436Y-105809250D03*
X45697436Y-103269250D03*
X45697436Y-100729250D03*
X58397436Y-128669250D03*
X55857436Y-128669250D03*
X53317436Y-128669250D03*
X50777436Y-128669250D03*
X48237436Y-128669250D03*
%TD*%
M02*
