%TF.GenerationSoftware,KiCad,Pcbnew,(6.0.4)*%
%TF.CreationDate,2022-07-27T19:48:40+02:00*%
%TF.ProjectId,65MK,36354d4b-2e6b-4696-9361-645f70636258,rev?*%
%TF.SameCoordinates,Original*%
%TF.FileFunction,Soldermask,Top*%
%TF.FilePolarity,Negative*%
%FSLAX46Y46*%
G04 Gerber Fmt 4.6, Leading zero omitted, Abs format (unit mm)*
G04 Created by KiCad (PCBNEW (6.0.4)) date 2022-07-27 19:48:40*
%MOMM*%
%LPD*%
G01*
G04 APERTURE LIST*
%ADD10C,1.750000*%
%ADD11C,4.000000*%
%ADD12C,3.048000*%
%ADD13C,3.987800*%
%ADD14C,3.050000*%
%ADD15R,2.000000X2.000000*%
%ADD16C,2.000000*%
%ADD17R,3.200000X2.000000*%
%ADD18R,1.752600X1.752600*%
%ADD19C,1.752600*%
G04 APERTURE END LIST*
D10*
%TO.C,MX4*%
X91757500Y-105568750D03*
X101917500Y-105568750D03*
D11*
X96837500Y-105568750D03*
%TD*%
D10*
%TO.C,MX13*%
X263207500Y-105568750D03*
X273367500Y-105568750D03*
D11*
X268287500Y-105568750D03*
%TD*%
D10*
%TO.C,MX1*%
X29845000Y-105568750D03*
X40005000Y-105568750D03*
D11*
X34925000Y-105568750D03*
%TD*%
D10*
%TO.C,MX46*%
X258445000Y-143668750D03*
X268605000Y-143668750D03*
D11*
X263525000Y-143668750D03*
%TD*%
D10*
%TO.C,MX8*%
X167957500Y-105568750D03*
X178117500Y-105568750D03*
D11*
X173037500Y-105568750D03*
%TD*%
D10*
%TO.C,MX14*%
X282257500Y-105568750D03*
X292417500Y-105568750D03*
D11*
X287337500Y-105568750D03*
%TD*%
D10*
%TO.C,MX16*%
X320357500Y-105568750D03*
X330517500Y-105568750D03*
D11*
X325437500Y-105568750D03*
%TD*%
D10*
%TO.C,MX74*%
X344170000Y-186531250D03*
X354330000Y-186531250D03*
D11*
X349250000Y-186531250D03*
%TD*%
D10*
%TO.C,MX36*%
X70961250Y-143668750D03*
D11*
X65881250Y-143668750D03*
D10*
X60801250Y-143668750D03*
%TD*%
%TO.C,MX48*%
X296545000Y-143668750D03*
X306705000Y-143668750D03*
D11*
X301625000Y-143668750D03*
%TD*%
D10*
%TO.C,MX61*%
X248920000Y-162718750D03*
X259080000Y-162718750D03*
D11*
X254000000Y-162718750D03*
%TD*%
D10*
%TO.C,MX55*%
X134620000Y-162718750D03*
X144780000Y-162718750D03*
D11*
X139700000Y-162718750D03*
%TD*%
D10*
%TO.C,MX43*%
X201295000Y-143668750D03*
X211455000Y-143668750D03*
D11*
X206375000Y-143668750D03*
%TD*%
D10*
%TO.C,MX54*%
X115570000Y-162718750D03*
X125730000Y-162718750D03*
D11*
X120650000Y-162718750D03*
%TD*%
D10*
%TO.C,MX68*%
X58420000Y-181768750D03*
X68580000Y-181768750D03*
D11*
X63500000Y-181768750D03*
%TD*%
D10*
%TO.C,MX17*%
X348932500Y-105568750D03*
X359092500Y-105568750D03*
D11*
X354012500Y-105568750D03*
%TD*%
D10*
%TO.C,MX52*%
X77470000Y-162718750D03*
X87630000Y-162718750D03*
D11*
X82550000Y-162718750D03*
%TD*%
D10*
%TO.C,MX33*%
X348932500Y-124618750D03*
X359092500Y-124618750D03*
D11*
X354012500Y-124618750D03*
%TD*%
D10*
%TO.C,MX49*%
X348932500Y-143668750D03*
X359092500Y-143668750D03*
D11*
X354012500Y-143668750D03*
%TD*%
D10*
%TO.C,MX26*%
X196532500Y-124618750D03*
X206692500Y-124618750D03*
D11*
X201612500Y-124618750D03*
%TD*%
D10*
%TO.C,MX29*%
X253682500Y-124618750D03*
X263842500Y-124618750D03*
D11*
X258762500Y-124618750D03*
%TD*%
D10*
%TO.C,MX30*%
X272732500Y-124618750D03*
X282892500Y-124618750D03*
D11*
X277812500Y-124618750D03*
%TD*%
D10*
%TO.C,MX27*%
X215582500Y-124618750D03*
X225742500Y-124618750D03*
D11*
X220662500Y-124618750D03*
%TD*%
D10*
%TO.C,MX37*%
X86995000Y-143668750D03*
X97155000Y-143668750D03*
D11*
X92075000Y-143668750D03*
%TD*%
D10*
%TO.C,MX53*%
X96520000Y-162718750D03*
X106680000Y-162718750D03*
D11*
X101600000Y-162718750D03*
%TD*%
D10*
%TO.C,MX10*%
X206057500Y-105568750D03*
X216217500Y-105568750D03*
D11*
X211137500Y-105568750D03*
%TD*%
D10*
%TO.C,MX62*%
X267970000Y-162718750D03*
X278130000Y-162718750D03*
D11*
X273050000Y-162718750D03*
%TD*%
D10*
%TO.C,MX50*%
X29845000Y-162718750D03*
X40005000Y-162718750D03*
D11*
X34925000Y-162718750D03*
%TD*%
D10*
%TO.C,MX60*%
X229870000Y-162718750D03*
X240030000Y-162718750D03*
D11*
X234950000Y-162718750D03*
%TD*%
D10*
%TO.C,MX71*%
X277495000Y-181768750D03*
X287655000Y-181768750D03*
D11*
X282575000Y-181768750D03*
%TD*%
D10*
%TO.C,MX70*%
X261461250Y-181768750D03*
X251301250Y-181768750D03*
D11*
X256381250Y-181768750D03*
%TD*%
D12*
%TO.C,MX34*%
X316071250Y-146081750D03*
D11*
X325431250Y-151908750D03*
D10*
X328136250Y-134143750D03*
D13*
X331311250Y-122205750D03*
D12*
X316071250Y-122205750D03*
D11*
X301631250Y-151908750D03*
D10*
X318611250Y-143668750D03*
D13*
X323056250Y-134143750D03*
D11*
X313531250Y-143668750D03*
D10*
X317976250Y-134143750D03*
D14*
X301631250Y-136668750D03*
D13*
X331311250Y-146081750D03*
D14*
X325431250Y-136668750D03*
D10*
X308451250Y-143668750D03*
%TD*%
%TO.C,MX28*%
X234632500Y-124618750D03*
X244792500Y-124618750D03*
D11*
X239712500Y-124618750D03*
%TD*%
D10*
%TO.C,MX65*%
X348932500Y-162718750D03*
X359092500Y-162718750D03*
D11*
X354012500Y-162718750D03*
%TD*%
D10*
%TO.C,MX73*%
X325120000Y-186531250D03*
X335280000Y-186531250D03*
D11*
X330200000Y-186531250D03*
%TD*%
D10*
%TO.C,MX6*%
X129857500Y-105568750D03*
X140017500Y-105568750D03*
D11*
X134937500Y-105568750D03*
%TD*%
D10*
%TO.C,MX5*%
X110807500Y-105568750D03*
X120967500Y-105568750D03*
D11*
X115887500Y-105568750D03*
%TD*%
D10*
%TO.C,MX3*%
X72707500Y-105568750D03*
X82867500Y-105568750D03*
D11*
X77787500Y-105568750D03*
%TD*%
D10*
%TO.C,MX18*%
X29845000Y-124618750D03*
X40005000Y-124618750D03*
D11*
X34925000Y-124618750D03*
%TD*%
D10*
%TO.C,MX31*%
X291782500Y-124618750D03*
X301942500Y-124618750D03*
D11*
X296862500Y-124618750D03*
%TD*%
D10*
%TO.C,MX2*%
X53657500Y-105568750D03*
X63817500Y-105568750D03*
D11*
X58737500Y-105568750D03*
%TD*%
D10*
%TO.C,MX25*%
X177482500Y-124618750D03*
X187642500Y-124618750D03*
D11*
X182562500Y-124618750D03*
%TD*%
D10*
%TO.C,MX23*%
X139382500Y-124618750D03*
X149542500Y-124618750D03*
D11*
X144462500Y-124618750D03*
%TD*%
D10*
%TO.C,MX69*%
X94773750Y-181768750D03*
X84613750Y-181768750D03*
D11*
X89693750Y-181768750D03*
%TD*%
D10*
%TO.C,MX44*%
X220345000Y-143668750D03*
X230505000Y-143668750D03*
D11*
X225425000Y-143668750D03*
%TD*%
D12*
%TO.C,MX66*%
X230187500Y-179546250D03*
D10*
X167957500Y-186531250D03*
D13*
X230187500Y-194786250D03*
D11*
X173037500Y-186531250D03*
D12*
X115887500Y-179546250D03*
D10*
X178117500Y-186531250D03*
D13*
X115887500Y-194786250D03*
%TD*%
D10*
%TO.C,MX72*%
X306070000Y-186531250D03*
X316230000Y-186531250D03*
D11*
X311150000Y-186531250D03*
%TD*%
%TO.C,MX51*%
X70643750Y-162718750D03*
X61118750Y-162718750D03*
X82543750Y-170958750D03*
D14*
X82543750Y-155718750D03*
D11*
X58743750Y-170958750D03*
D14*
X58743750Y-155718750D03*
D10*
X65563750Y-162718750D03*
X66198750Y-162718750D03*
X75723750Y-162718750D03*
X56038750Y-162718750D03*
%TD*%
%TO.C,MX64*%
X325120000Y-167481250D03*
X335280000Y-167481250D03*
D11*
X330200000Y-167481250D03*
%TD*%
D10*
%TO.C,MX39*%
X125095000Y-143668750D03*
X135255000Y-143668750D03*
D11*
X130175000Y-143668750D03*
%TD*%
D10*
%TO.C,MX47*%
X277495000Y-143668750D03*
X287655000Y-143668750D03*
D11*
X282575000Y-143668750D03*
%TD*%
D15*
%TO.C,SW1*%
X346512500Y-103068750D03*
D16*
X346512500Y-108068750D03*
X346512500Y-105568750D03*
D17*
X354012500Y-99968750D03*
X354012500Y-111168750D03*
D16*
X361012500Y-108068750D03*
X361012500Y-103068750D03*
%TD*%
D10*
%TO.C,MX59*%
X210820000Y-162718750D03*
X220980000Y-162718750D03*
D11*
X215900000Y-162718750D03*
%TD*%
D10*
%TO.C,MX42*%
X182245000Y-143668750D03*
X192405000Y-143668750D03*
D11*
X187325000Y-143668750D03*
%TD*%
D10*
%TO.C,MX38*%
X106045000Y-143668750D03*
X116205000Y-143668750D03*
D11*
X111125000Y-143668750D03*
%TD*%
D10*
%TO.C,MX15*%
X320992500Y-105568750D03*
D13*
X327850500Y-113757611D03*
D12*
X303974500Y-98517611D03*
D13*
X303974500Y-113757611D03*
D10*
X311467500Y-105568750D03*
D11*
X315912500Y-105568750D03*
D10*
X301307500Y-105568750D03*
X310832500Y-105568750D03*
D12*
X327850500Y-98517611D03*
D11*
X306387500Y-105568750D03*
%TD*%
D10*
%TO.C,MX41*%
X163195000Y-143668750D03*
X173355000Y-143668750D03*
D11*
X168275000Y-143668750D03*
%TD*%
D10*
%TO.C,MX24*%
X158432500Y-124618750D03*
X168592500Y-124618750D03*
D11*
X163512500Y-124618750D03*
%TD*%
D10*
%TO.C,MX12*%
X244157500Y-105568750D03*
X254317500Y-105568750D03*
D11*
X249237500Y-105568750D03*
%TD*%
D10*
%TO.C,MX63*%
X304323750Y-162718750D03*
D11*
X299243750Y-162718750D03*
D10*
X294163750Y-162718750D03*
%TD*%
%TO.C,MX11*%
X225107500Y-105568750D03*
X235267500Y-105568750D03*
D11*
X230187500Y-105568750D03*
%TD*%
D10*
%TO.C,MX58*%
X191770000Y-162718750D03*
X201930000Y-162718750D03*
D11*
X196850000Y-162718750D03*
%TD*%
D10*
%TO.C,MX45*%
X239395000Y-143668750D03*
X249555000Y-143668750D03*
D11*
X244475000Y-143668750D03*
%TD*%
D10*
%TO.C,MX35*%
X29845000Y-143668750D03*
X40005000Y-143668750D03*
D11*
X34925000Y-143668750D03*
%TD*%
D10*
%TO.C,MX19*%
X58420000Y-124618750D03*
X68580000Y-124618750D03*
D11*
X63500000Y-124618750D03*
%TD*%
D10*
%TO.C,MX32*%
X315595000Y-124618750D03*
X325755000Y-124618750D03*
D11*
X320675000Y-124618750D03*
%TD*%
D10*
%TO.C,MX40*%
X144145000Y-143668750D03*
X154305000Y-143668750D03*
D11*
X149225000Y-143668750D03*
%TD*%
D10*
%TO.C,MX9*%
X187007500Y-105568750D03*
X197167500Y-105568750D03*
D11*
X192087500Y-105568750D03*
%TD*%
D10*
%TO.C,MX7*%
X148907500Y-105568750D03*
X159067500Y-105568750D03*
D11*
X153987500Y-105568750D03*
%TD*%
D10*
%TO.C,MX21*%
X101282500Y-124618750D03*
X111442500Y-124618750D03*
D11*
X106362500Y-124618750D03*
%TD*%
D10*
%TO.C,MX22*%
X120332500Y-124618750D03*
X130492500Y-124618750D03*
D11*
X125412500Y-124618750D03*
%TD*%
D10*
%TO.C,MX57*%
X172720000Y-162718750D03*
X182880000Y-162718750D03*
D11*
X177800000Y-162718750D03*
%TD*%
D10*
%TO.C,MX20*%
X82232500Y-124618750D03*
X92392500Y-124618750D03*
D11*
X87312500Y-124618750D03*
%TD*%
D10*
%TO.C,MX67*%
X29845000Y-181768750D03*
X40005000Y-181768750D03*
D11*
X34925000Y-181768750D03*
%TD*%
D10*
%TO.C,MX56*%
X153670000Y-162718750D03*
X163830000Y-162718750D03*
D11*
X158750000Y-162718750D03*
%TD*%
D18*
%TO.C,EC1*%
X42545000Y-100729250D03*
D19*
X42545000Y-103269250D03*
X42545000Y-105809250D03*
X42545000Y-108349250D03*
X42545000Y-110889250D03*
X42545000Y-113429250D03*
X42545000Y-115969250D03*
X42545000Y-118509250D03*
X42545000Y-121049250D03*
X42545000Y-123589250D03*
X42545000Y-126129250D03*
X27305000Y-128669250D03*
X27305000Y-126129250D03*
X27305000Y-123589250D03*
X27305000Y-121049250D03*
X27305000Y-118509250D03*
X27305000Y-115969250D03*
X27305000Y-113429250D03*
X27305000Y-110889250D03*
X27305000Y-108349250D03*
X27305000Y-105809250D03*
X27305000Y-103269250D03*
X42316400Y-128669250D03*
X27305000Y-100729250D03*
X29845000Y-128669250D03*
X32385000Y-128669250D03*
X34925000Y-128669250D03*
X37465000Y-128669250D03*
X40005000Y-128669250D03*
%TD*%
M02*
