M48
; DRILL file {KiCad (6.0.4)} date Sat Nov  5 13:10:07 2022
; FORMAT={-:-/ absolute / inch / decimal}
; #@! TF.CreationDate,2022-11-05T13:10:07+01:00
; #@! TF.GenerationSoftware,Kicad,Pcbnew,(6.0.4)
; #@! TF.FileFunction,Plated,1,2,PTH
FMAT,2
INCH
; #@! TA.AperFunction,Plated,PTH,ViaDrill
T1C0.0157
; #@! TA.AperFunction,Plated,PTH,ComponentDrill
T2C0.0394
; #@! TA.AperFunction,Plated,PTH,ComponentDrill
T3C0.0430
; #@! TA.AperFunction,Plated,PTH,ComponentDrill
T4C0.0591
%
G90
G05
T1
X1.8804Y-6.8125
X1.9116Y-5.3125
X2.0054Y-7.25
X2.3491Y-5.8438
X2.4741Y-6.5
X12.9429Y-4.6875
X13.1929Y-4.6875
X14.1304Y-4.0
X14.1929Y-4.625
T2
X14.3663Y-4.0578
X14.3663Y-4.1562
X14.3663Y-4.2547
X14.9372Y-4.0578
X14.9372Y-4.2547
T3
X1.7991Y-3.9657
X1.7991Y-4.0657
X1.7991Y-4.1657
X1.7991Y-4.2657
X1.7991Y-4.3657
X1.7991Y-4.4657
X1.7991Y-4.5657
X1.7991Y-4.6657
X1.7991Y-4.7657
X1.7991Y-4.8657
X1.7991Y-4.9657
X1.7991Y-5.0657
X1.8991Y-5.0657
X1.9991Y-5.0657
X2.0991Y-5.0657
X2.1991Y-5.0657
X2.2991Y-5.0657
X2.3901Y-5.0657
X2.3991Y-3.9657
X2.3991Y-4.0657
X2.3991Y-4.1657
X2.3991Y-4.2657
X2.3991Y-4.3657
X2.3991Y-4.4657
X2.3991Y-4.5657
X2.3991Y-4.6657
X2.3991Y-4.7657
X2.3991Y-4.8657
X2.3991Y-4.9657
T4
X1.9491Y-4.0562
X1.9491Y-4.8062
X1.9491Y-5.5562
X1.9491Y-6.3062
X1.9491Y-7.0562
X2.1991Y-3.9562
X2.1991Y-4.7062
X2.1991Y-5.4562
X2.1991Y-6.2062
X2.1991Y-6.9562
X2.8866Y-4.0562
X2.9804Y-6.3062
X3.0741Y-4.8062
X3.0741Y-7.0562
X3.1366Y-3.9562
X3.1679Y-5.5562
X3.2304Y-6.2062
X3.3241Y-4.7062
X3.3241Y-6.9562
X3.3554Y-6.3062
X3.4179Y-5.4562
X3.6054Y-6.2062
X3.6366Y-4.0562
X3.8241Y-6.3062
X3.8866Y-3.9562
X4.0116Y-4.8062
X4.0741Y-6.2062
X4.1054Y-7.0562
X4.1991Y-5.5562
X4.2616Y-4.7062
X4.3554Y-6.9562
X4.3866Y-4.0562
X4.4491Y-5.4562
X4.5741Y-6.3062
X4.6366Y-3.9562
X4.7616Y-4.8062
X4.8241Y-6.2062
X4.9491Y-5.5562
X5.0116Y-4.7062
X5.1366Y-4.0562
X5.1991Y-5.4562
X5.3241Y-6.3062
X5.3866Y-3.9562
X5.5116Y-4.8062
X5.5741Y-6.2062
X5.6991Y-5.5562
X5.7616Y-4.7062
X5.8866Y-4.0562
X5.9491Y-5.4562
X6.0741Y-6.3062
X6.1366Y-3.9562
X6.2616Y-4.8062
X6.3241Y-6.2062
X6.4491Y-5.5562
X6.5116Y-4.7062
X6.6366Y-4.0562
X6.6991Y-5.4562
X6.8241Y-6.3062
X6.8866Y-3.9562
X7.0116Y-4.8062
X7.0741Y-6.2062
X7.1991Y-5.5562
X7.2616Y-4.7062
X7.3866Y-4.0562
X7.3866Y-7.2437
X7.4491Y-5.4562
X7.5741Y-6.3062
X7.6366Y-3.9562
X7.6366Y-7.1437
X7.7616Y-4.8062
X7.8241Y-6.2062
X7.9491Y-5.5562
X8.0116Y-4.7062
X8.1366Y-4.0562
X8.1991Y-5.4562
X8.3241Y-6.3062
X8.3866Y-3.9562
X8.5116Y-4.8062
X8.5741Y-6.2062
X8.6991Y-5.5562
X8.7616Y-4.7062
X8.8866Y-4.0562
X8.9491Y-5.4562
X9.0741Y-6.3062
X9.1366Y-3.9562
X9.2616Y-4.8062
X9.3241Y-6.2062
X9.4491Y-5.5562
X9.5116Y-4.7062
X9.6366Y-4.0562
X9.6991Y-5.4562
X9.8241Y-6.3062
X9.8866Y-3.9562
X10.0116Y-4.8062
X10.0741Y-6.2062
X10.1991Y-5.5562
X10.2616Y-4.7062
X10.3866Y-4.0562
X10.4491Y-5.4562
X10.5741Y-6.3062
X10.6366Y-3.9562
X10.6679Y-7.0562
X10.7616Y-4.8062
X10.8241Y-6.2062
X10.9179Y-6.9562
X10.9491Y-5.5562
X11.0116Y-4.7062
X11.1366Y-4.0562
X11.1991Y-5.4562
X11.3241Y-6.3062
X11.3866Y-3.9562
X11.5116Y-4.8062
X11.5741Y-6.2062
X11.6991Y-5.5562
X11.6991Y-7.0562
X11.7616Y-4.7062
X11.8866Y-4.0562
X11.9491Y-5.4562
X11.9491Y-6.9562
X12.1366Y-3.9562
X12.2616Y-4.8062
X12.3554Y-6.3062
X12.4491Y-5.5562
X12.5116Y-4.7062
X12.6054Y-6.2062
X12.6366Y-4.0562
X12.6991Y-5.4562
X12.8241Y-7.2437
X12.8866Y-3.9562
X12.9179Y-5.5562
X13.0116Y-4.0562
X13.0741Y-7.1437
X13.1679Y-5.4562
X13.1991Y-4.8062
X13.2616Y-3.9562
X13.2929Y-5.1812
X13.3866Y-4.0562
X13.4491Y-4.7062
X13.5429Y-5.0812
X13.5741Y-6.4937
X13.5741Y-7.2437
X13.6366Y-3.9562
X13.8241Y-6.3937
X13.8241Y-7.1437
X14.3241Y-7.2437
X14.5116Y-4.0562
X14.5116Y-4.8062
X14.5116Y-5.5562
X14.5116Y-6.3062
X14.5741Y-7.1437
X14.7616Y-3.9562
X14.7616Y-4.7062
X14.7616Y-5.4562
X14.7616Y-6.2062
T4
G00X14.636Y-3.9358
M15
G01X14.6872Y-3.9358
M16
G05
G00X14.636Y-4.3767
M15
G01X14.6872Y-4.3767
M16
G05
T0
M30
