M48
; DRILL file {KiCad (6.0.4)} date Sat Nov  5 13:10:07 2022
; FORMAT={-:-/ absolute / inch / decimal}
; #@! TF.CreationDate,2022-11-05T13:10:07+01:00
; #@! TF.GenerationSoftware,Kicad,Pcbnew,(6.0.4)
; #@! TF.FileFunction,NonPlated,1,2,NPTH
FMAT,2
INCH
; #@! TA.AperFunction,NonPlated,NPTH,ComponentDrill
T1C0.0689
; #@! TA.AperFunction,NonPlated,NPTH,ComponentDrill
T2C0.1200
; #@! TA.AperFunction,NonPlated,NPTH,ComponentDrill
T3C0.1201
; #@! TA.AperFunction,NonPlated,NPTH,ComponentDrill
T4C0.1570
; #@! TA.AperFunction,NonPlated,NPTH,ComponentDrill
T5C0.1575
%
G90
G05
T1
X1.8991Y-4.1562
X1.8991Y-4.9062
X1.8991Y-5.6562
X1.8991Y-6.4062
X1.8991Y-7.1562
X2.2991Y-4.1562
X2.2991Y-4.9062
X2.2991Y-5.6562
X2.2991Y-6.4062
X2.2991Y-7.1562
X2.8366Y-4.1562
X2.9304Y-6.4062
X3.0241Y-4.9062
X3.0241Y-7.1562
X3.1179Y-5.6562
X3.2366Y-4.1562
X3.3054Y-6.4062
X3.3304Y-6.4062
X3.4241Y-4.9062
X3.4241Y-7.1562
X3.5179Y-5.6562
X3.5866Y-4.1562
X3.7054Y-6.4062
X3.7741Y-6.4062
X3.9616Y-4.9062
X3.9866Y-4.1562
X4.0554Y-7.1562
X4.1491Y-5.6562
X4.1741Y-6.4062
X4.3366Y-4.1562
X4.3616Y-4.9062
X4.4554Y-7.1562
X4.5241Y-6.4062
X4.5491Y-5.6562
X4.7116Y-4.9062
X4.7366Y-4.1562
X4.8991Y-5.6562
X4.9241Y-6.4062
X5.0866Y-4.1562
X5.1116Y-4.9062
X5.2741Y-6.4062
X5.2991Y-5.6562
X5.4616Y-4.9062
X5.4866Y-4.1562
X5.6491Y-5.6562
X5.6741Y-6.4062
X5.8366Y-4.1562
X5.8616Y-4.9062
X6.0241Y-6.4062
X6.0491Y-5.6562
X6.2116Y-4.9062
X6.2366Y-4.1562
X6.3991Y-5.6562
X6.4241Y-6.4062
X6.5866Y-4.1562
X6.6116Y-4.9062
X6.7741Y-6.4062
X6.7991Y-5.6562
X6.9616Y-4.9062
X6.9866Y-4.1562
X7.1491Y-5.6562
X7.1741Y-6.4062
X7.3366Y-4.1562
X7.3366Y-7.3438
X7.3616Y-4.9062
X7.5241Y-6.4062
X7.5491Y-5.6562
X7.7116Y-4.9062
X7.7366Y-4.1562
X7.7366Y-7.3438
X7.8991Y-5.6562
X7.9241Y-6.4062
X8.0866Y-4.1562
X8.1116Y-4.9062
X8.2741Y-6.4062
X8.2991Y-5.6562
X8.4616Y-4.9062
X8.4866Y-4.1562
X8.6491Y-5.6562
X8.6741Y-6.4062
X8.8366Y-4.1562
X8.8616Y-4.9062
X9.0241Y-6.4062
X9.0491Y-5.6562
X9.2116Y-4.9062
X9.2366Y-4.1562
X9.3991Y-5.6562
X9.4241Y-6.4062
X9.5866Y-4.1562
X9.6116Y-4.9062
X9.7741Y-6.4062
X9.7991Y-5.6562
X9.9616Y-4.9062
X9.9866Y-4.1562
X10.1491Y-5.6562
X10.1741Y-6.4062
X10.3366Y-4.1562
X10.3616Y-4.9062
X10.5241Y-6.4062
X10.5491Y-5.6562
X10.6179Y-7.1562
X10.7116Y-4.9062
X10.7366Y-4.1562
X10.8991Y-5.6562
X10.9241Y-6.4062
X11.0179Y-7.1562
X11.0866Y-4.1562
X11.1116Y-4.9062
X11.2741Y-6.4062
X11.2991Y-5.6562
X11.4616Y-4.9062
X11.4866Y-4.1562
X11.6491Y-5.6562
X11.6491Y-7.1562
X11.6741Y-6.4062
X11.8366Y-4.1562
X11.8616Y-4.9062
X12.0491Y-5.6562
X12.0491Y-7.1562
X12.2116Y-4.9062
X12.2366Y-4.1562
X12.3054Y-6.4062
X12.3991Y-5.6562
X12.5866Y-4.1562
X12.6116Y-4.9062
X12.7054Y-6.4062
X12.7741Y-7.3438
X12.7991Y-5.6562
X12.8679Y-5.6562
X12.9616Y-4.1562
X12.9866Y-4.1562
X13.1491Y-4.9062
X13.1741Y-7.3438
X13.2429Y-5.2812
X13.2679Y-5.6562
X13.3366Y-4.1562
X13.3616Y-4.1562
X13.5241Y-6.5938
X13.5241Y-7.3438
X13.5491Y-4.9062
X13.6429Y-5.2812
X13.7366Y-4.1562
X13.9241Y-6.5938
X13.9241Y-7.3438
X14.2741Y-7.3438
X14.4616Y-4.1562
X14.4616Y-4.9062
X14.4616Y-5.6562
X14.4616Y-6.4062
X14.6741Y-7.3438
X14.8616Y-4.1562
X14.8616Y-4.9062
X14.8616Y-5.6562
X14.8616Y-6.4062
T2
X5.2866Y-7.0687
X9.7866Y-7.0687
X12.6916Y-3.8786
X13.1679Y-4.8113
X13.1679Y-5.7512
X13.6316Y-3.8786
T3
X3.0369Y-6.1307
X3.9739Y-6.1307
X12.5994Y-5.3807
X13.5364Y-5.3807
T4
X5.2866Y-7.6688
X9.7866Y-7.6688
X12.6916Y-4.4786
X13.4429Y-5.2812
X13.6316Y-4.4786
X13.7679Y-4.8113
X13.7679Y-5.7512
T5
X2.0991Y-4.1562
X2.0991Y-4.9062
X2.0991Y-5.6562
X2.0991Y-6.4062
X2.0991Y-7.1562
X3.0366Y-4.1562
X3.0369Y-6.7307
X3.1304Y-6.4062
X3.2241Y-4.9062
X3.2241Y-7.1562
X3.3179Y-5.6562
X3.5054Y-6.4062
X3.7866Y-4.1562
X3.9739Y-6.7307
X3.9741Y-6.4062
X4.1616Y-4.9062
X4.2554Y-7.1562
X4.3491Y-5.6562
X4.5366Y-4.1562
X4.7241Y-6.4062
X4.9116Y-4.9062
X5.0991Y-5.6562
X5.2866Y-4.1562
X5.4741Y-6.4062
X5.6616Y-4.9062
X5.8491Y-5.6562
X6.0366Y-4.1562
X6.2241Y-6.4062
X6.4116Y-4.9062
X6.5991Y-5.6562
X6.7866Y-4.1562
X6.9741Y-6.4062
X7.1616Y-4.9062
X7.3491Y-5.6562
X7.5366Y-4.1562
X7.5366Y-7.3438
X7.7241Y-6.4062
X7.9116Y-4.9062
X8.0991Y-5.6562
X8.2866Y-4.1562
X8.4741Y-6.4062
X8.6616Y-4.9062
X8.8491Y-5.6562
X9.0366Y-4.1562
X9.2241Y-6.4062
X9.4116Y-4.9062
X9.5991Y-5.6562
X9.7866Y-4.1562
X9.9741Y-6.4062
X10.1616Y-4.9062
X10.3491Y-5.6562
X10.5366Y-4.1562
X10.7241Y-6.4062
X10.8179Y-7.1562
X10.9116Y-4.9062
X11.0991Y-5.6562
X11.2866Y-4.1562
X11.4741Y-6.4062
X11.6616Y-4.9062
X11.8491Y-5.6562
X11.8491Y-7.1562
X12.0366Y-4.1562
X12.4116Y-4.9062
X12.5054Y-6.4062
X12.5991Y-5.6562
X12.5994Y-5.9807
X12.7866Y-4.1562
X12.9741Y-7.3438
X13.0679Y-5.6562
X13.1616Y-4.1562
X13.3491Y-4.9062
X13.5364Y-5.9807
X13.5366Y-4.1562
X13.7241Y-6.5938
X13.7241Y-7.3438
X14.4741Y-7.3438
X14.6616Y-4.1562
X14.6616Y-4.9062
X14.6616Y-5.6562
X14.6616Y-6.4062
T0
M30
