%TF.GenerationSoftware,KiCad,Pcbnew,(6.0.4)*%
%TF.CreationDate,2022-11-05T13:10:03+01:00*%
%TF.ProjectId,65MK,36354d4b-2e6b-4696-9361-645f70636258,rev?*%
%TF.SameCoordinates,Original*%
%TF.FileFunction,Paste,Bot*%
%TF.FilePolarity,Positive*%
%FSLAX46Y46*%
G04 Gerber Fmt 4.6, Leading zero omitted, Abs format (unit mm)*
G04 Created by KiCad (PCBNEW (6.0.4)) date 2022-11-05 13:10:03*
%MOMM*%
%LPD*%
G01*
G04 APERTURE LIST*
%ADD10R,1.200000X0.900000*%
%ADD11R,0.900000X1.200000*%
%ADD12R,3.250000X2.000000*%
%ADD13R,2.000000X3.250000*%
G04 APERTURE END LIST*
D10*
%TO.C,D62*%
X275567436Y-169131250D03*
X275567436Y-165831250D03*
%TD*%
%TO.C,D58*%
X199367436Y-169131250D03*
X199367436Y-165831250D03*
%TD*%
%TO.C,D69*%
X85067436Y-188181250D03*
X85067436Y-184881250D03*
%TD*%
%TO.C,D57*%
X180317436Y-169131250D03*
X180317436Y-165831250D03*
%TD*%
%TO.C,D14*%
X308904936Y-111981250D03*
X308904936Y-108681250D03*
%TD*%
%TO.C,D74*%
X351767436Y-192943750D03*
X351767436Y-189643750D03*
%TD*%
%TO.C,D39*%
X132692436Y-150081250D03*
X132692436Y-146781250D03*
%TD*%
%TO.C,D7*%
X175554936Y-111981250D03*
X175554936Y-108681250D03*
%TD*%
%TO.C,D5*%
X137454936Y-111981250D03*
X137454936Y-108681250D03*
%TD*%
%TO.C,D21*%
X108879936Y-131031250D03*
X108879936Y-127731250D03*
%TD*%
%TO.C,D44*%
X227942436Y-150081250D03*
X227942436Y-146781250D03*
%TD*%
%TO.C,D11*%
X251754936Y-111981250D03*
X251754936Y-108681250D03*
%TD*%
%TO.C,D22*%
X127929936Y-131031250D03*
X127929936Y-127731250D03*
%TD*%
%TO.C,D19*%
X56492436Y-125537500D03*
X56492436Y-122237500D03*
%TD*%
%TO.C,D46*%
X266042436Y-150081250D03*
X266042436Y-146781250D03*
%TD*%
%TO.C,D73*%
X332717436Y-192943750D03*
X332717436Y-189643750D03*
%TD*%
%TO.C,D38*%
X113642436Y-150081250D03*
X113642436Y-146781250D03*
%TD*%
%TO.C,D55*%
X142217436Y-169131250D03*
X142217436Y-165831250D03*
%TD*%
%TO.C,D71*%
X277948686Y-188181250D03*
X277948686Y-184881250D03*
%TD*%
%TO.C,D36*%
X56492436Y-150081250D03*
X56492436Y-146781250D03*
%TD*%
%TO.C,D43*%
X208892436Y-150081250D03*
X208892436Y-146781250D03*
%TD*%
%TO.C,D66*%
X375579936Y-169131250D03*
X375579936Y-165831250D03*
%TD*%
%TO.C,D52*%
X92211186Y-169131250D03*
X92211186Y-165831250D03*
%TD*%
%TO.C,D48*%
X304142436Y-150081250D03*
X304142436Y-146781250D03*
%TD*%
%TO.C,D6*%
X156504936Y-111981250D03*
X156504936Y-108681250D03*
%TD*%
%TO.C,D53*%
X104117436Y-169131250D03*
X104117436Y-165831250D03*
%TD*%
%TO.C,D61*%
X256517436Y-169131250D03*
X256517436Y-165831250D03*
%TD*%
%TO.C,D24*%
X166029936Y-131031250D03*
X166029936Y-127731250D03*
%TD*%
%TO.C,D31*%
X299379936Y-131031250D03*
X299379936Y-127731250D03*
%TD*%
%TO.C,D20*%
X85067436Y-131031250D03*
X85067436Y-127731250D03*
%TD*%
%TO.C,D26*%
X204129936Y-131031250D03*
X204129936Y-127731250D03*
%TD*%
%TO.C,D3*%
X99354936Y-111981250D03*
X99354936Y-108681250D03*
%TD*%
%TO.C,D12*%
X270804936Y-111981250D03*
X270804936Y-108681250D03*
%TD*%
%TO.C,D45*%
X246992436Y-150081250D03*
X246992436Y-146781250D03*
%TD*%
%TO.C,D72*%
X304142436Y-188181250D03*
X304142436Y-184881250D03*
%TD*%
%TO.C,D2*%
X80304936Y-111981250D03*
X80304936Y-108681250D03*
%TD*%
%TO.C,D42*%
X189842436Y-150081250D03*
X189842436Y-146781250D03*
%TD*%
%TO.C,D15*%
X327954936Y-111981250D03*
X327954936Y-108681250D03*
%TD*%
%TO.C,D41*%
X170792436Y-150081250D03*
X170792436Y-146781250D03*
%TD*%
%TO.C,D4*%
X118404936Y-111981250D03*
X118404936Y-108681250D03*
%TD*%
%TO.C,D28*%
X242229936Y-131031250D03*
X242229936Y-127731250D03*
%TD*%
%TO.C,D33*%
X350179936Y-131031250D03*
X350179936Y-127731250D03*
%TD*%
%TO.C,D64*%
X320811186Y-169131250D03*
X320811186Y-165831250D03*
%TD*%
%TO.C,D37*%
X87448686Y-150081250D03*
X87448686Y-146781250D03*
%TD*%
%TO.C,D59*%
X218417436Y-169131250D03*
X218417436Y-165831250D03*
%TD*%
%TO.C,D30*%
X280329936Y-131031250D03*
X280329936Y-127731250D03*
%TD*%
%TO.C,D16*%
X349386186Y-111981250D03*
X349386186Y-108681250D03*
%TD*%
%TO.C,D25*%
X185079936Y-131031250D03*
X185079936Y-127731250D03*
%TD*%
%TO.C,D65*%
X351767436Y-173893750D03*
X351767436Y-170593750D03*
%TD*%
%TO.C,D34*%
X375579936Y-130968750D03*
X375579936Y-127668750D03*
%TD*%
%TO.C,D29*%
X261279936Y-131031250D03*
X261279936Y-127731250D03*
%TD*%
D11*
%TO.C,D1*%
X63698686Y-97631250D03*
X60398686Y-97631250D03*
%TD*%
D10*
%TO.C,D13*%
X289854936Y-111981250D03*
X289854936Y-108681250D03*
%TD*%
%TO.C,D60*%
X237467436Y-169131250D03*
X237467436Y-165831250D03*
%TD*%
%TO.C,D40*%
X151742436Y-150081250D03*
X151742436Y-146781250D03*
%TD*%
%TO.C,D32*%
X318429936Y-131031250D03*
X318429936Y-127731250D03*
%TD*%
%TO.C,D70*%
X111261186Y-188181250D03*
X111261186Y-184881250D03*
%TD*%
%TO.C,D47*%
X285092436Y-150081250D03*
X285092436Y-146781250D03*
%TD*%
%TO.C,D50*%
X375579936Y-150081250D03*
X375579936Y-146781250D03*
%TD*%
%TO.C,D51*%
X56492436Y-169131250D03*
X56492436Y-165831250D03*
%TD*%
%TO.C,D54*%
X123167436Y-169131250D03*
X123167436Y-165831250D03*
%TD*%
%TO.C,D56*%
X161267436Y-169131250D03*
X161267436Y-165831250D03*
%TD*%
%TO.C,D63*%
X294617436Y-169131250D03*
X294617436Y-165831250D03*
%TD*%
%TO.C,D68*%
X56492436Y-188181250D03*
X56492436Y-184881250D03*
%TD*%
%TO.C,D49*%
X323192436Y-150081250D03*
X323192436Y-146781250D03*
%TD*%
%TO.C,D8*%
X194604936Y-111981250D03*
X194604936Y-108681250D03*
%TD*%
%TO.C,D17*%
X376373686Y-114362500D03*
X376373686Y-111062500D03*
%TD*%
D12*
%TO.C,EC1*%
X62715436Y-100729250D03*
X62715436Y-103269250D03*
X62715436Y-105809250D03*
X62715436Y-108349250D03*
X62715436Y-110889250D03*
X62715436Y-113429250D03*
X62715436Y-115969250D03*
X62715436Y-118509250D03*
X62715436Y-121049250D03*
X62715436Y-123589250D03*
X62715436Y-126129250D03*
X62715436Y-128669250D03*
X43919436Y-128669250D03*
X43919436Y-126129250D03*
X43919436Y-123589250D03*
X43919436Y-121049250D03*
X43919436Y-118509250D03*
X43919436Y-115969250D03*
X43919436Y-113429250D03*
X43919436Y-110889250D03*
X43919436Y-108349250D03*
X43919436Y-105809250D03*
X43919436Y-103269250D03*
X43919436Y-100729250D03*
D13*
X58397436Y-130574250D03*
X55857436Y-130574250D03*
X53317436Y-130574250D03*
X50777436Y-130574250D03*
X48237436Y-130574250D03*
%TD*%
D10*
%TO.C,D75*%
X370817436Y-192943750D03*
X370817436Y-189643750D03*
%TD*%
%TO.C,D35*%
X339861186Y-150081250D03*
X339861186Y-146781250D03*
%TD*%
%TO.C,D10*%
X232704936Y-111981250D03*
X232704936Y-108681250D03*
%TD*%
%TO.C,D23*%
X146979936Y-131031250D03*
X146979936Y-127731250D03*
%TD*%
%TO.C,D67*%
X194604936Y-192943750D03*
X194604936Y-189643750D03*
%TD*%
%TO.C,D9*%
X213654936Y-111981250D03*
X213654936Y-108681250D03*
%TD*%
%TO.C,D27*%
X223179936Y-131031250D03*
X223179936Y-127731250D03*
%TD*%
M02*
