%TF.GenerationSoftware,KiCad,Pcbnew,(6.0.4)*%
%TF.CreationDate,2022-07-27T19:48:40+02:00*%
%TF.ProjectId,65MK,36354d4b-2e6b-4696-9361-645f70636258,rev?*%
%TF.SameCoordinates,Original*%
%TF.FileFunction,Paste,Bot*%
%TF.FilePolarity,Positive*%
%FSLAX46Y46*%
G04 Gerber Fmt 4.6, Leading zero omitted, Abs format (unit mm)*
G04 Created by KiCad (PCBNEW (6.0.4)) date 2022-07-27 19:48:40*
%MOMM*%
%LPD*%
G01*
G04 APERTURE LIST*
%ADD10R,1.200000X0.900000*%
%ADD11R,0.900000X1.200000*%
%ADD12R,3.250000X2.000000*%
%ADD13R,2.000000X3.250000*%
G04 APERTURE END LIST*
D10*
%TO.C,D62*%
X257175000Y-169131250D03*
X257175000Y-165831250D03*
%TD*%
%TO.C,D58*%
X180975000Y-169131250D03*
X180975000Y-165831250D03*
%TD*%
%TO.C,D69*%
X66675000Y-188181250D03*
X66675000Y-184881250D03*
%TD*%
%TO.C,D57*%
X161925000Y-169131250D03*
X161925000Y-165831250D03*
%TD*%
%TO.C,D14*%
X290512500Y-111981250D03*
X290512500Y-108681250D03*
%TD*%
%TO.C,D74*%
X333375000Y-192943750D03*
X333375000Y-189643750D03*
%TD*%
%TO.C,D39*%
X114300000Y-150081250D03*
X114300000Y-146781250D03*
%TD*%
%TO.C,D7*%
X157162500Y-111981250D03*
X157162500Y-108681250D03*
%TD*%
%TO.C,D5*%
X119062500Y-111981250D03*
X119062500Y-108681250D03*
%TD*%
%TO.C,D21*%
X90487500Y-131031250D03*
X90487500Y-127731250D03*
%TD*%
%TO.C,D44*%
X209550000Y-150081250D03*
X209550000Y-146781250D03*
%TD*%
%TO.C,D11*%
X233362500Y-111981250D03*
X233362500Y-108681250D03*
%TD*%
%TO.C,D22*%
X109537500Y-131031250D03*
X109537500Y-127731250D03*
%TD*%
%TO.C,D19*%
X38100000Y-125537500D03*
X38100000Y-122237500D03*
%TD*%
%TO.C,D46*%
X247650000Y-150081250D03*
X247650000Y-146781250D03*
%TD*%
%TO.C,D73*%
X314325000Y-192943750D03*
X314325000Y-189643750D03*
%TD*%
%TO.C,D38*%
X95250000Y-150081250D03*
X95250000Y-146781250D03*
%TD*%
%TO.C,D55*%
X123825000Y-169131250D03*
X123825000Y-165831250D03*
%TD*%
%TO.C,D71*%
X259556250Y-188181250D03*
X259556250Y-184881250D03*
%TD*%
%TO.C,D36*%
X38100000Y-150081250D03*
X38100000Y-146781250D03*
%TD*%
%TO.C,D43*%
X190500000Y-150081250D03*
X190500000Y-146781250D03*
%TD*%
%TO.C,D66*%
X357187500Y-169131250D03*
X357187500Y-165831250D03*
%TD*%
%TO.C,D52*%
X73818750Y-169131250D03*
X73818750Y-165831250D03*
%TD*%
%TO.C,D48*%
X285750000Y-150081250D03*
X285750000Y-146781250D03*
%TD*%
%TO.C,D6*%
X138112500Y-111981250D03*
X138112500Y-108681250D03*
%TD*%
%TO.C,D53*%
X85725000Y-169131250D03*
X85725000Y-165831250D03*
%TD*%
%TO.C,D61*%
X238125000Y-169131250D03*
X238125000Y-165831250D03*
%TD*%
%TO.C,D24*%
X147637500Y-131031250D03*
X147637500Y-127731250D03*
%TD*%
%TO.C,D31*%
X280987500Y-131031250D03*
X280987500Y-127731250D03*
%TD*%
%TO.C,D20*%
X66675000Y-131031250D03*
X66675000Y-127731250D03*
%TD*%
%TO.C,D26*%
X185737500Y-131031250D03*
X185737500Y-127731250D03*
%TD*%
%TO.C,D3*%
X80962500Y-111981250D03*
X80962500Y-108681250D03*
%TD*%
%TO.C,D12*%
X252412500Y-111981250D03*
X252412500Y-108681250D03*
%TD*%
%TO.C,D45*%
X228600000Y-150081250D03*
X228600000Y-146781250D03*
%TD*%
%TO.C,D72*%
X285750000Y-188181250D03*
X285750000Y-184881250D03*
%TD*%
%TO.C,D2*%
X61912500Y-111981250D03*
X61912500Y-108681250D03*
%TD*%
%TO.C,D42*%
X171450000Y-150081250D03*
X171450000Y-146781250D03*
%TD*%
%TO.C,D15*%
X309562500Y-111981250D03*
X309562500Y-108681250D03*
%TD*%
%TO.C,D41*%
X152400000Y-150081250D03*
X152400000Y-146781250D03*
%TD*%
%TO.C,D4*%
X100012500Y-111981250D03*
X100012500Y-108681250D03*
%TD*%
%TO.C,D28*%
X223837500Y-131031250D03*
X223837500Y-127731250D03*
%TD*%
%TO.C,D33*%
X331787500Y-131031250D03*
X331787500Y-127731250D03*
%TD*%
%TO.C,D64*%
X302418750Y-169131250D03*
X302418750Y-165831250D03*
%TD*%
%TO.C,D37*%
X69056250Y-150081250D03*
X69056250Y-146781250D03*
%TD*%
%TO.C,D59*%
X200025000Y-169131250D03*
X200025000Y-165831250D03*
%TD*%
%TO.C,D30*%
X261937500Y-131031250D03*
X261937500Y-127731250D03*
%TD*%
%TO.C,D16*%
X330993750Y-111981250D03*
X330993750Y-108681250D03*
%TD*%
%TO.C,D25*%
X166687500Y-131031250D03*
X166687500Y-127731250D03*
%TD*%
%TO.C,D65*%
X333375000Y-173893750D03*
X333375000Y-170593750D03*
%TD*%
%TO.C,D34*%
X357187500Y-130968750D03*
X357187500Y-127668750D03*
%TD*%
%TO.C,D29*%
X242887500Y-131031250D03*
X242887500Y-127731250D03*
%TD*%
D11*
%TO.C,D1*%
X45306250Y-97631250D03*
X42006250Y-97631250D03*
%TD*%
D10*
%TO.C,D13*%
X271462500Y-111981250D03*
X271462500Y-108681250D03*
%TD*%
%TO.C,D60*%
X219075000Y-169131250D03*
X219075000Y-165831250D03*
%TD*%
%TO.C,D40*%
X133350000Y-150081250D03*
X133350000Y-146781250D03*
%TD*%
%TO.C,D32*%
X300037500Y-131031250D03*
X300037500Y-127731250D03*
%TD*%
%TO.C,D70*%
X92868750Y-188181250D03*
X92868750Y-184881250D03*
%TD*%
%TO.C,D47*%
X266700000Y-150081250D03*
X266700000Y-146781250D03*
%TD*%
%TO.C,D50*%
X357187500Y-150081250D03*
X357187500Y-146781250D03*
%TD*%
%TO.C,D51*%
X38100000Y-169131250D03*
X38100000Y-165831250D03*
%TD*%
%TO.C,D54*%
X104775000Y-169131250D03*
X104775000Y-165831250D03*
%TD*%
%TO.C,D56*%
X142875000Y-169131250D03*
X142875000Y-165831250D03*
%TD*%
%TO.C,D63*%
X276225000Y-169131250D03*
X276225000Y-165831250D03*
%TD*%
%TO.C,D68*%
X38100000Y-188181250D03*
X38100000Y-184881250D03*
%TD*%
%TO.C,D49*%
X304800000Y-150081250D03*
X304800000Y-146781250D03*
%TD*%
%TO.C,D8*%
X176212500Y-111981250D03*
X176212500Y-108681250D03*
%TD*%
%TO.C,D17*%
X357981250Y-114362500D03*
X357981250Y-111062500D03*
%TD*%
D12*
%TO.C,EC1*%
X44323000Y-100729250D03*
X44323000Y-103269250D03*
X44323000Y-105809250D03*
X44323000Y-108349250D03*
X44323000Y-110889250D03*
X44323000Y-113429250D03*
X44323000Y-115969250D03*
X44323000Y-118509250D03*
X44323000Y-121049250D03*
X44323000Y-123589250D03*
X44323000Y-126129250D03*
X44323000Y-128669250D03*
X25527000Y-128669250D03*
X25527000Y-126129250D03*
X25527000Y-123589250D03*
X25527000Y-121049250D03*
X25527000Y-118509250D03*
X25527000Y-115969250D03*
X25527000Y-113429250D03*
X25527000Y-110889250D03*
X25527000Y-108349250D03*
X25527000Y-105809250D03*
X25527000Y-103269250D03*
X25527000Y-100729250D03*
D13*
X40005000Y-130574250D03*
X37465000Y-130574250D03*
X34925000Y-130574250D03*
X32385000Y-130574250D03*
X29845000Y-130574250D03*
%TD*%
D10*
%TO.C,D75*%
X352425000Y-192943750D03*
X352425000Y-189643750D03*
%TD*%
%TO.C,D35*%
X321468750Y-150081250D03*
X321468750Y-146781250D03*
%TD*%
%TO.C,D10*%
X214312500Y-111981250D03*
X214312500Y-108681250D03*
%TD*%
%TO.C,D23*%
X128587500Y-131031250D03*
X128587500Y-127731250D03*
%TD*%
%TO.C,D67*%
X176212500Y-192943750D03*
X176212500Y-189643750D03*
%TD*%
%TO.C,D9*%
X195262500Y-111981250D03*
X195262500Y-108681250D03*
%TD*%
%TO.C,D27*%
X204787500Y-131031250D03*
X204787500Y-127731250D03*
%TD*%
M02*
