%TF.GenerationSoftware,KiCad,Pcbnew,(6.0.4)*%
%TF.CreationDate,2022-11-05T13:03:16+01:00*%
%TF.ProjectId,Diom-65MK_Plate,44696f6d-2d36-4354-9d4b-5f506c617465,rev?*%
%TF.SameCoordinates,Original*%
%TF.FileFunction,Profile,NP*%
%FSLAX46Y46*%
G04 Gerber Fmt 4.6, Leading zero omitted, Abs format (unit mm)*
G04 Created by KiCad (PCBNEW (6.0.4)) date 2022-11-05 13:03:16*
%MOMM*%
%LPD*%
G01*
G04 APERTURE LIST*
%TA.AperFunction,Profile*%
%ADD10C,0.188976*%
%TD*%
%TA.AperFunction,Profile*%
%ADD11C,0.187437*%
%TD*%
%TA.AperFunction,Profile*%
%ADD12C,0.188999*%
%TD*%
G04 APERTURE END LIST*
D10*
X153298934Y-116785322D02*
X153298934Y-130785320D01*
D11*
X386919248Y-105283050D02*
X387489330Y-105334855D01*
D10*
X248261931Y-135835320D02*
X248261931Y-135835320D01*
X358086943Y-192697315D02*
X358086943Y-192697315D01*
D11*
X388069922Y-105413850D02*
X388651302Y-105527514D01*
D12*
X384629120Y-195782354D02*
X384692055Y-195729880D01*
D10*
X322079924Y-154885319D02*
X308079924Y-154885319D01*
D11*
X268212063Y-200252909D02*
X268056255Y-200825343D01*
D12*
X385368926Y-96053321D02*
X385352822Y-95949612D01*
D11*
X55254125Y-198384230D02*
X55440255Y-198408946D01*
D10*
X138723929Y-97735324D02*
X124723929Y-97735324D01*
D11*
X250207594Y-94216053D02*
X250172632Y-93215951D01*
D10*
X148536933Y-154885319D02*
X148536933Y-168885319D01*
X291411925Y-149835320D02*
X305411925Y-149835320D01*
D11*
X51709922Y-90361807D02*
X51805968Y-90081966D01*
X53314623Y-197650652D02*
X53434353Y-197731150D01*
D12*
X35417445Y-195034072D02*
X35453831Y-195115042D01*
D11*
X392354824Y-109766035D02*
X392369414Y-110215994D01*
D10*
X100029929Y-169635319D02*
X100029929Y-169635319D01*
D11*
X33692704Y-185148933D02*
X33122630Y-185097129D01*
D10*
X362848937Y-154885319D02*
X362848937Y-168885319D01*
D12*
X384647619Y-94670248D02*
X384582653Y-94621317D01*
D11*
X326244604Y-202773337D02*
X326562428Y-202902397D01*
X290630993Y-88795165D02*
X290821104Y-88568846D01*
X53088626Y-197479418D02*
X53199409Y-197566702D01*
D10*
X86336932Y-130785320D02*
X86336932Y-130785320D01*
D11*
X155094207Y-203916434D02*
X154672545Y-203956347D01*
D10*
X342917937Y-150585320D02*
X342917937Y-150585320D01*
X344422942Y-124785320D02*
X344422942Y-124785320D01*
D12*
X385118884Y-95237779D02*
X385077002Y-95162970D01*
D11*
X267588294Y-201904514D02*
X267433279Y-202153531D01*
D10*
X272361937Y-135835320D02*
X272361937Y-149835320D01*
D11*
X172098111Y-88156954D02*
X172347873Y-87973796D01*
D10*
X157773932Y-97735324D02*
X143773932Y-97735324D01*
D11*
X267433279Y-202153531D02*
X267261184Y-202391806D01*
D12*
X181873930Y-187997318D02*
X181873930Y-192697315D01*
D10*
X353036925Y-178697315D02*
X353036925Y-178697315D01*
X344422942Y-119760323D02*
X344422942Y-118035322D01*
X243498930Y-116785322D02*
X243498930Y-116785322D01*
X214923934Y-97735324D02*
X214923934Y-97735324D01*
D11*
X316106339Y-198384388D02*
X315919094Y-198408878D01*
D10*
X57761929Y-187935314D02*
X57761929Y-173935314D01*
X72336932Y-173935314D02*
X72336932Y-187935314D01*
D11*
X111361888Y-203213191D02*
X111633401Y-203379531D01*
D10*
X224736937Y-168885319D02*
X224736937Y-168885319D01*
X372086943Y-192697315D02*
X372086943Y-178697315D01*
D11*
X93260930Y-198136212D02*
X93016408Y-198217415D01*
D10*
X153011931Y-149835320D02*
X153011931Y-135835320D01*
D12*
X98529929Y-187935314D02*
X98529929Y-187935314D01*
D11*
X158911048Y-200252909D02*
X158755240Y-200825343D01*
D10*
X88717928Y-149835320D02*
X88717928Y-149835320D01*
D11*
X109288673Y-198520882D02*
X109340480Y-199090956D01*
D10*
X308079924Y-168885319D02*
X322079924Y-168885319D01*
D11*
X52332905Y-89033554D02*
X52505002Y-88795266D01*
D10*
X295885924Y-154885319D02*
X281886931Y-154885319D01*
X57761929Y-97735324D02*
X43761930Y-97735324D01*
D12*
X384104936Y-196075062D02*
X384189042Y-196041474D01*
D11*
X131175544Y-92666104D02*
X131123739Y-92096030D01*
D10*
X258073927Y-97735324D02*
X258073927Y-111735321D01*
D12*
X35492763Y-95239055D02*
X35534645Y-95164245D01*
D10*
X148248930Y-130785320D02*
X148248930Y-130785320D01*
D12*
X35579225Y-95092461D02*
X35626470Y-95023663D01*
D10*
X210161925Y-135835320D02*
X196161925Y-135835320D01*
X72929930Y-168885319D02*
X72929930Y-168885319D01*
D11*
X364368590Y-87216038D02*
X329368590Y-87216036D01*
X130152289Y-89033456D02*
X129980193Y-88795180D01*
X315726145Y-198428280D02*
X315527413Y-198442479D01*
X386369399Y-105250957D02*
X386919248Y-105283050D01*
X387489433Y-185097136D02*
X388070016Y-185018141D01*
D10*
X339036925Y-178697315D02*
X339036925Y-192697315D01*
X167298934Y-130785320D02*
X167298934Y-130785320D01*
X376848937Y-130785320D02*
X376848937Y-116785322D01*
D12*
X135098929Y-183397320D02*
X135098929Y-180167317D01*
D11*
X174335973Y-87270552D02*
X174757636Y-87230639D01*
D12*
X384017656Y-196105820D02*
X384104936Y-196075062D01*
D11*
X33122630Y-185097129D02*
X32542047Y-185018133D01*
D10*
X238736937Y-154885319D02*
X224736937Y-154885319D01*
X181586928Y-168885319D02*
X181586928Y-154885319D01*
X344642943Y-146860321D02*
X345342925Y-146860321D01*
D11*
X367707016Y-88355702D02*
X367478073Y-88156942D01*
X267727164Y-201645972D02*
X267588294Y-201904514D01*
D10*
X72336932Y-116785322D02*
X72336932Y-130785320D01*
D11*
X317683061Y-197884694D02*
X317548365Y-197953800D01*
X170326450Y-92096030D02*
X170405446Y-91515447D01*
X289435641Y-92666089D02*
X289487446Y-92096015D01*
D10*
X139011931Y-135835320D02*
X139011931Y-149835320D01*
D11*
X128218777Y-87530088D02*
X127876395Y-87421492D01*
X290303880Y-89282457D02*
X290458897Y-89033441D01*
X31388243Y-184748661D02*
X31108415Y-184652615D01*
X32542047Y-185018133D02*
X31960677Y-184904470D01*
D12*
X383532347Y-196215977D02*
X383532347Y-196215977D01*
D11*
X366877018Y-202076771D02*
X366648076Y-202275531D01*
X391778006Y-182804199D02*
X391926314Y-182509996D01*
D10*
X315817931Y-149835320D02*
X315817931Y-149835320D01*
X57761929Y-173935314D02*
X57761929Y-173935314D01*
D11*
X368471530Y-197766380D02*
X368419722Y-198336455D01*
X367448278Y-201399029D02*
X367276184Y-201637305D01*
D12*
X112529929Y-187935314D02*
X112529929Y-173935314D01*
D10*
X205398924Y-116785322D02*
X191398924Y-116785322D01*
X344422942Y-123060322D02*
X345342925Y-123060322D01*
X319698943Y-116785322D02*
X319698943Y-116785322D01*
X376848937Y-111735321D02*
X376848937Y-97735324D01*
D12*
X384882829Y-94893606D02*
X384827790Y-94833547D01*
D10*
X229498930Y-130785320D02*
X243498930Y-130785320D01*
X72336932Y-187935314D02*
X72336932Y-187935314D01*
X265217925Y-187935314D02*
X279217925Y-187935314D01*
X258073927Y-111735321D02*
X258073927Y-111735321D01*
D11*
X93915760Y-197829685D02*
X93710162Y-197941931D01*
D12*
X112529929Y-187935314D02*
X112529929Y-187935314D01*
D11*
X110484020Y-202391806D02*
X110674128Y-202618125D01*
X129102319Y-87973795D02*
X128830804Y-87807455D01*
X327666983Y-203161932D02*
X328088645Y-203201846D01*
D10*
X344642943Y-140535320D02*
X344642943Y-140535320D01*
X100029929Y-168885319D02*
X105386931Y-168885319D01*
D11*
X92758022Y-198287439D02*
X92485328Y-198345868D01*
D10*
X167586928Y-168885319D02*
X167586928Y-168885319D01*
X291123930Y-111735321D02*
X291123930Y-111735321D01*
X344642943Y-143560322D02*
X344642943Y-143560322D01*
D11*
X317264225Y-198080053D02*
X317114619Y-198136971D01*
D10*
X134248930Y-130785320D02*
X134248930Y-130785320D01*
D11*
X171142885Y-89282472D02*
X171297902Y-89033456D01*
X367916076Y-88568850D02*
X367707016Y-88355702D01*
D10*
X248548934Y-130785320D02*
X248548934Y-130785320D01*
X158061926Y-135835320D02*
X158061926Y-149835320D01*
D11*
X250088732Y-92096034D02*
X250009736Y-91515450D01*
D12*
X247673934Y-193447315D02*
X247673934Y-192467320D01*
D11*
X279166922Y-198390543D02*
X279466536Y-198425188D01*
X289487446Y-92096015D02*
X289566441Y-91515432D01*
X368503627Y-197216537D02*
X368471530Y-197766380D01*
D10*
X81573931Y-97735324D02*
X67573929Y-97735324D01*
D11*
X54406010Y-198187903D02*
X54564910Y-198236469D01*
X367603293Y-201150013D02*
X367448278Y-201399029D01*
D12*
X385286660Y-95658499D02*
X385258767Y-95568007D01*
D11*
X29382313Y-106877565D02*
X29183553Y-107106508D01*
X55632084Y-198428532D02*
X55829697Y-198442870D01*
X324801023Y-201637305D02*
X324991132Y-201863624D01*
D10*
X279217925Y-173935314D02*
X279217925Y-173935314D01*
X343511931Y-118035322D02*
X343511931Y-116785322D01*
X341998930Y-111735321D02*
X341998930Y-111735321D01*
X133961928Y-149835320D02*
X133961928Y-149835320D01*
X224736937Y-154885319D02*
X224736937Y-168885319D01*
X319698943Y-116785322D02*
X305698943Y-116785322D01*
X296173918Y-111735321D02*
X310173918Y-111735321D01*
X205398924Y-130785320D02*
X205398924Y-116785322D01*
D11*
X28242649Y-180215984D02*
X28242649Y-180215984D01*
D10*
X167298934Y-116785322D02*
X153298934Y-116785322D01*
D12*
X36549275Y-196078694D02*
X36717852Y-196133231D01*
X384770220Y-94776325D02*
X384710152Y-94721905D01*
D10*
X57761929Y-111735321D02*
X57761929Y-97735324D01*
D11*
X289931959Y-90081800D02*
X290041346Y-89807852D01*
X173941672Y-87334575D02*
X174335973Y-87270552D01*
D12*
X383833427Y-196158708D02*
X383927166Y-196133713D01*
D11*
X130679226Y-90081815D02*
X130569839Y-89807867D01*
D12*
X35383637Y-95482002D02*
X35417226Y-95397896D01*
D11*
X29595461Y-106668506D02*
X29382313Y-106877565D01*
X28242649Y-110215990D02*
X28242649Y-110215990D01*
X127508520Y-87334575D02*
X127114219Y-87270552D01*
X327272682Y-203097909D02*
X327666983Y-203161932D01*
D10*
X345467925Y-140535320D02*
X345467925Y-140535320D01*
D11*
X315112273Y-198454815D02*
X280112273Y-198454815D01*
X267261184Y-202391806D02*
X267071076Y-202618125D01*
D12*
X36389360Y-196014445D02*
X36549275Y-196078694D01*
D10*
X196161925Y-149835320D02*
X210161925Y-149835320D01*
D11*
X52904172Y-88355776D02*
X53133115Y-88157004D01*
D10*
X119961928Y-135835320D02*
X119961928Y-149835320D01*
X43761930Y-168885319D02*
X57761929Y-168885319D01*
D11*
X391611646Y-107356275D02*
X391777991Y-107627789D01*
X317938111Y-197735090D02*
X317812949Y-197811752D01*
D12*
X35728820Y-94894881D02*
X35783859Y-94834822D01*
X385368926Y-96053321D02*
X385368926Y-96053321D01*
X128348929Y-183397320D02*
X127523932Y-183397320D01*
D11*
X246473517Y-87334579D02*
X246079216Y-87270556D01*
X369249734Y-92096018D02*
X369170739Y-91515435D01*
X53382876Y-87973836D02*
X53654391Y-87807486D01*
D10*
X143486929Y-154885319D02*
X143486929Y-154885319D01*
D11*
X292392411Y-87530073D02*
X292734793Y-87421477D01*
D10*
X158061926Y-149835320D02*
X158061926Y-149835320D01*
D11*
X279781495Y-198446773D02*
X280112242Y-198454815D01*
X53654391Y-87807486D02*
X53948594Y-87659170D01*
X392250887Y-181481915D02*
X392314910Y-181087613D01*
D10*
X310173918Y-111735321D02*
X310173918Y-111735321D01*
D11*
X30309072Y-184280694D02*
X30060055Y-184125677D01*
D10*
X69954932Y-168885319D02*
X69954932Y-168885319D01*
X76229929Y-168885319D02*
X96729929Y-168885319D01*
D11*
X294368590Y-87216035D02*
X294368590Y-87216035D01*
D10*
X57761929Y-130785320D02*
X57761929Y-116785322D01*
X43761930Y-116785322D02*
X43761930Y-130785320D01*
X138723929Y-111735321D02*
X138723929Y-97735324D01*
X295885924Y-168885319D02*
X295885924Y-154885319D01*
D11*
X171469998Y-88795181D02*
X171660108Y-88568862D01*
D12*
X249398924Y-186197315D02*
X250223937Y-186197315D01*
D11*
X390551961Y-106306305D02*
X390790242Y-106478401D01*
D12*
X384422691Y-195924055D02*
X384494476Y-195879475D01*
D10*
X345892943Y-140310322D02*
X345892943Y-126310322D01*
X344422942Y-123060322D02*
X344422942Y-123060322D01*
X57761929Y-168885319D02*
X57761929Y-168885319D01*
D11*
X365832602Y-202773337D02*
X365514779Y-202902397D01*
D10*
X186636931Y-168885319D02*
X200636931Y-168885319D01*
X345467925Y-143335320D02*
X345467925Y-140535320D01*
X362848937Y-149835320D02*
X376848937Y-149835320D01*
D12*
X384582653Y-94621317D02*
X384515290Y-94575075D01*
D10*
X362848937Y-168885319D02*
X362848937Y-168885319D01*
X133961928Y-135835320D02*
X133961928Y-135835320D01*
D11*
X172347873Y-87973796D02*
X172619387Y-87807455D01*
D12*
X35242940Y-194377369D02*
X35242940Y-194377369D01*
X36549056Y-94353277D02*
X36717633Y-94298740D01*
X36166312Y-195899210D02*
X36238374Y-195940186D01*
D11*
X51277557Y-93216213D02*
X51309649Y-92666357D01*
X94461817Y-197437517D02*
X94291143Y-197577062D01*
D10*
X305698943Y-130785320D02*
X319698943Y-130785320D01*
X344642943Y-143560322D02*
X344642943Y-143335320D01*
D11*
X171004013Y-89541015D02*
X171142885Y-89282472D01*
X35242649Y-105215990D02*
X34242547Y-105250951D01*
X127876395Y-87421492D02*
X127508520Y-87334575D01*
D10*
X321498930Y-112485321D02*
X321498930Y-112485321D01*
X372086943Y-178697315D02*
X372086943Y-178697315D01*
X195873930Y-97735324D02*
X195873930Y-97735324D01*
X239023924Y-111735321D02*
X253023924Y-111735321D01*
D11*
X109784993Y-201105171D02*
X109894378Y-201379119D01*
D12*
X35901499Y-94723180D02*
X35964033Y-94671523D01*
D11*
X367228312Y-87973784D02*
X366956797Y-87807443D01*
X366126803Y-202625030D02*
X365832602Y-202773337D01*
D12*
X383636055Y-196199874D02*
X383736402Y-196180773D01*
D10*
X353036925Y-192697315D02*
X353036925Y-178697315D01*
D12*
X384515290Y-94575075D02*
X384445561Y-94531485D01*
D11*
X31108415Y-105779363D02*
X30834467Y-105888749D01*
D12*
X133373930Y-179247318D02*
X130073927Y-179247318D01*
D11*
X388070016Y-185018141D02*
X388651385Y-184904478D01*
X323538603Y-196216435D02*
X323573579Y-197216537D01*
X293496969Y-87270537D02*
X293918631Y-87230624D01*
D10*
X148536933Y-168885319D02*
X162536933Y-168885319D01*
X300648924Y-130785320D02*
X300648924Y-130785320D01*
X345342925Y-123060322D02*
X345342925Y-123060322D01*
X162536933Y-154885319D02*
X162536933Y-154885319D01*
X322079924Y-168885319D02*
X322079924Y-154885319D01*
X186348937Y-116785322D02*
X172348937Y-116785322D01*
D11*
X316464049Y-198320598D02*
X316287964Y-198354923D01*
X28297152Y-109344369D02*
X28257238Y-109766031D01*
D12*
X384189042Y-196041474D02*
X384270012Y-196005087D01*
D11*
X91242583Y-198455319D02*
X91242583Y-198455319D01*
D10*
X57761929Y-154885319D02*
X43761930Y-154885319D01*
D12*
X384710152Y-94721905D02*
X384647619Y-94670248D01*
D11*
X289680104Y-90934062D02*
X289835913Y-90361628D01*
X156198762Y-203656898D02*
X155856381Y-203765494D01*
D10*
X277123930Y-111735321D02*
X277123930Y-111735321D01*
D12*
X249398924Y-183397320D02*
X249398924Y-180167317D01*
D10*
X119673934Y-97735324D02*
X119673934Y-97735324D01*
D12*
X128348929Y-183397320D02*
X128348929Y-183397320D01*
D11*
X324335043Y-200891470D02*
X324473913Y-201150013D01*
D10*
X376848937Y-168885319D02*
X376848937Y-168885319D01*
D11*
X368695834Y-89807856D02*
X368572172Y-89541003D01*
X55440255Y-198408946D02*
X55632084Y-198428532D01*
X391926314Y-182509996D02*
X392055373Y-182192171D01*
D12*
X250223937Y-183397320D02*
X250223937Y-183397320D01*
D10*
X267311934Y-149835320D02*
X267311934Y-135835320D01*
D12*
X384563273Y-195832230D02*
X384629120Y-195782354D01*
D11*
X364410224Y-203161932D02*
X363988562Y-203201846D01*
D10*
X248261931Y-135835320D02*
X234261931Y-135835320D01*
D11*
X368419722Y-198336455D02*
X368340725Y-198917038D01*
X170880351Y-89807868D02*
X171004013Y-89541015D01*
X126692557Y-87230638D02*
X126242598Y-87216050D01*
X222257683Y-203852411D02*
X222651983Y-203916434D01*
D10*
X119961928Y-149835320D02*
X119961928Y-149835320D01*
X319986937Y-192697315D02*
X333986937Y-192697315D01*
D11*
X170242553Y-93215947D02*
X170274645Y-92666105D01*
X131207637Y-93215947D02*
X131175544Y-92666104D01*
X318865310Y-196896497D02*
X318779024Y-197001518D01*
D12*
X385194421Y-95396620D02*
X385158034Y-95315650D01*
D10*
X276836928Y-168885319D02*
X276836928Y-154885319D01*
X376848937Y-116785322D02*
X362848937Y-116785322D01*
X100623930Y-97735324D02*
X100623930Y-97735324D01*
X153011931Y-135835320D02*
X153011931Y-135835320D01*
X133961928Y-149835320D02*
X133961928Y-135835320D01*
D11*
X389777594Y-184543236D02*
X390044447Y-184419574D01*
D10*
X343511931Y-118035322D02*
X343511931Y-118035322D01*
D11*
X54976676Y-87334579D02*
X55370977Y-87270552D01*
D10*
X262548934Y-130785320D02*
X262548934Y-130785320D01*
X57761929Y-168885319D02*
X57761929Y-154885319D01*
D11*
X129790082Y-88568861D02*
X129581023Y-88355714D01*
X392055365Y-108239816D02*
X392163964Y-108582198D01*
D10*
X157773932Y-111735321D02*
X157773932Y-111735321D01*
X105673934Y-97735324D02*
X105673934Y-111735321D01*
X342917937Y-150585320D02*
X342917937Y-149604321D01*
D12*
X385233669Y-194909643D02*
X385288210Y-194741065D01*
D10*
X105386931Y-154885319D02*
X69954932Y-154885319D01*
D11*
X112955681Y-203852411D02*
X113349981Y-203916434D01*
D10*
X81573931Y-97735324D02*
X81573931Y-97735324D01*
D11*
X290165008Y-89541000D02*
X290303880Y-89282457D01*
D10*
X337892943Y-148585320D02*
X337892943Y-148585320D01*
D11*
X277666528Y-197935387D02*
X277883429Y-198038275D01*
X171660108Y-88568862D02*
X171869168Y-88355714D01*
X250009736Y-91515450D02*
X249896073Y-90934081D01*
X325678890Y-202458689D02*
X325950403Y-202625030D01*
X175207594Y-87216050D02*
X210207594Y-87216051D01*
D10*
X69954932Y-135835320D02*
X69954932Y-149835320D01*
X57761929Y-116785322D02*
X57761929Y-116785322D01*
D12*
X244373930Y-192467320D02*
X244373930Y-192467320D01*
X35964252Y-195760446D02*
X36029218Y-195809377D01*
D11*
X111633401Y-203379531D02*
X111927602Y-203527839D01*
X278882207Y-198343318D02*
X279166922Y-198390543D01*
X109340480Y-199090956D02*
X109419477Y-199671539D01*
D10*
X376848937Y-97735324D02*
X376848937Y-97735324D01*
D11*
X319026227Y-196678824D02*
X318947684Y-196788894D01*
D10*
X158061926Y-149835320D02*
X172061934Y-149835320D01*
D12*
X195873930Y-192697315D02*
X195873930Y-187997318D01*
D10*
X318198943Y-112485321D02*
X321498930Y-112485321D01*
D11*
X159103708Y-199090956D02*
X159024711Y-199671539D01*
D10*
X348273924Y-97735324D02*
X348273924Y-97735324D01*
X143486929Y-154885319D02*
X129486929Y-154885319D01*
X300648924Y-130785320D02*
X300648924Y-116785322D01*
X43761930Y-187935314D02*
X57761929Y-187935314D01*
D11*
X324991132Y-201863624D02*
X325200189Y-202076771D01*
D10*
X258073927Y-111735321D02*
X272073927Y-111735321D01*
X376848937Y-149835320D02*
X376848937Y-135835320D01*
X343511931Y-126310322D02*
X343511931Y-124785320D01*
X69954932Y-154885319D02*
X69954932Y-168885319D01*
X67573929Y-111735321D02*
X81573931Y-111735321D01*
X353036925Y-159647320D02*
X339036925Y-159647320D01*
X210161925Y-149835320D02*
X210161925Y-135835320D01*
D11*
X318174581Y-197571059D02*
X318058628Y-197654821D01*
X390302939Y-106151288D02*
X390551961Y-106306305D01*
X56242598Y-87216046D02*
X91242598Y-87216048D01*
X389777533Y-105888755D02*
X390044391Y-106012416D01*
D10*
X286361937Y-149835320D02*
X286361937Y-135835320D01*
D11*
X294368590Y-87216035D02*
X329368590Y-87216036D01*
X385369292Y-105215996D02*
X386369399Y-105250957D01*
X110311925Y-202153531D02*
X110484020Y-202391806D01*
D10*
X305411925Y-135835320D02*
X305411925Y-135835320D01*
D11*
X109688948Y-200825343D02*
X109784993Y-201105171D01*
D12*
X385054180Y-195292606D02*
X385095157Y-195220544D01*
D10*
X310173918Y-97735324D02*
X296173918Y-97735324D01*
D11*
X93710162Y-197941931D02*
X93492034Y-198044245D01*
X364818549Y-87230627D02*
X364368590Y-87216038D01*
D12*
X385095157Y-195220544D02*
X385169417Y-195069558D01*
D10*
X69954932Y-149835320D02*
X69954932Y-149835320D01*
X372086943Y-178697315D02*
X358086943Y-178697315D01*
D12*
X36096582Y-195855619D02*
X36166312Y-195899210D01*
D10*
X310173918Y-111735321D02*
X310173918Y-97735324D01*
D11*
X248067314Y-87973799D02*
X247795800Y-87807459D01*
D10*
X219686934Y-154885319D02*
X219686934Y-154885319D01*
X376848937Y-149835320D02*
X376848937Y-149835320D01*
X110148932Y-116785322D02*
X96148928Y-116785322D01*
D12*
X384827790Y-94833547D02*
X384770220Y-94776325D01*
D10*
X191398924Y-130785320D02*
X205398924Y-130785320D01*
X315817931Y-150585320D02*
X319117919Y-150585320D01*
D11*
X386919359Y-185148941D02*
X387489433Y-185097136D01*
D10*
X110148932Y-130785320D02*
X110148932Y-116785322D01*
D11*
X278113002Y-198130994D02*
X278355693Y-198213062D01*
D10*
X267311934Y-149835320D02*
X267311934Y-149835320D01*
D12*
X247673934Y-179247318D02*
X247673934Y-179247318D01*
D10*
X105386931Y-168885319D02*
X105386931Y-154885319D01*
X310173918Y-97735324D02*
X310173918Y-97735324D01*
D12*
X384752115Y-195674840D02*
X384809336Y-195617270D01*
D11*
X158426149Y-201645972D02*
X158287279Y-201904514D01*
D10*
X86336932Y-187935314D02*
X86336932Y-173935314D01*
D12*
X36029218Y-195809377D02*
X36096582Y-195855619D01*
D10*
X272073927Y-97735324D02*
X258073927Y-97735324D01*
D12*
X384445561Y-94531485D02*
X384373500Y-94490509D01*
D11*
X387489330Y-105334855D02*
X388069922Y-105413850D01*
X324211382Y-200624618D02*
X324335043Y-200891470D01*
X158287279Y-201904514D02*
X158132263Y-202153531D01*
D10*
X262548934Y-116785322D02*
X248548934Y-116785322D01*
D11*
X52512250Y-196892435D02*
X52598221Y-196997200D01*
D10*
X186636931Y-154885319D02*
X186636931Y-168885319D01*
D11*
X218721482Y-199671539D02*
X218835145Y-200252909D01*
X28834054Y-107627784D02*
X28685747Y-107921986D01*
D10*
X219686934Y-168885319D02*
X219686934Y-154885319D01*
D11*
X157960169Y-202391806D02*
X157770060Y-202618125D01*
X29000395Y-183075706D02*
X28834054Y-182804191D01*
X248546018Y-88355718D02*
X248317075Y-88156957D01*
D10*
X248548934Y-116785322D02*
X248548934Y-130785320D01*
D11*
X223073645Y-203956347D02*
X223523604Y-203970936D01*
D10*
X321498930Y-111735321D02*
X321498930Y-111735321D01*
D12*
X319303710Y-196216152D02*
X323538603Y-196216435D01*
D10*
X196161925Y-135835320D02*
X196161925Y-149835320D01*
D11*
X110674128Y-202618125D02*
X110883186Y-202831272D01*
D12*
X250223937Y-183397320D02*
X249398924Y-183397320D01*
D10*
X272073927Y-111735321D02*
X272073927Y-111735321D01*
X100911933Y-135835320D02*
X100911933Y-149835320D01*
D11*
X391926302Y-107921991D02*
X392055365Y-108239816D01*
X28685747Y-182509989D02*
X28556687Y-182192164D01*
D10*
X234261931Y-149835320D02*
X234261931Y-149835320D01*
D11*
X52074095Y-196215649D02*
X52205916Y-196449625D01*
X221889810Y-203765494D02*
X222257683Y-203852411D01*
X130307305Y-89282472D02*
X130152289Y-89033456D01*
X112245426Y-203656898D02*
X112587807Y-203765494D01*
X52688116Y-197099351D02*
X52782019Y-197198769D01*
D10*
X345342925Y-123060322D02*
X345342925Y-119760323D01*
X344642943Y-146860321D02*
X344642943Y-146860321D01*
X344642943Y-140310322D02*
X344642943Y-140310322D01*
D12*
X242648924Y-180167317D02*
X242648924Y-180167317D01*
D10*
X143773932Y-111735321D02*
X143773932Y-111735321D01*
X277123930Y-97735324D02*
X277123930Y-111735321D01*
X96148928Y-130785320D02*
X96148928Y-130785320D01*
X177111937Y-149835320D02*
X191111937Y-149835320D01*
X376848937Y-111735321D02*
X376848937Y-111735321D01*
D11*
X29821780Y-106478396D02*
X29595461Y-106668506D01*
D12*
X130073927Y-192467320D02*
X130073927Y-193447315D01*
X130073927Y-179247318D02*
X130073927Y-180167317D01*
D10*
X43761930Y-130785320D02*
X57761929Y-130785320D01*
X362848937Y-111735321D02*
X362848937Y-111735321D01*
X129198927Y-130785320D02*
X129198927Y-116785322D01*
D11*
X127114219Y-87270552D02*
X126692557Y-87230638D01*
D10*
X243498930Y-116785322D02*
X229498930Y-116785322D01*
D11*
X369170739Y-91515435D02*
X369057075Y-90934065D01*
X126242598Y-87216050D02*
X126242598Y-87216050D01*
D12*
X35626470Y-95023663D02*
X35676346Y-94957816D01*
D11*
X316959879Y-198189599D02*
X316799925Y-198237822D01*
X392163964Y-108582198D02*
X392250884Y-108950072D01*
D10*
X333986937Y-192697315D02*
X333986937Y-178697315D01*
D11*
X367086075Y-201863624D02*
X366877018Y-202076771D01*
X368433300Y-89282461D02*
X368278283Y-89033444D01*
X170519109Y-90934077D02*
X170674918Y-90361643D01*
D10*
X81573931Y-111735321D02*
X81573931Y-111735321D01*
X72929930Y-168885319D02*
X72929930Y-169635319D01*
X336367919Y-148585320D02*
X336367919Y-148585320D01*
X291411925Y-187935314D02*
X291411925Y-187935314D01*
D12*
X35259043Y-194481078D02*
X35278144Y-194581427D01*
D11*
X326904809Y-203010992D02*
X327272682Y-203097909D01*
X170405446Y-91515447D02*
X170519109Y-90934077D01*
X159024711Y-199671539D02*
X158911048Y-200252909D01*
X158659195Y-201105171D02*
X158549810Y-201379119D01*
D10*
X331892943Y-130785320D02*
X331892943Y-130785320D01*
X57761929Y-173935314D02*
X43761930Y-173935314D01*
D11*
X392354824Y-180665951D02*
X392369414Y-180215992D01*
X219613929Y-202153531D02*
X219786023Y-202391806D01*
X51309649Y-92666357D02*
X51361454Y-92096264D01*
D12*
X195873930Y-178697315D02*
X181873930Y-178697315D01*
D11*
X323605677Y-197766380D02*
X323657485Y-198336455D01*
X248945187Y-88795184D02*
X248755077Y-88568865D01*
X54252301Y-198134927D02*
X54406010Y-198187903D01*
X171869168Y-88355714D02*
X172098111Y-88156954D01*
D12*
X35417226Y-95397896D02*
X35453612Y-95316926D01*
X242648924Y-187997318D02*
X242648924Y-192467320D01*
D11*
X318779024Y-197001518D02*
X318688743Y-197103844D01*
X319303710Y-196216152D02*
X319172143Y-196451739D01*
D12*
X130073927Y-192467320D02*
X130073927Y-192467320D01*
X35242430Y-105215989D02*
X35242721Y-96054597D01*
X385228009Y-95480727D02*
X385194421Y-95396620D01*
D10*
X376848937Y-154885319D02*
X376848937Y-154885319D01*
D12*
X242648924Y-192467320D02*
X242648924Y-192467320D01*
D11*
X54608801Y-87421501D02*
X54976676Y-87334579D01*
D10*
X43761930Y-168885319D02*
X43761930Y-168885319D01*
X100623930Y-97735324D02*
X86623930Y-97735324D01*
X376848937Y-168885319D02*
X376848937Y-154885319D01*
X191111937Y-149835320D02*
X191111937Y-135835320D01*
D12*
X247673934Y-179247318D02*
X244373930Y-179247318D01*
D10*
X305411925Y-187935314D02*
X305411925Y-187935314D01*
D11*
X218523604Y-196970936D02*
X218558580Y-197971038D01*
D10*
X345342925Y-146860321D02*
X345342925Y-143560322D01*
D11*
X91242583Y-198455319D02*
X56242583Y-198455319D01*
X366344769Y-87530076D02*
X366002387Y-87421481D01*
D10*
X253023924Y-111735321D02*
X253023924Y-97735324D01*
D11*
X159187612Y-197971038D02*
X159155515Y-198520882D01*
X28834054Y-182804191D02*
X28685747Y-182509989D01*
D10*
X100623930Y-111735321D02*
X100623930Y-111735321D01*
X191111937Y-135835320D02*
X177111937Y-135835320D01*
X319117919Y-150585320D02*
X319117919Y-150585320D01*
X139011931Y-149835320D02*
X139011931Y-149835320D01*
X333986937Y-178697315D02*
X333986937Y-178697315D01*
D12*
X133373930Y-180167317D02*
X133373930Y-179247318D01*
X36894826Y-196178356D02*
X37079930Y-196214367D01*
X35964033Y-94671523D02*
X36028999Y-94622593D01*
D11*
X369301539Y-92666093D02*
X369249734Y-92096018D01*
D10*
X110148932Y-130785320D02*
X110148932Y-130785320D01*
D11*
X55073610Y-198354505D02*
X55254125Y-198384230D01*
X126242598Y-87216050D02*
X91242598Y-87216048D01*
D10*
X86336932Y-173935314D02*
X86336932Y-173935314D01*
X96148928Y-130785320D02*
X110148932Y-130785320D01*
X43761930Y-173935314D02*
X43761930Y-187935314D01*
D11*
X369057075Y-90934065D02*
X368901266Y-90361631D01*
D10*
X296173918Y-97735324D02*
X296173918Y-111735321D01*
X200923934Y-111735321D02*
X214923934Y-111735321D01*
X315817931Y-150585320D02*
X315817931Y-150585320D01*
D11*
X128830804Y-87807455D02*
X128536602Y-87659147D01*
D10*
X86336932Y-116785322D02*
X86336932Y-116785322D01*
D11*
X218990953Y-200825343D02*
X219086998Y-201105171D01*
D12*
X130073927Y-193447315D02*
X130073927Y-193447315D01*
X384494476Y-195879475D02*
X384563273Y-195832230D01*
X384915415Y-195494666D02*
X384964346Y-195429700D01*
D11*
X249272299Y-89282476D02*
X249117283Y-89033459D01*
D10*
X305411925Y-135835320D02*
X291411925Y-135835320D01*
X339036925Y-192697315D02*
X339036925Y-192697315D01*
D12*
X250207594Y-94216045D02*
X289368590Y-94216045D01*
D10*
X279217925Y-187935314D02*
X279217925Y-187935314D01*
D11*
X218558580Y-197971038D02*
X218590678Y-198520882D01*
D12*
X130073927Y-193447315D02*
X133373930Y-193447315D01*
D10*
X229498930Y-116785322D02*
X229498930Y-130785320D01*
X114911933Y-149835320D02*
X114911933Y-149835320D01*
D11*
X170770964Y-90081815D02*
X170880351Y-89807868D01*
X368106186Y-88795169D02*
X367916076Y-88568850D01*
D10*
X333986937Y-178697315D02*
X319986937Y-178697315D01*
D11*
X111112128Y-203030033D02*
X111361888Y-203213191D01*
D10*
X362848937Y-130785320D02*
X376848937Y-130785320D01*
X224448927Y-130785320D02*
X224448927Y-130785320D01*
D12*
X247673934Y-180167317D02*
X247673934Y-179247318D01*
D10*
X343511931Y-116785322D02*
X343511931Y-116785322D01*
X124436926Y-168885319D02*
X124436926Y-168885319D01*
X176823927Y-97735324D02*
X176823927Y-97735324D01*
D11*
X249411171Y-89541018D02*
X249272299Y-89282476D01*
D10*
X318198943Y-111735321D02*
X318198943Y-111735321D01*
X215211928Y-149835320D02*
X229211928Y-149835320D01*
D12*
X249398924Y-192467320D02*
X249398924Y-192467320D01*
X384985178Y-95022388D02*
X384935303Y-94956541D01*
D10*
X353036925Y-178697315D02*
X339036925Y-178697315D01*
X129198927Y-116785322D02*
X115198927Y-116785322D01*
X129198927Y-130785320D02*
X129198927Y-130785320D01*
D11*
X390552005Y-184125685D02*
X390790280Y-183953589D01*
D12*
X385352822Y-95949612D02*
X385333721Y-95849264D01*
D11*
X368278283Y-89033444D02*
X368106186Y-88795169D01*
D10*
X43761930Y-149835320D02*
X43761930Y-149835320D01*
D12*
X385369261Y-105215994D02*
X385368926Y-96053321D01*
D10*
X253311934Y-149835320D02*
X253311934Y-149835320D01*
D11*
X52505002Y-88795266D02*
X52695112Y-88568935D01*
D10*
X362848937Y-116785322D02*
X362848937Y-130785320D01*
X96729929Y-169635319D02*
X96729929Y-169635319D01*
D11*
X248317075Y-88156957D02*
X248067314Y-87973799D01*
D10*
X272073927Y-111735321D02*
X272073927Y-97735324D01*
D11*
X317548365Y-197953800D02*
X317408780Y-198018958D01*
X249896073Y-90934081D02*
X249740265Y-90361647D01*
X388651302Y-105527514D02*
X389223746Y-105683322D01*
D12*
X35841649Y-195654369D02*
X35901718Y-195708789D01*
D11*
X368572172Y-89541003D02*
X368433300Y-89282461D01*
D10*
X219686934Y-168885319D02*
X219686934Y-168885319D01*
D11*
X93492034Y-198044245D02*
X93260930Y-198136212D01*
D12*
X35300209Y-194678452D02*
X35325205Y-194772193D01*
D10*
X339036925Y-173647320D02*
X339036925Y-173647320D01*
X291123930Y-97735324D02*
X291123930Y-97735324D01*
D12*
X249398924Y-192467320D02*
X249398924Y-186197315D01*
D10*
X43761930Y-149835320D02*
X57761929Y-149835320D01*
X339036925Y-192697315D02*
X353036925Y-192697315D01*
X210161925Y-149835320D02*
X210161925Y-149835320D01*
D11*
X368071254Y-200070842D02*
X367975210Y-200350670D01*
X53687699Y-197881310D02*
X53821484Y-197950731D01*
D10*
X291411925Y-173935314D02*
X291411925Y-187935314D01*
D11*
X392314910Y-181087613D02*
X392354824Y-180665951D01*
X109419477Y-199671539D02*
X109533140Y-200252909D01*
D12*
X35626689Y-195408305D02*
X35676565Y-195474153D01*
D10*
X362848937Y-111735321D02*
X376848937Y-111735321D01*
X181873930Y-97735324D02*
X181873930Y-111735321D01*
X345342925Y-143560322D02*
X345342925Y-143560322D01*
D12*
X133373930Y-179247318D02*
X133373930Y-179247318D01*
D11*
X318947684Y-196788894D02*
X318865310Y-196896497D01*
X170207594Y-94216049D02*
X170242553Y-93215947D01*
X109256576Y-197971038D02*
X109288673Y-198520882D01*
D10*
X272361937Y-149835320D02*
X272361937Y-149835320D01*
D12*
X242648924Y-183397320D02*
X195873930Y-183397320D01*
D10*
X291123930Y-97735324D02*
X277123930Y-97735324D01*
X88717928Y-135835320D02*
X69954932Y-135835320D01*
D11*
X53434353Y-197731150D02*
X53558684Y-197808076D01*
D12*
X384373500Y-94490509D02*
X384222515Y-94416251D01*
X109221602Y-196970936D02*
X94911097Y-196970936D01*
D11*
X367975210Y-200350670D02*
X367865824Y-200624618D01*
D12*
X35534864Y-195267723D02*
X35579444Y-195339508D01*
D10*
X210448927Y-130785320D02*
X210448927Y-130785320D01*
X76229929Y-169635319D02*
X76229929Y-168885319D01*
X372086943Y-192697315D02*
X372086943Y-192697315D01*
D11*
X316287964Y-198354923D02*
X316106339Y-198384388D01*
X315112273Y-198454815D02*
X315112273Y-198454815D01*
D10*
X196161925Y-149835320D02*
X196161925Y-149835320D01*
D11*
X31388243Y-105683317D02*
X31108415Y-105779363D01*
D12*
X35453831Y-195115042D02*
X35492982Y-195192913D01*
D10*
X322079924Y-154885319D02*
X322079924Y-154885319D01*
D11*
X289566441Y-91515432D02*
X289680104Y-90934062D01*
D10*
X172348937Y-130785320D02*
X186348937Y-130785320D01*
D12*
X250223937Y-186197315D02*
X250223937Y-186197315D01*
D10*
X337892943Y-149604321D02*
X337892943Y-149604321D01*
D11*
X222651983Y-203916434D02*
X223073645Y-203956347D01*
X219786023Y-202391806D02*
X219976132Y-202618125D01*
X30309072Y-106151283D02*
X30060055Y-106306300D01*
D12*
X181873930Y-192697315D02*
X195873930Y-192697315D01*
D11*
X34242547Y-105250951D02*
X33692704Y-105283044D01*
X390790242Y-106478401D02*
X391016566Y-106668511D01*
D10*
X105386931Y-154885319D02*
X105386931Y-154885319D01*
X200636931Y-154885319D02*
X186636931Y-154885319D01*
D11*
X30567614Y-184419566D02*
X30309072Y-184280694D01*
X389503580Y-105779368D02*
X389777533Y-105888755D01*
D12*
X384809336Y-195617270D02*
X384863757Y-195557201D01*
D10*
X186348937Y-130785320D02*
X186348937Y-116785322D01*
D11*
X278611946Y-198283997D02*
X278882207Y-198343318D01*
X92197882Y-198392287D02*
X91895238Y-198426279D01*
D12*
X384935303Y-94956541D02*
X384882829Y-94893606D01*
D10*
X157773932Y-97735324D02*
X157773932Y-97735324D01*
X181586928Y-154885319D02*
X167586928Y-154885319D01*
X243786925Y-154885319D02*
X243786925Y-168885319D01*
D11*
X157561002Y-202831272D02*
X157332060Y-203030033D01*
X159155515Y-198520882D02*
X159103708Y-199090956D01*
X324473913Y-201150013D02*
X324628928Y-201399029D01*
X363538603Y-203216435D02*
X328538603Y-203216435D01*
D12*
X112529929Y-173935314D02*
X112529929Y-173935314D01*
D10*
X172061934Y-135835320D02*
X158061926Y-135835320D01*
D11*
X130569839Y-89807867D02*
X130446177Y-89541014D01*
D10*
X43761930Y-130785320D02*
X43761930Y-130785320D01*
X100029929Y-169635319D02*
X100029929Y-168885319D01*
D12*
X135098929Y-192467320D02*
X135098929Y-187997318D01*
D10*
X337892943Y-148585320D02*
X337892943Y-149604321D01*
D11*
X220935404Y-203379531D02*
X221229605Y-203527839D01*
D10*
X362848937Y-97735324D02*
X362848937Y-111735321D01*
D11*
X219320044Y-201645972D02*
X219458914Y-201904514D01*
D10*
X119673934Y-111735321D02*
X119673934Y-97735324D01*
X233973937Y-111735321D02*
X233973937Y-97735324D01*
D12*
X385158034Y-95315650D02*
X385118884Y-95237779D01*
D10*
X67573929Y-111735321D02*
X67573929Y-111735321D01*
D12*
X128348929Y-192467320D02*
X130073927Y-192467320D01*
D11*
X53199409Y-197566702D02*
X53314623Y-197650652D01*
D10*
X69954932Y-149835320D02*
X88717928Y-149835320D01*
X238736937Y-168885319D02*
X238736937Y-154885319D01*
X339617919Y-150585320D02*
X339617919Y-150585320D01*
X105673934Y-111735321D02*
X119673934Y-111735321D01*
X219973937Y-97735324D02*
X219973937Y-111735321D01*
D12*
X383894026Y-94297465D02*
X383717053Y-94252340D01*
D11*
X52982190Y-197388922D02*
X53088626Y-197479418D01*
D10*
X345892943Y-126310322D02*
X345892943Y-126310322D01*
X310461943Y-149835320D02*
X310461943Y-149835320D01*
D11*
X323657485Y-198336455D02*
X323736482Y-198917038D01*
D10*
X295885924Y-154885319D02*
X295885924Y-154885319D01*
D11*
X277461854Y-197822813D02*
X277666528Y-197935387D01*
X324628928Y-201399029D02*
X324801023Y-201637305D01*
D10*
X262836928Y-154885319D02*
X262836928Y-168885319D01*
D12*
X242648924Y-192467320D02*
X244373930Y-192467320D01*
D11*
X28448092Y-181849781D02*
X28361175Y-181481907D01*
X158549810Y-201379119D02*
X158426149Y-201645972D01*
X389223819Y-184748669D02*
X389503646Y-184652623D01*
X154222586Y-203970936D02*
X154222586Y-203970936D01*
D12*
X384222515Y-94416251D02*
X384062602Y-94352002D01*
X35325205Y-194772193D02*
X35353098Y-194862684D01*
X35534645Y-95164245D02*
X35579225Y-95092461D01*
D11*
X276606301Y-197131515D02*
X276756520Y-197285292D01*
D10*
X286648924Y-130785320D02*
X286648924Y-130785320D01*
D12*
X35579444Y-195339508D02*
X35626689Y-195408305D01*
X383736402Y-196180773D02*
X383833427Y-196158708D01*
X127523932Y-186197315D02*
X128348929Y-186197315D01*
D11*
X158132263Y-202153531D02*
X157960169Y-202391806D01*
X54266419Y-87530103D02*
X54608801Y-87421501D01*
D12*
X181873930Y-178697315D02*
X181873930Y-183397320D01*
D10*
X243786925Y-168885319D02*
X243786925Y-168885319D01*
D12*
X135098929Y-187997318D02*
X181873930Y-187997318D01*
D10*
X239023924Y-111735321D02*
X239023924Y-111735321D01*
D11*
X317408780Y-198018958D02*
X317264225Y-198080053D01*
D12*
X247673934Y-180167317D02*
X247673934Y-180167317D01*
X35242649Y-185215977D02*
X35242940Y-194377369D01*
D10*
X162823927Y-97735324D02*
X162823927Y-111735321D01*
X321498930Y-111735321D02*
X341998930Y-111735321D01*
D11*
X56033179Y-198451838D02*
X56242613Y-198455319D01*
D10*
X238736937Y-168885319D02*
X238736937Y-168885319D01*
X233973937Y-111735321D02*
X233973937Y-111735321D01*
X376848937Y-135835320D02*
X362848937Y-135835320D01*
X343511931Y-124785320D02*
X344422942Y-124785320D01*
D11*
X28361175Y-108950068D02*
X28297152Y-109344369D01*
D12*
X35352880Y-95569283D02*
X35383637Y-95482002D01*
D10*
X344642943Y-143335320D02*
X344642943Y-143335320D01*
X143486929Y-168885319D02*
X143486929Y-168885319D01*
X295885924Y-168885319D02*
X295885924Y-168885319D01*
X153298934Y-130785320D02*
X167298934Y-130785320D01*
X86336932Y-130785320D02*
X86336932Y-116785322D01*
D11*
X249740265Y-90361647D02*
X249644219Y-90081819D01*
D10*
X353036925Y-173647320D02*
X353036925Y-159647320D01*
X100911933Y-149835320D02*
X114911933Y-149835320D01*
D11*
X268404722Y-199090956D02*
X268325726Y-199671539D01*
D10*
X305698943Y-130785320D02*
X305698943Y-130785320D01*
X191398924Y-130785320D02*
X191398924Y-130785320D01*
X253023924Y-97735324D02*
X253023924Y-97735324D01*
D11*
X267071076Y-202618125D02*
X266862018Y-202831272D01*
D10*
X257786925Y-154885319D02*
X243786925Y-154885319D01*
D11*
X365634512Y-87334563D02*
X365240211Y-87270541D01*
X366002387Y-87421481D02*
X365634512Y-87334563D01*
D10*
X167298934Y-130785320D02*
X167298934Y-116785322D01*
X308079924Y-154885319D02*
X308079924Y-168885319D01*
X224736937Y-168885319D02*
X238736937Y-168885319D01*
D11*
X277883429Y-198038275D02*
X278113002Y-198130994D01*
D10*
X362848937Y-135835320D02*
X362848937Y-149835320D01*
X186636931Y-168885319D02*
X186636931Y-168885319D01*
X214923934Y-111735321D02*
X214923934Y-97735324D01*
X305411925Y-173935314D02*
X305411925Y-173935314D01*
D12*
X181873930Y-183397320D02*
X181873930Y-183397320D01*
D11*
X28242649Y-110215990D02*
X28242649Y-145215988D01*
D12*
X249398924Y-186197315D02*
X249398924Y-186197315D01*
D10*
X339036925Y-159647320D02*
X339036925Y-173647320D01*
X229211928Y-149835320D02*
X229211928Y-149835320D01*
D12*
X384863757Y-195557201D02*
X384915415Y-195494666D01*
D10*
X162823927Y-111735321D02*
X162823927Y-111735321D01*
X96729929Y-168885319D02*
X96729929Y-168885319D01*
D11*
X174757636Y-87230639D02*
X175207594Y-87216050D01*
D10*
X134248930Y-116785322D02*
X134248930Y-130785320D01*
D11*
X392055373Y-182192171D02*
X392163969Y-181849789D01*
D12*
X127523932Y-183397320D02*
X127523932Y-186197315D01*
X35278144Y-194581427D02*
X35300209Y-194678452D01*
D10*
X243786925Y-168885319D02*
X257786925Y-168885319D01*
X333986937Y-192697315D02*
X333986937Y-192697315D01*
D11*
X94109272Y-197707924D02*
X93915760Y-197829685D01*
X248755077Y-88568865D02*
X248546018Y-88355718D01*
D10*
X219973937Y-111735321D02*
X233973937Y-111735321D01*
D11*
X392369414Y-180215992D02*
X392369414Y-145215992D01*
X265499779Y-203656898D02*
X265157398Y-203765494D01*
X113771643Y-203956347D02*
X114221602Y-203970936D01*
D10*
X239023924Y-97735324D02*
X239023924Y-111735321D01*
D12*
X35242940Y-194377369D02*
X35259043Y-194481078D01*
D11*
X268523604Y-196970936D02*
X268488628Y-197971038D01*
D10*
X43761930Y-154885319D02*
X43761930Y-168885319D01*
D11*
X220185190Y-202831272D02*
X220414131Y-203030033D01*
D10*
X286361937Y-135835320D02*
X286361937Y-135835320D01*
X124436926Y-154885319D02*
X124436926Y-154885319D01*
X331892943Y-135835320D02*
X310461943Y-135835320D01*
X167586928Y-154885319D02*
X167586928Y-168885319D01*
X57761929Y-187935314D02*
X57761929Y-187935314D01*
D12*
X130073927Y-180167317D02*
X128348929Y-180167317D01*
D10*
X176823927Y-97735324D02*
X162823927Y-97735324D01*
D11*
X391611665Y-183075714D02*
X391778006Y-182804199D01*
D10*
X57761929Y-149835320D02*
X57761929Y-135835320D01*
X329511931Y-130785320D02*
X329511931Y-130785320D01*
X344422942Y-119760323D02*
X344422942Y-119760323D01*
D12*
X385077002Y-95162970D02*
X385032422Y-95091185D01*
D11*
X318594387Y-197203361D02*
X318495874Y-197299955D01*
X277268962Y-197701035D02*
X277461854Y-197822813D01*
D10*
X129486929Y-168885319D02*
X129486929Y-168885319D01*
X205686934Y-168885319D02*
X205686934Y-168885319D01*
X105386931Y-168885319D02*
X105386931Y-168885319D01*
D11*
X290458897Y-89033441D02*
X290630993Y-88795165D01*
X245207594Y-87216053D02*
X210207594Y-87216051D01*
D10*
X76229929Y-168885319D02*
X76229929Y-168885319D01*
D11*
X279466536Y-198425188D02*
X279781495Y-198446773D01*
D10*
X205398924Y-116785322D02*
X205398924Y-116785322D01*
D12*
X133373930Y-192467320D02*
X135098929Y-192467320D01*
D10*
X57761929Y-111735321D02*
X57761929Y-111735321D01*
D11*
X391428484Y-107106513D02*
X391611646Y-107356275D01*
D10*
X286648924Y-116785322D02*
X286648924Y-130785320D01*
D11*
X52598221Y-196997200D02*
X52688116Y-197099351D01*
D12*
X35277925Y-95850540D02*
X35299990Y-95753514D01*
D11*
X390790280Y-183953589D02*
X391016599Y-183763478D01*
D10*
X177111937Y-149835320D02*
X177111937Y-149835320D01*
D11*
X292074586Y-87659132D02*
X292392411Y-87530073D01*
D12*
X128348929Y-180167317D02*
X128348929Y-183397320D01*
D10*
X214923934Y-111735321D02*
X214923934Y-111735321D01*
D11*
X247795800Y-87807459D02*
X247501598Y-87659151D01*
D10*
X243498930Y-130785320D02*
X243498930Y-116785322D01*
D11*
X369333631Y-93215936D02*
X369301539Y-92666093D01*
X94771351Y-197134038D02*
X94621738Y-197289704D01*
X28257238Y-109766031D02*
X28242649Y-110215990D01*
D10*
X339617919Y-149604321D02*
X339617919Y-150585320D01*
D11*
X319172143Y-196451739D02*
X319026227Y-196678824D01*
D10*
X229211928Y-149835320D02*
X229211928Y-135835320D01*
X310461943Y-135835320D02*
X310461943Y-149835320D01*
D12*
X35299990Y-95753514D02*
X35324986Y-95659774D01*
D11*
X318688743Y-197103844D02*
X318594387Y-197203361D01*
D10*
X362848937Y-168885319D02*
X376848937Y-168885319D01*
D11*
X364804524Y-203097909D02*
X364410224Y-203161932D01*
X268488628Y-197971038D02*
X268456530Y-198520882D01*
X94621738Y-197289704D02*
X94461817Y-197437517D01*
D12*
X159222586Y-196970936D02*
X218523589Y-196970936D01*
D10*
X343511931Y-124785320D02*
X343511931Y-124785320D01*
D11*
X30834467Y-105888749D02*
X30567614Y-106012411D01*
D10*
X195873930Y-97735324D02*
X181873930Y-97735324D01*
X88717928Y-149835320D02*
X88717928Y-135835320D01*
X281598937Y-130785320D02*
X281598937Y-116785322D01*
D11*
X390044391Y-106012416D02*
X390302939Y-106151288D01*
X110156909Y-201904514D02*
X110311925Y-202153531D01*
D12*
X385333721Y-95849264D02*
X385311656Y-95752239D01*
D10*
X253023924Y-111735321D02*
X253023924Y-111735321D01*
D11*
X172619387Y-87807455D02*
X172913590Y-87659148D01*
D10*
X342917937Y-149604321D02*
X344642943Y-149604321D01*
D11*
X52782019Y-197198769D02*
X52880015Y-197295332D01*
X293918631Y-87230624D02*
X294368590Y-87216035D01*
D10*
X153011931Y-135835320D02*
X139011931Y-135835320D01*
D11*
X51242598Y-94216327D02*
X51277557Y-93216213D01*
X131123739Y-92096030D02*
X131044744Y-91515447D01*
X156810787Y-203379531D02*
X156516586Y-203527839D01*
D10*
X353036925Y-192697315D02*
X353036925Y-192697315D01*
D11*
X28257238Y-180665943D02*
X28242649Y-180215984D01*
X385369414Y-185215992D02*
X386369516Y-185181034D01*
X392163969Y-181849789D02*
X392250887Y-181481915D01*
X130446177Y-89541014D02*
X130307305Y-89282472D01*
D12*
X35676346Y-94957816D02*
X35728820Y-94894881D01*
D10*
X262548934Y-116785322D02*
X262548934Y-116785322D01*
X86623930Y-97735324D02*
X86623930Y-111735321D01*
D11*
X29000395Y-107356270D02*
X28834054Y-107627784D01*
D10*
X148536933Y-168885319D02*
X148536933Y-168885319D01*
X344422942Y-118035322D02*
X344422942Y-118035322D01*
D12*
X36028999Y-94622593D02*
X36096363Y-94576351D01*
X385169417Y-195069558D02*
X385233669Y-194909643D01*
D10*
X119961928Y-149835320D02*
X133961928Y-149835320D01*
X124723929Y-97735324D02*
X124723929Y-111735321D01*
X234261931Y-135835320D02*
X234261931Y-149835320D01*
D11*
X291780383Y-87807440D02*
X292074586Y-87659132D01*
D12*
X130073927Y-179247318D02*
X130073927Y-179247318D01*
D10*
X291123930Y-111735321D02*
X291123930Y-97735324D01*
D11*
X110883186Y-202831272D02*
X111112128Y-203030033D01*
D10*
X342917937Y-149604321D02*
X342917937Y-149604321D01*
D12*
X384062602Y-94352002D02*
X383894026Y-94297465D01*
D10*
X376848937Y-135835320D02*
X376848937Y-135835320D01*
X279217925Y-187935314D02*
X279217925Y-173935314D01*
D11*
X34242547Y-185181026D02*
X33692704Y-185148933D01*
D10*
X72336932Y-130785320D02*
X86336932Y-130785320D01*
D11*
X318393123Y-197393512D02*
X318286053Y-197483918D01*
X316799925Y-198237822D02*
X316634676Y-198281526D01*
X51440449Y-91515660D02*
X51554113Y-90934266D01*
D10*
X358086943Y-178697315D02*
X358086943Y-192697315D01*
X229211928Y-135835320D02*
X229211928Y-135835320D01*
X343511931Y-116785322D02*
X329511931Y-116785322D01*
D12*
X133373930Y-193447315D02*
X133373930Y-193447315D01*
D11*
X386369516Y-185181034D02*
X386919359Y-185148941D01*
D12*
X384270012Y-196005087D02*
X384347883Y-195965937D01*
X36238374Y-195940186D02*
X36389360Y-196014445D01*
X52074070Y-196215649D02*
X37079930Y-196214352D01*
D10*
X253311934Y-135835320D02*
X253311934Y-149835320D01*
X224448927Y-116785322D02*
X224448927Y-116785322D01*
D12*
X135098929Y-180167317D02*
X135098929Y-180167317D01*
D10*
X143773932Y-111735321D02*
X157773932Y-111735321D01*
X43761930Y-111735321D02*
X57761929Y-111735321D01*
X310461943Y-135835320D02*
X310461943Y-135835320D01*
D12*
X127523932Y-186197315D02*
X127523932Y-186197315D01*
D11*
X318495874Y-197299955D02*
X318393123Y-197393512D01*
D10*
X248261931Y-149835320D02*
X248261931Y-135835320D01*
X172348937Y-116785322D02*
X172348937Y-130785320D01*
D12*
X384347883Y-195965937D02*
X384422691Y-195924055D01*
D11*
X368901266Y-90361631D02*
X368805220Y-90081804D01*
D10*
X341998930Y-112485321D02*
X341998930Y-112485321D01*
D12*
X135098929Y-192467320D02*
X135098929Y-192467320D01*
D10*
X286361937Y-149835320D02*
X286361937Y-149835320D01*
X67573929Y-97735324D02*
X67573929Y-111735321D01*
X162536933Y-168885319D02*
X162536933Y-168885319D01*
D12*
X244373930Y-179247318D02*
X244373930Y-179247318D01*
D11*
X366648076Y-202275531D02*
X366398316Y-202458689D01*
D12*
X385333338Y-194564091D02*
X385369353Y-194378986D01*
D11*
X392250884Y-108950072D02*
X392314909Y-109344373D01*
X391229718Y-106877570D02*
X391428484Y-107106513D01*
D10*
X345467925Y-140535320D02*
X344642943Y-140535320D01*
X124436926Y-168885319D02*
X124436926Y-154885319D01*
X110436926Y-154885319D02*
X110436926Y-168885319D01*
D11*
X390044447Y-184419574D02*
X390302989Y-184280702D01*
X317114619Y-198136971D02*
X316959879Y-198189599D01*
D10*
X267598937Y-130785320D02*
X281598937Y-130785320D01*
D12*
X385288210Y-194741065D02*
X385333338Y-194564091D01*
X368538603Y-196216427D02*
X383532347Y-196215977D01*
D11*
X53821484Y-197950731D02*
X53960123Y-198016221D01*
X324101997Y-200350670D02*
X324211382Y-200624618D01*
X292734793Y-87421477D02*
X293102667Y-87334560D01*
D10*
X100911933Y-149835320D02*
X100911933Y-149835320D01*
X296173918Y-111735321D02*
X296173918Y-111735321D01*
D11*
X391016599Y-183763478D02*
X391229747Y-183554419D01*
D12*
X35841430Y-94777601D02*
X35901499Y-94723180D01*
D11*
X35242649Y-185215984D02*
X34242547Y-185181026D01*
D12*
X244373930Y-180167317D02*
X242648924Y-180167317D01*
X36166093Y-94532760D02*
X36238155Y-94491784D01*
D10*
X267311934Y-135835320D02*
X253311934Y-135835320D01*
X344422942Y-124785320D02*
X344422942Y-123060322D01*
X205686934Y-154885319D02*
X205686934Y-168885319D01*
D11*
X54103701Y-198077660D02*
X54252301Y-198134927D01*
D10*
X257786925Y-168885319D02*
X257786925Y-168885319D01*
X376848937Y-154885319D02*
X362848937Y-154885319D01*
X124436926Y-154885319D02*
X110436926Y-154885319D01*
X331892943Y-130785320D02*
X331892943Y-135835320D01*
X267598937Y-130785320D02*
X267598937Y-130785320D01*
X210448927Y-130785320D02*
X224448927Y-130785320D01*
X57761929Y-135835320D02*
X57761929Y-135835320D01*
X300648924Y-116785322D02*
X286648924Y-116785322D01*
X181873930Y-111735321D02*
X181873930Y-111735321D01*
X345892943Y-126310322D02*
X343511931Y-126310322D01*
X114911933Y-135835320D02*
X100911933Y-135835320D01*
D11*
X249117283Y-89033459D02*
X248945187Y-88795184D01*
D10*
X277123930Y-111735321D02*
X291123930Y-111735321D01*
D11*
X113349981Y-203916434D02*
X113771643Y-203956347D01*
D10*
X315817931Y-149835320D02*
X315817931Y-150585320D01*
X162536933Y-168885319D02*
X162536933Y-154885319D01*
X339617919Y-149604321D02*
X339617919Y-149604321D01*
X57761929Y-116785322D02*
X43761930Y-116785322D01*
D12*
X35383856Y-194949965D02*
X35417445Y-195034072D01*
D11*
X30060055Y-106306300D02*
X29821780Y-106478396D01*
X365172398Y-203010992D02*
X364804524Y-203097909D01*
X250172632Y-93215951D02*
X250140538Y-92666108D01*
X263973563Y-203956347D02*
X263523604Y-203970936D01*
D10*
X186348937Y-116785322D02*
X186348937Y-116785322D01*
D12*
X242648924Y-187997318D02*
X242648924Y-187997318D01*
D11*
X245657553Y-87230642D02*
X245207594Y-87216053D01*
D10*
X305411925Y-149835320D02*
X305411925Y-135835320D01*
D12*
X195873930Y-178697315D02*
X195873930Y-178697315D01*
D10*
X76229929Y-169635319D02*
X76229929Y-169635319D01*
D11*
X221229605Y-203527839D02*
X221547428Y-203656898D01*
D10*
X100623930Y-111735321D02*
X100623930Y-97735324D01*
X167298934Y-116785322D02*
X167298934Y-116785322D01*
X262836928Y-168885319D02*
X276836928Y-168885319D01*
D12*
X35784078Y-195597147D02*
X35841649Y-195654369D01*
D11*
X130775271Y-90361643D02*
X130679226Y-90081815D01*
X30567614Y-106012411D02*
X30309072Y-106151283D01*
D10*
X115198927Y-130785320D02*
X115198927Y-130785320D01*
X157773932Y-111735321D02*
X157773932Y-97735324D01*
D11*
X170274645Y-92666105D02*
X170326450Y-92096030D01*
D10*
X310461943Y-149835320D02*
X315817931Y-149835320D01*
D11*
X92485328Y-198345868D02*
X92197882Y-198392287D01*
D10*
X353036925Y-173647320D02*
X353036925Y-173647320D01*
D12*
X36717852Y-196133231D02*
X36894826Y-196178356D01*
D11*
X247501598Y-87659151D02*
X247183773Y-87530092D01*
D10*
X72929930Y-169635319D02*
X72929930Y-169635319D01*
D11*
X363988562Y-203201846D02*
X363538603Y-203216435D01*
D10*
X291411925Y-135835320D02*
X291411925Y-149835320D01*
D11*
X277087406Y-197570534D02*
X277268962Y-197701035D01*
D10*
X262836928Y-168885319D02*
X262836928Y-168885319D01*
X129198927Y-116785322D02*
X129198927Y-116785322D01*
D11*
X390302989Y-184280702D02*
X390552005Y-184125685D01*
D10*
X114911933Y-149835320D02*
X114911933Y-135835320D01*
D12*
X195873930Y-183397320D02*
X195873930Y-178697315D01*
D11*
X31108415Y-184652615D02*
X30834467Y-184543228D01*
D10*
X300648924Y-116785322D02*
X300648924Y-116785322D01*
D11*
X51554113Y-90934266D02*
X51709922Y-90361807D01*
D10*
X86336932Y-187935314D02*
X86336932Y-187935314D01*
D11*
X218590678Y-198520882D02*
X218642486Y-199090956D01*
D12*
X128348929Y-192467320D02*
X128348929Y-192467320D01*
D10*
X224448927Y-116785322D02*
X210448927Y-116785322D01*
X148248930Y-130785320D02*
X148248930Y-116785322D01*
D11*
X263523604Y-203970936D02*
X263523604Y-203970936D01*
D10*
X345342925Y-146860321D02*
X345342925Y-146860321D01*
D11*
X91576953Y-198447428D02*
X91242583Y-198455319D01*
D10*
X337892943Y-149604321D02*
X339617919Y-149604321D01*
D11*
X157770060Y-202618125D02*
X157561002Y-202831272D01*
X54729087Y-198280504D02*
X54898626Y-198319890D01*
X53948594Y-87659170D02*
X54266419Y-87530103D01*
D10*
X205398924Y-130785320D02*
X205398924Y-130785320D01*
X195873930Y-111735321D02*
X195873930Y-97735324D01*
D11*
X268456530Y-198520882D02*
X268404722Y-199090956D01*
X157332060Y-203030033D02*
X157082300Y-203213191D01*
D10*
X281886931Y-154885319D02*
X281886931Y-168885319D01*
X229498930Y-130785320D02*
X229498930Y-130785320D01*
D12*
X195873930Y-187997318D02*
X242648924Y-187997318D01*
D11*
X33122630Y-105334849D02*
X32542047Y-105413845D01*
D10*
X167586928Y-168885319D02*
X181586928Y-168885319D01*
X339036925Y-173647320D02*
X353036925Y-173647320D01*
X319117919Y-149835320D02*
X336367919Y-149835320D01*
D11*
X28361175Y-181481907D02*
X28297152Y-181087606D01*
D10*
X265217925Y-173935314D02*
X265217925Y-187935314D01*
D11*
X368805220Y-90081804D02*
X368695834Y-89807856D01*
D10*
X343511931Y-126310322D02*
X343511931Y-126310322D01*
D12*
X35729039Y-195537088D02*
X35784078Y-195597147D01*
D11*
X391016566Y-106668511D02*
X391229718Y-106877570D01*
D10*
X329511931Y-116785322D02*
X329511931Y-130785320D01*
X72336932Y-187935314D02*
X86336932Y-187935314D01*
D11*
X54898626Y-198319890D02*
X55073610Y-198354505D01*
X290041346Y-89807852D02*
X290165008Y-89541000D01*
D12*
X130073927Y-180167317D02*
X130073927Y-180167317D01*
D10*
X345342925Y-119760323D02*
X344422942Y-119760323D01*
X96148928Y-116785322D02*
X96148928Y-130785320D01*
D11*
X266383317Y-203213191D02*
X266111804Y-203379531D01*
D12*
X35242721Y-96054597D02*
X35242721Y-96054597D01*
D10*
X272073927Y-97735324D02*
X272073927Y-97735324D01*
X281886931Y-168885319D02*
X281886931Y-168885319D01*
D11*
X219196383Y-201379119D02*
X219320044Y-201645972D01*
D10*
X362848937Y-149835320D02*
X362848937Y-149835320D01*
D11*
X94911101Y-196970936D02*
X94771351Y-197134038D01*
X154672545Y-203956347D02*
X154222586Y-203970936D01*
D10*
X358086943Y-192697315D02*
X372086943Y-192697315D01*
D11*
X389503646Y-184652623D02*
X389777594Y-184543236D01*
D12*
X181873930Y-183397320D02*
X135098929Y-183397320D01*
D11*
X157082300Y-203213191D02*
X156810787Y-203379531D01*
D10*
X115198927Y-116785322D02*
X115198927Y-130785320D01*
X110148932Y-116785322D02*
X110148932Y-116785322D01*
D12*
X36096363Y-94576351D02*
X36166093Y-94532760D01*
D10*
X110436926Y-168885319D02*
X110436926Y-168885319D01*
X86336932Y-173935314D02*
X72336932Y-173935314D01*
D12*
X385032422Y-95091185D02*
X384985178Y-95022388D01*
X385369414Y-185215984D02*
X385369322Y-194378986D01*
X268523604Y-196970936D02*
X276465651Y-196970936D01*
D11*
X170674918Y-90361643D02*
X170770964Y-90081815D01*
D12*
X35324986Y-95659774D02*
X35352880Y-95569283D01*
D11*
X369368590Y-94216037D02*
X369333631Y-93215936D01*
X325950403Y-202625030D02*
X326244604Y-202773337D01*
D10*
X172061934Y-149835320D02*
X172061934Y-149835320D01*
D11*
X267850825Y-201379119D02*
X267727164Y-201645972D01*
D10*
X224448927Y-130785320D02*
X224448927Y-116785322D01*
X341998930Y-112485321D02*
X345298918Y-112485321D01*
D11*
X291508868Y-87973781D02*
X291780383Y-87807440D01*
D10*
X191398924Y-116785322D02*
X191398924Y-130785320D01*
D11*
X367478073Y-88156942D02*
X367228312Y-87973784D01*
D10*
X319117919Y-149835320D02*
X319117919Y-149835320D01*
D12*
X112529929Y-173935314D02*
X98529929Y-173935314D01*
D10*
X115198927Y-130785320D02*
X129198927Y-130785320D01*
D12*
X133373930Y-192467320D02*
X133373930Y-192467320D01*
D10*
X362848937Y-130785320D02*
X362848937Y-130785320D01*
X345342925Y-143560322D02*
X344642943Y-143560322D01*
D11*
X173231415Y-87530088D02*
X173573798Y-87421492D01*
X392314909Y-109344373D02*
X392354824Y-109766035D01*
D10*
X72336932Y-130785320D02*
X72336932Y-130785320D01*
X181586928Y-168885319D02*
X181586928Y-168885319D01*
X134248930Y-130785320D02*
X148248930Y-130785320D01*
X345467925Y-143335320D02*
X345467925Y-143335320D01*
D12*
X195873930Y-192697315D02*
X195873930Y-192697315D01*
D11*
X315919094Y-198408878D02*
X315726145Y-198428280D01*
X29382313Y-183554411D02*
X29183553Y-183325468D01*
D10*
X291411925Y-149835320D02*
X291411925Y-149835320D01*
D11*
X265157398Y-203765494D02*
X264789525Y-203852411D01*
X109221602Y-196970936D02*
X109256576Y-197971038D01*
D10*
X138723929Y-111735321D02*
X138723929Y-111735321D01*
D11*
X391229747Y-183554419D02*
X391428507Y-183325475D01*
X325429130Y-202275531D02*
X325678890Y-202458689D01*
D10*
X229211928Y-135835320D02*
X215211928Y-135835320D01*
D11*
X28556687Y-108239811D02*
X28448092Y-108582194D01*
X323573579Y-197216537D02*
X323605677Y-197766380D01*
X365240211Y-87270541D02*
X364818549Y-87230627D01*
X51805968Y-90081966D02*
X51915354Y-89808005D01*
D10*
X257786925Y-154885319D02*
X257786925Y-154885319D01*
X345342925Y-119760323D02*
X345342925Y-119760323D01*
D11*
X392369414Y-110215994D02*
X392369414Y-145215992D01*
X52177888Y-89282583D02*
X52332905Y-89033554D01*
D10*
X210161925Y-135835320D02*
X210161925Y-135835320D01*
D11*
X175207594Y-87216050D02*
X175207594Y-87216050D01*
D10*
X162536933Y-154885319D02*
X148536933Y-154885319D01*
D11*
X28448092Y-108582194D02*
X28361175Y-108950068D01*
D10*
X172348937Y-130785320D02*
X172348937Y-130785320D01*
D11*
X158755240Y-200825343D02*
X158659195Y-201105171D01*
D12*
X36238155Y-94491784D02*
X36389141Y-94417526D01*
D11*
X268056255Y-200825343D02*
X267960210Y-201105171D01*
X246841391Y-87421496D02*
X246473517Y-87334579D01*
D12*
X127523932Y-183397320D02*
X127523932Y-183397320D01*
D11*
X263523604Y-203970936D02*
X223523604Y-203970936D01*
D10*
X72929930Y-169635319D02*
X76229929Y-169635319D01*
D11*
X392369414Y-110215994D02*
X392369414Y-110215994D01*
D10*
X344642943Y-140535320D02*
X344642943Y-140310322D01*
X257786925Y-168885319D02*
X257786925Y-154885319D01*
D12*
X131242598Y-94216043D02*
X170207594Y-94216045D01*
D10*
X153011931Y-149835320D02*
X153011931Y-149835320D01*
X276836928Y-154885319D02*
X262836928Y-154885319D01*
D12*
X98529929Y-187935314D02*
X112529929Y-187935314D01*
D10*
X138723929Y-97735324D02*
X138723929Y-97735324D01*
X319117919Y-150585320D02*
X319117919Y-149835320D01*
X172061934Y-135835320D02*
X172061934Y-135835320D01*
X281598937Y-116785322D02*
X267598937Y-116785322D01*
D11*
X30060055Y-184125677D02*
X29821780Y-183953581D01*
D10*
X315223937Y-97735324D02*
X315223937Y-111735321D01*
X319698943Y-130785320D02*
X319698943Y-130785320D01*
D12*
X51242598Y-94216323D02*
X37079711Y-94217615D01*
X128348929Y-186197315D02*
X128348929Y-192467320D01*
D10*
X86623930Y-111735321D02*
X86623930Y-111735321D01*
X200636931Y-168885319D02*
X200636931Y-168885319D01*
D11*
X366398316Y-202458689D02*
X366126803Y-202625030D01*
X365514779Y-202902397D02*
X365172398Y-203010992D01*
X110018039Y-201645972D02*
X110156909Y-201904514D01*
D10*
X143486929Y-168885319D02*
X143486929Y-154885319D01*
D11*
X109894378Y-201379119D02*
X110018039Y-201645972D01*
X249534833Y-89807871D02*
X249411171Y-89541018D01*
D10*
X57761929Y-135835320D02*
X43761930Y-135835320D01*
D12*
X133373930Y-180167317D02*
X133373930Y-180167317D01*
D11*
X323736482Y-198917038D02*
X323850145Y-199498408D01*
D10*
X191111937Y-149835320D02*
X191111937Y-149835320D01*
X96729929Y-169635319D02*
X100029929Y-169635319D01*
X329511931Y-130785320D02*
X331892943Y-130785320D01*
X162823927Y-111735321D02*
X176823927Y-111735321D01*
D11*
X31960677Y-105527508D02*
X31388243Y-105683317D01*
D12*
X384964346Y-195429700D02*
X385010589Y-195362336D01*
D11*
X266633077Y-203030033D02*
X266383317Y-203213191D01*
D10*
X286648924Y-130785320D02*
X300648924Y-130785320D01*
D11*
X131044744Y-91515447D02*
X130931080Y-90934077D01*
X367742164Y-200891470D02*
X367603293Y-201150013D01*
D12*
X133373930Y-193447315D02*
X133373930Y-192467320D01*
D10*
X233973937Y-97735324D02*
X233973937Y-97735324D01*
X176823927Y-111735321D02*
X176823927Y-111735321D01*
D11*
X112587807Y-203765494D02*
X112955681Y-203852411D01*
D10*
X253023924Y-97735324D02*
X239023924Y-97735324D01*
X267598937Y-116785322D02*
X267598937Y-130785320D01*
D11*
X364368590Y-87216038D02*
X364368590Y-87216038D01*
X268325726Y-199671539D02*
X268212063Y-200252909D01*
D10*
X177111937Y-135835320D02*
X177111937Y-149835320D01*
D12*
X383927166Y-196133713D02*
X384017656Y-196105820D01*
D11*
X266111804Y-203379531D02*
X265817603Y-203527839D01*
D10*
X200636931Y-154885319D02*
X200636931Y-154885319D01*
X305698943Y-116785322D02*
X305698943Y-130785320D01*
X305411925Y-173935314D02*
X291411925Y-173935314D01*
D11*
X267960210Y-201105171D02*
X267850825Y-201379119D01*
D12*
X35242721Y-96054597D02*
X35258825Y-95950888D01*
D10*
X200923934Y-97735324D02*
X200923934Y-111735321D01*
D11*
X29183553Y-107106508D02*
X29000395Y-107356270D01*
D10*
X214923934Y-97735324D02*
X200923934Y-97735324D01*
X319698943Y-130785320D02*
X319698943Y-116785322D01*
D11*
X55829697Y-198442870D02*
X56033179Y-198451838D01*
D10*
X305411925Y-187935314D02*
X305411925Y-173935314D01*
X318198943Y-111735321D02*
X318198943Y-112485321D01*
D11*
X51915354Y-89808005D02*
X52039016Y-89541139D01*
D10*
X321498930Y-112485321D02*
X321498930Y-111735321D01*
D11*
X388651385Y-184904478D02*
X389223819Y-184748669D01*
D10*
X341998930Y-111735321D02*
X341998930Y-112485321D01*
X348273924Y-111735321D02*
X348273924Y-111735321D01*
X96729929Y-168885319D02*
X96729929Y-169635319D01*
X345892943Y-140310322D02*
X345892943Y-140310322D01*
X376848937Y-130785320D02*
X376848937Y-130785320D01*
X172061934Y-149835320D02*
X172061934Y-135835320D01*
D12*
X244373930Y-179247318D02*
X244373930Y-180167317D01*
D11*
X290821104Y-88568846D02*
X291030163Y-88355699D01*
X94291143Y-197577062D02*
X94109272Y-197707924D01*
D12*
X36389141Y-94417526D02*
X36549056Y-94353277D01*
X384692055Y-195729880D02*
X384752115Y-195674840D01*
D11*
X30834467Y-184543228D02*
X30567614Y-184419566D01*
D10*
X129486929Y-154885319D02*
X129486929Y-168885319D01*
D11*
X366662594Y-87659136D02*
X366344769Y-87530076D01*
D10*
X195873930Y-111735321D02*
X195873930Y-111735321D01*
D11*
X55370977Y-87270552D02*
X55792639Y-87230636D01*
D10*
X148248930Y-116785322D02*
X148248930Y-116785322D01*
D11*
X52205916Y-196449625D02*
X52351742Y-196675540D01*
X325200189Y-202076771D02*
X325429130Y-202275531D01*
D12*
X244373930Y-193447315D02*
X247673934Y-193447315D01*
D10*
X248261931Y-149835320D02*
X248261931Y-149835320D01*
D11*
X52039016Y-89541139D02*
X52177888Y-89282583D01*
D12*
X135098929Y-183397320D02*
X135098929Y-183397320D01*
D11*
X276916740Y-197431792D02*
X277087406Y-197570534D01*
D10*
X344642943Y-140310322D02*
X345892943Y-140310322D01*
D11*
X317812949Y-197811752D02*
X317683061Y-197884694D01*
D12*
X385311656Y-95752239D02*
X385286660Y-95658499D01*
D10*
X291411925Y-187935314D02*
X305411925Y-187935314D01*
X119673934Y-97735324D02*
X105673934Y-97735324D01*
X176823927Y-111735321D02*
X176823927Y-97735324D01*
D11*
X318058628Y-197654821D02*
X317938111Y-197735090D01*
D10*
X281598937Y-130785320D02*
X281598937Y-130785320D01*
X279217925Y-173935314D02*
X265217925Y-173935314D01*
D11*
X52695112Y-88568935D02*
X52904172Y-88355776D01*
X28556687Y-182192164D02*
X28448092Y-181849781D01*
D10*
X308079924Y-168885319D02*
X308079924Y-168885319D01*
X100029929Y-168885319D02*
X100029929Y-168885319D01*
D12*
X383532347Y-196215977D02*
X383636055Y-196199874D01*
D11*
X276756520Y-197285292D02*
X276916740Y-197431792D01*
D10*
X219973937Y-111735321D02*
X219973937Y-111735321D01*
D11*
X246079216Y-87270556D02*
X245657553Y-87230642D01*
D10*
X57761929Y-149835320D02*
X57761929Y-149835320D01*
D11*
X52351742Y-196675540D02*
X52512250Y-196892435D01*
D12*
X128348929Y-186197315D02*
X128348929Y-186197315D01*
D11*
X129352080Y-88156953D02*
X129102319Y-87973795D01*
X173573798Y-87421492D02*
X173941672Y-87334575D01*
D12*
X383717053Y-94252340D02*
X383531951Y-94216330D01*
D10*
X344422942Y-118035322D02*
X343511931Y-118035322D01*
D11*
X155488507Y-203852411D02*
X155094207Y-203916434D01*
X52880015Y-197295332D02*
X52982190Y-197388922D01*
X368227062Y-199498408D02*
X368071254Y-200070842D01*
X54564910Y-198236469D02*
X54729087Y-198280504D01*
D12*
X195873930Y-187997318D02*
X195873930Y-187997318D01*
D11*
X91895238Y-198426279D02*
X91576953Y-198447428D01*
X28297152Y-181087606D02*
X28257238Y-180665943D01*
D10*
X200923934Y-111735321D02*
X200923934Y-111735321D01*
X124723929Y-111735321D02*
X138723929Y-111735321D01*
X57761929Y-154885319D02*
X57761929Y-154885319D01*
D11*
X220663891Y-203213191D02*
X220935404Y-203379531D01*
D10*
X262548934Y-130785320D02*
X262548934Y-116785322D01*
D11*
X278355693Y-198213062D02*
X278611946Y-198283997D01*
D10*
X119673934Y-111735321D02*
X119673934Y-111735321D01*
X348273924Y-97735324D02*
X315223937Y-97735324D01*
D11*
X218642486Y-199090956D02*
X218721482Y-199671539D01*
D12*
X244373930Y-193447315D02*
X244373930Y-193447315D01*
D11*
X56242598Y-87216046D02*
X56242598Y-87216046D01*
X28242649Y-180215984D02*
X28242649Y-145215988D01*
D12*
X181873930Y-192697315D02*
X181873930Y-192697315D01*
D11*
X367276184Y-201637305D02*
X367086075Y-201863624D01*
X249644219Y-90081819D02*
X249534833Y-89807871D01*
X315322816Y-198451362D02*
X315112273Y-198454815D01*
X289368590Y-94216034D02*
X289403548Y-93215932D01*
D10*
X215211928Y-149835320D02*
X215211928Y-149835320D01*
D11*
X33692704Y-105283044D02*
X33122630Y-105334849D01*
D12*
X36717633Y-94298740D02*
X36894607Y-94253615D01*
D10*
X181586928Y-154885319D02*
X181586928Y-154885319D01*
D11*
X363538603Y-203216435D02*
X363538603Y-203216435D01*
X291259107Y-88156939D02*
X291508868Y-87973781D01*
D10*
X57761929Y-97735324D02*
X57761929Y-97735324D01*
X43761930Y-97735324D02*
X43761930Y-111735321D01*
D11*
X391777991Y-107627789D02*
X391926302Y-107921991D01*
D10*
X348273924Y-111735321D02*
X348273924Y-97735324D01*
D11*
X316634676Y-198281526D02*
X316464049Y-198320598D01*
X368340725Y-198917038D02*
X368227062Y-199498408D01*
D10*
X286361937Y-135835320D02*
X272361937Y-135835320D01*
X345298918Y-111735321D02*
X348273924Y-111735321D01*
X143773932Y-97735324D02*
X143773932Y-111735321D01*
D11*
X289835913Y-90361628D02*
X289931959Y-90081800D01*
D10*
X215211928Y-135835320D02*
X215211928Y-149835320D01*
D12*
X244373930Y-180167317D02*
X244373930Y-180167317D01*
D10*
X88717928Y-135835320D02*
X88717928Y-135835320D01*
D12*
X135098929Y-187997318D02*
X135098929Y-187997318D01*
X181873930Y-187997318D02*
X181873930Y-187997318D01*
D11*
X109533140Y-200252909D02*
X109688948Y-200825343D01*
D10*
X57761929Y-130785320D02*
X57761929Y-130785320D01*
X124723929Y-111735321D02*
X124723929Y-111735321D01*
X248548934Y-130785320D02*
X262548934Y-130785320D01*
X345298918Y-111735321D02*
X345298918Y-111735321D01*
D12*
X35492982Y-195192913D02*
X35534864Y-195267723D01*
D10*
X344642943Y-149604321D02*
X344642943Y-149604321D01*
X336367919Y-149835320D02*
X336367919Y-149835320D01*
D11*
X326562428Y-202902397D02*
X326904809Y-203010992D01*
D10*
X43761930Y-111735321D02*
X43761930Y-111735321D01*
X315223937Y-111735321D02*
X318198943Y-111735321D01*
X43761930Y-187935314D02*
X43761930Y-187935314D01*
X353036925Y-159647320D02*
X353036925Y-159647320D01*
X238736937Y-154885319D02*
X238736937Y-154885319D01*
D11*
X29183553Y-183325468D02*
X29000395Y-183075706D01*
X29821780Y-183953581D02*
X29595461Y-183763470D01*
X219458914Y-201904514D02*
X219613929Y-202153531D01*
X324005952Y-200070842D02*
X324101997Y-200350670D01*
D10*
X181873930Y-111735321D02*
X195873930Y-111735321D01*
D11*
X31960677Y-184904470D02*
X31388243Y-184748661D01*
X245207594Y-87216053D02*
X245207594Y-87216053D01*
X328088645Y-203201846D02*
X328538603Y-203216435D01*
X156516586Y-203527839D02*
X156198762Y-203656898D01*
D10*
X86623930Y-111735321D02*
X100623930Y-111735321D01*
D11*
X276465636Y-196970944D02*
X276606301Y-197131515D01*
X247183773Y-87530092D02*
X246841391Y-87421496D01*
D12*
X385258767Y-95568007D02*
X385228009Y-95480727D01*
X249398924Y-180167317D02*
X249398924Y-180167317D01*
X385010589Y-195362336D02*
X385054180Y-195292606D01*
D11*
X32542047Y-105413845D02*
X31960677Y-105527508D01*
D12*
X128348929Y-180167317D02*
X128348929Y-180167317D01*
D11*
X53558684Y-197808076D02*
X53687699Y-197881310D01*
D10*
X210448927Y-116785322D02*
X210448927Y-130785320D01*
X69954932Y-168885319D02*
X72929930Y-168885319D01*
D11*
X53133115Y-88157004D02*
X53382876Y-87973836D01*
D10*
X267311934Y-135835320D02*
X267311934Y-135835320D01*
D11*
X155856381Y-203765494D02*
X155488507Y-203852411D01*
D10*
X336367919Y-149835320D02*
X336367919Y-148585320D01*
D12*
X195873930Y-183397320D02*
X195873930Y-183397320D01*
D10*
X253311934Y-149835320D02*
X267311934Y-149835320D01*
D12*
X247673934Y-192467320D02*
X249398924Y-192467320D01*
X35453612Y-95316926D02*
X35492763Y-95239055D01*
D10*
X376848937Y-116785322D02*
X376848937Y-116785322D01*
X319986937Y-178697315D02*
X319986937Y-192697315D01*
D12*
X247673934Y-192467320D02*
X247673934Y-192467320D01*
D10*
X86336932Y-116785322D02*
X72336932Y-116785322D01*
D12*
X35258825Y-95950888D02*
X35277925Y-95850540D01*
D10*
X344642943Y-143335320D02*
X345467925Y-143335320D01*
X345298918Y-112485321D02*
X345298918Y-112485321D01*
D12*
X369368590Y-94216048D02*
X383531951Y-94216339D01*
X36894607Y-94253615D02*
X37079711Y-94217605D01*
D10*
X233973937Y-97735324D02*
X219973937Y-97735324D01*
X339617919Y-150585320D02*
X342917937Y-150585320D01*
D11*
X391428507Y-183325475D02*
X391611665Y-183075714D01*
D12*
X249398924Y-183397320D02*
X249398924Y-183397320D01*
D10*
X305411925Y-149835320D02*
X305411925Y-149835320D01*
D11*
X266862018Y-202831272D02*
X266633077Y-203030033D01*
D12*
X35783859Y-94834822D02*
X35841430Y-94777601D01*
D10*
X191111937Y-135835320D02*
X191111937Y-135835320D01*
D11*
X53960123Y-198016221D02*
X54103701Y-198077660D01*
D10*
X281886931Y-168885319D02*
X295885924Y-168885319D01*
D11*
X55792639Y-87230636D02*
X56242598Y-87216046D01*
D10*
X276836928Y-154885319D02*
X276836928Y-154885319D01*
X114911933Y-135835320D02*
X114911933Y-135835320D01*
X336367919Y-148585320D02*
X337892943Y-148585320D01*
X272361937Y-149835320D02*
X286361937Y-149835320D01*
X205686934Y-168885319D02*
X219686934Y-168885319D01*
X376848937Y-97735324D02*
X362848937Y-97735324D01*
D11*
X51361454Y-92096264D02*
X51440449Y-91515660D01*
D10*
X129486929Y-168885319D02*
X143486929Y-168885319D01*
D12*
X35353098Y-194862684D02*
X35383856Y-194949965D01*
D10*
X344642943Y-149604321D02*
X344642943Y-146860321D01*
D11*
X128536602Y-87659147D02*
X128218777Y-87530088D01*
X389223746Y-105683322D02*
X389503580Y-105779368D01*
D10*
X322079924Y-168885319D02*
X322079924Y-168885319D01*
D12*
X242648924Y-183397320D02*
X242648924Y-183397320D01*
X98529929Y-173935314D02*
X98529929Y-187935314D01*
D11*
X289403548Y-93215932D02*
X289435641Y-92666089D01*
D10*
X243498930Y-130785320D02*
X243498930Y-130785320D01*
X281598937Y-116785322D02*
X281598937Y-116785322D01*
X234261931Y-149835320D02*
X248261931Y-149835320D01*
D11*
X315527413Y-198442479D02*
X315322816Y-198451362D01*
X221547428Y-203656898D02*
X221889810Y-203765494D01*
X219976132Y-202618125D02*
X220185190Y-202831272D01*
D10*
X139011931Y-149835320D02*
X153011931Y-149835320D01*
D11*
X219086998Y-201105171D02*
X219196383Y-201379119D01*
D10*
X105673934Y-111735321D02*
X105673934Y-111735321D01*
D11*
X154222586Y-203970936D02*
X114221602Y-203970936D01*
D10*
X265217925Y-187935314D02*
X265217925Y-187935314D01*
D12*
X35676565Y-195474153D02*
X35729039Y-195537088D01*
D11*
X367865824Y-200624618D02*
X367742164Y-200891470D01*
D10*
X153298934Y-130785320D02*
X153298934Y-130785320D01*
X81573931Y-111735321D02*
X81573931Y-97735324D01*
D11*
X129581023Y-88355714D02*
X129352080Y-88156953D01*
D10*
X345298918Y-112485321D02*
X345298918Y-111735321D01*
D11*
X392369414Y-180215992D02*
X392369414Y-180215992D01*
X28685747Y-107921986D02*
X28556687Y-108239811D01*
D10*
X200636931Y-168885319D02*
X200636931Y-154885319D01*
D11*
X111927602Y-203527839D02*
X112245426Y-203656898D01*
X323850145Y-199498408D02*
X324005952Y-200070842D01*
X264789525Y-203852411D02*
X264395225Y-203916434D01*
D12*
X247673934Y-193447315D02*
X247673934Y-193447315D01*
D10*
X319986937Y-192697315D02*
X319986937Y-192697315D01*
D12*
X244373930Y-192467320D02*
X244373930Y-193447315D01*
D11*
X293102667Y-87334560D02*
X293496969Y-87270537D01*
X220414131Y-203030033D02*
X220663891Y-203213191D01*
X265817603Y-203527839D02*
X265499779Y-203656898D01*
D10*
X331892943Y-135835320D02*
X331892943Y-135835320D01*
D11*
X291030163Y-88355699D02*
X291259107Y-88156939D01*
D12*
X135098929Y-180167317D02*
X133373930Y-180167317D01*
D10*
X133961928Y-135835320D02*
X119961928Y-135835320D01*
D11*
X172913590Y-87659148D02*
X173231415Y-87530088D01*
D10*
X315223937Y-111735321D02*
X315223937Y-111735321D01*
X318198943Y-112485321D02*
X318198943Y-112485321D01*
D12*
X249398924Y-180167317D02*
X247673934Y-180167317D01*
D11*
X264395225Y-203916434D02*
X263973563Y-203956347D01*
D10*
X148248930Y-116785322D02*
X134248930Y-116785322D01*
D11*
X159222586Y-196970936D02*
X159187612Y-197971038D01*
X250140538Y-92666108D02*
X250088732Y-92096034D01*
X366956797Y-87807443D02*
X366662594Y-87659136D01*
D12*
X35901718Y-195708789D02*
X35964252Y-195760446D01*
D11*
X29595461Y-183763470D02*
X29382313Y-183554411D01*
X131242598Y-94216049D02*
X131207637Y-93215947D01*
X130931080Y-90934077D02*
X130775271Y-90361643D01*
D10*
X276836928Y-168885319D02*
X276836928Y-168885319D01*
D12*
X242648924Y-180167317D02*
X242648924Y-183397320D01*
D11*
X368538603Y-196216435D02*
X368503627Y-197216537D01*
D10*
X110436926Y-168885319D02*
X124436926Y-168885319D01*
X43761930Y-135835320D02*
X43761930Y-149835320D01*
X219686934Y-154885319D02*
X205686934Y-154885319D01*
D11*
X93016408Y-198217415D02*
X92758022Y-198287439D01*
D12*
X250223937Y-186197315D02*
X250223937Y-183397320D01*
D11*
X129980193Y-88795180D02*
X129790082Y-88568861D01*
X318286053Y-197483918D02*
X318174581Y-197571059D01*
X171297902Y-89033456D02*
X171469998Y-88795181D01*
X218835145Y-200252909D02*
X218990953Y-200825343D01*
D10*
X186348937Y-130785320D02*
X186348937Y-130785320D01*
M02*
