<?xml version="1.0" encoding="UTF-8" standalone="no"?>
<!-- Generated by SVGo -->

<svg
   width="348.140mm"
   height="110.014mm"
   viewBox="0.000 0.000 348.140 110.014"
   version="1.1"
   id="svg146"
   sodipodi:docname="Diom-65MK_Plate.svg"
   inkscape:version="1.1.2 (b8e25be833, 2022-02-05)"
   xmlns:inkscape="http://www.inkscape.org/namespaces/inkscape"
   xmlns:sodipodi="http://sodipodi.sourceforge.net/DTD/sodipodi-0.dtd"
   xmlns="http://www.w3.org/2000/svg"
   xmlns:svg="http://www.w3.org/2000/svg">
  <defs
     id="defs150" />
  <sodipodi:namedview
     id="namedview148"
     pagecolor="#ffffff"
     bordercolor="#999999"
     borderopacity="1"
     inkscape:pageshadow="0"
     inkscape:pageopacity="0"
     inkscape:pagecheckerboard="0"
     inkscape:document-units="mm"
     showgrid="false"
     inkscape:zoom="0.90514947"
     inkscape:cx="642.98773"
     inkscape:cy="302.71243"
     inkscape:window-width="1920"
     inkscape:window-height="1017"
     inkscape:window-x="-8"
     inkscape:window-y="-8"
     inkscape:window-maximized="1"
     inkscape:current-layer="svg146" />
  <polygon
     points="341.139,5.001 341.296,5.007 341.452,5.025 341.606,5.056 341.757,5.098 341.904,5.153 342.047,5.218 342.184,5.295 342.315,5.382 342.438,5.480 342.553,5.586 342.660,5.702 342.757,5.825 342.844,5.956 342.921,6.093 342.987,6.235 343.041,6.382 343.084,6.534 343.114,6.688 343.133,6.844 343.139,7.001 343.139,103.014 343.133,103.171 343.114,103.327 343.084,103.481 343.041,103.632 342.987,103.779 342.921,103.922 342.844,104.059 342.757,104.190 342.660,104.313 342.553,104.428 342.438,104.535 342.315,104.632 342.184,104.719 342.047,104.796 341.904,104.862 341.757,104.916 341.606,104.959 341.452,104.989 341.296,105.008 341.139,105.014 7.001,105.014 6.844,105.008 6.688,104.989 6.534,104.959 6.382,104.916 6.235,104.862 6.093,104.796 5.956,104.719 5.825,104.632 5.702,104.535 5.586,104.428 5.480,104.313 5.382,104.190 5.295,104.059 5.218,103.922 5.153,103.779 5.098,103.632 5.056,103.481 5.025,103.327 5.007,103.171 5.000,103.014 5.001,7.001 5.007,6.844 5.025,6.688 5.056,6.534 5.098,6.382 5.153,6.235 5.218,6.093 5.295,5.956 5.382,5.825 5.480,5.702 5.586,5.586 5.702,5.480 5.825,5.382 5.956,5.295 6.093,5.218 6.235,5.153 6.382,5.098 6.534,5.056 6.688,5.025 6.844,5.007 7.001,5.000"
     style="fill:none;stroke-width:0.050000mm;stroke:black"
     id="polygon2" />
  <polygon
     points="145.638,88.488 145.638,93.188 98.863,93.188 98.863,89.958 97.138,89.958 97.138,89.038 93.838,89.038 93.838,89.958 92.113,89.958 92.113,93.188 91.288,93.188 91.288,95.988 92.113,95.988 92.113,102.258 93.838,102.258 93.838,103.238 97.138,103.238 97.138,102.258 98.863,102.258 98.863,97.788 145.638,97.788 145.638,102.488 159.638,102.488 159.638,97.788 206.413,97.788 206.413,102.258 208.138,102.258 208.138,103.238 211.438,103.238 211.438,102.258 213.163,102.258 213.163,95.988 213.988,95.988 213.988,93.188 213.163,93.188 213.163,89.958 211.438,89.958 211.438,89.038 208.138,89.038 208.138,89.958 206.413,89.958 206.413,93.188 159.638,93.188 159.638,88.488"
     style="fill:none;stroke-width:0.050000mm;stroke:black"
     id="polygon4" />
  <polygon
     points="283.751,88.488 283.751,102.488 297.751,102.488 297.751,88.488"
     style="fill:none;stroke-width:0.050000mm;stroke:black"
     id="polygon6" />
  <polygon
     points="302.801,88.488 302.801,102.488 316.801,102.488 316.801,88.488"
     style="fill:none;stroke-width:0.050000mm;stroke:black"
     id="polygon8" />
  <polygon
     points="321.851,88.488 321.851,102.488 335.851,102.488 335.851,88.488"
     style="fill:none;stroke-width:0.050000mm;stroke:black"
     id="polygon10" />
  <polygon
     points="7.526,83.726 7.526,97.726 21.526,97.726 21.526,83.726"
     style="fill:none;stroke-width:0.050000mm;stroke:black"
     id="polygon12" />
  <polygon
     points="36.101,83.726 36.101,97.726 50.101,97.726 50.101,83.726"
     style="fill:none;stroke-width:0.050000mm;stroke:black"
     id="polygon14" />
  <polygon
     points="62.294,83.726 62.294,97.726 76.294,97.726 76.294,83.726"
     style="fill:none;stroke-width:0.050000mm;stroke:black"
     id="polygon16" />
  <polygon
     points="228.982,83.726 228.982,97.726 242.982,97.726 242.982,83.726"
     style="fill:none;stroke-width:0.050000mm;stroke:black"
     id="polygon18" />
  <polygon
     points="255.176,83.726 255.176,97.726 269.176,97.726 269.176,83.726"
     style="fill:none;stroke-width:0.050000mm;stroke:black"
     id="polygon20" />
  <polygon
     points="302.801,69.438 302.801,83.438 316.801,83.438 316.801,69.438"
     style="fill:none;stroke-width:0.050000mm;stroke:black"
     id="polygon22" />
  <polygon
     points="33.719,64.676 33.719,78.676 36.694,78.676 36.694,79.426 39.994,79.426 39.994,78.676 60.494,78.676 60.494,79.426 63.794,79.426 63.794,78.676 69.151,78.676 69.151,64.676"
     style="fill:none;stroke-width:0.050000mm;stroke:black"
     id="polygon24" />
  <polygon
     points="7.526,64.676 7.526,78.676 21.526,78.676 21.526,64.676"
     style="fill:none;stroke-width:0.050000mm;stroke:black"
     id="polygon26" />
  <polygon
     points="74.201,64.676 74.201,78.676 88.201,78.676 88.201,64.676"
     style="fill:none;stroke-width:0.050000mm;stroke:black"
     id="polygon28" />
  <polygon
     points="93.251,64.676 93.251,78.676 107.251,78.676 107.251,64.676"
     style="fill:none;stroke-width:0.050000mm;stroke:black"
     id="polygon30" />
  <polygon
     points="112.301,64.676 112.301,78.676 126.301,78.676 126.301,64.676"
     style="fill:none;stroke-width:0.050000mm;stroke:black"
     id="polygon32" />
  <polygon
     points="131.351,64.676 131.351,78.676 145.351,78.676 145.351,64.676"
     style="fill:none;stroke-width:0.050000mm;stroke:black"
     id="polygon34" />
  <polygon
     points="150.401,64.676 150.401,78.676 164.401,78.676 164.401,64.676"
     style="fill:none;stroke-width:0.050000mm;stroke:black"
     id="polygon36" />
  <polygon
     points="169.451,64.676 169.451,78.676 183.451,78.676 183.451,64.676"
     style="fill:none;stroke-width:0.050000mm;stroke:black"
     id="polygon38" />
  <polygon
     points="188.501,64.676 188.501,78.676 202.501,78.676 202.501,64.676"
     style="fill:none;stroke-width:0.050000mm;stroke:black"
     id="polygon40" />
  <polygon
     points="207.551,64.676 207.551,78.676 221.551,78.676 221.551,64.676"
     style="fill:none;stroke-width:0.050000mm;stroke:black"
     id="polygon42" />
  <polygon
     points="226.601,64.676 226.601,78.676 240.601,78.676 240.601,64.676"
     style="fill:none;stroke-width:0.050000mm;stroke:black"
     id="polygon44" />
  <polygon
     points="245.651,64.676 245.651,78.676 259.650,78.676 259.650,64.676"
     style="fill:none;stroke-width:0.050000mm;stroke:black"
     id="polygon46" />
  <polygon
     points="271.844,64.676 271.844,78.676 285.844,78.676 285.844,64.676"
     style="fill:none;stroke-width:0.050000mm;stroke:black"
     id="polygon48" />
  <polygon
     points="326.613,64.676 326.613,78.676 340.613,78.676 340.613,64.676"
     style="fill:none;stroke-width:0.050000mm;stroke:black"
     id="polygon50" />
  <polygon
     points="293.276,26.576 293.276,40.576 295.657,40.576 295.657,45.626 274.226,45.626 274.226,59.626 279.582,59.626 279.582,60.376 282.882,60.376 282.882,59.626 300.132,59.626 300.132,58.376 301.657,58.376 301.657,59.395 303.382,59.395 303.382,60.376 306.682,60.376 306.682,59.395 308.407,59.395 308.407,56.651 309.107,56.651 309.107,53.351 308.407,53.351 308.407,53.126 309.232,53.126 309.232,50.326 308.407,50.326 308.407,50.101 309.657,50.101 309.657,36.101 307.276,36.101 307.276,34.576 308.187,34.576 308.187,32.851 309.107,32.851 309.107,29.551 308.187,29.551 308.187,27.826 307.276,27.826 307.276,26.576"
     style="fill:none;stroke-width:0.050000mm;stroke:black"
     id="polygon52" />
  <polygon
     points="7.526,45.626 7.526,59.626 21.526,59.626 21.526,45.626"
     style="fill:none;stroke-width:0.050000mm;stroke:black"
     id="polygon54" />
  <polygon
     points="33.719,45.626 33.719,59.626 52.482,59.626 52.482,45.626"
     style="fill:none;stroke-width:0.050000mm;stroke:black"
     id="polygon56" />
  <polygon
     points="64.676,45.626 64.676,59.626 78.676,59.626 78.676,45.626"
     style="fill:none;stroke-width:0.050000mm;stroke:black"
     id="polygon58" />
  <polygon
     points="83.726,45.626 83.726,59.626 97.726,59.626 97.726,45.626"
     style="fill:none;stroke-width:0.050000mm;stroke:black"
     id="polygon60" />
  <polygon
     points="102.776,45.626 102.776,59.626 116.776,59.626 116.776,45.626"
     style="fill:none;stroke-width:0.050000mm;stroke:black"
     id="polygon62" />
  <polygon
     points="121.826,45.626 121.826,59.626 135.826,59.626 135.826,45.626"
     style="fill:none;stroke-width:0.050000mm;stroke:black"
     id="polygon64" />
  <polygon
     points="140.876,45.626 140.876,59.626 154.876,59.626 154.876,45.626"
     style="fill:none;stroke-width:0.050000mm;stroke:black"
     id="polygon66" />
  <polygon
     points="159.926,45.626 159.926,59.626 173.926,59.626 173.926,45.626"
     style="fill:none;stroke-width:0.050000mm;stroke:black"
     id="polygon68" />
  <polygon
     points="178.976,45.626 178.976,59.626 192.976,59.626 192.976,45.626"
     style="fill:none;stroke-width:0.050000mm;stroke:black"
     id="polygon70" />
  <polygon
     points="198.026,45.626 198.026,59.626 212.026,59.626 212.026,45.626"
     style="fill:none;stroke-width:0.050000mm;stroke:black"
     id="polygon72" />
  <polygon
     points="217.076,45.626 217.076,59.626 231.076,59.626 231.076,45.626"
     style="fill:none;stroke-width:0.050000mm;stroke:black"
     id="polygon74" />
  <polygon
     points="236.126,45.626 236.126,59.626 250.126,59.626 250.126,45.626"
     style="fill:none;stroke-width:0.050000mm;stroke:black"
     id="polygon76" />
  <polygon
     points="255.176,45.626 255.176,59.626 269.176,59.626 269.176,45.626"
     style="fill:none;stroke-width:0.050000mm;stroke:black"
     id="polygon78" />
  <polygon
     points="326.613,45.626 326.613,59.626 340.613,59.626 340.613,45.626"
     style="fill:none;stroke-width:0.050000mm;stroke:black"
     id="polygon80" />
  <polygon
     points="7.526,26.576 7.526,40.576 21.526,40.576 21.526,26.576"
     style="fill:none;stroke-width:0.050000mm;stroke:black"
     id="polygon84" />
  <polygon
     points="36.101,26.576 36.101,40.576 50.101,40.576 50.101,26.576"
     style="fill:none;stroke-width:0.050000mm;stroke:black"
     id="polygon86" />
  <polygon
     points="59.913,26.576 59.913,40.576 73.913,40.576 73.913,26.576"
     style="fill:none;stroke-width:0.050000mm;stroke:black"
     id="polygon88" />
  <polygon
     points="78.963,26.576 78.963,40.576 92.963,40.576 92.963,26.576"
     style="fill:none;stroke-width:0.050000mm;stroke:black"
     id="polygon90" />
  <polygon
     points="98.013,26.576 98.013,40.576 112.013,40.576 112.013,26.576"
     style="fill:none;stroke-width:0.050000mm;stroke:black"
     id="polygon92" />
  <polygon
     points="117.063,26.576 117.063,40.576 131.063,40.576 131.063,26.576"
     style="fill:none;stroke-width:0.050000mm;stroke:black"
     id="polygon94" />
  <polygon
     points="136.113,26.576 136.113,40.576 150.113,40.576 150.113,26.576"
     style="fill:none;stroke-width:0.050000mm;stroke:black"
     id="polygon96" />
  <polygon
     points="155.163,26.576 155.163,40.576 169.163,40.576 169.163,26.576"
     style="fill:none;stroke-width:0.050000mm;stroke:black"
     id="polygon98" />
  <polygon
     points="174.213,26.576 174.213,40.576 188.213,40.576 188.213,26.576"
     style="fill:none;stroke-width:0.050000mm;stroke:black"
     id="polygon100" />
  <polygon
     points="193.263,26.576 193.263,40.576 207.263,40.576 207.263,26.576"
     style="fill:none;stroke-width:0.050000mm;stroke:black"
     id="polygon102" />
  <polygon
     points="212.313,26.576 212.313,40.576 226.313,40.576 226.313,26.576"
     style="fill:none;stroke-width:0.050000mm;stroke:black"
     id="polygon104" />
  <polygon
     points="231.363,26.576 231.363,40.576 245.363,40.576 245.363,26.576"
     style="fill:none;stroke-width:0.050000mm;stroke:black"
     id="polygon106" />
  <polygon
     points="250.413,26.576 250.413,40.576 264.413,40.576 264.413,26.576"
     style="fill:none;stroke-width:0.050000mm;stroke:black"
     id="polygon108" />
  <polygon
     points="269.463,26.576 269.463,40.576 283.463,40.576 283.463,26.576"
     style="fill:none;stroke-width:0.050000mm;stroke:black"
     id="polygon110" />
  <polygon
     points="326.613,26.576 326.613,40.576 340.613,40.576 340.613,26.576"
     style="fill:none;stroke-width:0.050000mm;stroke:black"
     id="polygon112" />
  <polygon
     points="278.988,7.526 278.988,21.526 281.963,21.526 281.963,22.276 285.263,22.276 285.263,21.526 305.763,21.526 305.763,22.276 309.063,22.276 309.063,21.526 312.038,21.526 312.038,7.526"
     style="fill:none;stroke-width:0.050000mm;stroke:black"
     id="polygon114" />
  <polygon
     points="7.526,7.526 7.526,21.526 21.526,21.526 21.526,7.526"
     style="fill:none;stroke-width:0.050000mm;stroke:black"
     id="polygon116" />
  <polygon
     points="31.338,7.526 31.338,21.526 45.338,21.526 45.338,7.526"
     style="fill:none;stroke-width:0.050000mm;stroke:black"
     id="polygon118" />
  <polygon
     points="50.388,7.526 50.388,21.526 64.388,21.526 64.388,7.526"
     style="fill:none;stroke-width:0.050000mm;stroke:black"
     id="polygon120" />
  <polygon
     points="69.438,7.526 69.438,21.526 83.438,21.526 83.438,7.526"
     style="fill:none;stroke-width:0.050000mm;stroke:black"
     id="polygon122" />
  <polygon
     points="88.488,7.526 88.488,21.526 102.488,21.526 102.488,7.526"
     style="fill:none;stroke-width:0.050000mm;stroke:black"
     id="polygon124" />
  <polygon
     points="107.538,7.526 107.538,21.526 121.538,21.526 121.538,7.526"
     style="fill:none;stroke-width:0.050000mm;stroke:black"
     id="polygon126" />
  <polygon
     points="126.588,7.526 126.588,21.526 140.588,21.526 140.588,7.526"
     style="fill:none;stroke-width:0.050000mm;stroke:black"
     id="polygon128" />
  <polygon
     points="145.638,7.526 145.638,21.526 159.638,21.526 159.638,7.526"
     style="fill:none;stroke-width:0.050000mm;stroke:black"
     id="polygon130" />
  <polygon
     points="164.688,7.526 164.688,21.526 178.688,21.526 178.688,7.526"
     style="fill:none;stroke-width:0.050000mm;stroke:black"
     id="polygon132" />
  <polygon
     points="183.738,7.526 183.738,21.526 197.738,21.526 197.738,7.526"
     style="fill:none;stroke-width:0.050000mm;stroke:black"
     id="polygon134" />
  <polygon
     points="202.788,7.526 202.788,21.526 216.788,21.526 216.788,7.526"
     style="fill:none;stroke-width:0.050000mm;stroke:black"
     id="polygon136" />
  <polygon
     points="221.838,7.526 221.838,21.526 235.838,21.526 235.838,7.526"
     style="fill:none;stroke-width:0.050000mm;stroke:black"
     id="polygon138" />
  <polygon
     points="240.888,7.526 240.888,21.526 254.888,21.526 254.888,7.526"
     style="fill:none;stroke-width:0.050000mm;stroke:black"
     id="polygon140" />
  <polygon
     points="259.938,7.526 259.938,21.526 273.938,21.526 273.938,7.526"
     style="fill:none;stroke-width:0.050000mm;stroke:black"
     id="polygon142" />
  <polygon
     points="326.613,7.526 326.613,21.526 340.613,21.526 340.613,7.526"
     style="fill:none;stroke-width:0.050000mm;stroke:black"
     id="polygon144" />
</svg>
